<?xml version="1.0" encoding="utf-8" standalone="no"?>
<!DOCTYPE svg PUBLIC "-//W3C//DTD SVG 1.1//EN"
  "http://www.w3.org/Graphics/SVG/1.1/DTD/svg11.dtd">
<svg xmlns:xlink="http://www.w3.org/1999/xlink" width="419.277661pt" height="308.443125pt" viewBox="0 0 419.277661 308.443125" xmlns="http://www.w3.org/2000/svg" version="1.1">
 <metadata>
  <rdf:RDF xmlns:dc="http://purl.org/dc/elements/1.1/" xmlns:cc="http://creativecommons.org/ns#" xmlns:rdf="http://www.w3.org/1999/02/22-rdf-syntax-ns#">
   <cc:Work>
    <dc:type rdf:resource="http://purl.org/dc/dcmitype/StillImage"/>
    <dc:date>2023-12-15T17:51:21.755351</dc:date>
    <dc:format>image/svg+xml</dc:format>
    <dc:creator>
     <cc:Agent>
      <dc:title>Matplotlib v3.8.2, https://matplotlib.org/</dc:title>
     </cc:Agent>
    </dc:creator>
   </cc:Work>
  </rdf:RDF>
 </metadata>
 <defs>
  <style type="text/css">*{stroke-linejoin: round; stroke-linecap: butt}</style>
 </defs>
 <g id="figure_1">
  <g id="patch_1">
   <path d="M 0 308.443125 
L 419.277661 308.443125 
L 419.277661 0 
L 0 0 
z
" style="fill: #ffffff"/>
  </g>
  <g id="axes_1">
   <g id="patch_2">
    <path d="M 39.65 125.998125 
L 199.928261 125.998125 
L 199.928261 22.318125 
L 39.65 22.318125 
z
" style="fill: #ffffff"/>
   </g>
   <g id="patch_3">
    <path d="M 46.935375 125.998125 
L 48.392451 125.998125 
L 48.392451 77.743697 
L 46.935375 77.743697 
z
" clip-path="url(#pa0e7cdb303)" style="fill: #1f77b4"/>
   </g>
   <g id="patch_4">
    <path d="M 48.392451 125.998125 
L 49.849526 125.998125 
L 49.849526 27.255268 
L 48.392451 27.255268 
z
" clip-path="url(#pa0e7cdb303)" style="fill: #1f77b4"/>
   </g>
   <g id="patch_5">
    <path d="M 49.849526 125.998125 
L 51.306601 125.998125 
L 51.306601 42.893277 
L 49.849526 42.893277 
z
" clip-path="url(#pa0e7cdb303)" style="fill: #1f77b4"/>
   </g>
   <g id="patch_6">
    <path d="M 51.306601 125.998125 
L 52.763676 125.998125 
L 52.763676 74.169295 
L 51.306601 74.169295 
z
" clip-path="url(#pa0e7cdb303)" style="fill: #1f77b4"/>
   </g>
   <g id="patch_7">
    <path d="M 52.763676 125.998125 
L 54.220751 125.998125 
L 54.220751 99.63691 
L 52.763676 99.63691 
z
" clip-path="url(#pa0e7cdb303)" style="fill: #1f77b4"/>
   </g>
   <g id="patch_8">
    <path d="M 54.220751 125.998125 
L 55.677826 125.998125 
L 55.677826 107.232514 
L 54.220751 107.232514 
z
" clip-path="url(#pa0e7cdb303)" style="fill: #1f77b4"/>
   </g>
   <g id="patch_9">
    <path d="M 55.677826 125.998125 
L 57.134901 125.998125 
L 57.134901 107.679314 
L 55.677826 107.679314 
z
" clip-path="url(#pa0e7cdb303)" style="fill: #1f77b4"/>
   </g>
   <g id="patch_10">
    <path d="M 57.134901 125.998125 
L 58.591976 125.998125 
L 58.591976 109.019715 
L 57.134901 109.019715 
z
" clip-path="url(#pa0e7cdb303)" style="fill: #1f77b4"/>
   </g>
   <g id="patch_11">
    <path d="M 58.591976 125.998125 
L 60.049051 125.998125 
L 60.049051 112.147317 
L 58.591976 112.147317 
z
" clip-path="url(#pa0e7cdb303)" style="fill: #1f77b4"/>
   </g>
   <g id="patch_12">
    <path d="M 60.049051 125.998125 
L 61.506126 125.998125 
L 61.506126 111.700517 
L 60.049051 111.700517 
z
" clip-path="url(#pa0e7cdb303)" style="fill: #1f77b4"/>
   </g>
   <g id="patch_13">
    <path d="M 61.506126 125.998125 
L 62.963202 125.998125 
L 62.963202 115.274919 
L 61.506126 115.274919 
z
" clip-path="url(#pa0e7cdb303)" style="fill: #1f77b4"/>
   </g>
   <g id="patch_14">
    <path d="M 62.963202 125.998125 
L 64.420277 125.998125 
L 64.420277 118.402521 
L 62.963202 118.402521 
z
" clip-path="url(#pa0e7cdb303)" style="fill: #1f77b4"/>
   </g>
   <g id="patch_15">
    <path d="M 64.420277 125.998125 
L 65.877352 125.998125 
L 65.877352 117.50892 
L 64.420277 117.50892 
z
" clip-path="url(#pa0e7cdb303)" style="fill: #1f77b4"/>
   </g>
   <g id="patch_16">
    <path d="M 65.877352 125.998125 
L 67.334427 125.998125 
L 67.334427 117.50892 
L 65.877352 117.50892 
z
" clip-path="url(#pa0e7cdb303)" style="fill: #1f77b4"/>
   </g>
   <g id="patch_17">
    <path d="M 67.334427 125.998125 
L 68.791502 125.998125 
L 68.791502 121.083322 
L 67.334427 121.083322 
z
" clip-path="url(#pa0e7cdb303)" style="fill: #1f77b4"/>
   </g>
   <g id="patch_18">
    <path d="M 68.791502 125.998125 
L 70.248577 125.998125 
L 70.248577 120.189722 
L 68.791502 120.189722 
z
" clip-path="url(#pa0e7cdb303)" style="fill: #1f77b4"/>
   </g>
   <g id="patch_19">
    <path d="M 70.248577 125.998125 
L 71.705652 125.998125 
L 71.705652 119.296121 
L 70.248577 119.296121 
z
" clip-path="url(#pa0e7cdb303)" style="fill: #1f77b4"/>
   </g>
   <g id="patch_20">
    <path d="M 71.705652 125.998125 
L 73.162727 125.998125 
L 73.162727 121.976923 
L 71.705652 121.976923 
z
" clip-path="url(#pa0e7cdb303)" style="fill: #1f77b4"/>
   </g>
   <g id="patch_21">
    <path d="M 73.162727 125.998125 
L 74.619802 125.998125 
L 74.619802 121.530122 
L 73.162727 121.530122 
z
" clip-path="url(#pa0e7cdb303)" style="fill: #1f77b4"/>
   </g>
   <g id="patch_22">
    <path d="M 74.619802 125.998125 
L 76.076877 125.998125 
L 76.076877 122.870523 
L 74.619802 122.870523 
z
" clip-path="url(#pa0e7cdb303)" style="fill: #1f77b4"/>
   </g>
   <g id="patch_23">
    <path d="M 76.076877 125.998125 
L 77.533953 125.998125 
L 77.533953 123.764124 
L 76.076877 123.764124 
z
" clip-path="url(#pa0e7cdb303)" style="fill: #1f77b4"/>
   </g>
   <g id="patch_24">
    <path d="M 77.533953 125.998125 
L 78.991028 125.998125 
L 78.991028 124.210924 
L 77.533953 124.210924 
z
" clip-path="url(#pa0e7cdb303)" style="fill: #1f77b4"/>
   </g>
   <g id="patch_25">
    <path d="M 78.991028 125.998125 
L 80.448103 125.998125 
L 80.448103 123.317323 
L 78.991028 123.317323 
z
" clip-path="url(#pa0e7cdb303)" style="fill: #1f77b4"/>
   </g>
   <g id="patch_26">
    <path d="M 80.448103 125.998125 
L 81.905178 125.998125 
L 81.905178 123.317323 
L 80.448103 123.317323 
z
" clip-path="url(#pa0e7cdb303)" style="fill: #1f77b4"/>
   </g>
   <g id="patch_27">
    <path d="M 81.905178 125.998125 
L 83.362253 125.998125 
L 83.362253 125.551325 
L 81.905178 125.551325 
z
" clip-path="url(#pa0e7cdb303)" style="fill: #1f77b4"/>
   </g>
   <g id="patch_28">
    <path d="M 83.362253 125.998125 
L 84.819328 125.998125 
L 84.819328 123.317323 
L 83.362253 123.317323 
z
" clip-path="url(#pa0e7cdb303)" style="fill: #1f77b4"/>
   </g>
   <g id="patch_29">
    <path d="M 84.819328 125.998125 
L 86.276403 125.998125 
L 86.276403 124.210924 
L 84.819328 124.210924 
z
" clip-path="url(#pa0e7cdb303)" style="fill: #1f77b4"/>
   </g>
   <g id="patch_30">
    <path d="M 86.276403 125.998125 
L 87.733478 125.998125 
L 87.733478 122.870523 
L 86.276403 122.870523 
z
" clip-path="url(#pa0e7cdb303)" style="fill: #1f77b4"/>
   </g>
   <g id="patch_31">
    <path d="M 87.733478 125.998125 
L 89.190553 125.998125 
L 89.190553 124.210924 
L 87.733478 124.210924 
z
" clip-path="url(#pa0e7cdb303)" style="fill: #1f77b4"/>
   </g>
   <g id="patch_32">
    <path d="M 89.190553 125.998125 
L 90.647628 125.998125 
L 90.647628 125.551325 
L 89.190553 125.551325 
z
" clip-path="url(#pa0e7cdb303)" style="fill: #1f77b4"/>
   </g>
   <g id="patch_33">
    <path d="M 90.647628 125.998125 
L 92.104704 125.998125 
L 92.104704 123.764124 
L 90.647628 123.764124 
z
" clip-path="url(#pa0e7cdb303)" style="fill: #1f77b4"/>
   </g>
   <g id="patch_34">
    <path d="M 92.104704 125.998125 
L 93.561779 125.998125 
L 93.561779 125.104524 
L 92.104704 125.104524 
z
" clip-path="url(#pa0e7cdb303)" style="fill: #1f77b4"/>
   </g>
   <g id="patch_35">
    <path d="M 93.561779 125.998125 
L 95.018854 125.998125 
L 95.018854 125.551325 
L 93.561779 125.551325 
z
" clip-path="url(#pa0e7cdb303)" style="fill: #1f77b4"/>
   </g>
   <g id="patch_36">
    <path d="M 95.018854 125.998125 
L 96.475929 125.998125 
L 96.475929 125.104524 
L 95.018854 125.104524 
z
" clip-path="url(#pa0e7cdb303)" style="fill: #1f77b4"/>
   </g>
   <g id="patch_37">
    <path d="M 96.475929 125.998125 
L 97.933004 125.998125 
L 97.933004 125.551325 
L 96.475929 125.551325 
z
" clip-path="url(#pa0e7cdb303)" style="fill: #1f77b4"/>
   </g>
   <g id="patch_38">
    <path d="M 97.933004 125.998125 
L 99.390079 125.998125 
L 99.390079 125.551325 
L 97.933004 125.551325 
z
" clip-path="url(#pa0e7cdb303)" style="fill: #1f77b4"/>
   </g>
   <g id="patch_39">
    <path d="M 99.390079 125.998125 
L 100.847154 125.998125 
L 100.847154 125.104524 
L 99.390079 125.104524 
z
" clip-path="url(#pa0e7cdb303)" style="fill: #1f77b4"/>
   </g>
   <g id="patch_40">
    <path d="M 100.847154 125.998125 
L 102.304229 125.998125 
L 102.304229 125.998125 
L 100.847154 125.998125 
z
" clip-path="url(#pa0e7cdb303)" style="fill: #1f77b4"/>
   </g>
   <g id="patch_41">
    <path d="M 102.304229 125.998125 
L 103.761304 125.998125 
L 103.761304 125.998125 
L 102.304229 125.998125 
z
" clip-path="url(#pa0e7cdb303)" style="fill: #1f77b4"/>
   </g>
   <g id="patch_42">
    <path d="M 103.761304 125.998125 
L 105.218379 125.998125 
L 105.218379 125.998125 
L 103.761304 125.998125 
z
" clip-path="url(#pa0e7cdb303)" style="fill: #1f77b4"/>
   </g>
   <g id="patch_43">
    <path d="M 105.218379 125.998125 
L 106.675455 125.998125 
L 106.675455 125.998125 
L 105.218379 125.998125 
z
" clip-path="url(#pa0e7cdb303)" style="fill: #1f77b4"/>
   </g>
   <g id="patch_44">
    <path d="M 106.675455 125.998125 
L 108.13253 125.998125 
L 108.13253 125.998125 
L 106.675455 125.998125 
z
" clip-path="url(#pa0e7cdb303)" style="fill: #1f77b4"/>
   </g>
   <g id="patch_45">
    <path d="M 108.13253 125.998125 
L 109.589605 125.998125 
L 109.589605 125.998125 
L 108.13253 125.998125 
z
" clip-path="url(#pa0e7cdb303)" style="fill: #1f77b4"/>
   </g>
   <g id="patch_46">
    <path d="M 109.589605 125.998125 
L 111.04668 125.998125 
L 111.04668 125.998125 
L 109.589605 125.998125 
z
" clip-path="url(#pa0e7cdb303)" style="fill: #1f77b4"/>
   </g>
   <g id="patch_47">
    <path d="M 111.04668 125.998125 
L 112.503755 125.998125 
L 112.503755 125.998125 
L 111.04668 125.998125 
z
" clip-path="url(#pa0e7cdb303)" style="fill: #1f77b4"/>
   </g>
   <g id="patch_48">
    <path d="M 112.503755 125.998125 
L 113.96083 125.998125 
L 113.96083 125.551325 
L 112.503755 125.551325 
z
" clip-path="url(#pa0e7cdb303)" style="fill: #1f77b4"/>
   </g>
   <g id="patch_49">
    <path d="M 113.96083 125.998125 
L 115.417905 125.998125 
L 115.417905 125.551325 
L 113.96083 125.551325 
z
" clip-path="url(#pa0e7cdb303)" style="fill: #1f77b4"/>
   </g>
   <g id="patch_50">
    <path d="M 115.417905 125.998125 
L 116.87498 125.998125 
L 116.87498 125.998125 
L 115.417905 125.998125 
z
" clip-path="url(#pa0e7cdb303)" style="fill: #1f77b4"/>
   </g>
   <g id="patch_51">
    <path d="M 116.87498 125.998125 
L 118.332055 125.998125 
L 118.332055 125.998125 
L 116.87498 125.998125 
z
" clip-path="url(#pa0e7cdb303)" style="fill: #1f77b4"/>
   </g>
   <g id="patch_52">
    <path d="M 118.332055 125.998125 
L 119.78913 125.998125 
L 119.78913 125.998125 
L 118.332055 125.998125 
z
" clip-path="url(#pa0e7cdb303)" style="fill: #1f77b4"/>
   </g>
   <g id="patch_53">
    <path d="M 119.78913 125.998125 
L 121.246206 125.998125 
L 121.246206 125.998125 
L 119.78913 125.998125 
z
" clip-path="url(#pa0e7cdb303)" style="fill: #1f77b4"/>
   </g>
   <g id="patch_54">
    <path d="M 121.246206 125.998125 
L 122.703281 125.998125 
L 122.703281 125.998125 
L 121.246206 125.998125 
z
" clip-path="url(#pa0e7cdb303)" style="fill: #1f77b4"/>
   </g>
   <g id="patch_55">
    <path d="M 122.703281 125.998125 
L 124.160356 125.998125 
L 124.160356 125.998125 
L 122.703281 125.998125 
z
" clip-path="url(#pa0e7cdb303)" style="fill: #1f77b4"/>
   </g>
   <g id="patch_56">
    <path d="M 124.160356 125.998125 
L 125.617431 125.998125 
L 125.617431 125.998125 
L 124.160356 125.998125 
z
" clip-path="url(#pa0e7cdb303)" style="fill: #1f77b4"/>
   </g>
   <g id="patch_57">
    <path d="M 125.617431 125.998125 
L 127.074506 125.998125 
L 127.074506 125.551325 
L 125.617431 125.551325 
z
" clip-path="url(#pa0e7cdb303)" style="fill: #1f77b4"/>
   </g>
   <g id="patch_58">
    <path d="M 127.074506 125.998125 
L 128.531581 125.998125 
L 128.531581 125.998125 
L 127.074506 125.998125 
z
" clip-path="url(#pa0e7cdb303)" style="fill: #1f77b4"/>
   </g>
   <g id="patch_59">
    <path d="M 128.531581 125.998125 
L 129.988656 125.998125 
L 129.988656 125.998125 
L 128.531581 125.998125 
z
" clip-path="url(#pa0e7cdb303)" style="fill: #1f77b4"/>
   </g>
   <g id="patch_60">
    <path d="M 129.988656 125.998125 
L 131.445731 125.998125 
L 131.445731 125.998125 
L 129.988656 125.998125 
z
" clip-path="url(#pa0e7cdb303)" style="fill: #1f77b4"/>
   </g>
   <g id="patch_61">
    <path d="M 131.445731 125.998125 
L 132.902806 125.998125 
L 132.902806 125.998125 
L 131.445731 125.998125 
z
" clip-path="url(#pa0e7cdb303)" style="fill: #1f77b4"/>
   </g>
   <g id="patch_62">
    <path d="M 132.902806 125.998125 
L 134.359881 125.998125 
L 134.359881 125.998125 
L 132.902806 125.998125 
z
" clip-path="url(#pa0e7cdb303)" style="fill: #1f77b4"/>
   </g>
   <g id="patch_63">
    <path d="M 134.359881 125.998125 
L 135.816957 125.998125 
L 135.816957 125.998125 
L 134.359881 125.998125 
z
" clip-path="url(#pa0e7cdb303)" style="fill: #1f77b4"/>
   </g>
   <g id="patch_64">
    <path d="M 135.816957 125.998125 
L 137.274032 125.998125 
L 137.274032 125.998125 
L 135.816957 125.998125 
z
" clip-path="url(#pa0e7cdb303)" style="fill: #1f77b4"/>
   </g>
   <g id="patch_65">
    <path d="M 137.274032 125.998125 
L 138.731107 125.998125 
L 138.731107 125.998125 
L 137.274032 125.998125 
z
" clip-path="url(#pa0e7cdb303)" style="fill: #1f77b4"/>
   </g>
   <g id="patch_66">
    <path d="M 138.731107 125.998125 
L 140.188182 125.998125 
L 140.188182 125.998125 
L 138.731107 125.998125 
z
" clip-path="url(#pa0e7cdb303)" style="fill: #1f77b4"/>
   </g>
   <g id="patch_67">
    <path d="M 140.188182 125.998125 
L 141.645257 125.998125 
L 141.645257 125.998125 
L 140.188182 125.998125 
z
" clip-path="url(#pa0e7cdb303)" style="fill: #1f77b4"/>
   </g>
   <g id="patch_68">
    <path d="M 141.645257 125.998125 
L 143.102332 125.998125 
L 143.102332 125.998125 
L 141.645257 125.998125 
z
" clip-path="url(#pa0e7cdb303)" style="fill: #1f77b4"/>
   </g>
   <g id="patch_69">
    <path d="M 143.102332 125.998125 
L 144.559407 125.998125 
L 144.559407 125.998125 
L 143.102332 125.998125 
z
" clip-path="url(#pa0e7cdb303)" style="fill: #1f77b4"/>
   </g>
   <g id="patch_70">
    <path d="M 144.559407 125.998125 
L 146.016482 125.998125 
L 146.016482 125.998125 
L 144.559407 125.998125 
z
" clip-path="url(#pa0e7cdb303)" style="fill: #1f77b4"/>
   </g>
   <g id="patch_71">
    <path d="M 146.016482 125.998125 
L 147.473557 125.998125 
L 147.473557 125.998125 
L 146.016482 125.998125 
z
" clip-path="url(#pa0e7cdb303)" style="fill: #1f77b4"/>
   </g>
   <g id="patch_72">
    <path d="M 147.473557 125.998125 
L 148.930632 125.998125 
L 148.930632 125.998125 
L 147.473557 125.998125 
z
" clip-path="url(#pa0e7cdb303)" style="fill: #1f77b4"/>
   </g>
   <g id="patch_73">
    <path d="M 148.930632 125.998125 
L 150.387708 125.998125 
L 150.387708 125.998125 
L 148.930632 125.998125 
z
" clip-path="url(#pa0e7cdb303)" style="fill: #1f77b4"/>
   </g>
   <g id="patch_74">
    <path d="M 150.387708 125.998125 
L 151.844783 125.998125 
L 151.844783 125.998125 
L 150.387708 125.998125 
z
" clip-path="url(#pa0e7cdb303)" style="fill: #1f77b4"/>
   </g>
   <g id="patch_75">
    <path d="M 151.844783 125.998125 
L 153.301858 125.998125 
L 153.301858 125.998125 
L 151.844783 125.998125 
z
" clip-path="url(#pa0e7cdb303)" style="fill: #1f77b4"/>
   </g>
   <g id="patch_76">
    <path d="M 153.301858 125.998125 
L 154.758933 125.998125 
L 154.758933 125.998125 
L 153.301858 125.998125 
z
" clip-path="url(#pa0e7cdb303)" style="fill: #1f77b4"/>
   </g>
   <g id="patch_77">
    <path d="M 154.758933 125.998125 
L 156.216008 125.998125 
L 156.216008 125.998125 
L 154.758933 125.998125 
z
" clip-path="url(#pa0e7cdb303)" style="fill: #1f77b4"/>
   </g>
   <g id="patch_78">
    <path d="M 156.216008 125.998125 
L 157.673083 125.998125 
L 157.673083 125.998125 
L 156.216008 125.998125 
z
" clip-path="url(#pa0e7cdb303)" style="fill: #1f77b4"/>
   </g>
   <g id="patch_79">
    <path d="M 157.673083 125.998125 
L 159.130158 125.998125 
L 159.130158 125.998125 
L 157.673083 125.998125 
z
" clip-path="url(#pa0e7cdb303)" style="fill: #1f77b4"/>
   </g>
   <g id="patch_80">
    <path d="M 159.130158 125.998125 
L 160.587233 125.998125 
L 160.587233 125.998125 
L 159.130158 125.998125 
z
" clip-path="url(#pa0e7cdb303)" style="fill: #1f77b4"/>
   </g>
   <g id="patch_81">
    <path d="M 160.587233 125.998125 
L 162.044308 125.998125 
L 162.044308 125.998125 
L 160.587233 125.998125 
z
" clip-path="url(#pa0e7cdb303)" style="fill: #1f77b4"/>
   </g>
   <g id="patch_82">
    <path d="M 162.044308 125.998125 
L 163.501383 125.998125 
L 163.501383 125.998125 
L 162.044308 125.998125 
z
" clip-path="url(#pa0e7cdb303)" style="fill: #1f77b4"/>
   </g>
   <g id="patch_83">
    <path d="M 163.501383 125.998125 
L 164.958458 125.998125 
L 164.958458 125.998125 
L 163.501383 125.998125 
z
" clip-path="url(#pa0e7cdb303)" style="fill: #1f77b4"/>
   </g>
   <g id="patch_84">
    <path d="M 164.958458 125.998125 
L 166.415534 125.998125 
L 166.415534 125.998125 
L 164.958458 125.998125 
z
" clip-path="url(#pa0e7cdb303)" style="fill: #1f77b4"/>
   </g>
   <g id="patch_85">
    <path d="M 166.415534 125.998125 
L 167.872609 125.998125 
L 167.872609 125.998125 
L 166.415534 125.998125 
z
" clip-path="url(#pa0e7cdb303)" style="fill: #1f77b4"/>
   </g>
   <g id="patch_86">
    <path d="M 167.872609 125.998125 
L 169.329684 125.998125 
L 169.329684 125.998125 
L 167.872609 125.998125 
z
" clip-path="url(#pa0e7cdb303)" style="fill: #1f77b4"/>
   </g>
   <g id="patch_87">
    <path d="M 169.329684 125.998125 
L 170.786759 125.998125 
L 170.786759 125.998125 
L 169.329684 125.998125 
z
" clip-path="url(#pa0e7cdb303)" style="fill: #1f77b4"/>
   </g>
   <g id="patch_88">
    <path d="M 170.786759 125.998125 
L 172.243834 125.998125 
L 172.243834 125.998125 
L 170.786759 125.998125 
z
" clip-path="url(#pa0e7cdb303)" style="fill: #1f77b4"/>
   </g>
   <g id="patch_89">
    <path d="M 172.243834 125.998125 
L 173.700909 125.998125 
L 173.700909 125.998125 
L 172.243834 125.998125 
z
" clip-path="url(#pa0e7cdb303)" style="fill: #1f77b4"/>
   </g>
   <g id="patch_90">
    <path d="M 173.700909 125.998125 
L 175.157984 125.998125 
L 175.157984 125.998125 
L 173.700909 125.998125 
z
" clip-path="url(#pa0e7cdb303)" style="fill: #1f77b4"/>
   </g>
   <g id="patch_91">
    <path d="M 175.157984 125.998125 
L 176.615059 125.998125 
L 176.615059 125.998125 
L 175.157984 125.998125 
z
" clip-path="url(#pa0e7cdb303)" style="fill: #1f77b4"/>
   </g>
   <g id="patch_92">
    <path d="M 176.615059 125.998125 
L 178.072134 125.998125 
L 178.072134 125.998125 
L 176.615059 125.998125 
z
" clip-path="url(#pa0e7cdb303)" style="fill: #1f77b4"/>
   </g>
   <g id="patch_93">
    <path d="M 178.072134 125.998125 
L 179.529209 125.998125 
L 179.529209 125.998125 
L 178.072134 125.998125 
z
" clip-path="url(#pa0e7cdb303)" style="fill: #1f77b4"/>
   </g>
   <g id="patch_94">
    <path d="M 179.529209 125.998125 
L 180.986285 125.998125 
L 180.986285 125.998125 
L 179.529209 125.998125 
z
" clip-path="url(#pa0e7cdb303)" style="fill: #1f77b4"/>
   </g>
   <g id="patch_95">
    <path d="M 180.986285 125.998125 
L 182.44336 125.998125 
L 182.44336 125.998125 
L 180.986285 125.998125 
z
" clip-path="url(#pa0e7cdb303)" style="fill: #1f77b4"/>
   </g>
   <g id="patch_96">
    <path d="M 182.44336 125.998125 
L 183.900435 125.998125 
L 183.900435 125.998125 
L 182.44336 125.998125 
z
" clip-path="url(#pa0e7cdb303)" style="fill: #1f77b4"/>
   </g>
   <g id="patch_97">
    <path d="M 183.900435 125.998125 
L 185.35751 125.998125 
L 185.35751 125.998125 
L 183.900435 125.998125 
z
" clip-path="url(#pa0e7cdb303)" style="fill: #1f77b4"/>
   </g>
   <g id="patch_98">
    <path d="M 185.35751 125.998125 
L 186.814585 125.998125 
L 186.814585 125.998125 
L 185.35751 125.998125 
z
" clip-path="url(#pa0e7cdb303)" style="fill: #1f77b4"/>
   </g>
   <g id="patch_99">
    <path d="M 186.814585 125.998125 
L 188.27166 125.998125 
L 188.27166 125.998125 
L 186.814585 125.998125 
z
" clip-path="url(#pa0e7cdb303)" style="fill: #1f77b4"/>
   </g>
   <g id="patch_100">
    <path d="M 188.27166 125.998125 
L 189.728735 125.998125 
L 189.728735 125.998125 
L 188.27166 125.998125 
z
" clip-path="url(#pa0e7cdb303)" style="fill: #1f77b4"/>
   </g>
   <g id="patch_101">
    <path d="M 189.728735 125.998125 
L 191.18581 125.998125 
L 191.18581 125.998125 
L 189.728735 125.998125 
z
" clip-path="url(#pa0e7cdb303)" style="fill: #1f77b4"/>
   </g>
   <g id="patch_102">
    <path d="M 191.18581 125.998125 
L 192.642885 125.998125 
L 192.642885 125.551325 
L 191.18581 125.551325 
z
" clip-path="url(#pa0e7cdb303)" style="fill: #1f77b4"/>
   </g>
   <g id="matplotlib.axis_1">
    <g id="xtick_1">
     <g id="line2d_1">
      <defs>
       <path id="mccf19c8ec1" d="M 0 0 
L 0 3.5 
" style="stroke: #000000; stroke-width: 0.8"/>
      </defs>
      <g>
       <use xlink:href="#mccf19c8ec1" x="79.541252" y="125.998125" style="stroke: #000000; stroke-width: 0.8"/>
      </g>
     </g>
     <g id="text_1">
      <!-- 2 -->
      <g transform="translate(82.300627 139.360625) rotate(-90) scale(0.1 -0.1)">
       <defs>
        <path id="DejaVuSans-32" d="M 1228 531 
L 3431 531 
L 3431 0 
L 469 0 
L 469 531 
Q 828 903 1448 1529 
Q 2069 2156 2228 2338 
Q 2531 2678 2651 2914 
Q 2772 3150 2772 3378 
Q 2772 3750 2511 3984 
Q 2250 4219 1831 4219 
Q 1534 4219 1204 4116 
Q 875 4013 500 3803 
L 500 4441 
Q 881 4594 1212 4672 
Q 1544 4750 1819 4750 
Q 2544 4750 2975 4387 
Q 3406 4025 3406 3419 
Q 3406 3131 3298 2873 
Q 3191 2616 2906 2266 
Q 2828 2175 2409 1742 
Q 1991 1309 1228 531 
z
" transform="scale(0.015625)"/>
       </defs>
       <use xlink:href="#DejaVuSans-32"/>
      </g>
     </g>
    </g>
    <g id="xtick_2">
     <g id="line2d_2">
      <g>
       <use xlink:href="#mccf19c8ec1" x="120.298597" y="125.998125" style="stroke: #000000; stroke-width: 0.8"/>
      </g>
     </g>
     <g id="text_2">
      <!-- 4 -->
      <g transform="translate(123.057972 139.360625) rotate(-90) scale(0.1 -0.1)">
       <defs>
        <path id="DejaVuSans-34" d="M 2419 4116 
L 825 1625 
L 2419 1625 
L 2419 4116 
z
M 2253 4666 
L 3047 4666 
L 3047 1625 
L 3713 1625 
L 3713 1100 
L 3047 1100 
L 3047 0 
L 2419 0 
L 2419 1100 
L 313 1100 
L 313 1709 
L 2253 4666 
z
" transform="scale(0.015625)"/>
       </defs>
       <use xlink:href="#DejaVuSans-34"/>
      </g>
     </g>
    </g>
    <g id="xtick_3">
     <g id="line2d_3">
      <g>
       <use xlink:href="#mccf19c8ec1" x="161.055943" y="125.998125" style="stroke: #000000; stroke-width: 0.8"/>
      </g>
     </g>
     <g id="text_3">
      <!-- 6 -->
      <g transform="translate(163.815318 139.360625) rotate(-90) scale(0.1 -0.1)">
       <defs>
        <path id="DejaVuSans-36" d="M 2113 2584 
Q 1688 2584 1439 2293 
Q 1191 2003 1191 1497 
Q 1191 994 1439 701 
Q 1688 409 2113 409 
Q 2538 409 2786 701 
Q 3034 994 3034 1497 
Q 3034 2003 2786 2293 
Q 2538 2584 2113 2584 
z
M 3366 4563 
L 3366 3988 
Q 3128 4100 2886 4159 
Q 2644 4219 2406 4219 
Q 1781 4219 1451 3797 
Q 1122 3375 1075 2522 
Q 1259 2794 1537 2939 
Q 1816 3084 2150 3084 
Q 2853 3084 3261 2657 
Q 3669 2231 3669 1497 
Q 3669 778 3244 343 
Q 2819 -91 2113 -91 
Q 1303 -91 875 529 
Q 447 1150 447 2328 
Q 447 3434 972 4092 
Q 1497 4750 2381 4750 
Q 2619 4750 2861 4703 
Q 3103 4656 3366 4563 
z
" transform="scale(0.015625)"/>
       </defs>
       <use xlink:href="#DejaVuSans-36"/>
      </g>
     </g>
    </g>
   </g>
   <g id="matplotlib.axis_2">
    <g id="ytick_1">
     <g id="line2d_4">
      <defs>
       <path id="m6021a44f05" d="M 0 0 
L -3.5 0 
" style="stroke: #000000; stroke-width: 0.8"/>
      </defs>
      <g>
       <use xlink:href="#m6021a44f05" x="39.65" y="125.998125" style="stroke: #000000; stroke-width: 0.8"/>
      </g>
     </g>
     <g id="text_4">
      <!-- 0 -->
      <g transform="translate(26.2875 129.797344) scale(0.1 -0.1)">
       <defs>
        <path id="DejaVuSans-30" d="M 2034 4250 
Q 1547 4250 1301 3770 
Q 1056 3291 1056 2328 
Q 1056 1369 1301 889 
Q 1547 409 2034 409 
Q 2525 409 2770 889 
Q 3016 1369 3016 2328 
Q 3016 3291 2770 3770 
Q 2525 4250 2034 4250 
z
M 2034 4750 
Q 2819 4750 3233 4129 
Q 3647 3509 3647 2328 
Q 3647 1150 3233 529 
Q 2819 -91 2034 -91 
Q 1250 -91 836 529 
Q 422 1150 422 2328 
Q 422 3509 836 4129 
Q 1250 4750 2034 4750 
z
" transform="scale(0.015625)"/>
       </defs>
       <use xlink:href="#DejaVuSans-30"/>
      </g>
     </g>
    </g>
    <g id="ytick_2">
     <g id="line2d_5">
      <g>
       <use xlink:href="#m6021a44f05" x="39.65" y="103.658112" style="stroke: #000000; stroke-width: 0.8"/>
      </g>
     </g>
     <g id="text_5">
      <!-- 50 -->
      <g transform="translate(19.925 107.457331) scale(0.1 -0.1)">
       <defs>
        <path id="DejaVuSans-35" d="M 691 4666 
L 3169 4666 
L 3169 4134 
L 1269 4134 
L 1269 2991 
Q 1406 3038 1543 3061 
Q 1681 3084 1819 3084 
Q 2600 3084 3056 2656 
Q 3513 2228 3513 1497 
Q 3513 744 3044 326 
Q 2575 -91 1722 -91 
Q 1428 -91 1123 -41 
Q 819 9 494 109 
L 494 744 
Q 775 591 1075 516 
Q 1375 441 1709 441 
Q 2250 441 2565 725 
Q 2881 1009 2881 1497 
Q 2881 1984 2565 2268 
Q 2250 2553 1709 2553 
Q 1456 2553 1204 2497 
Q 953 2441 691 2322 
L 691 4666 
z
" transform="scale(0.015625)"/>
       </defs>
       <use xlink:href="#DejaVuSans-35"/>
       <use xlink:href="#DejaVuSans-30" x="63.623047"/>
      </g>
     </g>
    </g>
    <g id="ytick_3">
     <g id="line2d_6">
      <g>
       <use xlink:href="#m6021a44f05" x="39.65" y="81.318099" style="stroke: #000000; stroke-width: 0.8"/>
      </g>
     </g>
     <g id="text_6">
      <!-- 100 -->
      <g transform="translate(13.5625 85.117318) scale(0.1 -0.1)">
       <defs>
        <path id="DejaVuSans-31" d="M 794 531 
L 1825 531 
L 1825 4091 
L 703 3866 
L 703 4441 
L 1819 4666 
L 2450 4666 
L 2450 531 
L 3481 531 
L 3481 0 
L 794 0 
L 794 531 
z
" transform="scale(0.015625)"/>
       </defs>
       <use xlink:href="#DejaVuSans-31"/>
       <use xlink:href="#DejaVuSans-30" x="63.623047"/>
       <use xlink:href="#DejaVuSans-30" x="127.246094"/>
      </g>
     </g>
    </g>
    <g id="ytick_4">
     <g id="line2d_7">
      <g>
       <use xlink:href="#m6021a44f05" x="39.65" y="58.978086" style="stroke: #000000; stroke-width: 0.8"/>
      </g>
     </g>
     <g id="text_7">
      <!-- 150 -->
      <g transform="translate(13.5625 62.777305) scale(0.1 -0.1)">
       <use xlink:href="#DejaVuSans-31"/>
       <use xlink:href="#DejaVuSans-35" x="63.623047"/>
       <use xlink:href="#DejaVuSans-30" x="127.246094"/>
      </g>
     </g>
    </g>
    <g id="ytick_5">
     <g id="line2d_8">
      <g>
       <use xlink:href="#m6021a44f05" x="39.65" y="36.638073" style="stroke: #000000; stroke-width: 0.8"/>
      </g>
     </g>
     <g id="text_8">
      <!-- 200 -->
      <g transform="translate(13.5625 40.437292) scale(0.1 -0.1)">
       <use xlink:href="#DejaVuSans-32"/>
       <use xlink:href="#DejaVuSans-30" x="63.623047"/>
       <use xlink:href="#DejaVuSans-30" x="127.246094"/>
      </g>
     </g>
    </g>
   </g>
   <g id="patch_103">
    <path d="M 39.65 125.998125 
L 39.65 22.318125 
" style="fill: none; stroke: #000000; stroke-width: 0.8; stroke-linejoin: miter; stroke-linecap: square"/>
   </g>
   <g id="patch_104">
    <path d="M 199.928261 125.998125 
L 199.928261 22.318125 
" style="fill: none; stroke: #000000; stroke-width: 0.8; stroke-linejoin: miter; stroke-linecap: square"/>
   </g>
   <g id="patch_105">
    <path d="M 39.65 125.998125 
L 199.928261 125.998125 
" style="fill: none; stroke: #000000; stroke-width: 0.8; stroke-linejoin: miter; stroke-linecap: square"/>
   </g>
   <g id="patch_106">
    <path d="M 39.65 22.318125 
L 199.928261 22.318125 
" style="fill: none; stroke: #000000; stroke-width: 0.8; stroke-linejoin: miter; stroke-linecap: square"/>
   </g>
   <g id="text_9">
    <!-- feinstein -->
    <g transform="translate(93.87663 16.318125) scale(0.12 -0.12)">
     <defs>
      <path id="DejaVuSans-66" d="M 2375 4863 
L 2375 4384 
L 1825 4384 
Q 1516 4384 1395 4259 
Q 1275 4134 1275 3809 
L 1275 3500 
L 2222 3500 
L 2222 3053 
L 1275 3053 
L 1275 0 
L 697 0 
L 697 3053 
L 147 3053 
L 147 3500 
L 697 3500 
L 697 3744 
Q 697 4328 969 4595 
Q 1241 4863 1831 4863 
L 2375 4863 
z
" transform="scale(0.015625)"/>
      <path id="DejaVuSans-65" d="M 3597 1894 
L 3597 1613 
L 953 1613 
Q 991 1019 1311 708 
Q 1631 397 2203 397 
Q 2534 397 2845 478 
Q 3156 559 3463 722 
L 3463 178 
Q 3153 47 2828 -22 
Q 2503 -91 2169 -91 
Q 1331 -91 842 396 
Q 353 884 353 1716 
Q 353 2575 817 3079 
Q 1281 3584 2069 3584 
Q 2775 3584 3186 3129 
Q 3597 2675 3597 1894 
z
M 3022 2063 
Q 3016 2534 2758 2815 
Q 2500 3097 2075 3097 
Q 1594 3097 1305 2825 
Q 1016 2553 972 2059 
L 3022 2063 
z
" transform="scale(0.015625)"/>
      <path id="DejaVuSans-69" d="M 603 3500 
L 1178 3500 
L 1178 0 
L 603 0 
L 603 3500 
z
M 603 4863 
L 1178 4863 
L 1178 4134 
L 603 4134 
L 603 4863 
z
" transform="scale(0.015625)"/>
      <path id="DejaVuSans-6e" d="M 3513 2113 
L 3513 0 
L 2938 0 
L 2938 2094 
Q 2938 2591 2744 2837 
Q 2550 3084 2163 3084 
Q 1697 3084 1428 2787 
Q 1159 2491 1159 1978 
L 1159 0 
L 581 0 
L 581 3500 
L 1159 3500 
L 1159 2956 
Q 1366 3272 1645 3428 
Q 1925 3584 2291 3584 
Q 2894 3584 3203 3211 
Q 3513 2838 3513 2113 
z
" transform="scale(0.015625)"/>
      <path id="DejaVuSans-73" d="M 2834 3397 
L 2834 2853 
Q 2591 2978 2328 3040 
Q 2066 3103 1784 3103 
Q 1356 3103 1142 2972 
Q 928 2841 928 2578 
Q 928 2378 1081 2264 
Q 1234 2150 1697 2047 
L 1894 2003 
Q 2506 1872 2764 1633 
Q 3022 1394 3022 966 
Q 3022 478 2636 193 
Q 2250 -91 1575 -91 
Q 1294 -91 989 -36 
Q 684 19 347 128 
L 347 722 
Q 666 556 975 473 
Q 1284 391 1588 391 
Q 1994 391 2212 530 
Q 2431 669 2431 922 
Q 2431 1156 2273 1281 
Q 2116 1406 1581 1522 
L 1381 1569 
Q 847 1681 609 1914 
Q 372 2147 372 2553 
Q 372 3047 722 3315 
Q 1072 3584 1716 3584 
Q 2034 3584 2315 3537 
Q 2597 3491 2834 3397 
z
" transform="scale(0.015625)"/>
      <path id="DejaVuSans-74" d="M 1172 4494 
L 1172 3500 
L 2356 3500 
L 2356 3053 
L 1172 3053 
L 1172 1153 
Q 1172 725 1289 603 
Q 1406 481 1766 481 
L 2356 481 
L 2356 0 
L 1766 0 
Q 1100 0 847 248 
Q 594 497 594 1153 
L 594 3053 
L 172 3053 
L 172 3500 
L 594 3500 
L 594 4494 
L 1172 4494 
z
" transform="scale(0.015625)"/>
     </defs>
     <use xlink:href="#DejaVuSans-66"/>
     <use xlink:href="#DejaVuSans-65" x="35.205078"/>
     <use xlink:href="#DejaVuSans-69" x="96.728516"/>
     <use xlink:href="#DejaVuSans-6e" x="124.511719"/>
     <use xlink:href="#DejaVuSans-73" x="187.890625"/>
     <use xlink:href="#DejaVuSans-74" x="239.990234"/>
     <use xlink:href="#DejaVuSans-65" x="279.199219"/>
     <use xlink:href="#DejaVuSans-69" x="340.722656"/>
     <use xlink:href="#DejaVuSans-6e" x="368.505859"/>
    </g>
   </g>
  </g>
  <g id="axes_2">
   <g id="patch_107">
    <path d="M 248.011739 125.998125 
L 408.29 125.998125 
L 408.29 22.318125 
L 248.011739 22.318125 
z
" style="fill: #ffffff"/>
   </g>
   <g id="patch_108">
    <path d="M 255.297115 125.998125 
L 256.75419 125.998125 
L 256.75419 122.944222 
L 255.297115 122.944222 
z
" clip-path="url(#pb256239f1e)" style="fill: #1f77b4"/>
   </g>
   <g id="patch_109">
    <path d="M 256.75419 125.998125 
L 258.211265 125.998125 
L 258.211265 112.764546 
L 256.75419 112.764546 
z
" clip-path="url(#pb256239f1e)" style="fill: #1f77b4"/>
   </g>
   <g id="patch_110">
    <path d="M 258.211265 125.998125 
L 259.66834 125.998125 
L 259.66834 91.387227 
L 258.211265 91.387227 
z
" clip-path="url(#pb256239f1e)" style="fill: #1f77b4"/>
   </g>
   <g id="patch_111">
    <path d="M 259.66834 125.998125 
L 261.125415 125.998125 
L 261.125415 47.61462 
L 259.66834 47.61462 
z
" clip-path="url(#pb256239f1e)" style="fill: #1f77b4"/>
   </g>
   <g id="patch_112">
    <path d="M 261.125415 125.998125 
L 262.58249 125.998125 
L 262.58249 41.506814 
L 261.125415 41.506814 
z
" clip-path="url(#pb256239f1e)" style="fill: #1f77b4"/>
   </g>
   <g id="patch_113">
    <path d="M 262.58249 125.998125 
L 264.039565 125.998125 
L 264.039565 46.596652 
L 262.58249 46.596652 
z
" clip-path="url(#pb256239f1e)" style="fill: #1f77b4"/>
   </g>
   <g id="patch_114">
    <path d="M 264.039565 125.998125 
L 265.49664 125.998125 
L 265.49664 27.255268 
L 264.039565 27.255268 
z
" clip-path="url(#pb256239f1e)" style="fill: #1f77b4"/>
   </g>
   <g id="patch_115">
    <path d="M 265.49664 125.998125 
L 266.953715 125.998125 
L 266.953715 46.596652 
L 265.49664 46.596652 
z
" clip-path="url(#pb256239f1e)" style="fill: #1f77b4"/>
   </g>
   <g id="patch_116">
    <path d="M 266.953715 125.998125 
L 268.410791 125.998125 
L 268.410791 71.027875 
L 266.953715 71.027875 
z
" clip-path="url(#pb256239f1e)" style="fill: #1f77b4"/>
   </g>
   <g id="patch_117">
    <path d="M 268.410791 125.998125 
L 269.867866 125.998125 
L 269.867866 67.973972 
L 268.410791 67.973972 
z
" clip-path="url(#pb256239f1e)" style="fill: #1f77b4"/>
   </g>
   <g id="patch_118">
    <path d="M 269.867866 125.998125 
L 271.324941 125.998125 
L 271.324941 82.225518 
L 269.867866 82.225518 
z
" clip-path="url(#pb256239f1e)" style="fill: #1f77b4"/>
   </g>
   <g id="patch_119">
    <path d="M 271.324941 125.998125 
L 272.782016 125.998125 
L 272.782016 71.027875 
L 271.324941 71.027875 
z
" clip-path="url(#pb256239f1e)" style="fill: #1f77b4"/>
   </g>
   <g id="patch_120">
    <path d="M 272.782016 125.998125 
L 274.239091 125.998125 
L 274.239091 95.459097 
L 272.782016 95.459097 
z
" clip-path="url(#pb256239f1e)" style="fill: #1f77b4"/>
   </g>
   <g id="patch_121">
    <path d="M 274.239091 125.998125 
L 275.696166 125.998125 
L 275.696166 94.441129 
L 274.239091 94.441129 
z
" clip-path="url(#pb256239f1e)" style="fill: #1f77b4"/>
   </g>
   <g id="patch_122">
    <path d="M 275.696166 125.998125 
L 277.153241 125.998125 
L 277.153241 101.566903 
L 275.696166 101.566903 
z
" clip-path="url(#pb256239f1e)" style="fill: #1f77b4"/>
   </g>
   <g id="patch_123">
    <path d="M 277.153241 125.998125 
L 278.610316 125.998125 
L 278.610316 96.477065 
L 277.153241 96.477065 
z
" clip-path="url(#pb256239f1e)" style="fill: #1f77b4"/>
   </g>
   <g id="patch_124">
    <path d="M 278.610316 125.998125 
L 280.067391 125.998125 
L 280.067391 98.513 
L 278.610316 98.513 
z
" clip-path="url(#pb256239f1e)" style="fill: #1f77b4"/>
   </g>
   <g id="patch_125">
    <path d="M 280.067391 125.998125 
L 281.524466 125.998125 
L 281.524466 125.998125 
L 280.067391 125.998125 
z
" clip-path="url(#pb256239f1e)" style="fill: #1f77b4"/>
   </g>
   <g id="patch_126">
    <path d="M 281.524466 125.998125 
L 282.981542 125.998125 
L 282.981542 104.620805 
L 281.524466 104.620805 
z
" clip-path="url(#pb256239f1e)" style="fill: #1f77b4"/>
   </g>
   <g id="patch_127">
    <path d="M 282.981542 125.998125 
L 284.438617 125.998125 
L 284.438617 111.746579 
L 282.981542 111.746579 
z
" clip-path="url(#pb256239f1e)" style="fill: #1f77b4"/>
   </g>
   <g id="patch_128">
    <path d="M 284.438617 125.998125 
L 285.895692 125.998125 
L 285.895692 106.656741 
L 284.438617 106.656741 
z
" clip-path="url(#pb256239f1e)" style="fill: #1f77b4"/>
   </g>
   <g id="patch_129">
    <path d="M 285.895692 125.998125 
L 287.352767 125.998125 
L 287.352767 103.602838 
L 285.895692 103.602838 
z
" clip-path="url(#pb256239f1e)" style="fill: #1f77b4"/>
   </g>
   <g id="patch_130">
    <path d="M 287.352767 125.998125 
L 288.809842 125.998125 
L 288.809842 109.710643 
L 287.352767 109.710643 
z
" clip-path="url(#pb256239f1e)" style="fill: #1f77b4"/>
   </g>
   <g id="patch_131">
    <path d="M 288.809842 125.998125 
L 290.266917 125.998125 
L 290.266917 110.728611 
L 288.809842 110.728611 
z
" clip-path="url(#pb256239f1e)" style="fill: #1f77b4"/>
   </g>
   <g id="patch_132">
    <path d="M 290.266917 125.998125 
L 291.723992 125.998125 
L 291.723992 110.728611 
L 290.266917 110.728611 
z
" clip-path="url(#pb256239f1e)" style="fill: #1f77b4"/>
   </g>
   <g id="patch_133">
    <path d="M 291.723992 125.998125 
L 293.181067 125.998125 
L 293.181067 114.800481 
L 291.723992 114.800481 
z
" clip-path="url(#pb256239f1e)" style="fill: #1f77b4"/>
   </g>
   <g id="patch_134">
    <path d="M 293.181067 125.998125 
L 294.638142 125.998125 
L 294.638142 119.890319 
L 293.181067 119.890319 
z
" clip-path="url(#pb256239f1e)" style="fill: #1f77b4"/>
   </g>
   <g id="patch_135">
    <path d="M 294.638142 125.998125 
L 296.095217 125.998125 
L 296.095217 118.872352 
L 294.638142 118.872352 
z
" clip-path="url(#pb256239f1e)" style="fill: #1f77b4"/>
   </g>
   <g id="patch_136">
    <path d="M 296.095217 125.998125 
L 297.552292 125.998125 
L 297.552292 116.836417 
L 296.095217 116.836417 
z
" clip-path="url(#pb256239f1e)" style="fill: #1f77b4"/>
   </g>
   <g id="patch_137">
    <path d="M 297.552292 125.998125 
L 299.009368 125.998125 
L 299.009368 117.854384 
L 297.552292 117.854384 
z
" clip-path="url(#pb256239f1e)" style="fill: #1f77b4"/>
   </g>
   <g id="patch_138">
    <path d="M 299.009368 125.998125 
L 300.466443 125.998125 
L 300.466443 122.944222 
L 299.009368 122.944222 
z
" clip-path="url(#pb256239f1e)" style="fill: #1f77b4"/>
   </g>
   <g id="patch_139">
    <path d="M 300.466443 125.998125 
L 301.923518 125.998125 
L 301.923518 119.890319 
L 300.466443 119.890319 
z
" clip-path="url(#pb256239f1e)" style="fill: #1f77b4"/>
   </g>
   <g id="patch_140">
    <path d="M 301.923518 125.998125 
L 303.380593 125.998125 
L 303.380593 119.890319 
L 301.923518 119.890319 
z
" clip-path="url(#pb256239f1e)" style="fill: #1f77b4"/>
   </g>
   <g id="patch_141">
    <path d="M 303.380593 125.998125 
L 304.837668 125.998125 
L 304.837668 125.998125 
L 303.380593 125.998125 
z
" clip-path="url(#pb256239f1e)" style="fill: #1f77b4"/>
   </g>
   <g id="patch_142">
    <path d="M 304.837668 125.998125 
L 306.294743 125.998125 
L 306.294743 119.890319 
L 304.837668 119.890319 
z
" clip-path="url(#pb256239f1e)" style="fill: #1f77b4"/>
   </g>
   <g id="patch_143">
    <path d="M 306.294743 125.998125 
L 307.751818 125.998125 
L 307.751818 124.980157 
L 306.294743 124.980157 
z
" clip-path="url(#pb256239f1e)" style="fill: #1f77b4"/>
   </g>
   <g id="patch_144">
    <path d="M 307.751818 125.998125 
L 309.208893 125.998125 
L 309.208893 117.854384 
L 307.751818 117.854384 
z
" clip-path="url(#pb256239f1e)" style="fill: #1f77b4"/>
   </g>
   <g id="patch_145">
    <path d="M 309.208893 125.998125 
L 310.665968 125.998125 
L 310.665968 121.926255 
L 309.208893 121.926255 
z
" clip-path="url(#pb256239f1e)" style="fill: #1f77b4"/>
   </g>
   <g id="patch_146">
    <path d="M 310.665968 125.998125 
L 312.123043 125.998125 
L 312.123043 121.926255 
L 310.665968 121.926255 
z
" clip-path="url(#pb256239f1e)" style="fill: #1f77b4"/>
   </g>
   <g id="patch_147">
    <path d="M 312.123043 125.998125 
L 313.580119 125.998125 
L 313.580119 121.926255 
L 312.123043 121.926255 
z
" clip-path="url(#pb256239f1e)" style="fill: #1f77b4"/>
   </g>
   <g id="patch_148">
    <path d="M 313.580119 125.998125 
L 315.037194 125.998125 
L 315.037194 122.944222 
L 313.580119 122.944222 
z
" clip-path="url(#pb256239f1e)" style="fill: #1f77b4"/>
   </g>
   <g id="patch_149">
    <path d="M 315.037194 125.998125 
L 316.494269 125.998125 
L 316.494269 120.908287 
L 315.037194 120.908287 
z
" clip-path="url(#pb256239f1e)" style="fill: #1f77b4"/>
   </g>
   <g id="patch_150">
    <path d="M 316.494269 125.998125 
L 317.951344 125.998125 
L 317.951344 119.890319 
L 316.494269 119.890319 
z
" clip-path="url(#pb256239f1e)" style="fill: #1f77b4"/>
   </g>
   <g id="patch_151">
    <path d="M 317.951344 125.998125 
L 319.408419 125.998125 
L 319.408419 121.926255 
L 317.951344 121.926255 
z
" clip-path="url(#pb256239f1e)" style="fill: #1f77b4"/>
   </g>
   <g id="patch_152">
    <path d="M 319.408419 125.998125 
L 320.865494 125.998125 
L 320.865494 123.96219 
L 319.408419 123.96219 
z
" clip-path="url(#pb256239f1e)" style="fill: #1f77b4"/>
   </g>
   <g id="patch_153">
    <path d="M 320.865494 125.998125 
L 322.322569 125.998125 
L 322.322569 121.926255 
L 320.865494 121.926255 
z
" clip-path="url(#pb256239f1e)" style="fill: #1f77b4"/>
   </g>
   <g id="patch_154">
    <path d="M 322.322569 125.998125 
L 323.779644 125.998125 
L 323.779644 122.944222 
L 322.322569 122.944222 
z
" clip-path="url(#pb256239f1e)" style="fill: #1f77b4"/>
   </g>
   <g id="patch_155">
    <path d="M 323.779644 125.998125 
L 325.236719 125.998125 
L 325.236719 122.944222 
L 323.779644 122.944222 
z
" clip-path="url(#pb256239f1e)" style="fill: #1f77b4"/>
   </g>
   <g id="patch_156">
    <path d="M 325.236719 125.998125 
L 326.693794 125.998125 
L 326.693794 124.980157 
L 325.236719 124.980157 
z
" clip-path="url(#pb256239f1e)" style="fill: #1f77b4"/>
   </g>
   <g id="patch_157">
    <path d="M 326.693794 125.998125 
L 328.15087 125.998125 
L 328.15087 125.998125 
L 326.693794 125.998125 
z
" clip-path="url(#pb256239f1e)" style="fill: #1f77b4"/>
   </g>
   <g id="patch_158">
    <path d="M 328.15087 125.998125 
L 329.607945 125.998125 
L 329.607945 120.908287 
L 328.15087 120.908287 
z
" clip-path="url(#pb256239f1e)" style="fill: #1f77b4"/>
   </g>
   <g id="patch_159">
    <path d="M 329.607945 125.998125 
L 331.06502 125.998125 
L 331.06502 123.96219 
L 329.607945 123.96219 
z
" clip-path="url(#pb256239f1e)" style="fill: #1f77b4"/>
   </g>
   <g id="patch_160">
    <path d="M 331.06502 125.998125 
L 332.522095 125.998125 
L 332.522095 123.96219 
L 331.06502 123.96219 
z
" clip-path="url(#pb256239f1e)" style="fill: #1f77b4"/>
   </g>
   <g id="patch_161">
    <path d="M 332.522095 125.998125 
L 333.97917 125.998125 
L 333.97917 121.926255 
L 332.522095 121.926255 
z
" clip-path="url(#pb256239f1e)" style="fill: #1f77b4"/>
   </g>
   <g id="patch_162">
    <path d="M 333.97917 125.998125 
L 335.436245 125.998125 
L 335.436245 122.944222 
L 333.97917 122.944222 
z
" clip-path="url(#pb256239f1e)" style="fill: #1f77b4"/>
   </g>
   <g id="patch_163">
    <path d="M 335.436245 125.998125 
L 336.89332 125.998125 
L 336.89332 125.998125 
L 335.436245 125.998125 
z
" clip-path="url(#pb256239f1e)" style="fill: #1f77b4"/>
   </g>
   <g id="patch_164">
    <path d="M 336.89332 125.998125 
L 338.350395 125.998125 
L 338.350395 124.980157 
L 336.89332 124.980157 
z
" clip-path="url(#pb256239f1e)" style="fill: #1f77b4"/>
   </g>
   <g id="patch_165">
    <path d="M 338.350395 125.998125 
L 339.80747 125.998125 
L 339.80747 125.998125 
L 338.350395 125.998125 
z
" clip-path="url(#pb256239f1e)" style="fill: #1f77b4"/>
   </g>
   <g id="patch_166">
    <path d="M 339.80747 125.998125 
L 341.264545 125.998125 
L 341.264545 125.998125 
L 339.80747 125.998125 
z
" clip-path="url(#pb256239f1e)" style="fill: #1f77b4"/>
   </g>
   <g id="patch_167">
    <path d="M 341.264545 125.998125 
L 342.721621 125.998125 
L 342.721621 124.980157 
L 341.264545 124.980157 
z
" clip-path="url(#pb256239f1e)" style="fill: #1f77b4"/>
   </g>
   <g id="patch_168">
    <path d="M 342.721621 125.998125 
L 344.178696 125.998125 
L 344.178696 123.96219 
L 342.721621 123.96219 
z
" clip-path="url(#pb256239f1e)" style="fill: #1f77b4"/>
   </g>
   <g id="patch_169">
    <path d="M 344.178696 125.998125 
L 345.635771 125.998125 
L 345.635771 125.998125 
L 344.178696 125.998125 
z
" clip-path="url(#pb256239f1e)" style="fill: #1f77b4"/>
   </g>
   <g id="patch_170">
    <path d="M 345.635771 125.998125 
L 347.092846 125.998125 
L 347.092846 124.980157 
L 345.635771 124.980157 
z
" clip-path="url(#pb256239f1e)" style="fill: #1f77b4"/>
   </g>
   <g id="patch_171">
    <path d="M 347.092846 125.998125 
L 348.549921 125.998125 
L 348.549921 123.96219 
L 347.092846 123.96219 
z
" clip-path="url(#pb256239f1e)" style="fill: #1f77b4"/>
   </g>
   <g id="patch_172">
    <path d="M 348.549921 125.998125 
L 350.006996 125.998125 
L 350.006996 124.980157 
L 348.549921 124.980157 
z
" clip-path="url(#pb256239f1e)" style="fill: #1f77b4"/>
   </g>
   <g id="patch_173">
    <path d="M 350.006996 125.998125 
L 351.464071 125.998125 
L 351.464071 123.96219 
L 350.006996 123.96219 
z
" clip-path="url(#pb256239f1e)" style="fill: #1f77b4"/>
   </g>
   <g id="patch_174">
    <path d="M 351.464071 125.998125 
L 352.921146 125.998125 
L 352.921146 125.998125 
L 351.464071 125.998125 
z
" clip-path="url(#pb256239f1e)" style="fill: #1f77b4"/>
   </g>
   <g id="patch_175">
    <path d="M 352.921146 125.998125 
L 354.378221 125.998125 
L 354.378221 125.998125 
L 352.921146 125.998125 
z
" clip-path="url(#pb256239f1e)" style="fill: #1f77b4"/>
   </g>
   <g id="patch_176">
    <path d="M 354.378221 125.998125 
L 355.835296 125.998125 
L 355.835296 125.998125 
L 354.378221 125.998125 
z
" clip-path="url(#pb256239f1e)" style="fill: #1f77b4"/>
   </g>
   <g id="patch_177">
    <path d="M 355.835296 125.998125 
L 357.292372 125.998125 
L 357.292372 125.998125 
L 355.835296 125.998125 
z
" clip-path="url(#pb256239f1e)" style="fill: #1f77b4"/>
   </g>
   <g id="patch_178">
    <path d="M 357.292372 125.998125 
L 358.749447 125.998125 
L 358.749447 125.998125 
L 357.292372 125.998125 
z
" clip-path="url(#pb256239f1e)" style="fill: #1f77b4"/>
   </g>
   <g id="patch_179">
    <path d="M 358.749447 125.998125 
L 360.206522 125.998125 
L 360.206522 125.998125 
L 358.749447 125.998125 
z
" clip-path="url(#pb256239f1e)" style="fill: #1f77b4"/>
   </g>
   <g id="patch_180">
    <path d="M 360.206522 125.998125 
L 361.663597 125.998125 
L 361.663597 124.980157 
L 360.206522 124.980157 
z
" clip-path="url(#pb256239f1e)" style="fill: #1f77b4"/>
   </g>
   <g id="patch_181">
    <path d="M 361.663597 125.998125 
L 363.120672 125.998125 
L 363.120672 123.96219 
L 361.663597 123.96219 
z
" clip-path="url(#pb256239f1e)" style="fill: #1f77b4"/>
   </g>
   <g id="patch_182">
    <path d="M 363.120672 125.998125 
L 364.577747 125.998125 
L 364.577747 125.998125 
L 363.120672 125.998125 
z
" clip-path="url(#pb256239f1e)" style="fill: #1f77b4"/>
   </g>
   <g id="patch_183">
    <path d="M 364.577747 125.998125 
L 366.034822 125.998125 
L 366.034822 125.998125 
L 364.577747 125.998125 
z
" clip-path="url(#pb256239f1e)" style="fill: #1f77b4"/>
   </g>
   <g id="patch_184">
    <path d="M 366.034822 125.998125 
L 367.491897 125.998125 
L 367.491897 125.998125 
L 366.034822 125.998125 
z
" clip-path="url(#pb256239f1e)" style="fill: #1f77b4"/>
   </g>
   <g id="patch_185">
    <path d="M 367.491897 125.998125 
L 368.948972 125.998125 
L 368.948972 124.980157 
L 367.491897 124.980157 
z
" clip-path="url(#pb256239f1e)" style="fill: #1f77b4"/>
   </g>
   <g id="patch_186">
    <path d="M 368.948972 125.998125 
L 370.406047 125.998125 
L 370.406047 125.998125 
L 368.948972 125.998125 
z
" clip-path="url(#pb256239f1e)" style="fill: #1f77b4"/>
   </g>
   <g id="patch_187">
    <path d="M 370.406047 125.998125 
L 371.863123 125.998125 
L 371.863123 125.998125 
L 370.406047 125.998125 
z
" clip-path="url(#pb256239f1e)" style="fill: #1f77b4"/>
   </g>
   <g id="patch_188">
    <path d="M 371.863123 125.998125 
L 373.320198 125.998125 
L 373.320198 124.980157 
L 371.863123 124.980157 
z
" clip-path="url(#pb256239f1e)" style="fill: #1f77b4"/>
   </g>
   <g id="patch_189">
    <path d="M 373.320198 125.998125 
L 374.777273 125.998125 
L 374.777273 125.998125 
L 373.320198 125.998125 
z
" clip-path="url(#pb256239f1e)" style="fill: #1f77b4"/>
   </g>
   <g id="patch_190">
    <path d="M 374.777273 125.998125 
L 376.234348 125.998125 
L 376.234348 125.998125 
L 374.777273 125.998125 
z
" clip-path="url(#pb256239f1e)" style="fill: #1f77b4"/>
   </g>
   <g id="patch_191">
    <path d="M 376.234348 125.998125 
L 377.691423 125.998125 
L 377.691423 125.998125 
L 376.234348 125.998125 
z
" clip-path="url(#pb256239f1e)" style="fill: #1f77b4"/>
   </g>
   <g id="patch_192">
    <path d="M 377.691423 125.998125 
L 379.148498 125.998125 
L 379.148498 125.998125 
L 377.691423 125.998125 
z
" clip-path="url(#pb256239f1e)" style="fill: #1f77b4"/>
   </g>
   <g id="patch_193">
    <path d="M 379.148498 125.998125 
L 380.605573 125.998125 
L 380.605573 125.998125 
L 379.148498 125.998125 
z
" clip-path="url(#pb256239f1e)" style="fill: #1f77b4"/>
   </g>
   <g id="patch_194">
    <path d="M 380.605573 125.998125 
L 382.062648 125.998125 
L 382.062648 125.998125 
L 380.605573 125.998125 
z
" clip-path="url(#pb256239f1e)" style="fill: #1f77b4"/>
   </g>
   <g id="patch_195">
    <path d="M 382.062648 125.998125 
L 383.519723 125.998125 
L 383.519723 125.998125 
L 382.062648 125.998125 
z
" clip-path="url(#pb256239f1e)" style="fill: #1f77b4"/>
   </g>
   <g id="patch_196">
    <path d="M 383.519723 125.998125 
L 384.976798 125.998125 
L 384.976798 125.998125 
L 383.519723 125.998125 
z
" clip-path="url(#pb256239f1e)" style="fill: #1f77b4"/>
   </g>
   <g id="patch_197">
    <path d="M 384.976798 125.998125 
L 386.433874 125.998125 
L 386.433874 125.998125 
L 384.976798 125.998125 
z
" clip-path="url(#pb256239f1e)" style="fill: #1f77b4"/>
   </g>
   <g id="patch_198">
    <path d="M 386.433874 125.998125 
L 387.890949 125.998125 
L 387.890949 125.998125 
L 386.433874 125.998125 
z
" clip-path="url(#pb256239f1e)" style="fill: #1f77b4"/>
   </g>
   <g id="patch_199">
    <path d="M 387.890949 125.998125 
L 389.348024 125.998125 
L 389.348024 125.998125 
L 387.890949 125.998125 
z
" clip-path="url(#pb256239f1e)" style="fill: #1f77b4"/>
   </g>
   <g id="patch_200">
    <path d="M 389.348024 125.998125 
L 390.805099 125.998125 
L 390.805099 125.998125 
L 389.348024 125.998125 
z
" clip-path="url(#pb256239f1e)" style="fill: #1f77b4"/>
   </g>
   <g id="patch_201">
    <path d="M 390.805099 125.998125 
L 392.262174 125.998125 
L 392.262174 125.998125 
L 390.805099 125.998125 
z
" clip-path="url(#pb256239f1e)" style="fill: #1f77b4"/>
   </g>
   <g id="patch_202">
    <path d="M 392.262174 125.998125 
L 393.719249 125.998125 
L 393.719249 125.998125 
L 392.262174 125.998125 
z
" clip-path="url(#pb256239f1e)" style="fill: #1f77b4"/>
   </g>
   <g id="patch_203">
    <path d="M 393.719249 125.998125 
L 395.176324 125.998125 
L 395.176324 125.998125 
L 393.719249 125.998125 
z
" clip-path="url(#pb256239f1e)" style="fill: #1f77b4"/>
   </g>
   <g id="patch_204">
    <path d="M 395.176324 125.998125 
L 396.633399 125.998125 
L 396.633399 125.998125 
L 395.176324 125.998125 
z
" clip-path="url(#pb256239f1e)" style="fill: #1f77b4"/>
   </g>
   <g id="patch_205">
    <path d="M 396.633399 125.998125 
L 398.090474 125.998125 
L 398.090474 125.998125 
L 396.633399 125.998125 
z
" clip-path="url(#pb256239f1e)" style="fill: #1f77b4"/>
   </g>
   <g id="patch_206">
    <path d="M 398.090474 125.998125 
L 399.547549 125.998125 
L 399.547549 125.998125 
L 398.090474 125.998125 
z
" clip-path="url(#pb256239f1e)" style="fill: #1f77b4"/>
   </g>
   <g id="patch_207">
    <path d="M 399.547549 125.998125 
L 401.004625 125.998125 
L 401.004625 124.980157 
L 399.547549 124.980157 
z
" clip-path="url(#pb256239f1e)" style="fill: #1f77b4"/>
   </g>
   <g id="matplotlib.axis_3">
    <g id="xtick_4">
     <g id="line2d_9">
      <g>
       <use xlink:href="#mccf19c8ec1" x="267.672018" y="125.998125" style="stroke: #000000; stroke-width: 0.8"/>
      </g>
     </g>
     <g id="text_10">
      <!-- 0.5 -->
      <g transform="translate(270.431393 148.90125) rotate(-90) scale(0.1 -0.1)">
       <defs>
        <path id="DejaVuSans-2e" d="M 684 794 
L 1344 794 
L 1344 0 
L 684 0 
L 684 794 
z
" transform="scale(0.015625)"/>
       </defs>
       <use xlink:href="#DejaVuSans-30"/>
       <use xlink:href="#DejaVuSans-2e" x="63.623047"/>
       <use xlink:href="#DejaVuSans-35" x="95.410156"/>
      </g>
     </g>
    </g>
    <g id="xtick_5">
     <g id="line2d_10">
      <g>
       <use xlink:href="#mccf19c8ec1" x="314.194212" y="125.998125" style="stroke: #000000; stroke-width: 0.8"/>
      </g>
     </g>
     <g id="text_11">
      <!-- 1.0 -->
      <g transform="translate(316.953587 148.90125) rotate(-90) scale(0.1 -0.1)">
       <use xlink:href="#DejaVuSans-31"/>
       <use xlink:href="#DejaVuSans-2e" x="63.623047"/>
       <use xlink:href="#DejaVuSans-30" x="95.410156"/>
      </g>
     </g>
    </g>
    <g id="xtick_6">
     <g id="line2d_11">
      <g>
       <use xlink:href="#mccf19c8ec1" x="360.716405" y="125.998125" style="stroke: #000000; stroke-width: 0.8"/>
      </g>
     </g>
     <g id="text_12">
      <!-- 1.5 -->
      <g transform="translate(363.47578 148.90125) rotate(-90) scale(0.1 -0.1)">
       <use xlink:href="#DejaVuSans-31"/>
       <use xlink:href="#DejaVuSans-2e" x="63.623047"/>
       <use xlink:href="#DejaVuSans-35" x="95.410156"/>
      </g>
     </g>
    </g>
    <g id="xtick_7">
     <g id="line2d_12">
      <g>
       <use xlink:href="#mccf19c8ec1" x="407.238598" y="125.998125" style="stroke: #000000; stroke-width: 0.8"/>
      </g>
     </g>
     <g id="text_13">
      <!-- 2.0 -->
      <g transform="translate(409.997973 148.90125) rotate(-90) scale(0.1 -0.1)">
       <use xlink:href="#DejaVuSans-32"/>
       <use xlink:href="#DejaVuSans-2e" x="63.623047"/>
       <use xlink:href="#DejaVuSans-30" x="95.410156"/>
      </g>
     </g>
    </g>
   </g>
   <g id="matplotlib.axis_4">
    <g id="ytick_6">
     <g id="line2d_13">
      <g>
       <use xlink:href="#m6021a44f05" x="248.011739" y="125.998125" style="stroke: #000000; stroke-width: 0.8"/>
      </g>
     </g>
     <g id="text_14">
      <!-- 0 -->
      <g transform="translate(234.649239 129.797344) scale(0.1 -0.1)">
       <use xlink:href="#DejaVuSans-30"/>
      </g>
     </g>
    </g>
    <g id="ytick_7">
     <g id="line2d_14">
      <g>
       <use xlink:href="#m6021a44f05" x="248.011739" y="100.548935" style="stroke: #000000; stroke-width: 0.8"/>
      </g>
     </g>
     <g id="text_15">
      <!-- 25 -->
      <g transform="translate(228.286739 104.348154) scale(0.1 -0.1)">
       <use xlink:href="#DejaVuSans-32"/>
       <use xlink:href="#DejaVuSans-35" x="63.623047"/>
      </g>
     </g>
    </g>
    <g id="ytick_8">
     <g id="line2d_15">
      <g>
       <use xlink:href="#m6021a44f05" x="248.011739" y="75.099745" style="stroke: #000000; stroke-width: 0.8"/>
      </g>
     </g>
     <g id="text_16">
      <!-- 50 -->
      <g transform="translate(228.286739 78.898964) scale(0.1 -0.1)">
       <use xlink:href="#DejaVuSans-35"/>
       <use xlink:href="#DejaVuSans-30" x="63.623047"/>
      </g>
     </g>
    </g>
    <g id="ytick_9">
     <g id="line2d_16">
      <g>
       <use xlink:href="#m6021a44f05" x="248.011739" y="49.650555" style="stroke: #000000; stroke-width: 0.8"/>
      </g>
     </g>
     <g id="text_17">
      <!-- 75 -->
      <g transform="translate(228.286739 53.449774) scale(0.1 -0.1)">
       <defs>
        <path id="DejaVuSans-37" d="M 525 4666 
L 3525 4666 
L 3525 4397 
L 1831 0 
L 1172 0 
L 2766 4134 
L 525 4134 
L 525 4666 
z
" transform="scale(0.015625)"/>
       </defs>
       <use xlink:href="#DejaVuSans-37"/>
       <use xlink:href="#DejaVuSans-35" x="63.623047"/>
      </g>
     </g>
    </g>
    <g id="ytick_10">
     <g id="line2d_17">
      <g>
       <use xlink:href="#m6021a44f05" x="248.011739" y="24.201365" style="stroke: #000000; stroke-width: 0.8"/>
      </g>
     </g>
     <g id="text_18">
      <!-- 100 -->
      <g transform="translate(221.924239 28.000584) scale(0.1 -0.1)">
       <use xlink:href="#DejaVuSans-31"/>
       <use xlink:href="#DejaVuSans-30" x="63.623047"/>
       <use xlink:href="#DejaVuSans-30" x="127.246094"/>
      </g>
     </g>
    </g>
   </g>
   <g id="patch_208">
    <path d="M 248.011739 125.998125 
L 248.011739 22.318125 
" style="fill: none; stroke: #000000; stroke-width: 0.8; stroke-linejoin: miter; stroke-linecap: square"/>
   </g>
   <g id="patch_209">
    <path d="M 408.29 125.998125 
L 408.29 22.318125 
" style="fill: none; stroke: #000000; stroke-width: 0.8; stroke-linejoin: miter; stroke-linecap: square"/>
   </g>
   <g id="patch_210">
    <path d="M 248.011739 125.998125 
L 408.29 125.998125 
" style="fill: none; stroke: #000000; stroke-width: 0.8; stroke-linejoin: miter; stroke-linecap: square"/>
   </g>
   <g id="patch_211">
    <path d="M 248.011739 22.318125 
L 408.29 22.318125 
" style="fill: none; stroke: #000000; stroke-width: 0.8; stroke-linejoin: miter; stroke-linecap: square"/>
   </g>
   <g id="text_19">
    <!-- mikulski -->
    <g transform="translate(303.616495 16.318125) scale(0.12 -0.12)">
     <defs>
      <path id="DejaVuSans-6d" d="M 3328 2828 
Q 3544 3216 3844 3400 
Q 4144 3584 4550 3584 
Q 5097 3584 5394 3201 
Q 5691 2819 5691 2113 
L 5691 0 
L 5113 0 
L 5113 2094 
Q 5113 2597 4934 2840 
Q 4756 3084 4391 3084 
Q 3944 3084 3684 2787 
Q 3425 2491 3425 1978 
L 3425 0 
L 2847 0 
L 2847 2094 
Q 2847 2600 2669 2842 
Q 2491 3084 2119 3084 
Q 1678 3084 1418 2786 
Q 1159 2488 1159 1978 
L 1159 0 
L 581 0 
L 581 3500 
L 1159 3500 
L 1159 2956 
Q 1356 3278 1631 3431 
Q 1906 3584 2284 3584 
Q 2666 3584 2933 3390 
Q 3200 3197 3328 2828 
z
" transform="scale(0.015625)"/>
      <path id="DejaVuSans-6b" d="M 581 4863 
L 1159 4863 
L 1159 1991 
L 2875 3500 
L 3609 3500 
L 1753 1863 
L 3688 0 
L 2938 0 
L 1159 1709 
L 1159 0 
L 581 0 
L 581 4863 
z
" transform="scale(0.015625)"/>
      <path id="DejaVuSans-75" d="M 544 1381 
L 544 3500 
L 1119 3500 
L 1119 1403 
Q 1119 906 1312 657 
Q 1506 409 1894 409 
Q 2359 409 2629 706 
Q 2900 1003 2900 1516 
L 2900 3500 
L 3475 3500 
L 3475 0 
L 2900 0 
L 2900 538 
Q 2691 219 2414 64 
Q 2138 -91 1772 -91 
Q 1169 -91 856 284 
Q 544 659 544 1381 
z
M 1991 3584 
L 1991 3584 
z
" transform="scale(0.015625)"/>
      <path id="DejaVuSans-6c" d="M 603 4863 
L 1178 4863 
L 1178 0 
L 603 0 
L 603 4863 
z
" transform="scale(0.015625)"/>
     </defs>
     <use xlink:href="#DejaVuSans-6d"/>
     <use xlink:href="#DejaVuSans-69" x="97.412109"/>
     <use xlink:href="#DejaVuSans-6b" x="125.195312"/>
     <use xlink:href="#DejaVuSans-75" x="179.980469"/>
     <use xlink:href="#DejaVuSans-6c" x="243.359375"/>
     <use xlink:href="#DejaVuSans-73" x="271.142578"/>
     <use xlink:href="#DejaVuSans-6b" x="323.242188"/>
     <use xlink:href="#DejaVuSans-69" x="381.152344"/>
    </g>
   </g>
  </g>
  <g id="axes_3">
   <g id="patch_212">
    <path d="M 39.65 281.518125 
L 199.928261 281.518125 
L 199.928261 177.838125 
L 39.65 177.838125 
z
" style="fill: #ffffff"/>
   </g>
   <g id="patch_213">
    <path d="M 46.935375 281.518125 
L 48.392451 281.518125 
L 48.392451 182.775268 
L 46.935375 182.775268 
z
" clip-path="url(#pd2a4e830e5)" style="fill: #1f77b4"/>
   </g>
   <g id="patch_214">
    <path d="M 48.392451 281.518125 
L 49.849526 281.518125 
L 49.849526 275.488781 
L 48.392451 275.488781 
z
" clip-path="url(#pd2a4e830e5)" style="fill: #1f77b4"/>
   </g>
   <g id="patch_215">
    <path d="M 49.849526 281.518125 
L 51.306601 281.518125 
L 51.306601 280.727391 
L 49.849526 280.727391 
z
" clip-path="url(#pd2a4e830e5)" style="fill: #1f77b4"/>
   </g>
   <g id="patch_216">
    <path d="M 51.306601 281.518125 
L 52.763676 281.518125 
L 52.763676 281.023917 
L 51.306601 281.023917 
z
" clip-path="url(#pd2a4e830e5)" style="fill: #1f77b4"/>
   </g>
   <g id="patch_217">
    <path d="M 52.763676 281.518125 
L 54.220751 281.518125 
L 54.220751 281.518125 
L 52.763676 281.518125 
z
" clip-path="url(#pd2a4e830e5)" style="fill: #1f77b4"/>
   </g>
   <g id="patch_218">
    <path d="M 54.220751 281.518125 
L 55.677826 281.518125 
L 55.677826 281.419283 
L 54.220751 281.419283 
z
" clip-path="url(#pd2a4e830e5)" style="fill: #1f77b4"/>
   </g>
   <g id="patch_219">
    <path d="M 55.677826 281.518125 
L 57.134901 281.518125 
L 57.134901 281.518125 
L 55.677826 281.518125 
z
" clip-path="url(#pd2a4e830e5)" style="fill: #1f77b4"/>
   </g>
   <g id="patch_220">
    <path d="M 57.134901 281.518125 
L 58.591976 281.518125 
L 58.591976 281.518125 
L 57.134901 281.518125 
z
" clip-path="url(#pd2a4e830e5)" style="fill: #1f77b4"/>
   </g>
   <g id="patch_221">
    <path d="M 58.591976 281.518125 
L 60.049051 281.518125 
L 60.049051 281.518125 
L 58.591976 281.518125 
z
" clip-path="url(#pd2a4e830e5)" style="fill: #1f77b4"/>
   </g>
   <g id="patch_222">
    <path d="M 60.049051 281.518125 
L 61.506126 281.518125 
L 61.506126 281.518125 
L 60.049051 281.518125 
z
" clip-path="url(#pd2a4e830e5)" style="fill: #1f77b4"/>
   </g>
   <g id="patch_223">
    <path d="M 61.506126 281.518125 
L 62.963202 281.518125 
L 62.963202 281.518125 
L 61.506126 281.518125 
z
" clip-path="url(#pd2a4e830e5)" style="fill: #1f77b4"/>
   </g>
   <g id="patch_224">
    <path d="M 62.963202 281.518125 
L 64.420277 281.518125 
L 64.420277 281.518125 
L 62.963202 281.518125 
z
" clip-path="url(#pd2a4e830e5)" style="fill: #1f77b4"/>
   </g>
   <g id="patch_225">
    <path d="M 64.420277 281.518125 
L 65.877352 281.518125 
L 65.877352 281.419283 
L 64.420277 281.419283 
z
" clip-path="url(#pd2a4e830e5)" style="fill: #1f77b4"/>
   </g>
   <g id="patch_226">
    <path d="M 65.877352 281.518125 
L 67.334427 281.518125 
L 67.334427 281.518125 
L 65.877352 281.518125 
z
" clip-path="url(#pd2a4e830e5)" style="fill: #1f77b4"/>
   </g>
   <g id="patch_227">
    <path d="M 67.334427 281.518125 
L 68.791502 281.518125 
L 68.791502 281.518125 
L 67.334427 281.518125 
z
" clip-path="url(#pd2a4e830e5)" style="fill: #1f77b4"/>
   </g>
   <g id="patch_228">
    <path d="M 68.791502 281.518125 
L 70.248577 281.518125 
L 70.248577 281.518125 
L 68.791502 281.518125 
z
" clip-path="url(#pd2a4e830e5)" style="fill: #1f77b4"/>
   </g>
   <g id="patch_229">
    <path d="M 70.248577 281.518125 
L 71.705652 281.518125 
L 71.705652 281.518125 
L 70.248577 281.518125 
z
" clip-path="url(#pd2a4e830e5)" style="fill: #1f77b4"/>
   </g>
   <g id="patch_230">
    <path d="M 71.705652 281.518125 
L 73.162727 281.518125 
L 73.162727 281.518125 
L 71.705652 281.518125 
z
" clip-path="url(#pd2a4e830e5)" style="fill: #1f77b4"/>
   </g>
   <g id="patch_231">
    <path d="M 73.162727 281.518125 
L 74.619802 281.518125 
L 74.619802 281.518125 
L 73.162727 281.518125 
z
" clip-path="url(#pd2a4e830e5)" style="fill: #1f77b4"/>
   </g>
   <g id="patch_232">
    <path d="M 74.619802 281.518125 
L 76.076877 281.518125 
L 76.076877 281.518125 
L 74.619802 281.518125 
z
" clip-path="url(#pd2a4e830e5)" style="fill: #1f77b4"/>
   </g>
   <g id="patch_233">
    <path d="M 76.076877 281.518125 
L 77.533953 281.518125 
L 77.533953 281.518125 
L 76.076877 281.518125 
z
" clip-path="url(#pd2a4e830e5)" style="fill: #1f77b4"/>
   </g>
   <g id="patch_234">
    <path d="M 77.533953 281.518125 
L 78.991028 281.518125 
L 78.991028 281.518125 
L 77.533953 281.518125 
z
" clip-path="url(#pd2a4e830e5)" style="fill: #1f77b4"/>
   </g>
   <g id="patch_235">
    <path d="M 78.991028 281.518125 
L 80.448103 281.518125 
L 80.448103 281.518125 
L 78.991028 281.518125 
z
" clip-path="url(#pd2a4e830e5)" style="fill: #1f77b4"/>
   </g>
   <g id="patch_236">
    <path d="M 80.448103 281.518125 
L 81.905178 281.518125 
L 81.905178 281.518125 
L 80.448103 281.518125 
z
" clip-path="url(#pd2a4e830e5)" style="fill: #1f77b4"/>
   </g>
   <g id="patch_237">
    <path d="M 81.905178 281.518125 
L 83.362253 281.518125 
L 83.362253 281.518125 
L 81.905178 281.518125 
z
" clip-path="url(#pd2a4e830e5)" style="fill: #1f77b4"/>
   </g>
   <g id="patch_238">
    <path d="M 83.362253 281.518125 
L 84.819328 281.518125 
L 84.819328 281.518125 
L 83.362253 281.518125 
z
" clip-path="url(#pd2a4e830e5)" style="fill: #1f77b4"/>
   </g>
   <g id="patch_239">
    <path d="M 84.819328 281.518125 
L 86.276403 281.518125 
L 86.276403 281.518125 
L 84.819328 281.518125 
z
" clip-path="url(#pd2a4e830e5)" style="fill: #1f77b4"/>
   </g>
   <g id="patch_240">
    <path d="M 86.276403 281.518125 
L 87.733478 281.518125 
L 87.733478 281.518125 
L 86.276403 281.518125 
z
" clip-path="url(#pd2a4e830e5)" style="fill: #1f77b4"/>
   </g>
   <g id="patch_241">
    <path d="M 87.733478 281.518125 
L 89.190553 281.518125 
L 89.190553 281.518125 
L 87.733478 281.518125 
z
" clip-path="url(#pd2a4e830e5)" style="fill: #1f77b4"/>
   </g>
   <g id="patch_242">
    <path d="M 89.190553 281.518125 
L 90.647628 281.518125 
L 90.647628 281.518125 
L 89.190553 281.518125 
z
" clip-path="url(#pd2a4e830e5)" style="fill: #1f77b4"/>
   </g>
   <g id="patch_243">
    <path d="M 90.647628 281.518125 
L 92.104704 281.518125 
L 92.104704 281.518125 
L 90.647628 281.518125 
z
" clip-path="url(#pd2a4e830e5)" style="fill: #1f77b4"/>
   </g>
   <g id="patch_244">
    <path d="M 92.104704 281.518125 
L 93.561779 281.518125 
L 93.561779 281.419283 
L 92.104704 281.419283 
z
" clip-path="url(#pd2a4e830e5)" style="fill: #1f77b4"/>
   </g>
   <g id="patch_245">
    <path d="M 93.561779 281.518125 
L 95.018854 281.518125 
L 95.018854 281.518125 
L 93.561779 281.518125 
z
" clip-path="url(#pd2a4e830e5)" style="fill: #1f77b4"/>
   </g>
   <g id="patch_246">
    <path d="M 95.018854 281.518125 
L 96.475929 281.518125 
L 96.475929 281.518125 
L 95.018854 281.518125 
z
" clip-path="url(#pd2a4e830e5)" style="fill: #1f77b4"/>
   </g>
   <g id="patch_247">
    <path d="M 96.475929 281.518125 
L 97.933004 281.518125 
L 97.933004 281.419283 
L 96.475929 281.419283 
z
" clip-path="url(#pd2a4e830e5)" style="fill: #1f77b4"/>
   </g>
   <g id="patch_248">
    <path d="M 97.933004 281.518125 
L 99.390079 281.518125 
L 99.390079 281.518125 
L 97.933004 281.518125 
z
" clip-path="url(#pd2a4e830e5)" style="fill: #1f77b4"/>
   </g>
   <g id="patch_249">
    <path d="M 99.390079 281.518125 
L 100.847154 281.518125 
L 100.847154 281.518125 
L 99.390079 281.518125 
z
" clip-path="url(#pd2a4e830e5)" style="fill: #1f77b4"/>
   </g>
   <g id="patch_250">
    <path d="M 100.847154 281.518125 
L 102.304229 281.518125 
L 102.304229 281.518125 
L 100.847154 281.518125 
z
" clip-path="url(#pd2a4e830e5)" style="fill: #1f77b4"/>
   </g>
   <g id="patch_251">
    <path d="M 102.304229 281.518125 
L 103.761304 281.518125 
L 103.761304 281.518125 
L 102.304229 281.518125 
z
" clip-path="url(#pd2a4e830e5)" style="fill: #1f77b4"/>
   </g>
   <g id="patch_252">
    <path d="M 103.761304 281.518125 
L 105.218379 281.518125 
L 105.218379 281.518125 
L 103.761304 281.518125 
z
" clip-path="url(#pd2a4e830e5)" style="fill: #1f77b4"/>
   </g>
   <g id="patch_253">
    <path d="M 105.218379 281.518125 
L 106.675455 281.518125 
L 106.675455 281.518125 
L 105.218379 281.518125 
z
" clip-path="url(#pd2a4e830e5)" style="fill: #1f77b4"/>
   </g>
   <g id="patch_254">
    <path d="M 106.675455 281.518125 
L 108.13253 281.518125 
L 108.13253 281.518125 
L 106.675455 281.518125 
z
" clip-path="url(#pd2a4e830e5)" style="fill: #1f77b4"/>
   </g>
   <g id="patch_255">
    <path d="M 108.13253 281.518125 
L 109.589605 281.518125 
L 109.589605 281.518125 
L 108.13253 281.518125 
z
" clip-path="url(#pd2a4e830e5)" style="fill: #1f77b4"/>
   </g>
   <g id="patch_256">
    <path d="M 109.589605 281.518125 
L 111.04668 281.518125 
L 111.04668 281.518125 
L 109.589605 281.518125 
z
" clip-path="url(#pd2a4e830e5)" style="fill: #1f77b4"/>
   </g>
   <g id="patch_257">
    <path d="M 111.04668 281.518125 
L 112.503755 281.518125 
L 112.503755 281.518125 
L 111.04668 281.518125 
z
" clip-path="url(#pd2a4e830e5)" style="fill: #1f77b4"/>
   </g>
   <g id="patch_258">
    <path d="M 112.503755 281.518125 
L 113.96083 281.518125 
L 113.96083 281.518125 
L 112.503755 281.518125 
z
" clip-path="url(#pd2a4e830e5)" style="fill: #1f77b4"/>
   </g>
   <g id="patch_259">
    <path d="M 113.96083 281.518125 
L 115.417905 281.518125 
L 115.417905 281.518125 
L 113.96083 281.518125 
z
" clip-path="url(#pd2a4e830e5)" style="fill: #1f77b4"/>
   </g>
   <g id="patch_260">
    <path d="M 115.417905 281.518125 
L 116.87498 281.518125 
L 116.87498 281.518125 
L 115.417905 281.518125 
z
" clip-path="url(#pd2a4e830e5)" style="fill: #1f77b4"/>
   </g>
   <g id="patch_261">
    <path d="M 116.87498 281.518125 
L 118.332055 281.518125 
L 118.332055 281.518125 
L 116.87498 281.518125 
z
" clip-path="url(#pd2a4e830e5)" style="fill: #1f77b4"/>
   </g>
   <g id="patch_262">
    <path d="M 118.332055 281.518125 
L 119.78913 281.518125 
L 119.78913 281.518125 
L 118.332055 281.518125 
z
" clip-path="url(#pd2a4e830e5)" style="fill: #1f77b4"/>
   </g>
   <g id="patch_263">
    <path d="M 119.78913 281.518125 
L 121.246206 281.518125 
L 121.246206 281.518125 
L 119.78913 281.518125 
z
" clip-path="url(#pd2a4e830e5)" style="fill: #1f77b4"/>
   </g>
   <g id="patch_264">
    <path d="M 121.246206 281.518125 
L 122.703281 281.518125 
L 122.703281 281.518125 
L 121.246206 281.518125 
z
" clip-path="url(#pd2a4e830e5)" style="fill: #1f77b4"/>
   </g>
   <g id="patch_265">
    <path d="M 122.703281 281.518125 
L 124.160356 281.518125 
L 124.160356 281.518125 
L 122.703281 281.518125 
z
" clip-path="url(#pd2a4e830e5)" style="fill: #1f77b4"/>
   </g>
   <g id="patch_266">
    <path d="M 124.160356 281.518125 
L 125.617431 281.518125 
L 125.617431 281.518125 
L 124.160356 281.518125 
z
" clip-path="url(#pd2a4e830e5)" style="fill: #1f77b4"/>
   </g>
   <g id="patch_267">
    <path d="M 125.617431 281.518125 
L 127.074506 281.518125 
L 127.074506 281.518125 
L 125.617431 281.518125 
z
" clip-path="url(#pd2a4e830e5)" style="fill: #1f77b4"/>
   </g>
   <g id="patch_268">
    <path d="M 127.074506 281.518125 
L 128.531581 281.518125 
L 128.531581 281.518125 
L 127.074506 281.518125 
z
" clip-path="url(#pd2a4e830e5)" style="fill: #1f77b4"/>
   </g>
   <g id="patch_269">
    <path d="M 128.531581 281.518125 
L 129.988656 281.518125 
L 129.988656 281.518125 
L 128.531581 281.518125 
z
" clip-path="url(#pd2a4e830e5)" style="fill: #1f77b4"/>
   </g>
   <g id="patch_270">
    <path d="M 129.988656 281.518125 
L 131.445731 281.518125 
L 131.445731 281.518125 
L 129.988656 281.518125 
z
" clip-path="url(#pd2a4e830e5)" style="fill: #1f77b4"/>
   </g>
   <g id="patch_271">
    <path d="M 131.445731 281.518125 
L 132.902806 281.518125 
L 132.902806 281.518125 
L 131.445731 281.518125 
z
" clip-path="url(#pd2a4e830e5)" style="fill: #1f77b4"/>
   </g>
   <g id="patch_272">
    <path d="M 132.902806 281.518125 
L 134.359881 281.518125 
L 134.359881 281.518125 
L 132.902806 281.518125 
z
" clip-path="url(#pd2a4e830e5)" style="fill: #1f77b4"/>
   </g>
   <g id="patch_273">
    <path d="M 134.359881 281.518125 
L 135.816957 281.518125 
L 135.816957 281.419283 
L 134.359881 281.419283 
z
" clip-path="url(#pd2a4e830e5)" style="fill: #1f77b4"/>
   </g>
   <g id="patch_274">
    <path d="M 135.816957 281.518125 
L 137.274032 281.518125 
L 137.274032 281.518125 
L 135.816957 281.518125 
z
" clip-path="url(#pd2a4e830e5)" style="fill: #1f77b4"/>
   </g>
   <g id="patch_275">
    <path d="M 137.274032 281.518125 
L 138.731107 281.518125 
L 138.731107 281.518125 
L 137.274032 281.518125 
z
" clip-path="url(#pd2a4e830e5)" style="fill: #1f77b4"/>
   </g>
   <g id="patch_276">
    <path d="M 138.731107 281.518125 
L 140.188182 281.518125 
L 140.188182 281.518125 
L 138.731107 281.518125 
z
" clip-path="url(#pd2a4e830e5)" style="fill: #1f77b4"/>
   </g>
   <g id="patch_277">
    <path d="M 140.188182 281.518125 
L 141.645257 281.518125 
L 141.645257 281.518125 
L 140.188182 281.518125 
z
" clip-path="url(#pd2a4e830e5)" style="fill: #1f77b4"/>
   </g>
   <g id="patch_278">
    <path d="M 141.645257 281.518125 
L 143.102332 281.518125 
L 143.102332 281.518125 
L 141.645257 281.518125 
z
" clip-path="url(#pd2a4e830e5)" style="fill: #1f77b4"/>
   </g>
   <g id="patch_279">
    <path d="M 143.102332 281.518125 
L 144.559407 281.518125 
L 144.559407 281.518125 
L 143.102332 281.518125 
z
" clip-path="url(#pd2a4e830e5)" style="fill: #1f77b4"/>
   </g>
   <g id="patch_280">
    <path d="M 144.559407 281.518125 
L 146.016482 281.518125 
L 146.016482 281.518125 
L 144.559407 281.518125 
z
" clip-path="url(#pd2a4e830e5)" style="fill: #1f77b4"/>
   </g>
   <g id="patch_281">
    <path d="M 146.016482 281.518125 
L 147.473557 281.518125 
L 147.473557 281.518125 
L 146.016482 281.518125 
z
" clip-path="url(#pd2a4e830e5)" style="fill: #1f77b4"/>
   </g>
   <g id="patch_282">
    <path d="M 147.473557 281.518125 
L 148.930632 281.518125 
L 148.930632 281.518125 
L 147.473557 281.518125 
z
" clip-path="url(#pd2a4e830e5)" style="fill: #1f77b4"/>
   </g>
   <g id="patch_283">
    <path d="M 148.930632 281.518125 
L 150.387708 281.518125 
L 150.387708 281.518125 
L 148.930632 281.518125 
z
" clip-path="url(#pd2a4e830e5)" style="fill: #1f77b4"/>
   </g>
   <g id="patch_284">
    <path d="M 150.387708 281.518125 
L 151.844783 281.518125 
L 151.844783 281.518125 
L 150.387708 281.518125 
z
" clip-path="url(#pd2a4e830e5)" style="fill: #1f77b4"/>
   </g>
   <g id="patch_285">
    <path d="M 151.844783 281.518125 
L 153.301858 281.518125 
L 153.301858 281.518125 
L 151.844783 281.518125 
z
" clip-path="url(#pd2a4e830e5)" style="fill: #1f77b4"/>
   </g>
   <g id="patch_286">
    <path d="M 153.301858 281.518125 
L 154.758933 281.518125 
L 154.758933 281.518125 
L 153.301858 281.518125 
z
" clip-path="url(#pd2a4e830e5)" style="fill: #1f77b4"/>
   </g>
   <g id="patch_287">
    <path d="M 154.758933 281.518125 
L 156.216008 281.518125 
L 156.216008 281.518125 
L 154.758933 281.518125 
z
" clip-path="url(#pd2a4e830e5)" style="fill: #1f77b4"/>
   </g>
   <g id="patch_288">
    <path d="M 156.216008 281.518125 
L 157.673083 281.518125 
L 157.673083 281.518125 
L 156.216008 281.518125 
z
" clip-path="url(#pd2a4e830e5)" style="fill: #1f77b4"/>
   </g>
   <g id="patch_289">
    <path d="M 157.673083 281.518125 
L 159.130158 281.518125 
L 159.130158 281.518125 
L 157.673083 281.518125 
z
" clip-path="url(#pd2a4e830e5)" style="fill: #1f77b4"/>
   </g>
   <g id="patch_290">
    <path d="M 159.130158 281.518125 
L 160.587233 281.518125 
L 160.587233 281.518125 
L 159.130158 281.518125 
z
" clip-path="url(#pd2a4e830e5)" style="fill: #1f77b4"/>
   </g>
   <g id="patch_291">
    <path d="M 160.587233 281.518125 
L 162.044308 281.518125 
L 162.044308 281.518125 
L 160.587233 281.518125 
z
" clip-path="url(#pd2a4e830e5)" style="fill: #1f77b4"/>
   </g>
   <g id="patch_292">
    <path d="M 162.044308 281.518125 
L 163.501383 281.518125 
L 163.501383 281.518125 
L 162.044308 281.518125 
z
" clip-path="url(#pd2a4e830e5)" style="fill: #1f77b4"/>
   </g>
   <g id="patch_293">
    <path d="M 163.501383 281.518125 
L 164.958458 281.518125 
L 164.958458 281.518125 
L 163.501383 281.518125 
z
" clip-path="url(#pd2a4e830e5)" style="fill: #1f77b4"/>
   </g>
   <g id="patch_294">
    <path d="M 164.958458 281.518125 
L 166.415534 281.518125 
L 166.415534 281.518125 
L 164.958458 281.518125 
z
" clip-path="url(#pd2a4e830e5)" style="fill: #1f77b4"/>
   </g>
   <g id="patch_295">
    <path d="M 166.415534 281.518125 
L 167.872609 281.518125 
L 167.872609 281.419283 
L 166.415534 281.419283 
z
" clip-path="url(#pd2a4e830e5)" style="fill: #1f77b4"/>
   </g>
   <g id="patch_296">
    <path d="M 167.872609 281.518125 
L 169.329684 281.518125 
L 169.329684 281.518125 
L 167.872609 281.518125 
z
" clip-path="url(#pd2a4e830e5)" style="fill: #1f77b4"/>
   </g>
   <g id="patch_297">
    <path d="M 169.329684 281.518125 
L 170.786759 281.518125 
L 170.786759 281.518125 
L 169.329684 281.518125 
z
" clip-path="url(#pd2a4e830e5)" style="fill: #1f77b4"/>
   </g>
   <g id="patch_298">
    <path d="M 170.786759 281.518125 
L 172.243834 281.518125 
L 172.243834 281.518125 
L 170.786759 281.518125 
z
" clip-path="url(#pd2a4e830e5)" style="fill: #1f77b4"/>
   </g>
   <g id="patch_299">
    <path d="M 172.243834 281.518125 
L 173.700909 281.518125 
L 173.700909 281.518125 
L 172.243834 281.518125 
z
" clip-path="url(#pd2a4e830e5)" style="fill: #1f77b4"/>
   </g>
   <g id="patch_300">
    <path d="M 173.700909 281.518125 
L 175.157984 281.518125 
L 175.157984 281.518125 
L 173.700909 281.518125 
z
" clip-path="url(#pd2a4e830e5)" style="fill: #1f77b4"/>
   </g>
   <g id="patch_301">
    <path d="M 175.157984 281.518125 
L 176.615059 281.518125 
L 176.615059 281.518125 
L 175.157984 281.518125 
z
" clip-path="url(#pd2a4e830e5)" style="fill: #1f77b4"/>
   </g>
   <g id="patch_302">
    <path d="M 176.615059 281.518125 
L 178.072134 281.518125 
L 178.072134 281.518125 
L 176.615059 281.518125 
z
" clip-path="url(#pd2a4e830e5)" style="fill: #1f77b4"/>
   </g>
   <g id="patch_303">
    <path d="M 178.072134 281.518125 
L 179.529209 281.518125 
L 179.529209 281.518125 
L 178.072134 281.518125 
z
" clip-path="url(#pd2a4e830e5)" style="fill: #1f77b4"/>
   </g>
   <g id="patch_304">
    <path d="M 179.529209 281.518125 
L 180.986285 281.518125 
L 180.986285 281.518125 
L 179.529209 281.518125 
z
" clip-path="url(#pd2a4e830e5)" style="fill: #1f77b4"/>
   </g>
   <g id="patch_305">
    <path d="M 180.986285 281.518125 
L 182.44336 281.518125 
L 182.44336 281.518125 
L 180.986285 281.518125 
z
" clip-path="url(#pd2a4e830e5)" style="fill: #1f77b4"/>
   </g>
   <g id="patch_306">
    <path d="M 182.44336 281.518125 
L 183.900435 281.518125 
L 183.900435 281.518125 
L 182.44336 281.518125 
z
" clip-path="url(#pd2a4e830e5)" style="fill: #1f77b4"/>
   </g>
   <g id="patch_307">
    <path d="M 183.900435 281.518125 
L 185.35751 281.518125 
L 185.35751 281.518125 
L 183.900435 281.518125 
z
" clip-path="url(#pd2a4e830e5)" style="fill: #1f77b4"/>
   </g>
   <g id="patch_308">
    <path d="M 185.35751 281.518125 
L 186.814585 281.518125 
L 186.814585 281.518125 
L 185.35751 281.518125 
z
" clip-path="url(#pd2a4e830e5)" style="fill: #1f77b4"/>
   </g>
   <g id="patch_309">
    <path d="M 186.814585 281.518125 
L 188.27166 281.518125 
L 188.27166 281.518125 
L 186.814585 281.518125 
z
" clip-path="url(#pd2a4e830e5)" style="fill: #1f77b4"/>
   </g>
   <g id="patch_310">
    <path d="M 188.27166 281.518125 
L 189.728735 281.518125 
L 189.728735 281.518125 
L 188.27166 281.518125 
z
" clip-path="url(#pd2a4e830e5)" style="fill: #1f77b4"/>
   </g>
   <g id="patch_311">
    <path d="M 189.728735 281.518125 
L 191.18581 281.518125 
L 191.18581 281.518125 
L 189.728735 281.518125 
z
" clip-path="url(#pd2a4e830e5)" style="fill: #1f77b4"/>
   </g>
   <g id="patch_312">
    <path d="M 191.18581 281.518125 
L 192.642885 281.518125 
L 192.642885 281.419283 
L 191.18581 281.419283 
z
" clip-path="url(#pd2a4e830e5)" style="fill: #1f77b4"/>
   </g>
   <g id="matplotlib.axis_5">
    <g id="xtick_8">
     <g id="line2d_18">
      <g>
       <use xlink:href="#mccf19c8ec1" x="46.010846" y="281.518125" style="stroke: #000000; stroke-width: 0.8"/>
      </g>
     </g>
     <g id="text_20">
      <!-- 0 -->
      <g transform="translate(48.770221 294.880625) rotate(-90) scale(0.1 -0.1)">
       <use xlink:href="#DejaVuSans-30"/>
      </g>
     </g>
    </g>
    <g id="xtick_9">
     <g id="line2d_19">
      <g>
       <use xlink:href="#mccf19c8ec1" x="85.605278" y="281.518125" style="stroke: #000000; stroke-width: 0.8"/>
      </g>
     </g>
     <g id="text_21">
      <!-- 20 -->
      <g transform="translate(88.364653 301.243125) rotate(-90) scale(0.1 -0.1)">
       <use xlink:href="#DejaVuSans-32"/>
       <use xlink:href="#DejaVuSans-30" x="63.623047"/>
      </g>
     </g>
    </g>
    <g id="xtick_10">
     <g id="line2d_20">
      <g>
       <use xlink:href="#mccf19c8ec1" x="125.19971" y="281.518125" style="stroke: #000000; stroke-width: 0.8"/>
      </g>
     </g>
     <g id="text_22">
      <!-- 40 -->
      <g transform="translate(127.959085 301.243125) rotate(-90) scale(0.1 -0.1)">
       <use xlink:href="#DejaVuSans-34"/>
       <use xlink:href="#DejaVuSans-30" x="63.623047"/>
      </g>
     </g>
    </g>
    <g id="xtick_11">
     <g id="line2d_21">
      <g>
       <use xlink:href="#mccf19c8ec1" x="164.794142" y="281.518125" style="stroke: #000000; stroke-width: 0.8"/>
      </g>
     </g>
     <g id="text_23">
      <!-- 60 -->
      <g transform="translate(167.553517 301.243125) rotate(-90) scale(0.1 -0.1)">
       <use xlink:href="#DejaVuSans-36"/>
       <use xlink:href="#DejaVuSans-30" x="63.623047"/>
      </g>
     </g>
    </g>
   </g>
   <g id="matplotlib.axis_6">
    <g id="ytick_11">
     <g id="line2d_22">
      <g>
       <use xlink:href="#m6021a44f05" x="39.65" y="281.518125" style="stroke: #000000; stroke-width: 0.8"/>
      </g>
     </g>
     <g id="text_24">
      <!-- 0 -->
      <g transform="translate(26.2875 285.317344) scale(0.1 -0.1)">
       <use xlink:href="#DejaVuSans-30"/>
      </g>
     </g>
    </g>
    <g id="ytick_12">
     <g id="line2d_23">
      <g>
       <use xlink:href="#m6021a44f05" x="39.65" y="256.8077" style="stroke: #000000; stroke-width: 0.8"/>
      </g>
     </g>
     <g id="text_25">
      <!-- 250 -->
      <g transform="translate(13.5625 260.606919) scale(0.1 -0.1)">
       <use xlink:href="#DejaVuSans-32"/>
       <use xlink:href="#DejaVuSans-35" x="63.623047"/>
       <use xlink:href="#DejaVuSans-30" x="127.246094"/>
      </g>
     </g>
    </g>
    <g id="ytick_13">
     <g id="line2d_24">
      <g>
       <use xlink:href="#m6021a44f05" x="39.65" y="232.097276" style="stroke: #000000; stroke-width: 0.8"/>
      </g>
     </g>
     <g id="text_26">
      <!-- 500 -->
      <g transform="translate(13.5625 235.896494) scale(0.1 -0.1)">
       <use xlink:href="#DejaVuSans-35"/>
       <use xlink:href="#DejaVuSans-30" x="63.623047"/>
       <use xlink:href="#DejaVuSans-30" x="127.246094"/>
      </g>
     </g>
    </g>
    <g id="ytick_14">
     <g id="line2d_25">
      <g>
       <use xlink:href="#m6021a44f05" x="39.65" y="207.386851" style="stroke: #000000; stroke-width: 0.8"/>
      </g>
     </g>
     <g id="text_27">
      <!-- 750 -->
      <g transform="translate(13.5625 211.18607) scale(0.1 -0.1)">
       <use xlink:href="#DejaVuSans-37"/>
       <use xlink:href="#DejaVuSans-35" x="63.623047"/>
       <use xlink:href="#DejaVuSans-30" x="127.246094"/>
      </g>
     </g>
    </g>
    <g id="ytick_15">
     <g id="line2d_26">
      <g>
       <use xlink:href="#m6021a44f05" x="39.65" y="182.676426" style="stroke: #000000; stroke-width: 0.8"/>
      </g>
     </g>
     <g id="text_28">
      <!-- 1000 -->
      <g transform="translate(7.2 186.475645) scale(0.1 -0.1)">
       <use xlink:href="#DejaVuSans-31"/>
       <use xlink:href="#DejaVuSans-30" x="63.623047"/>
       <use xlink:href="#DejaVuSans-30" x="127.246094"/>
       <use xlink:href="#DejaVuSans-30" x="190.869141"/>
      </g>
     </g>
    </g>
   </g>
   <g id="patch_313">
    <path d="M 39.65 281.518125 
L 39.65 177.838125 
" style="fill: none; stroke: #000000; stroke-width: 0.8; stroke-linejoin: miter; stroke-linecap: square"/>
   </g>
   <g id="patch_314">
    <path d="M 199.928261 281.518125 
L 199.928261 177.838125 
" style="fill: none; stroke: #000000; stroke-width: 0.8; stroke-linejoin: miter; stroke-linecap: square"/>
   </g>
   <g id="patch_315">
    <path d="M 39.65 281.518125 
L 199.928261 281.518125 
" style="fill: none; stroke: #000000; stroke-width: 0.8; stroke-linejoin: miter; stroke-linecap: square"/>
   </g>
   <g id="patch_316">
    <path d="M 39.65 177.838125 
L 199.928261 177.838125 
" style="fill: none; stroke: #000000; stroke-width: 0.8; stroke-linejoin: miter; stroke-linecap: square"/>
   </g>
   <g id="text_29">
    <!-- schroeder -->
    <g transform="translate(89.899755 171.838125) scale(0.12 -0.12)">
     <defs>
      <path id="DejaVuSans-63" d="M 3122 3366 
L 3122 2828 
Q 2878 2963 2633 3030 
Q 2388 3097 2138 3097 
Q 1578 3097 1268 2742 
Q 959 2388 959 1747 
Q 959 1106 1268 751 
Q 1578 397 2138 397 
Q 2388 397 2633 464 
Q 2878 531 3122 666 
L 3122 134 
Q 2881 22 2623 -34 
Q 2366 -91 2075 -91 
Q 1284 -91 818 406 
Q 353 903 353 1747 
Q 353 2603 823 3093 
Q 1294 3584 2113 3584 
Q 2378 3584 2631 3529 
Q 2884 3475 3122 3366 
z
" transform="scale(0.015625)"/>
      <path id="DejaVuSans-68" d="M 3513 2113 
L 3513 0 
L 2938 0 
L 2938 2094 
Q 2938 2591 2744 2837 
Q 2550 3084 2163 3084 
Q 1697 3084 1428 2787 
Q 1159 2491 1159 1978 
L 1159 0 
L 581 0 
L 581 4863 
L 1159 4863 
L 1159 2956 
Q 1366 3272 1645 3428 
Q 1925 3584 2291 3584 
Q 2894 3584 3203 3211 
Q 3513 2838 3513 2113 
z
" transform="scale(0.015625)"/>
      <path id="DejaVuSans-72" d="M 2631 2963 
Q 2534 3019 2420 3045 
Q 2306 3072 2169 3072 
Q 1681 3072 1420 2755 
Q 1159 2438 1159 1844 
L 1159 0 
L 581 0 
L 581 3500 
L 1159 3500 
L 1159 2956 
Q 1341 3275 1631 3429 
Q 1922 3584 2338 3584 
Q 2397 3584 2469 3576 
Q 2541 3569 2628 3553 
L 2631 2963 
z
" transform="scale(0.015625)"/>
      <path id="DejaVuSans-6f" d="M 1959 3097 
Q 1497 3097 1228 2736 
Q 959 2375 959 1747 
Q 959 1119 1226 758 
Q 1494 397 1959 397 
Q 2419 397 2687 759 
Q 2956 1122 2956 1747 
Q 2956 2369 2687 2733 
Q 2419 3097 1959 3097 
z
M 1959 3584 
Q 2709 3584 3137 3096 
Q 3566 2609 3566 1747 
Q 3566 888 3137 398 
Q 2709 -91 1959 -91 
Q 1206 -91 779 398 
Q 353 888 353 1747 
Q 353 2609 779 3096 
Q 1206 3584 1959 3584 
z
" transform="scale(0.015625)"/>
      <path id="DejaVuSans-64" d="M 2906 2969 
L 2906 4863 
L 3481 4863 
L 3481 0 
L 2906 0 
L 2906 525 
Q 2725 213 2448 61 
Q 2172 -91 1784 -91 
Q 1150 -91 751 415 
Q 353 922 353 1747 
Q 353 2572 751 3078 
Q 1150 3584 1784 3584 
Q 2172 3584 2448 3432 
Q 2725 3281 2906 2969 
z
M 947 1747 
Q 947 1113 1208 752 
Q 1469 391 1925 391 
Q 2381 391 2643 752 
Q 2906 1113 2906 1747 
Q 2906 2381 2643 2742 
Q 2381 3103 1925 3103 
Q 1469 3103 1208 2742 
Q 947 2381 947 1747 
z
" transform="scale(0.015625)"/>
     </defs>
     <use xlink:href="#DejaVuSans-73"/>
     <use xlink:href="#DejaVuSans-63" x="52.099609"/>
     <use xlink:href="#DejaVuSans-68" x="107.080078"/>
     <use xlink:href="#DejaVuSans-72" x="170.458984"/>
     <use xlink:href="#DejaVuSans-6f" x="209.322266"/>
     <use xlink:href="#DejaVuSans-65" x="270.503906"/>
     <use xlink:href="#DejaVuSans-64" x="332.027344"/>
     <use xlink:href="#DejaVuSans-65" x="395.503906"/>
     <use xlink:href="#DejaVuSans-72" x="457.027344"/>
    </g>
   </g>
  </g>
 </g>
 <defs>
  <clipPath id="pa0e7cdb303">
   <rect x="39.65" y="22.318125" width="160.278261" height="103.68"/>
  </clipPath>
  <clipPath id="pb256239f1e">
   <rect x="248.011739" y="22.318125" width="160.278261" height="103.68"/>
  </clipPath>
  <clipPath id="pd2a4e830e5">
   <rect x="39.65" y="177.838125" width="160.278261" height="103.68"/>
  </clipPath>
 </defs>
</svg>