<?xml version="1.0" encoding="utf-8" standalone="no"?>
<!DOCTYPE svg PUBLIC "-//W3C//DTD SVG 1.1//EN"
  "http://www.w3.org/Graphics/SVG/1.1/DTD/svg11.dtd">
<svg xmlns:xlink="http://www.w3.org/1999/xlink" width="431.083932pt" height="310.86825pt" viewBox="0 0 431.083932 310.86825" xmlns="http://www.w3.org/2000/svg" version="1.1">
 <metadata>
  <rdf:RDF xmlns:dc="http://purl.org/dc/elements/1.1/" xmlns:cc="http://creativecommons.org/ns#" xmlns:rdf="http://www.w3.org/1999/02/22-rdf-syntax-ns#">
   <cc:Work>
    <dc:type rdf:resource="http://purl.org/dc/dcmitype/StillImage"/>
    <dc:date>2023-12-15T18:13:13.826553</dc:date>
    <dc:format>image/svg+xml</dc:format>
    <dc:creator>
     <cc:Agent>
      <dc:title>Matplotlib v3.8.2, https://matplotlib.org/</dc:title>
     </cc:Agent>
    </dc:creator>
   </cc:Work>
  </rdf:RDF>
 </metadata>
 <defs>
  <style type="text/css">*{stroke-linejoin: round; stroke-linecap: butt}</style>
 </defs>
 <g id="figure_1">
  <g id="patch_1">
   <path d="M 0 310.86825 
L 431.083932 310.86825 
L 431.083932 0 
L 0 0 
z
" style="fill: #ffffff"/>
  </g>
  <g id="axes_1">
   <g id="patch_2">
    <path d="M 59.690625 273.312 
L 416.810625 273.312 
L 416.810625 7.2 
L 59.690625 7.2 
z
" style="fill: #ffffff"/>
   </g>
   <g id="matplotlib.axis_1">
    <g id="xtick_1">
     <g id="line2d_1">
      <defs>
       <path id="m00a1eb7005" d="M 0 0 
L 0 3.5 
" style="stroke: #000000; stroke-width: 0.8"/>
      </defs>
      <g>
       <use xlink:href="#m00a1eb7005" x="75.923352" y="273.312" style="stroke: #000000; stroke-width: 0.8"/>
      </g>
     </g>
     <g id="text_1">
      <!-- 0 -->
      <g transform="translate(72.742102 287.910438) scale(0.1 -0.1)">
       <defs>
        <path id="DejaVuSans-30" d="M 2034 4250 
Q 1547 4250 1301 3770 
Q 1056 3291 1056 2328 
Q 1056 1369 1301 889 
Q 1547 409 2034 409 
Q 2525 409 2770 889 
Q 3016 1369 3016 2328 
Q 3016 3291 2770 3770 
Q 2525 4250 2034 4250 
z
M 2034 4750 
Q 2819 4750 3233 4129 
Q 3647 3509 3647 2328 
Q 3647 1150 3233 529 
Q 2819 -91 2034 -91 
Q 1250 -91 836 529 
Q 422 1150 422 2328 
Q 422 3509 836 4129 
Q 1250 4750 2034 4750 
z
" transform="scale(0.015625)"/>
       </defs>
       <use xlink:href="#DejaVuSans-30"/>
      </g>
     </g>
    </g>
    <g id="xtick_2">
     <g id="line2d_2">
      <g>
       <use xlink:href="#m00a1eb7005" x="143.606718" y="273.312" style="stroke: #000000; stroke-width: 0.8"/>
      </g>
     </g>
     <g id="text_2">
      <!-- 100 -->
      <g transform="translate(134.062968 287.910438) scale(0.1 -0.1)">
       <defs>
        <path id="DejaVuSans-31" d="M 794 531 
L 1825 531 
L 1825 4091 
L 703 3866 
L 703 4441 
L 1819 4666 
L 2450 4666 
L 2450 531 
L 3481 531 
L 3481 0 
L 794 0 
L 794 531 
z
" transform="scale(0.015625)"/>
       </defs>
       <use xlink:href="#DejaVuSans-31"/>
       <use xlink:href="#DejaVuSans-30" x="63.623047"/>
       <use xlink:href="#DejaVuSans-30" x="127.246094"/>
      </g>
     </g>
    </g>
    <g id="xtick_3">
     <g id="line2d_3">
      <g>
       <use xlink:href="#m00a1eb7005" x="211.290084" y="273.312" style="stroke: #000000; stroke-width: 0.8"/>
      </g>
     </g>
     <g id="text_3">
      <!-- 200 -->
      <g transform="translate(201.746334 287.910438) scale(0.1 -0.1)">
       <defs>
        <path id="DejaVuSans-32" d="M 1228 531 
L 3431 531 
L 3431 0 
L 469 0 
L 469 531 
Q 828 903 1448 1529 
Q 2069 2156 2228 2338 
Q 2531 2678 2651 2914 
Q 2772 3150 2772 3378 
Q 2772 3750 2511 3984 
Q 2250 4219 1831 4219 
Q 1534 4219 1204 4116 
Q 875 4013 500 3803 
L 500 4441 
Q 881 4594 1212 4672 
Q 1544 4750 1819 4750 
Q 2544 4750 2975 4387 
Q 3406 4025 3406 3419 
Q 3406 3131 3298 2873 
Q 3191 2616 2906 2266 
Q 2828 2175 2409 1742 
Q 1991 1309 1228 531 
z
" transform="scale(0.015625)"/>
       </defs>
       <use xlink:href="#DejaVuSans-32"/>
       <use xlink:href="#DejaVuSans-30" x="63.623047"/>
       <use xlink:href="#DejaVuSans-30" x="127.246094"/>
      </g>
     </g>
    </g>
    <g id="xtick_4">
     <g id="line2d_4">
      <g>
       <use xlink:href="#m00a1eb7005" x="278.97345" y="273.312" style="stroke: #000000; stroke-width: 0.8"/>
      </g>
     </g>
     <g id="text_4">
      <!-- 300 -->
      <g transform="translate(269.4297 287.910438) scale(0.1 -0.1)">
       <defs>
        <path id="DejaVuSans-33" d="M 2597 2516 
Q 3050 2419 3304 2112 
Q 3559 1806 3559 1356 
Q 3559 666 3084 287 
Q 2609 -91 1734 -91 
Q 1441 -91 1130 -33 
Q 819 25 488 141 
L 488 750 
Q 750 597 1062 519 
Q 1375 441 1716 441 
Q 2309 441 2620 675 
Q 2931 909 2931 1356 
Q 2931 1769 2642 2001 
Q 2353 2234 1838 2234 
L 1294 2234 
L 1294 2753 
L 1863 2753 
Q 2328 2753 2575 2939 
Q 2822 3125 2822 3475 
Q 2822 3834 2567 4026 
Q 2313 4219 1838 4219 
Q 1578 4219 1281 4162 
Q 984 4106 628 3988 
L 628 4550 
Q 988 4650 1302 4700 
Q 1616 4750 1894 4750 
Q 2613 4750 3031 4423 
Q 3450 4097 3450 3541 
Q 3450 3153 3228 2886 
Q 3006 2619 2597 2516 
z
" transform="scale(0.015625)"/>
       </defs>
       <use xlink:href="#DejaVuSans-33"/>
       <use xlink:href="#DejaVuSans-30" x="63.623047"/>
       <use xlink:href="#DejaVuSans-30" x="127.246094"/>
      </g>
     </g>
    </g>
    <g id="xtick_5">
     <g id="line2d_5">
      <g>
       <use xlink:href="#m00a1eb7005" x="346.656816" y="273.312" style="stroke: #000000; stroke-width: 0.8"/>
      </g>
     </g>
     <g id="text_5">
      <!-- 400 -->
      <g transform="translate(337.113066 287.910438) scale(0.1 -0.1)">
       <defs>
        <path id="DejaVuSans-34" d="M 2419 4116 
L 825 1625 
L 2419 1625 
L 2419 4116 
z
M 2253 4666 
L 3047 4666 
L 3047 1625 
L 3713 1625 
L 3713 1100 
L 3047 1100 
L 3047 0 
L 2419 0 
L 2419 1100 
L 313 1100 
L 313 1709 
L 2253 4666 
z
" transform="scale(0.015625)"/>
       </defs>
       <use xlink:href="#DejaVuSans-34"/>
       <use xlink:href="#DejaVuSans-30" x="63.623047"/>
       <use xlink:href="#DejaVuSans-30" x="127.246094"/>
      </g>
     </g>
    </g>
    <g id="xtick_6">
     <g id="line2d_6">
      <g>
       <use xlink:href="#m00a1eb7005" x="414.340182" y="273.312" style="stroke: #000000; stroke-width: 0.8"/>
      </g>
     </g>
     <g id="text_6">
      <!-- 500 -->
      <g transform="translate(404.796432 287.910438) scale(0.1 -0.1)">
       <defs>
        <path id="DejaVuSans-35" d="M 691 4666 
L 3169 4666 
L 3169 4134 
L 1269 4134 
L 1269 2991 
Q 1406 3038 1543 3061 
Q 1681 3084 1819 3084 
Q 2600 3084 3056 2656 
Q 3513 2228 3513 1497 
Q 3513 744 3044 326 
Q 2575 -91 1722 -91 
Q 1428 -91 1123 -41 
Q 819 9 494 109 
L 494 744 
Q 775 591 1075 516 
Q 1375 441 1709 441 
Q 2250 441 2565 725 
Q 2881 1009 2881 1497 
Q 2881 1984 2565 2268 
Q 2250 2553 1709 2553 
Q 1456 2553 1204 2497 
Q 953 2441 691 2322 
L 691 4666 
z
" transform="scale(0.015625)"/>
       </defs>
       <use xlink:href="#DejaVuSans-35"/>
       <use xlink:href="#DejaVuSans-30" x="63.623047"/>
       <use xlink:href="#DejaVuSans-30" x="127.246094"/>
      </g>
     </g>
    </g>
    <g id="text_7">
     <!-- Time [s] -->
     <g transform="translate(217.921719 301.588562) scale(0.1 -0.1)">
      <defs>
       <path id="DejaVuSans-54" d="M -19 4666 
L 3928 4666 
L 3928 4134 
L 2272 4134 
L 2272 0 
L 1638 0 
L 1638 4134 
L -19 4134 
L -19 4666 
z
" transform="scale(0.015625)"/>
       <path id="DejaVuSans-69" d="M 603 3500 
L 1178 3500 
L 1178 0 
L 603 0 
L 603 3500 
z
M 603 4863 
L 1178 4863 
L 1178 4134 
L 603 4134 
L 603 4863 
z
" transform="scale(0.015625)"/>
       <path id="DejaVuSans-6d" d="M 3328 2828 
Q 3544 3216 3844 3400 
Q 4144 3584 4550 3584 
Q 5097 3584 5394 3201 
Q 5691 2819 5691 2113 
L 5691 0 
L 5113 0 
L 5113 2094 
Q 5113 2597 4934 2840 
Q 4756 3084 4391 3084 
Q 3944 3084 3684 2787 
Q 3425 2491 3425 1978 
L 3425 0 
L 2847 0 
L 2847 2094 
Q 2847 2600 2669 2842 
Q 2491 3084 2119 3084 
Q 1678 3084 1418 2786 
Q 1159 2488 1159 1978 
L 1159 0 
L 581 0 
L 581 3500 
L 1159 3500 
L 1159 2956 
Q 1356 3278 1631 3431 
Q 1906 3584 2284 3584 
Q 2666 3584 2933 3390 
Q 3200 3197 3328 2828 
z
" transform="scale(0.015625)"/>
       <path id="DejaVuSans-65" d="M 3597 1894 
L 3597 1613 
L 953 1613 
Q 991 1019 1311 708 
Q 1631 397 2203 397 
Q 2534 397 2845 478 
Q 3156 559 3463 722 
L 3463 178 
Q 3153 47 2828 -22 
Q 2503 -91 2169 -91 
Q 1331 -91 842 396 
Q 353 884 353 1716 
Q 353 2575 817 3079 
Q 1281 3584 2069 3584 
Q 2775 3584 3186 3129 
Q 3597 2675 3597 1894 
z
M 3022 2063 
Q 3016 2534 2758 2815 
Q 2500 3097 2075 3097 
Q 1594 3097 1305 2825 
Q 1016 2553 972 2059 
L 3022 2063 
z
" transform="scale(0.015625)"/>
       <path id="DejaVuSans-20" transform="scale(0.015625)"/>
       <path id="DejaVuSans-5b" d="M 550 4863 
L 1875 4863 
L 1875 4416 
L 1125 4416 
L 1125 -397 
L 1875 -397 
L 1875 -844 
L 550 -844 
L 550 4863 
z
" transform="scale(0.015625)"/>
       <path id="DejaVuSans-73" d="M 2834 3397 
L 2834 2853 
Q 2591 2978 2328 3040 
Q 2066 3103 1784 3103 
Q 1356 3103 1142 2972 
Q 928 2841 928 2578 
Q 928 2378 1081 2264 
Q 1234 2150 1697 2047 
L 1894 2003 
Q 2506 1872 2764 1633 
Q 3022 1394 3022 966 
Q 3022 478 2636 193 
Q 2250 -91 1575 -91 
Q 1294 -91 989 -36 
Q 684 19 347 128 
L 347 722 
Q 666 556 975 473 
Q 1284 391 1588 391 
Q 1994 391 2212 530 
Q 2431 669 2431 922 
Q 2431 1156 2273 1281 
Q 2116 1406 1581 1522 
L 1381 1569 
Q 847 1681 609 1914 
Q 372 2147 372 2553 
Q 372 3047 722 3315 
Q 1072 3584 1716 3584 
Q 2034 3584 2315 3537 
Q 2597 3491 2834 3397 
z
" transform="scale(0.015625)"/>
       <path id="DejaVuSans-5d" d="M 1947 4863 
L 1947 -844 
L 622 -844 
L 622 -397 
L 1369 -397 
L 1369 4416 
L 622 4416 
L 622 4863 
L 1947 4863 
z
" transform="scale(0.015625)"/>
      </defs>
      <use xlink:href="#DejaVuSans-54"/>
      <use xlink:href="#DejaVuSans-69" x="57.958984"/>
      <use xlink:href="#DejaVuSans-6d" x="85.742188"/>
      <use xlink:href="#DejaVuSans-65" x="183.154297"/>
      <use xlink:href="#DejaVuSans-20" x="244.677734"/>
      <use xlink:href="#DejaVuSans-5b" x="276.464844"/>
      <use xlink:href="#DejaVuSans-73" x="315.478516"/>
      <use xlink:href="#DejaVuSans-5d" x="367.578125"/>
     </g>
    </g>
   </g>
   <g id="matplotlib.axis_2">
    <g id="ytick_1">
     <g id="line2d_7">
      <defs>
       <path id="m7f0503f5c4" d="M 0 0 
L -3.5 0 
" style="stroke: #000000; stroke-width: 0.8"/>
      </defs>
      <g>
       <use xlink:href="#m7f0503f5c4" x="59.690625" y="260.625803" style="stroke: #000000; stroke-width: 0.8"/>
      </g>
     </g>
     <g id="text_8">
      <!-- 20000 -->
      <g transform="translate(20.878125 264.425022) scale(0.1 -0.1)">
       <use xlink:href="#DejaVuSans-32"/>
       <use xlink:href="#DejaVuSans-30" x="63.623047"/>
       <use xlink:href="#DejaVuSans-30" x="127.246094"/>
       <use xlink:href="#DejaVuSans-30" x="190.869141"/>
       <use xlink:href="#DejaVuSans-30" x="254.492188"/>
      </g>
     </g>
    </g>
    <g id="ytick_2">
     <g id="line2d_8">
      <g>
       <use xlink:href="#m7f0503f5c4" x="59.690625" y="214.247748" style="stroke: #000000; stroke-width: 0.8"/>
      </g>
     </g>
     <g id="text_9">
      <!-- 25000 -->
      <g transform="translate(20.878125 218.046967) scale(0.1 -0.1)">
       <use xlink:href="#DejaVuSans-32"/>
       <use xlink:href="#DejaVuSans-35" x="63.623047"/>
       <use xlink:href="#DejaVuSans-30" x="127.246094"/>
       <use xlink:href="#DejaVuSans-30" x="190.869141"/>
       <use xlink:href="#DejaVuSans-30" x="254.492188"/>
      </g>
     </g>
    </g>
    <g id="ytick_3">
     <g id="line2d_9">
      <g>
       <use xlink:href="#m7f0503f5c4" x="59.690625" y="167.869693" style="stroke: #000000; stroke-width: 0.8"/>
      </g>
     </g>
     <g id="text_10">
      <!-- 30000 -->
      <g transform="translate(20.878125 171.668912) scale(0.1 -0.1)">
       <use xlink:href="#DejaVuSans-33"/>
       <use xlink:href="#DejaVuSans-30" x="63.623047"/>
       <use xlink:href="#DejaVuSans-30" x="127.246094"/>
       <use xlink:href="#DejaVuSans-30" x="190.869141"/>
       <use xlink:href="#DejaVuSans-30" x="254.492188"/>
      </g>
     </g>
    </g>
    <g id="ytick_4">
     <g id="line2d_10">
      <g>
       <use xlink:href="#m7f0503f5c4" x="59.690625" y="121.491638" style="stroke: #000000; stroke-width: 0.8"/>
      </g>
     </g>
     <g id="text_11">
      <!-- 35000 -->
      <g transform="translate(20.878125 125.290857) scale(0.1 -0.1)">
       <use xlink:href="#DejaVuSans-33"/>
       <use xlink:href="#DejaVuSans-35" x="63.623047"/>
       <use xlink:href="#DejaVuSans-30" x="127.246094"/>
       <use xlink:href="#DejaVuSans-30" x="190.869141"/>
       <use xlink:href="#DejaVuSans-30" x="254.492188"/>
      </g>
     </g>
    </g>
    <g id="ytick_5">
     <g id="line2d_11">
      <g>
       <use xlink:href="#m7f0503f5c4" x="59.690625" y="75.113583" style="stroke: #000000; stroke-width: 0.8"/>
      </g>
     </g>
     <g id="text_12">
      <!-- 40000 -->
      <g transform="translate(20.878125 78.912802) scale(0.1 -0.1)">
       <use xlink:href="#DejaVuSans-34"/>
       <use xlink:href="#DejaVuSans-30" x="63.623047"/>
       <use xlink:href="#DejaVuSans-30" x="127.246094"/>
       <use xlink:href="#DejaVuSans-30" x="190.869141"/>
       <use xlink:href="#DejaVuSans-30" x="254.492188"/>
      </g>
     </g>
    </g>
    <g id="ytick_6">
     <g id="line2d_12">
      <g>
       <use xlink:href="#m7f0503f5c4" x="59.690625" y="28.735528" style="stroke: #000000; stroke-width: 0.8"/>
      </g>
     </g>
     <g id="text_13">
      <!-- 45000 -->
      <g transform="translate(20.878125 32.534747) scale(0.1 -0.1)">
       <use xlink:href="#DejaVuSans-34"/>
       <use xlink:href="#DejaVuSans-35" x="63.623047"/>
       <use xlink:href="#DejaVuSans-30" x="127.246094"/>
       <use xlink:href="#DejaVuSans-30" x="190.869141"/>
       <use xlink:href="#DejaVuSans-30" x="254.492188"/>
      </g>
     </g>
    </g>
    <g id="text_14">
     <!-- Pixel Intensity -->
     <g transform="translate(14.798438 175.167719) rotate(-90) scale(0.1 -0.1)">
      <defs>
       <path id="DejaVuSans-50" d="M 1259 4147 
L 1259 2394 
L 2053 2394 
Q 2494 2394 2734 2622 
Q 2975 2850 2975 3272 
Q 2975 3691 2734 3919 
Q 2494 4147 2053 4147 
L 1259 4147 
z
M 628 4666 
L 2053 4666 
Q 2838 4666 3239 4311 
Q 3641 3956 3641 3272 
Q 3641 2581 3239 2228 
Q 2838 1875 2053 1875 
L 1259 1875 
L 1259 0 
L 628 0 
L 628 4666 
z
" transform="scale(0.015625)"/>
       <path id="DejaVuSans-78" d="M 3513 3500 
L 2247 1797 
L 3578 0 
L 2900 0 
L 1881 1375 
L 863 0 
L 184 0 
L 1544 1831 
L 300 3500 
L 978 3500 
L 1906 2253 
L 2834 3500 
L 3513 3500 
z
" transform="scale(0.015625)"/>
       <path id="DejaVuSans-6c" d="M 603 4863 
L 1178 4863 
L 1178 0 
L 603 0 
L 603 4863 
z
" transform="scale(0.015625)"/>
       <path id="DejaVuSans-49" d="M 628 4666 
L 1259 4666 
L 1259 0 
L 628 0 
L 628 4666 
z
" transform="scale(0.015625)"/>
       <path id="DejaVuSans-6e" d="M 3513 2113 
L 3513 0 
L 2938 0 
L 2938 2094 
Q 2938 2591 2744 2837 
Q 2550 3084 2163 3084 
Q 1697 3084 1428 2787 
Q 1159 2491 1159 1978 
L 1159 0 
L 581 0 
L 581 3500 
L 1159 3500 
L 1159 2956 
Q 1366 3272 1645 3428 
Q 1925 3584 2291 3584 
Q 2894 3584 3203 3211 
Q 3513 2838 3513 2113 
z
" transform="scale(0.015625)"/>
       <path id="DejaVuSans-74" d="M 1172 4494 
L 1172 3500 
L 2356 3500 
L 2356 3053 
L 1172 3053 
L 1172 1153 
Q 1172 725 1289 603 
Q 1406 481 1766 481 
L 2356 481 
L 2356 0 
L 1766 0 
Q 1100 0 847 248 
Q 594 497 594 1153 
L 594 3053 
L 172 3053 
L 172 3500 
L 594 3500 
L 594 4494 
L 1172 4494 
z
" transform="scale(0.015625)"/>
       <path id="DejaVuSans-79" d="M 2059 -325 
Q 1816 -950 1584 -1140 
Q 1353 -1331 966 -1331 
L 506 -1331 
L 506 -850 
L 844 -850 
Q 1081 -850 1212 -737 
Q 1344 -625 1503 -206 
L 1606 56 
L 191 3500 
L 800 3500 
L 1894 763 
L 2988 3500 
L 3597 3500 
L 2059 -325 
z
" transform="scale(0.015625)"/>
      </defs>
      <use xlink:href="#DejaVuSans-50"/>
      <use xlink:href="#DejaVuSans-69" x="58.052734"/>
      <use xlink:href="#DejaVuSans-78" x="85.835938"/>
      <use xlink:href="#DejaVuSans-65" x="141.890625"/>
      <use xlink:href="#DejaVuSans-6c" x="203.414062"/>
      <use xlink:href="#DejaVuSans-20" x="231.197266"/>
      <use xlink:href="#DejaVuSans-49" x="262.984375"/>
      <use xlink:href="#DejaVuSans-6e" x="292.476562"/>
      <use xlink:href="#DejaVuSans-74" x="355.855469"/>
      <use xlink:href="#DejaVuSans-65" x="395.064453"/>
      <use xlink:href="#DejaVuSans-6e" x="456.587891"/>
      <use xlink:href="#DejaVuSans-73" x="519.966797"/>
      <use xlink:href="#DejaVuSans-69" x="572.066406"/>
      <use xlink:href="#DejaVuSans-74" x="599.849609"/>
      <use xlink:href="#DejaVuSans-79" x="639.058594"/>
     </g>
    </g>
   </g>
   <g id="line2d_13">
    <path d="M 75.923352 112.721548 
L 76.148963 106.516382 
L 76.374575 115.435353 
L 76.600186 131.107258 
L 76.825797 123.979132 
L 77.27702 124.078483 
L 77.502631 127.052295 
L 77.728242 127.164943 
L 77.953853 116.577666 
L 78.179464 126.968271 
L 78.405076 128.035727 
L 78.630687 109.326385 
L 78.856298 101.277799 
L 79.081909 88.61938 
L 79.307521 90.497836 
L 79.533132 95.421374 
L 79.758743 95.879575 
L 80.209965 80.501373 
L 80.435577 88.918229 
L 80.661188 57.639021 
L 81.11241 100.636043 
L 81.338022 99.527934 
L 81.563633 101.038989 
L 81.789244 93.992749 
L 82.014855 101.906983 
L 82.240466 103.853992 
L 82.466078 106.955886 
L 82.691689 99.141112 
L 82.9173 100.410022 
L 83.142911 104.707529 
L 83.368523 103.528186 
L 83.594134 88.845799 
L 83.819745 87.292678 
L 84.045356 92.701519 
L 84.270967 71.675484 
L 84.496579 92.136648 
L 84.72219 99.597718 
L 84.947801 87.069013 
L 85.173412 107.374629 
L 85.399024 80.140167 
L 85.624635 97.422152 
L 85.850246 91.744319 
L 86.075857 104.831989 
L 86.301468 102.017565 
L 86.52708 97.149899 
L 86.752691 89.275449 
L 86.978302 64.483733 
L 87.203913 137.488335 
L 87.429524 63.64487 
L 87.655136 70.6635 
L 87.880747 64.776495 
L 88.106358 65.404736 
L 88.331969 60.73077 
L 88.557581 77.37089 
L 88.783192 78.239464 
L 89.008803 91.70189 
L 89.234414 70.933254 
L 89.460025 74.081563 
L 89.685637 90.534142 
L 89.911248 98.840053 
L 90.136859 99.869175 
L 90.36247 101.573025 
L 90.588082 104.538285 
L 90.813693 103.477315 
L 91.039304 128.729296 
L 91.264915 106.255215 
L 91.490526 113.54599 
L 91.716138 111.633041 
L 91.941749 114.156949 
L 92.16736 110.994473 
L 92.392971 104.862642 
L 92.618583 124.318091 
L 92.844194 116.10374 
L 93.069805 129.141698 
L 93.295416 125.686099 
L 93.521027 133.919399 
L 93.746639 121.431673 
L 94.197861 148.558487 
L 94.423472 133.261048 
L 94.874695 152.756734 
L 95.325917 138.382453 
L 95.551528 144.489229 
L 95.77714 133.957697 
L 96.002751 135.455201 
L 96.228362 140.807373 
L 96.453973 131.835937 
L 96.679585 117.654217 
L 96.905196 151.150749 
L 97.130807 151.422078 
L 97.356418 146.01331 
L 97.582029 154.178873 
L 97.807641 151.097867 
L 98.033252 145.371735 
L 98.258863 144.167989 
L 98.484474 146.272266 
L 98.710085 127.516908 
L 98.935697 154.681858 
L 99.161308 144.508415 
L 99.386919 150.693943 
L 99.61253 137.780336 
L 99.838142 143.072126 
L 100.063753 144.96975 
L 100.289364 139.799919 
L 100.514975 141.921932 
L 100.740586 146.439988 
L 101.41742 150.607618 
L 101.643031 143.703937 
L 101.868643 156.326739 
L 102.319865 144.164547 
L 102.545476 152.275561 
L 102.771087 150.278135 
L 102.996699 183.294273 
L 103.447921 80.464162 
L 103.673532 63.602478 
L 104.124755 72.119264 
L 104.350366 55.312654 
L 104.801588 105.007754 
L 105.0272 107.938231 
L 105.252811 108.393896 
L 105.478422 131.968876 
L 105.704033 116.735569 
L 105.929645 119.119183 
L 106.155256 119.749345 
L 106.380867 116.617957 
L 106.606478 125.252681 
L 106.832089 129.159887 
L 107.283312 104.150268 
L 107.508923 112.934778 
L 107.734534 81.452304 
L 107.960146 98.0084 
L 108.185757 104.873439 
L 108.411368 103.548005 
L 108.636979 119.903371 
L 108.86259 102.467034 
L 109.088202 100.603687 
L 109.313813 94.066193 
L 109.990646 133.703198 
L 110.216258 136.801795 
L 110.441869 100.53162 
L 111.118703 121.654505 
L 111.344314 108.259979 
L 111.569925 120.782126 
L 112.021147 107.492857 
L 112.246759 79.931285 
L 112.47237 69.763186 
L 112.697981 38.478181 
L 112.923592 69.300058 
L 113.374815 82.051885 
L 113.600426 82.120836 
L 113.826037 96.043239 
L 114.27726 73.934711 
L 114.728482 117.874295 
L 114.954093 109.76299 
L 115.179705 162.957786 
L 115.405316 103.679132 
L 115.630927 137.682398 
L 115.856538 89.815608 
L 116.082149 86.923755 
L 116.533372 69.706047 
L 116.758983 85.023487 
L 116.984594 88.946672 
L 117.210206 90.898137 
L 117.435817 106.905776 
L 117.661428 101.999377 
L 117.887039 105.448708 
L 118.11265 99.015891 
L 118.338262 105.508927 
L 118.563873 92.993737 
L 118.789484 107.126398 
L 119.015095 102.983968 
L 119.240706 136.505736 
L 119.466318 103.520504 
L 119.691929 104.390057 
L 119.91754 79.222389 
L 120.143151 86.938574 
L 120.368763 85.763434 
L 120.594374 100.415892 
L 120.819985 88.544958 
L 121.045596 101.209355 
L 121.271207 97.865063 
L 121.496819 119.432416 
L 121.72243 109.871037 
L 121.948041 126.065746 
L 122.173652 111.192232 
L 122.399264 111.247269 
L 122.624875 125.708744 
L 123.076097 118.303437 
L 123.301708 121.54519 
L 123.52732 109.196707 
L 123.978542 109.134821 
L 124.429765 134.508763 
L 124.655376 131.514516 
L 124.880987 121.153151 
L 125.332209 138.27803 
L 125.557821 106.31884 
L 125.783432 136.051231 
L 126.009043 138.861126 
L 126.234654 128.977165 
L 126.460266 142.186287 
L 126.685877 145.448567 
L 126.911488 134.918882 
L 127.137099 134.279698 
L 127.36271 124.737341 
L 127.588322 126.177416 
L 127.813933 144.221124 
L 128.039544 127.951667 
L 128.490767 125.878821 
L 128.716378 134.244806 
L 128.941989 131.173202 
L 129.393211 66.636653 
L 129.618823 89.461577 
L 129.844434 93.827273 
L 130.070045 105.311603 
L 130.295656 98.70668 
L 130.521267 117.390296 
L 130.746879 103.232779 
L 131.423712 116.826658 
L 131.649324 99.50844 
L 131.874935 134.933593 
L 132.100546 117.535047 
L 132.326157 110.700117 
L 132.551768 116.279832 
L 132.77738 114.583627 
L 133.228602 119.210852 
L 133.454213 132.330226 
L 133.679825 108.715136 
L 133.905436 127.414116 
L 134.131047 131.066388 
L 134.356658 137.896498 
L 134.582269 128.877706 
L 134.807881 140.132174 
L 135.033492 139.823072 
L 136.161548 101.619729 
L 136.387159 126.517208 
L 136.61277 119.386654 
L 136.838382 107.363977 
L 137.063993 105.441933 
L 137.289604 110.752727 
L 137.515215 125.720592 
L 137.740827 124.586866 
L 138.192049 119.658727 
L 138.41766 124.168811 
L 138.643271 111.981963 
L 139.094494 116.09316 
L 139.320105 119.673401 
L 139.545716 118.467354 
L 139.996939 113.880347 
L 140.22255 105.374938 
L 140.448161 132.984954 
L 140.673772 111.000669 
L 140.899384 121.548234 
L 141.124995 117.350839 
L 141.350606 109.725381 
L 141.801828 143.037325 
L 142.02744 149.539147 
L 142.253051 141.341917 
L 142.478662 140.044382 
L 142.704273 147.872472 
L 142.929885 142.948463 
L 143.155496 162.951608 
L 143.606718 122.316515 
L 144.057941 143.154067 
L 144.283552 110.939544 
L 144.509163 122.420286 
L 144.734774 125.834472 
L 144.960386 116.854195 
L 145.185997 136.479504 
L 145.411608 146.190235 
L 145.637219 128.648859 
L 146.088442 146.169238 
L 146.314053 143.47393 
L 146.765275 145.043737 
L 146.990887 135.576146 
L 147.216498 157.629237 
L 147.442109 141.99284 
L 147.893331 137.364672 
L 148.118943 123.29839 
L 148.344554 142.849656 
L 148.570165 150.932192 
L 149.021388 122.554746 
L 149.246999 133.909761 
L 149.47261 132.417402 
L 149.698221 133.73251 
L 149.923832 132.544108 
L 150.375055 150.20239 
L 150.600666 131.955759 
L 150.826277 142.725505 
L 151.2775 128.333887 
L 151.503111 133.591637 
L 151.728722 145.367659 
L 152.179945 103.339775 
L 152.405556 99.515397 
L 152.631167 62.950286 
L 152.856778 109.386712 
L 153.082389 105.494325 
L 153.308001 115.160273 
L 153.533612 137.127999 
L 153.759223 118.193361 
L 153.984834 135.816116 
L 154.210446 140.410189 
L 154.436057 97.046418 
L 154.661668 121.653563 
L 154.887279 103.404958 
L 155.11289 132.285333 
L 155.338502 109.488998 
L 155.564113 110.491126 
L 155.789724 110.810772 
L 156.015335 89.050406 
L 156.240947 83.324383 
L 156.466558 72.245173 
L 156.692169 91.802364 
L 156.91778 66.913146 
L 157.143391 69.897791 
L 157.369003 75.509971 
L 157.820225 101.521501 
L 158.045836 95.731998 
L 158.497059 118.203579 
L 158.72267 117.515952 
L 158.948281 110.813453 
L 159.173892 111.162086 
L 159.850726 114.501886 
L 160.076337 117.543743 
L 160.52756 94.616244 
L 160.753171 112.23639 
L 160.978782 100.205234 
L 161.204393 102.737838 
L 161.655616 127.325164 
L 161.881227 124.029025 
L 162.106838 124.102071 
L 162.332449 140.504612 
L 162.558061 134.85225 
L 163.009283 111.054402 
L 163.234894 131.187079 
L 163.686117 124.935499 
L 163.911728 183.627145 
L 164.137339 128.45052 
L 164.36295 105.93104 
L 164.588562 95.536812 
L 164.814173 104.287518 
L 165.039784 95.382098 
L 165.265395 109.802013 
L 165.491007 133.709901 
L 165.716618 129.360291 
L 165.942229 120.07218 
L 166.393451 136.859188 
L 166.619063 117.405514 
L 166.844674 137.954543 
L 167.070285 136.338739 
L 167.295896 143.472246 
L 167.521508 145.434019 
L 167.747119 149.054678 
L 167.97273 136.789403 
L 168.198341 132.379575 
L 168.423952 132.52418 
L 168.649564 131.231899 
L 168.875175 127.012294 
L 169.100786 139.341175 
L 169.326397 128.666903 
L 169.552009 134.682427 
L 170.003231 151.209247 
L 170.454453 137.094267 
L 170.680065 149.563043 
L 170.905676 149.155025 
L 171.131287 133.912986 
L 171.58251 153.492877 
L 172.033732 143.938363 
L 172.259343 127.813402 
L 172.484954 124.542843 
L 172.710566 133.199851 
L 172.936177 135.969273 
L 173.161788 149.917527 
L 173.387399 139.463714 
L 173.61301 145.92454 
L 173.838622 122.695873 
L 174.289844 151.749605 
L 174.515455 137.166189 
L 174.741067 138.264624 
L 174.966678 135.471361 
L 175.192289 104.339113 
L 175.4179 105.548095 
L 176.094734 138.143172 
L 176.320345 138.245783 
L 176.545956 164.620186 
L 176.997179 136.706539 
L 177.22279 138.044039 
L 177.448401 135.601835 
L 177.674012 141.477971 
L 177.899624 131.47937 
L 178.125235 136.347181 
L 178.350846 146.760323 
L 178.576457 151.673426 
L 178.802069 126.757069 
L 179.478902 147.942673 
L 179.704513 143.480525 
L 179.930125 162.862602 
L 180.155736 138.085779 
L 180.381347 138.385497 
L 180.606958 128.89709 
L 181.058181 124.070765 
L 181.283792 115.208644 
L 181.509403 115.060234 
L 181.735014 128.263921 
L 181.960626 128.803356 
L 182.186237 135.476325 
L 182.411848 122.089118 
L 182.637459 125.764072 
L 183.088682 155.560486 
L 183.314293 138.754384 
L 183.539904 140.75864 
L 183.765515 144.410115 
L 183.991127 135.389547 
L 184.216738 152.121699 
L 184.66796 133.267606 
L 184.893571 143.757471 
L 185.119183 131.606547 
L 185.344794 146.933751 
L 185.570405 139.634588 
L 185.796016 145.867364 
L 186.021628 140.799982 
L 186.247239 142.818804 
L 186.47285 142.61465 
L 186.698461 137.42529 
L 186.924072 157.426442 
L 187.149684 130.536555 
L 187.375295 135.498608 
L 187.600906 135.443353 
L 188.052129 175.021044 
L 188.27774 144.47124 
L 188.503351 134.640433 
L 188.728962 149.342675 
L 188.954573 127.525459 
L 189.180185 142.184729 
L 189.405796 146.043764 
L 189.631407 146.623127 
L 190.08263 132.837377 
L 190.308241 158.206807 
L 190.533852 141.169485 
L 190.759463 135.05414 
L 190.985074 149.352276 
L 191.210686 149.682177 
L 191.436297 158.596618 
L 191.661908 154.054341 
L 191.887519 141.675223 
L 192.113131 144.714888 
L 192.338742 181.466271 
L 192.564353 128.57277 
L 192.789964 110.43319 
L 193.015575 138.607061 
L 193.241187 127.190233 
L 193.91802 140.035686 
L 194.369243 118.340467 
L 194.594854 140.660812 
L 194.820465 147.733356 
L 195.046076 134.205023 
L 195.271688 146.653835 
L 195.497299 147.43929 
L 195.72291 145.117145 
L 196.174132 143.366772 
L 196.399744 131.760428 
L 196.625355 135.793761 
L 196.850966 135.959417 
L 197.076577 113.032317 
L 197.302189 141.664498 
L 197.5278 132.472585 
L 197.753411 134.561083 
L 197.979022 135.128562 
L 198.204633 138.013929 
L 198.430245 122.621813 
L 198.655856 154.284854 
L 199.107078 132.375553 
L 199.558301 151.51719 
L 199.783912 142.017587 
L 200.009523 146.315202 
L 200.235134 176.077305 
L 200.686357 129.90161 
L 200.911968 119.239476 
L 201.137579 138.007407 
L 201.363191 142.070161 
L 201.588802 130.158755 
L 201.814413 131.731224 
L 202.040024 150.589628 
L 202.265635 135.915938 
L 202.491247 146.326887 
L 202.942469 132.744367 
L 203.16808 142.777607 
L 203.393692 135.258022 
L 203.619303 138.425353 
L 203.844914 139.944959 
L 204.070525 135.218238 
L 204.296136 140.723748 
L 204.521748 151.427694 
L 204.747359 129.861319 
L 204.97297 132.424685 
L 205.198581 128.199862 
L 205.424193 146.204294 
L 205.649804 142.224368 
L 205.875415 128.870169 
L 206.101026 139.146967 
L 206.326637 122.732215 
L 206.77786 168.555183 
L 207.229082 129.319457 
L 207.454693 178.799696 
L 207.680305 153.460557 
L 207.905916 153.081072 
L 208.131527 142.706356 
L 208.357138 139.93956 
L 208.808361 126.913305 
L 209.033972 123.809961 
L 209.259583 131.545024 
L 209.485194 123.936776 
L 209.710806 130.426515 
L 209.936417 120.422624 
L 210.162028 137.299671 
L 210.387639 144.064689 
L 210.613251 144.162282 
L 210.838862 154.812495 
L 211.064473 137.820373 
L 211.290084 154.654085 
L 211.515695 140.54541 
L 211.741307 144.89645 
L 211.966918 158.67191 
L 212.192529 146.920436 
L 212.41814 154.740972 
L 212.643752 141.365106 
L 212.869363 142.638962 
L 213.094974 121.314677 
L 213.320585 142.227176 
L 213.546196 128.137722 
L 213.771808 130.704349 
L 213.997419 126.504418 
L 214.448641 136.162575 
L 214.674253 135.077981 
L 214.899864 136.481352 
L 215.125475 143.932222 
L 215.351086 119.657567 
L 215.576697 151.040456 
L 215.802309 152.861392 
L 216.02792 109.687191 
L 216.253531 135.207078 
L 216.479142 131.46205 
L 216.704753 134.961999 
L 217.381587 119.652821 
L 217.607198 107.962 
L 218.058421 126.031977 
L 218.284032 117.050686 
L 218.509643 147.942076 
L 218.735254 124.711 
L 218.960866 132.518927 
L 219.186477 118.339018 
L 219.412088 137.287786 
L 219.863311 119.982286 
L 220.088922 118.923091 
L 220.314533 144.056229 
L 220.765755 111.660795 
L 220.991367 125.603306 
L 221.216978 106.318695 
L 221.442589 115.979679 
L 221.6682 119.644161 
L 221.893812 109.260513 
L 222.119423 114.624135 
L 222.345034 105.152976 
L 222.570645 105.018334 
L 222.796256 126.015238 
L 223.247479 110.042273 
L 223.47309 119.812463 
L 223.698701 107.969029 
L 223.924313 108.804124 
L 224.149924 91.885337 
L 224.375535 107.022192 
L 224.601146 108.434259 
L 224.826757 111.02172 
L 225.27798 70.991879 
L 225.729202 66.927204 
L 225.954814 82.436751 
L 226.180425 82.511427 
L 226.406036 82.262507 
L 226.631647 73.092406 
L 226.857258 80.312672 
L 227.08287 76.544346 
L 227.308481 87.338875 
L 227.534092 85.302262 
L 227.759703 91.241081 
L 228.210926 96.618435 
L 228.436537 96.501476 
L 228.662148 94.221088 
L 228.887759 85.494804 
L 229.338982 59.043768 
L 229.564593 62.276754 
L 229.790204 78.247001 
L 230.015815 83.261845 
L 230.241427 74.109317 
L 230.692649 86.677806 
L 230.91826 79.054776 
L 231.369483 93.926334 
L 231.595094 88.986202 
L 232.046316 112.286754 
L 232.271928 110.916065 
L 232.72315 115.345278 
L 232.948761 144.038112 
L 233.174373 90.311853 
L 233.399984 96.2127 
L 233.625595 87.614281 
L 233.851206 85.411323 
L 234.076817 59.921075 
L 234.302429 49.45449 
L 234.52804 31.698869 
L 234.753651 63.546027 
L 234.979262 58.027111 
L 235.204874 71.102715 
L 235.430485 55.731506 
L 235.656096 78.31722 
L 235.881707 84.928955 
L 236.107318 80.214807 
L 236.33293 97.360049 
L 236.558541 96.306615 
L 236.784152 84.461406 
L 237.009763 85.153345 
L 237.235375 87.743487 
L 237.460986 82.29124 
L 237.686597 95.81816 
L 237.912208 102.486564 
L 238.363431 82.079314 
L 238.589042 61.467131 
L 238.814653 52.981323 
L 239.040264 84.702536 
L 239.265875 77.360455 
L 239.717098 95.238362 
L 239.942709 75.4741 
L 240.16832 95.438041 
L 240.393932 82.05348 
L 240.619543 113.648892 
L 240.845154 92.396909 
L 241.070765 102.312863 
L 241.296376 95.436266 
L 241.521988 97.765894 
L 241.747599 110.592723 
L 241.97321 96.341036 
L 242.198821 107.974972 
L 242.424433 108.689701 
L 242.650044 96.871812 
L 242.875655 94.746718 
L 243.101266 103.244519 
L 243.326877 90.726792 
L 243.7781 120.029932 
L 244.003711 115.657967 
L 244.229322 119.26955 
L 244.454934 113.180618 
L 244.680545 115.498543 
L 244.906156 127.185776 
L 245.131767 127.930253 
L 245.357378 111.785508 
L 245.58299 120.85836 
L 245.808601 110.604861 
L 246.034212 125.792442 
L 246.259823 120.732886 
L 246.485435 109.103697 
L 246.711046 116.064899 
L 246.936657 108.487739 
L 247.162268 124.595635 
L 247.387879 121.100976 
L 247.613491 115.289443 
L 248.064713 120.675674 
L 248.290324 128.266421 
L 248.515936 121.848314 
L 248.741547 120.891477 
L 248.967158 116.218743 
L 249.41838 133.459495 
L 249.643992 117.445443 
L 250.095214 140.105217 
L 250.546436 133.601274 
L 250.772048 145.470796 
L 250.997659 141.146585 
L 251.22327 140.625847 
L 251.448881 139.496034 
L 251.674493 154.1286 
L 251.900104 145.906369 
L 252.125715 143.503786 
L 252.351326 139.44125 
L 252.576937 150.650862 
L 252.802549 137.688014 
L 253.253771 161.937795 
L 253.704994 132.938865 
L 253.930605 131.136426 
L 254.381827 155.910949 
L 254.607438 140.698204 
L 254.83305 149.291695 
L 255.058661 144.158333 
L 255.284272 135.919344 
L 255.509883 145.447462 
L 255.735495 135.87206 
L 255.961106 133.250504 
L 256.186717 139.766222 
L 256.412328 139.320413 
L 256.637939 146.835597 
L 256.863551 149.624023 
L 257.089162 148.144454 
L 257.314773 154.843565 
L 257.765996 115.556697 
L 257.991607 121.027785 
L 258.217218 111.694419 
L 258.442829 114.798524 
L 258.66844 135.372807 
L 258.894052 129.274999 
L 259.119663 135.474259 
L 259.345274 128.529399 
L 259.570885 116.309144 
L 259.796497 145.487426 
L 260.022108 120.029353 
L 260.247719 113.986256 
L 260.47333 124.371136 
L 260.698941 116.840934 
L 260.924553 116.322949 
L 261.150164 112.454584 
L 261.601386 98.912192 
L 261.826997 96.447923 
L 262.052609 85.240232 
L 262.27822 83.701531 
L 262.503831 97.000801 
L 262.729442 77.302845 
L 262.955054 81.668143 
L 263.180665 76.341551 
L 263.406276 87.286627 
L 263.631887 86.898464 
L 263.857498 78.659693 
L 264.08311 115.632025 
L 264.308721 108.718687 
L 264.534332 108.504913 
L 264.759943 95.21376 
L 264.985555 91.497899 
L 265.211166 85.931808 
L 265.436777 96.786809 
L 265.662388 89.114973 
L 265.887999 99.162272 
L 266.339222 76.144263 
L 266.564833 89.266499 
L 266.790444 75.579248 
L 267.016056 80.553584 
L 267.241667 101.605815 
L 267.467278 111.23361 
L 267.692889 105.13033 
L 267.9185 119.254042 
L 268.144112 107.576917 
L 268.369723 130.331368 
L 268.595334 110.650406 
L 269.046557 125.030791 
L 269.272168 107.181762 
L 269.497779 119.335276 
L 269.949001 129.387901 
L 270.174613 123.078275 
L 270.400224 108.459079 
L 270.625835 104.149326 
L 270.851446 107.360897 
L 271.077057 99.673263 
L 271.302669 97.996008 
L 271.52828 85.020769 
L 271.979502 109.773099 
L 272.205114 112.402264 
L 272.430725 108.294292 
L 272.656336 111.881236 
L 272.881947 106.082276 
L 273.107558 103.569201 
L 273.33317 131.464261 
L 273.558781 91.890265 
L 273.784392 103.642029 
L 274.010003 109.344429 
L 274.235615 104.108455 
L 274.461226 122.431156 
L 275.138059 98.502471 
L 275.363671 95.408185 
L 275.589282 109.594798 
L 275.814893 107.566519 
L 276.266116 117.182682 
L 276.491727 109.378632 
L 276.717338 113.34671 
L 276.942949 108.142476 
L 277.16856 120.573643 
L 277.394172 118.657903 
L 277.619783 122.752324 
L 277.845394 96.03726 
L 278.071005 95.405359 
L 278.296617 102.022348 
L 278.522228 81.013923 
L 278.747839 75.740774 
L 278.97345 84.568619 
L 279.424673 66.607123 
L 279.650284 59.834152 
L 279.875895 59.244897 
L 280.101506 82.620995 
L 280.327118 77.621404 
L 280.552729 58.263349 
L 280.77834 70.04381 
L 281.003951 69.32024 
L 281.229562 86.619327 
L 281.455174 72.226187 
L 281.680785 91.725732 
L 281.906396 82.712193 
L 282.132007 86.62824 
L 282.357618 70.622702 
L 282.58323 80.652935 
L 282.808841 72.793014 
L 283.034452 85.470564 
L 283.260063 69.827717 
L 283.485675 94.415152 
L 283.711286 88.427274 
L 283.936897 25.230217 
L 284.162508 58.331286 
L 284.388119 28.557299 
L 284.613731 60.581455 
L 284.839342 68.988637 
L 285.064953 71.654034 
L 285.290564 80.563947 
L 285.741787 75.072459 
L 285.967398 84.135492 
L 286.193009 87.424348 
L 286.41862 106.012817 
L 286.644232 91.542937 
L 286.869843 111.149151 
L 287.095454 92.600139 
L 287.321065 92.901234 
L 287.546677 101.010582 
L 287.772288 92.253246 
L 287.997899 94.109346 
L 288.449121 85.24563 
L 288.674733 100.798692 
L 288.900344 106.184308 
L 289.125955 98.163259 
L 289.577178 94.275075 
L 289.802789 94.921651 
L 290.0284 72.628517 
L 290.479622 100.448828 
L 290.705234 103.943849 
L 290.930845 84.323758 
L 291.156456 91.548046 
L 291.382067 74.340809 
L 292.058901 107.177341 
L 292.284512 109.761251 
L 292.510123 99.440033 
L 292.735735 113.759221 
L 292.961346 115.517638 
L 293.186957 112.414366 
L 293.412568 105.278704 
L 293.638179 119.511476 
L 294.089402 87.041512 
L 294.540624 109.962923 
L 294.766236 98.577183 
L 294.991847 105.236529 
L 295.66868 94.387868 
L 295.894292 89.190193 
L 296.119903 103.71243 
L 296.345514 100.142044 
L 296.571125 102.391633 
L 296.796737 113.444647 
L 297.022348 94.109093 
L 297.247959 55.452803 
L 297.699181 42.345169 
L 297.924793 74.376027 
L 298.150404 80.932181 
L 298.376015 91.749754 
L 298.601626 80.633369 
L 298.827238 105.31298 
L 299.052849 99.66301 
L 299.27846 104.59191 
L 299.504071 90.201162 
L 299.729682 113.19301 
L 299.955294 119.939713 
L 300.406516 96.154691 
L 300.632127 98.383627 
L 300.857739 90.416167 
L 301.08335 118.371192 
L 301.534572 102.520079 
L 301.760183 114.800879 
L 301.985795 105.619256 
L 302.211406 102.58961 
L 302.437017 102.030718 
L 302.662628 110.01336 
L 302.88824 127.352158 
L 303.113851 93.545527 
L 303.339462 92.119546 
L 303.565073 96.197409 
L 303.790684 82.174787 
L 304.016296 78.738391 
L 304.241907 96.284078 
L 304.467518 99.879682 
L 304.91874 79.594609 
L 305.369963 102.749759 
L 305.595574 95.703845 
L 305.821185 116.504693 
L 306.046797 110.616202 
L 306.272408 91.637758 
L 306.498019 91.762399 
L 306.72363 107.105383 
L 306.949241 98.308988 
L 307.174853 103.21738 
L 307.626075 74.812126 
L 308.077298 90.424211 
L 308.302909 64.792799 
L 308.52852 56.38069 
L 308.754131 87.6191 
L 308.979742 90.932993 
L 309.205354 89.321935 
L 309.430965 86.44588 
L 309.656576 95.682722 
L 309.882187 81.460855 
L 310.107799 101.568423 
L 310.33341 97.372984 
L 310.559021 110.775699 
L 310.784632 90.413704 
L 311.010243 85.900394 
L 311.235855 76.07966 
L 311.461466 94.005358 
L 311.687077 83.553991 
L 312.1383 108.912171 
L 312.363911 99.212418 
L 312.589522 94.548959 
L 312.815133 85.953874 
L 313.040744 108.400635 
L 313.266356 99.569348 
L 313.491967 101.135803 
L 313.717578 96.089617 
L 313.943189 104.555496 
L 314.168801 88.969281 
L 314.394412 86.824405 
L 314.620023 97.013808 
L 314.845634 78.826002 
L 315.071245 90.951979 
L 315.296857 127.520858 
L 315.522468 97.348455 
L 315.748079 92.280674 
L 315.97369 89.909487 
L 316.424913 103.770112 
L 316.650524 84.609055 
L 316.876135 100.593614 
L 317.101746 90.560338 
L 317.552969 110.15753 
L 317.77858 131.520675 
L 318.229802 94.289568 
L 318.455414 134.473001 
L 318.906636 83.704611 
L 319.132247 89.877095 
L 319.357859 80.455176 
L 319.58347 81.44542 
L 319.809081 111.757899 
L 320.260303 92.488143 
L 320.485915 96.737714 
L 320.711526 106.342718 
L 320.937137 101.947274 
L 321.162748 102.765991 
L 321.613971 113.840419 
L 321.839582 111.451188 
L 322.065193 102.380727 
L 322.290804 127.324693 
L 322.516416 113.402436 
L 323.193249 100.6934 
L 323.418861 112.342263 
L 323.644472 97.51951 
L 323.870083 98.090866 
L 324.095694 103.77783 
L 324.321305 130.404595 
L 324.546917 112.328929 
L 324.772528 114.442174 
L 324.998139 107.930224 
L 325.22375 114.565148 
L 325.449361 103.679567 
L 325.674973 111.2664 
L 325.900584 86.740743 
L 326.126195 107.415862 
L 326.351806 103.379341 
L 326.577418 81.833401 
L 326.803029 90.066665 
L 327.02864 72.718592 
L 327.254251 75.116953 
L 327.479862 92.352488 
L 327.705474 62.622705 
L 327.931085 79.971431 
L 328.156696 82.077357 
L 328.382307 91.822039 
L 328.83353 67.844874 
L 329.059141 79.96067 
L 329.284752 75.595625 
L 329.510363 60.675551 
L 329.735975 87.793525 
L 329.961586 80.352782 
L 330.187197 97.621977 
L 330.412808 84.509596 
L 330.63842 90.916145 
L 330.864031 78.95615 
L 331.089642 93.083051 
L 331.315253 94.052243 
L 331.540864 104.051968 
L 331.766476 95.795225 
L 331.992087 44.532474 
L 332.217698 45.360974 
L 332.443309 63.586825 
L 332.668921 19.296 
L 332.894532 48.994767 
L 333.120143 22.237673 
L 333.345754 49.663118 
L 333.571365 49.963199 
L 333.796977 73.350058 
L 334.022588 77.953152 
L 334.248199 78.252073 
L 334.47381 93.499257 
L 334.699422 77.016171 
L 334.925033 93.011672 
L 335.150644 97.275917 
L 335.376255 95.969541 
L 335.827478 44.000829 
L 336.2787 65.74239 
L 336.504311 51.676288 
L 336.729922 51.626287 
L 336.955534 36.814223 
L 337.406756 71.434137 
L 337.632367 69.222266 
L 337.857979 71.893859 
L 338.08359 70.005403 
L 338.309201 61.795328 
L 338.534812 77.339658 
L 338.760423 75.473593 
L 338.986035 74.886041 
L 339.211646 65.21618 
L 339.662868 74.519111 
L 339.88848 69.769636 
L 340.114091 82.23968 
L 340.339702 73.404552 
L 340.565313 105.305117 
L 340.790924 86.088588 
L 341.016536 92.270239 
L 341.242147 85.804631 
L 341.467758 59.398778 
L 341.693369 90.767264 
L 341.918981 82.485737 
L 342.144592 94.592801 
L 342.370203 99.2451 
L 342.595814 95.86385 
L 342.821425 80.996857 
L 343.047037 95.632684 
L 343.272648 52.454063 
L 343.72387 72.880045 
L 343.949482 68.183434 
L 344.175093 76.265788 
L 344.400704 78.479253 
L 344.626315 69.152953 
L 344.851926 73.558433 
L 345.077538 83.568339 
L 345.303149 84.000669 
L 345.52876 75.37783 
L 345.754371 91.725949 
L 345.979983 91.66323 
L 346.205594 100.683218 
L 346.431205 101.914157 
L 346.656816 83.647508 
L 346.882427 82.340335 
L 347.108039 103.314194 
L 347.33365 86.508164 
L 347.559261 91.223073 
L 347.784872 89.021347 
L 348.010483 113.843607 
L 348.236095 91.347134 
L 348.461706 98.208985 
L 348.687317 113.041412 
L 348.912928 119.759019 
L 349.13854 97.428095 
L 349.364151 102.351016 
L 349.589762 95.24608 
L 349.815373 94.957449 
L 350.040984 134.668984 
L 350.266596 103.498873 
L 350.492207 120.257257 
L 350.717818 103.282853 
L 351.169041 111.248646 
L 351.394652 124.931078 
L 351.620263 98.638671 
L 351.845874 98.302647 
L 352.071485 100.148023 
L 352.297097 90.589723 
L 352.522708 100.212807 
L 352.748319 125.110902 
L 352.97393 126.00531 
L 353.199542 125.349061 
L 353.425153 127.552453 
L 353.650764 120.219032 
L 353.876375 124.394977 
L 354.101986 123.811084 
L 354.327598 129.9548 
L 354.553209 115.488615 
L 354.77882 128.064278 
L 355.004431 108.817639 
L 355.230043 115.201288 
L 355.681265 102.393844 
L 355.906876 98.66541 
L 356.132487 92.29187 
L 356.358099 103.779569 
L 356.58371 107.963739 
L 356.809321 114.51627 
L 357.034932 129.419677 
L 357.260544 115.301762 
L 357.711766 100.638471 
L 357.937377 110.331194 
L 358.162988 113.234243 
L 358.3886 114.446051 
L 358.614211 124.892092 
L 358.839822 128.452223 
L 359.065433 118.148686 
L 359.291044 121.651643 
L 359.516656 129.537615 
L 359.742267 129.776788 
L 359.967878 125.890271 
L 360.193489 113.470264 
L 360.419101 136.640704 
L 360.644712 129.961467 
L 360.870323 148.392504 
L 361.095934 139.962423 
L 361.547157 136.01489 
L 361.772768 140.468161 
L 361.998379 139.935321 
L 362.22399 130.190857 
L 362.449602 136.5361 
L 362.675213 146.503794 
L 362.900824 135.020407 
L 363.126435 117.714725 
L 363.352046 120.026635 
L 363.577658 110.93063 
L 363.803269 118.61301 
L 364.02888 114.232965 
L 364.254491 113.992597 
L 364.480103 135.202441 
L 364.705714 125.101155 
L 364.931325 128.281313 
L 365.156936 127.755393 
L 365.382547 148.766681 
L 365.608159 134.829713 
L 365.83377 143.279451 
L 366.059381 139.312804 
L 366.284992 140.680051 
L 366.510604 150.624466 
L 366.736215 149.455758 
L 366.961826 133.083761 
L 367.187437 141.685912 
L 367.413048 144.233244 
L 367.63866 110.575222 
L 367.864271 133.608304 
L 368.089882 127.667999 
L 368.315493 134.530212 
L 368.541104 134.981348 
L 368.766716 129.013253 
L 368.992327 130.24488 
L 369.217938 126.796817 
L 369.443549 104.864888 
L 369.669161 126.497388 
L 369.894772 115.958954 
L 370.120383 128.662917 
L 370.345994 127.737313 
L 370.571605 121.498378 
L 370.797217 127.8417 
L 371.022828 113.472184 
L 371.248439 127.878041 
L 371.47405 129.091842 
L 371.925273 98.209565 
L 372.150884 100.029867 
L 372.602106 117.12884 
L 372.827718 122.839283 
L 373.053329 120.045005 
L 373.27894 146.357667 
L 373.504551 137.53301 
L 373.730163 137.735335 
L 373.955774 164.858616 
L 374.406996 122.13075 
L 374.632607 108.304075 
L 374.858219 124.277583 
L 375.08383 119.344769 
L 375.309441 119.482635 
L 375.535052 131.177767 
L 375.760664 115.890582 
L 375.986275 123.93203 
L 376.211886 115.445679 
L 376.88872 142.474846 
L 377.114331 133.328477 
L 377.339942 139.665169 
L 377.565553 133.268766 
L 377.791165 139.639081 
L 378.016776 155.810964 
L 378.242387 142.874856 
L 378.467998 147.578044 
L 378.693609 146.68668 
L 378.919221 160.268294 
L 379.144832 139.325124 
L 379.596054 148.153947 
L 379.821665 126.809861 
L 380.047277 131.347627 
L 380.272888 128.842632 
L 380.498499 151.535016 
L 380.72411 130.682283 
L 380.949722 135.123743 
L 381.175333 142.84337 
L 381.400944 140.590266 
L 381.626555 123.767134 
L 381.852166 145.480144 
L 382.077778 147.974703 
L 382.303389 136.601898 
L 382.529 157.349737 
L 382.754611 151.400194 
L 382.980223 151.218558 
L 383.205834 156.53131 
L 383.431445 149.573442 
L 383.657056 138.443506 
L 384.108279 145.099047 
L 384.33389 146.298861 
L 384.559501 138.690541 
L 384.785112 142.620647 
L 385.010724 140.281454 
L 385.236335 149.179228 
L 385.461946 147.338255 
L 385.687557 148.113819 
L 385.913168 154.890903 
L 386.13878 138.372815 
L 386.364391 132.091451 
L 386.590002 141.536632 
L 386.815613 161.640867 
L 387.041225 162.739483 
L 387.266836 145.008138 
L 387.492447 180.895477 
L 387.943669 145.563135 
L 388.169281 152.022565 
L 388.394892 137.543808 
L 388.620503 156.082819 
L 388.846114 134.149079 
L 389.297337 170.132 
L 389.522948 148.969857 
L 389.748559 155.690852 
L 389.97417 151.94615 
L 390.199782 150.049215 
L 390.425393 164.127383 
L 390.651004 158.565603 
L 390.876615 147.384724 
L 391.102226 155.699838 
L 391.327838 196.691589 
L 391.77906 128.708535 
L 392.004671 150.291885 
L 392.230283 140.07739 
L 392.455894 141.938527 
L 392.681505 149.698699 
L 392.907116 135.489767 
L 393.358339 152.525967 
L 393.58395 163.351873 
L 393.809561 157.324483 
L 394.035172 162.259869 
L 394.260784 149.591812 
L 394.486395 145.780333 
L 394.712006 161.223193 
L 394.937617 159.14513 
L 395.163228 145.959432 
L 395.38884 158.863836 
L 395.614451 145.82961 
L 395.840062 157.396188 
L 396.065673 157.220785 
L 396.291285 154.362719 
L 396.516896 138.347163 
L 396.742507 158.563266 
L 396.968118 148.651696 
L 397.193729 150.673779 
L 397.419341 166.395976 
L 397.644952 153.157034 
L 397.870563 154.950035 
L 398.096174 141.939868 
L 398.321786 153.963777 
L 398.547397 154.412249 
L 398.773008 141.288799 
L 398.998619 136.14906 
L 399.22423 107.367129 
L 399.449842 140.865926 
L 399.675453 150.588397 
L 399.901064 118.93878 
L 400.126675 131.191862 
L 400.352287 128.732702 
L 400.577898 129.146843 
L 400.577898 129.146843 
" clip-path="url(#p5d424c9383)" style="fill: none; stroke: #1f77b4; stroke-width: 1.5; stroke-linecap: square"/>
   </g>
   <g id="line2d_14">
    <path d="M 75.923352 234.731304 
L 76.148963 229.607417 
L 76.374575 219.26223 
L 76.825797 240.298736 
L 77.051408 237.676583 
L 77.27702 227.685989 
L 77.502631 232.662336 
L 77.728242 229.108473 
L 77.953853 218.960864 
L 78.179464 238.302125 
L 78.405076 244.548723 
L 78.630687 209.692807 
L 78.856298 204.154108 
L 79.081909 174.613769 
L 79.307521 187.825446 
L 79.533132 172.184193 
L 79.758743 172.525977 
L 79.984354 171.076808 
L 80.209965 167.557547 
L 80.435577 188.572875 
L 80.661188 171.621714 
L 80.886799 197.349723 
L 81.11241 193.981335 
L 81.338022 192.612331 
L 81.563633 215.804656 
L 81.789244 223.509862 
L 82.014855 225.739759 
L 82.240466 218.501612 
L 82.466078 227.330816 
L 82.691689 229.055772 
L 83.142911 216.206388 
L 83.368523 173.558614 
L 83.594134 179.13456 
L 83.819745 187.964217 
L 84.045356 191.565256 
L 84.496579 212.95371 
L 84.72219 206.270016 
L 84.947801 215.13212 
L 85.173412 212.438352 
L 85.850246 219.738221 
L 86.075857 221.234566 
L 86.52708 228.965172 
L 86.752691 204.524498 
L 87.203913 132.301638 
L 87.655136 150.948823 
L 87.880747 122.673699 
L 88.106358 139.815572 
L 88.331969 135.639481 
L 88.783192 168.307948 
L 89.234414 182.358904 
L 89.685637 211.912323 
L 89.911248 217.093078 
L 90.136859 235.928058 
L 90.36247 229.687582 
L 90.588082 237.736367 
L 90.813693 238.827284 
L 91.039304 234.164133 
L 91.264915 219.759273 
L 91.716138 225.736389 
L 91.941749 210.052871 
L 92.16736 222.27463 
L 92.392971 222.077632 
L 92.618583 220.943906 
L 92.844194 222.355393 
L 93.069805 237.217223 
L 93.295416 232.143916 
L 93.521027 229.573902 
L 93.746639 243.145081 
L 93.97225 240.21993 
L 94.197861 230.362528 
L 94.423472 237.915701 
L 94.649084 238.582748 
L 94.874695 218.364743 
L 95.100306 215.970294 
L 95.551528 234.437456 
L 95.77714 212.632614 
L 96.002751 204.09648 
L 96.228362 202.328334 
L 96.453973 189.847891 
L 96.679585 200.611296 
L 96.905196 203.240424 
L 97.130807 225.772151 
L 97.356418 221.921577 
L 97.582029 220.208922 
L 97.807641 195.620926 
L 98.033252 203.513294 
L 98.258863 197.661017 
L 98.935697 215.293283 
L 99.161308 211.546697 
L 99.386919 202.844508 
L 99.61253 211.670994 
L 99.838142 210.194705 
L 100.063753 205.620343 
L 100.289364 192.765868 
L 100.514975 199.893994 
L 100.740586 196.349913 
L 101.191809 222.537771 
L 101.41742 206.649048 
L 101.643031 216.165752 
L 101.868643 220.637412 
L 102.094254 231.21583 
L 102.319865 227.380564 
L 102.545476 228.3328 
L 102.771087 231.80753 
L 102.996699 175.474625 
L 103.22231 150.107659 
L 103.447921 137.994146 
L 103.673532 141.536596 
L 103.899144 139.255955 
L 105.252811 222.186928 
L 105.478422 221.68186 
L 105.704033 227.027112 
L 105.929645 222.22673 
L 106.155256 226.115675 
L 106.380867 237.947967 
L 106.832089 240.407218 
L 107.283312 204.173583 
L 107.508923 206.165702 
L 107.734534 194.782462 
L 107.960146 190.114655 
L 108.411368 206.398878 
L 108.636979 206.869416 
L 109.088202 213.031302 
L 109.313813 196.617294 
L 109.539424 225.331197 
L 109.765035 231.816444 
L 109.990646 208.531182 
L 110.216258 198.136519 
L 110.66748 219.035032 
L 110.893091 206.10561 
L 111.118703 205.583168 
L 111.344314 204.086045 
L 111.795536 210.77472 
L 112.021147 207.97421 
L 112.246759 184.275495 
L 112.47237 189.376828 
L 112.923592 212.660532 
L 113.149204 212.981247 
L 113.600426 235.96757 
L 113.826037 218.733484 
L 114.051648 228.583404 
L 114.502871 235.401812 
L 114.728482 252.849834 
L 114.954093 219.702967 
L 115.179705 207.484342 
L 115.405316 185.21302 
L 115.630927 174.489689 
L 115.856538 205.848972 
L 116.082149 190.139547 
L 116.307761 184.660596 
L 116.758983 192.065559 
L 117.210206 206.96498 
L 117.435817 220.86586 
L 117.661428 221.453738 
L 117.887039 234.006466 
L 118.11265 232.981276 
L 118.338262 230.902742 
L 118.563873 231.489587 
L 118.789484 233.865013 
L 119.240706 212.20994 
L 119.466318 192.140289 
L 119.691929 186.678096 
L 119.91754 184.317942 
L 120.143151 197.016417 
L 120.368763 192.884657 
L 120.594374 179.843492 
L 120.819985 203.637645 
L 121.045596 185.554696 
L 121.496819 216.776638 
L 121.72243 220.57453 
L 121.948041 219.785252 
L 122.173652 201.299086 
L 122.399264 226.723916 
L 122.624875 227.545025 
L 122.850486 221.152535 
L 123.301708 202.840812 
L 123.52732 219.158206 
L 123.752931 217.854602 
L 123.978542 229.961358 
L 124.204153 222.855334 
L 124.429765 227.748454 
L 124.655376 229.600442 
L 124.880987 234.235168 
L 125.106598 229.202225 
L 125.332209 233.210992 
L 125.557821 235.134504 
L 125.783432 227.564373 
L 126.009043 235.59448 
L 126.234654 232.725381 
L 126.460266 244.525697 
L 126.685877 241.741203 
L 126.911488 225.286015 
L 127.137099 219.925871 
L 127.36271 223.336579 
L 127.588322 232.900621 
L 127.813933 222.211476 
L 128.039544 219.884711 
L 128.265155 209.845311 
L 128.490767 214.408042 
L 128.716378 213.82549 
L 128.941989 226.468402 
L 129.1676 222.813702 
L 129.393211 229.095066 
L 129.618823 226.825259 
L 129.844434 236.678241 
L 130.295656 234.687282 
L 130.521267 222.252039 
L 130.746879 218.850227 
L 131.198101 238.877213 
L 131.423712 238.711991 
L 131.649324 212.117709 
L 131.874935 222.700149 
L 132.100546 205.564744 
L 132.551768 197.808557 
L 133.002991 212.437555 
L 133.228602 210.908256 
L 133.454213 202.725917 
L 133.679825 223.574737 
L 133.905436 216.170191 
L 134.131047 221.4141 
L 134.356658 230.984628 
L 134.582269 218.39016 
L 135.033492 246.731318 
L 135.259103 239.018249 
L 135.935937 189.291427 
L 136.161548 180.250279 
L 136.387159 177.71224 
L 136.61277 188.570973 
L 136.838382 176.078265 
L 137.063993 185.105699 
L 137.289604 181.318333 
L 138.192049 211.406965 
L 138.868883 231.374638 
L 139.320105 250.146464 
L 139.771328 232.924771 
L 139.996939 221.668925 
L 140.22255 244.140289 
L 140.448161 224.461736 
L 140.673772 229.958242 
L 140.899384 207.220494 
L 141.350606 227.253151 
L 141.576217 235.158128 
L 141.801828 225.562454 
L 142.02744 249.864536 
L 142.253051 239.775081 
L 142.478662 235.008595 
L 142.704273 241.729499 
L 142.929885 233.250105 
L 143.155496 219.759925 
L 143.381107 218.203053 
L 143.606718 186.611754 
L 143.832329 187.107238 
L 144.057941 154.41676 
L 144.283552 175.047367 
L 144.509163 176.086707 
L 145.637219 223.303353 
L 145.86283 226.694748 
L 146.314053 243.97023 
L 146.765275 247.205262 
L 146.990887 256.8463 
L 147.216498 222.74919 
L 147.442109 239.239704 
L 147.66772 218.521576 
L 147.893331 209.299862 
L 148.118943 226.592898 
L 148.795776 194.29051 
L 149.021388 186.635015 
L 149.246999 200.149127 
L 149.47261 201.609185 
L 149.698221 205.443454 
L 149.923832 194.416601 
L 150.375055 191.450217 
L 150.600666 184.905295 
L 150.826277 214.538734 
L 151.051889 218.577085 
L 151.2775 202.489951 
L 151.503111 197.685637 
L 151.728722 180.552732 
L 151.954333 188.674381 
L 152.405556 166.669516 
L 152.631167 179.612798 
L 152.856778 163.382399 
L 153.308001 153.220369 
L 153.533612 114.460761 
L 153.759223 150.306668 
L 153.984834 154.823311 
L 154.210446 156.518556 
L 154.436057 165.024979 
L 154.661668 183.67903 
L 154.887279 175.676243 
L 155.11289 198.144345 
L 155.564113 216.148143 
L 155.789724 205.491934 
L 156.015335 186.920294 
L 156.240947 190.016084 
L 156.466558 176.912816 
L 156.692169 177.379767 
L 156.91778 175.218658 
L 157.143391 154.227588 
L 157.369003 155.105202 
L 157.594614 197.619911 
L 157.820225 198.300255 
L 158.271448 215.223807 
L 158.497059 218.161802 
L 158.72267 223.522707 
L 158.948281 225.144254 
L 159.173892 220.479292 
L 159.399504 241.32909 
L 159.625115 238.061466 
L 159.850726 239.904632 
L 160.076337 205.797739 
L 160.301949 201.223576 
L 160.52756 204.185141 
L 160.753171 192.153822 
L 160.978782 193.327024 
L 161.204393 189.983927 
L 161.430005 209.061776 
L 161.655616 213.141668 
L 161.881227 219.360693 
L 162.106838 232.996276 
L 162.332449 226.447731 
L 162.558061 229.274165 
L 162.783672 223.037531 
L 163.009283 240.613527 
L 163.234894 237.60515 
L 163.460506 236.437383 
L 163.686117 247.855769 
L 163.911728 206.235269 
L 164.36295 185.805301 
L 164.588562 189.505962 
L 164.814173 202.384495 
L 165.039784 199.368074 
L 165.265395 209.647715 
L 165.491007 207.226781 
L 165.716618 225.196592 
L 165.942229 221.714561 
L 166.16784 220.832617 
L 166.393451 231.170086 
L 166.619063 217.714073 
L 166.844674 228.209771 
L 167.070285 249.827379 
L 167.295896 234.557242 
L 167.521508 232.63219 
L 167.747119 225.97549 
L 167.97273 236.059528 
L 168.198341 216.82327 
L 168.423952 213.624706 
L 168.649564 221.837933 
L 168.875175 207.137304 
L 169.100786 214.938908 
L 169.326397 208.437665 
L 169.552009 206.410002 
L 170.003231 220.765423 
L 170.228842 221.061934 
L 170.454453 226.481047 
L 170.680065 224.08986 
L 170.905676 215.862936 
L 171.131287 215.821432 
L 171.356898 204.949564 
L 171.58251 182.829623 
L 171.808121 216.008574 
L 172.033732 210.396413 
L 172.259343 186.483236 
L 172.484954 206.055807 
L 172.710566 214.721022 
L 172.936177 215.773731 
L 173.161788 232.622915 
L 173.387399 225.287646 
L 173.61301 238.640721 
L 173.838622 244.745812 
L 174.064233 236.939172 
L 174.289844 247.70379 
L 174.515455 242.411474 
L 174.741067 254.081968 
L 175.192289 248.635826 
L 175.4179 252.750809 
L 175.643511 238.062191 
L 175.869123 245.020276 
L 176.094734 238.449013 
L 176.320345 222.518876 
L 176.545956 226.945425 
L 176.771568 208.772601 
L 176.997179 203.174009 
L 177.22279 214.568427 
L 177.448401 203.014585 
L 177.674012 224.423256 
L 177.899624 219.781266 
L 178.125235 232.908013 
L 178.576457 224.546339 
L 178.802069 242.48673 
L 179.253291 233.417048 
L 179.478902 246.216196 
L 179.704513 249.886511 
L 179.930125 244.302068 
L 180.381347 211.634816 
L 180.606958 219.576949 
L 180.83257 212.800626 
L 181.058181 195.380865 
L 181.283792 198.466274 
L 181.509403 204.544191 
L 181.735014 215.579921 
L 181.960626 215.776956 
L 182.186237 228.268251 
L 182.411848 216.732271 
L 182.637459 220.24617 
L 182.863071 232.981402 
L 183.088682 223.580734 
L 183.314293 226.048862 
L 183.539904 232.731251 
L 183.765515 221.153187 
L 183.991127 238.94649 
L 184.216738 220.148033 
L 184.66796 234.065019 
L 184.893571 219.680756 
L 185.119183 226.433546 
L 185.796016 215.81924 
L 186.47285 236.027336 
L 186.698461 228.85785 
L 186.924072 211.775472 
L 187.375295 240.948047 
L 187.600906 235.310106 
L 187.826517 244.408231 
L 188.052129 216.35987 
L 188.27774 228.8716 
L 188.503351 209.41222 
L 188.728962 225.705465 
L 188.954573 214.948274 
L 189.180185 217.138224 
L 189.405796 212.221045 
L 189.631407 201.006868 
L 189.857018 212.209523 
L 190.08263 213.346492 
L 190.308241 212.000133 
L 190.533852 237.384473 
L 190.759463 235.397699 
L 190.985074 238.065995 
L 191.210686 243.801475 
L 191.436297 242.632259 
L 191.661908 237.544532 
L 191.887519 252.721316 
L 192.113131 241.726021 
L 192.338742 209.344573 
L 192.564353 201.594764 
L 192.789964 215.889205 
L 193.015575 215.143497 
L 193.241187 217.643002 
L 193.466798 217.424536 
L 193.692409 210.87148 
L 193.91802 219.527147 
L 194.143632 210.249018 
L 194.369243 235.498372 
L 194.820465 222.488748 
L 195.046076 238.983683 
L 195.271688 241.011473 
L 195.497299 232.609545 
L 195.72291 244.782425 
L 195.948521 236.247613 
L 196.174132 219.931977 
L 196.399744 215.985222 
L 196.625355 227.245941 
L 196.850966 211.918338 
L 197.076577 207.412311 
L 197.302189 210.24342 
L 197.5278 209.806125 
L 197.753411 208.602941 
L 197.979022 221.780613 
L 198.430245 212.825029 
L 198.881467 231.450673 
L 199.107078 218.948617 
L 199.33269 213.357942 
L 199.558301 230.29778 
L 200.009523 223.298118 
L 200.235134 208.497558 
L 200.460746 208.280269 
L 200.686357 214.12923 
L 200.911968 216.727036 
L 201.137579 226.83727 
L 201.363191 229.614972 
L 201.588802 218.582738 
L 201.814413 230.842269 
L 202.040024 200.793275 
L 202.491247 230.28854 
L 202.716858 234.772809 
L 202.942469 234.307235 
L 203.16808 225.741679 
L 203.393692 228.72156 
L 203.619303 238.794529 
L 203.844914 223.625155 
L 204.070525 236.559089 
L 204.296136 231.794813 
L 204.521748 237.283909 
L 204.747359 227.262517 
L 204.97297 229.450547 
L 205.198581 229.144488 
L 205.875415 246.663363 
L 206.101026 241.622178 
L 206.326637 243.766547 
L 206.552249 250.827787 
L 206.77786 224.242944 
L 207.003471 252.344059 
L 207.229082 241.767997 
L 207.454693 219.154655 
L 207.680305 239.890917 
L 207.905916 216.201442 
L 208.357138 243.011001 
L 208.58275 226.148937 
L 208.808361 225.322393 
L 209.033972 213.192647 
L 209.259583 217.075614 
L 209.485194 210.966356 
L 209.710806 211.926363 
L 209.936417 212.057563 
L 210.162028 213.625702 
L 210.387639 225.048672 
L 210.613251 228.112613 
L 210.838862 238.849857 
L 211.064473 240.689635 
L 211.290084 252.620552 
L 211.515695 249.895787 
L 211.741307 249.7714 
L 211.966918 257.206454 
L 212.192529 252.376306 
L 212.41814 256.291973 
L 213.546196 193.482608 
L 213.771808 195.147127 
L 214.22303 215.681917 
L 214.448641 218.001436 
L 214.674253 229.967155 
L 214.899864 230.063462 
L 215.125475 228.970933 
L 215.351086 225.712458 
L 215.576697 237.528988 
L 215.802309 232.156543 
L 216.253531 248.013943 
L 216.479142 236.117737 
L 216.704753 240.347868 
L 216.930365 225.804398 
L 217.155976 219.005955 
L 217.381587 219.874348 
L 217.607198 197.413819 
L 217.83281 203.938088 
L 218.058421 190.592839 
L 218.284032 194.364063 
L 218.509643 186.815998 
L 218.735254 212.719283 
L 218.960866 217.984769 
L 219.186477 219.20578 
L 219.412088 217.380876 
L 219.637699 223.063311 
L 219.863311 208.144559 
L 220.088922 208.835357 
L 220.314533 204.172822 
L 220.540144 218.429454 
L 220.765755 202.65193 
L 220.991367 215.322433 
L 221.216978 207.559399 
L 221.442589 190.367054 
L 221.6682 199.063718 
L 221.893812 184.427365 
L 222.119423 196.647113 
L 222.345034 185.837639 
L 222.570645 189.873943 
L 222.796256 202.824344 
L 223.021868 207.602697 
L 223.247479 201.514834 
L 223.47309 217.634542 
L 223.698701 219.941886 
L 223.924313 209.25477 
L 224.149924 212.033395 
L 224.375535 198.403157 
L 224.601146 209.8283 
L 224.826757 205.829878 
L 225.052369 194.810524 
L 225.27798 193.096746 
L 225.503591 185.716476 
L 225.954814 190.995947 
L 226.180425 181.58767 
L 226.406036 183.597724 
L 226.631647 195.781927 
L 226.857258 201.509073 
L 227.308481 242.755777 
L 227.534092 213.263175 
L 227.759703 221.096247 
L 227.985314 216.884739 
L 228.210926 223.958171 
L 228.436537 223.352322 
L 228.887759 237.389492 
L 229.338982 202.040682 
L 229.564593 187.192584 
L 229.790204 209.594344 
L 230.241427 188.034908 
L 230.467038 207.828156 
L 230.91826 225.824997 
L 231.143872 243.05102 
L 231.369483 230.352564 
L 231.595094 210.864723 
L 231.820705 217.084708 
L 232.046316 234.897015 
L 232.271928 225.650807 
L 232.497539 236.271781 
L 232.72315 234.450246 
L 232.948761 203.463763 
L 233.625595 171.858242 
L 233.851206 179.051605 
L 234.076817 160.082854 
L 234.302429 164.006202 
L 234.52804 212.33016 
L 234.753651 201.591431 
L 234.979262 215.330549 
L 235.204874 215.061176 
L 235.430485 226.265607 
L 235.656096 224.036453 
L 236.33293 252.882208 
L 236.784152 239.18108 
L 237.235375 233.337698 
L 237.460986 251.452477 
L 237.686597 238.904605 
L 237.912208 237.718921 
L 238.137819 243.612738 
L 238.363431 260.746984 
L 238.589042 241.430832 
L 238.814653 246.696154 
L 239.040264 240.185092 
L 239.265875 228.731941 
L 239.491487 246.7338 
L 239.717098 239.67901 
L 239.942709 248.90663 
L 240.16832 238.958157 
L 240.393932 248.732495 
L 240.619543 252.432957 
L 240.845154 253.698117 
L 241.070765 253.259229 
L 241.296376 251.346605 
L 241.521988 244.108712 
L 241.97321 255.261529 
L 242.198821 235.120518 
L 242.424433 234.055381 
L 242.650044 245.471375 
L 242.875655 225.0559 
L 243.101266 220.11988 
L 243.326877 234.301492 
L 243.7781 245.966425 
L 244.003711 232.033442 
L 244.229322 249.479743 
L 244.454934 240.455389 
L 244.906156 255.205132 
L 245.131767 253.92046 
L 245.357378 240.892647 
L 245.58299 236.959172 
L 245.808601 226.822487 
L 246.034212 221.719579 
L 246.259823 211.252559 
L 246.485435 214.688865 
L 246.936657 236.628149 
L 247.162268 220.849483 
L 247.387879 224.535162 
L 247.613491 204.864598 
L 247.839102 220.744698 
L 248.290324 201.59201 
L 248.515936 215.075053 
L 248.741547 218.396881 
L 248.967158 217.0365 
L 249.192769 219.375223 
L 249.41838 211.536643 
L 249.643992 208.612724 
L 249.869603 226.940299 
L 250.095214 220.663536 
L 250.320825 220.538605 
L 250.772048 235.304798 
L 250.997659 234.059221 
L 251.22327 237.362933 
L 251.448881 236.237069 
L 251.674493 250.988298 
L 251.900104 249.571974 
L 252.125715 242.926379 
L 252.351326 248.477977 
L 252.576937 237.922368 
L 252.802549 257.021648 
L 253.02816 239.290992 
L 253.253771 232.518564 
L 253.704994 248.95944 
L 253.930605 232.25247 
L 254.156216 239.904541 
L 254.381827 227.829634 
L 254.607438 232.296167 
L 254.83305 221.345348 
L 255.058661 233.127095 
L 255.284272 225.39292 
L 255.509883 237.173272 
L 255.735495 228.022139 
L 255.961106 245.831258 
L 256.186717 242.894893 
L 256.412328 243.444183 
L 256.863551 226.084986 
L 257.089162 242.471929 
L 257.540384 210.763814 
L 257.765996 203.156074 
L 257.991607 207.275351 
L 258.217218 203.03444 
L 258.442829 208.638721 
L 258.66844 225.746027 
L 258.894052 201.340083 
L 259.119663 216.936914 
L 259.345274 218.960157 
L 259.570885 227.428971 
L 259.796497 224.834046 
L 260.247719 232.717519 
L 260.47333 232.863863 
L 260.924553 238.179785 
L 261.150164 226.022049 
L 261.375775 231.165611 
L 261.601386 214.224414 
L 261.826997 219.281814 
L 262.052609 198.757713 
L 262.27822 202.746353 
L 262.729442 215.748314 
L 262.955054 202.921484 
L 263.180665 199.395828 
L 263.406276 220.265808 
L 263.631887 208.372899 
L 264.08311 221.050557 
L 264.308721 219.158224 
L 264.534332 211.526951 
L 264.985555 232.880856 
L 265.436777 208.072438 
L 265.662388 205.699204 
L 265.887999 206.772149 
L 266.113611 215.059473 
L 266.339222 190.21801 
L 266.564833 190.827809 
L 266.790444 201.801871 
L 267.016056 199.133249 
L 267.241667 214.005332 
L 267.692889 226.375646 
L 268.144112 248.447198 
L 268.369723 239.381375 
L 268.595334 243.716437 
L 268.820945 231.093109 
L 269.046557 256.897424 
L 269.272168 234.983449 
L 269.497779 229.69309 
L 269.72339 232.539217 
L 269.949001 231.914508 
L 270.174613 210.59785 
L 270.400224 223.601658 
L 270.625835 220.905572 
L 270.851446 230.52034 
L 271.077057 214.611399 
L 271.302669 213.901416 
L 271.753891 225.697512 
L 271.979502 226.446662 
L 272.205114 224.763429 
L 272.430725 221.204619 
L 272.656336 235.003377 
L 272.881947 234.862413 
L 273.107558 230.472386 
L 273.33317 209.071323 
L 273.558781 226.435339 
L 273.784392 209.927487 
L 274.010003 227.018254 
L 274.235615 217.017569 
L 274.461226 221.033039 
L 274.686837 228.663279 
L 275.138059 203.772449 
L 275.363671 210.146732 
L 275.589282 229.841608 
L 275.814893 235.394511 
L 276.040504 226.296513 
L 276.266116 231.983731 
L 276.491727 241.182564 
L 276.942949 221.536965 
L 277.16856 234.294807 
L 277.394172 228.036524 
L 277.619783 197.374651 
L 277.845394 201.185767 
L 278.071005 189.93023 
L 278.296617 195.183107 
L 278.522228 211.633022 
L 278.747839 210.103253 
L 278.97345 218.127852 
L 279.199061 208.237315 
L 279.424673 226.32992 
L 279.650284 215.208933 
L 279.875895 228.753644 
L 280.101506 234.377454 
L 280.327118 223.1015 
L 280.552729 225.332393 
L 280.77834 232.918212 
L 281.229562 236.89812 
L 281.455174 230.079404 
L 281.680785 216.797835 
L 281.906396 213.678657 
L 282.132007 220.590309 
L 282.357618 220.543859 
L 282.58323 227.815684 
L 282.808841 197.981569 
L 283.034452 209.408053 
L 283.260063 204.035264 
L 283.485675 194.424246 
L 283.711286 166.056855 
L 283.936897 207.162812 
L 284.162508 216.4977 
L 284.388119 217.714345 
L 284.839342 223.251866 
L 285.064953 230.234698 
L 285.290564 227.797115 
L 285.516176 242.542057 
L 285.741787 226.668842 
L 285.967398 236.127393 
L 286.193009 232.191273 
L 286.41862 221.188333 
L 286.644232 228.962146 
L 286.869843 219.806303 
L 287.095454 227.911556 
L 287.321065 230.95604 
L 287.546677 223.482706 
L 287.772288 237.53984 
L 287.997899 227.598396 
L 288.22351 238.534504 
L 288.449121 229.555785 
L 288.674733 213.872231 
L 288.900344 228.781797 
L 289.125955 228.009856 
L 289.351566 230.43407 
L 289.577178 241.450941 
L 289.802789 229.413879 
L 290.254011 226.955788 
L 290.479622 232.066378 
L 290.930845 214.795154 
L 291.156456 221.184583 
L 291.83329 190.995748 
L 292.058901 199.623189 
L 292.284512 217.498814 
L 292.510123 200.274729 
L 292.735735 214.527502 
L 292.961346 221.51711 
L 293.412568 203.749025 
L 293.638179 227.85429 
L 293.863791 224.593678 
L 294.315013 213.805635 
L 294.540624 213.865183 
L 294.991847 201.092649 
L 295.217458 198.571857 
L 295.443069 204.478972 
L 295.66868 194.974333 
L 295.894292 213.041411 
L 296.119903 220.510796 
L 296.345514 224.046471 
L 296.571125 221.777425 
L 296.796737 243.501811 
L 297.022348 230.492169 
L 297.247959 235.087655 
L 297.47357 215.68891 
L 297.699181 246.084326 
L 297.924793 217.691572 
L 298.150404 227.888259 
L 298.376015 220.447117 
L 298.601626 225.32482 
L 298.827238 206.06579 
L 299.052849 226.317438 
L 299.27846 211.007625 
L 299.504071 212.503281 
L 299.729682 218.954269 
L 299.955294 219.437144 
L 300.632127 231.357881 
L 300.857739 227.919238 
L 301.08335 236.464865 
L 301.308961 236.356239 
L 301.534572 234.15917 
L 301.760183 230.635379 
L 301.985795 223.404823 
L 302.437017 232.789531 
L 302.662628 226.177053 
L 302.88824 213.710016 
L 303.113851 211.313213 
L 303.565073 198.415222 
L 303.790684 227.363534 
L 304.016296 219.880001 
L 304.241907 223.276287 
L 304.467518 214.299688 
L 304.693129 230.298595 
L 304.91874 224.811836 
L 305.144352 223.384768 
L 305.369963 239.87358 
L 305.821185 220.438566 
L 306.046797 224.500813 
L 306.272408 213.765054 
L 306.498019 214.12923 
L 306.72363 207.169768 
L 306.949241 196.534556 
L 307.626075 206.149053 
L 307.851686 198.477325 
L 308.077298 217.800851 
L 308.302909 226.916385 
L 308.52852 229.686061 
L 308.754131 215.553218 
L 308.979742 231.263893 
L 309.205354 236.419556 
L 309.430965 230.10051 
L 309.656576 245.703664 
L 309.882187 226.117251 
L 310.107799 238.904677 
L 310.559021 225.06648 
L 310.784632 218.520471 
L 311.010243 224.150369 
L 311.235855 201.960263 
L 311.461466 198.514084 
L 311.687077 198.660011 
L 311.912688 225.467469 
L 312.1383 221.135614 
L 312.363911 223.073184 
L 312.589522 213.755525 
L 312.815133 233.758325 
L 313.040744 198.734705 
L 313.266356 231.719811 
L 313.491967 219.956814 
L 313.943189 231.758181 
L 314.394412 220.765133 
L 314.620023 234.000017 
L 314.845634 219.877048 
L 315.071245 217.126177 
L 315.296857 201.862923 
L 315.522468 215.99602 
L 315.748079 218.900753 
L 315.97369 227.768111 
L 316.199301 229.690898 
L 316.424913 216.460706 
L 316.650524 232.035634 
L 316.876135 234.63382 
L 317.101746 234.645596 
L 317.327358 237.947677 
L 317.552969 206.959817 
L 317.77858 210.418135 
L 318.229802 181.916591 
L 318.455414 180.119695 
L 318.681025 169.786085 
L 318.906636 183.942316 
L 319.132247 167.046628 
L 319.357859 190.169838 
L 319.58347 188.608872 
L 319.809081 202.470874 
L 320.034692 202.530296 
L 320.260303 236.495899 
L 320.485915 229.203711 
L 321.38836 247.099752 
L 321.613971 236.429937 
L 321.839582 247.6406 
L 322.290804 236.861869 
L 322.516416 239.500164 
L 322.967638 225.924981 
L 323.193249 237.692054 
L 323.418861 229.072638 
L 323.644472 214.235592 
L 323.870083 214.07278 
L 324.095694 204.639501 
L 324.321305 225.690301 
L 324.546917 212.311609 
L 324.772528 226.512787 
L 324.998139 229.007347 
L 325.22375 236.556208 
L 325.449361 233.507322 
L 325.674973 233.998314 
L 325.900584 235.826914 
L 326.126195 250.358734 
L 326.577418 232.048678 
L 326.803029 211.984119 
L 327.02864 210.419294 
L 327.254251 212.20599 
L 327.705474 211.3318 
L 327.931085 221.097533 
L 328.156696 222.494129 
L 328.607919 238.760525 
L 328.83353 237.225882 
L 329.059141 244.210689 
L 329.284752 247.443783 
L 329.510363 241.72584 
L 329.961586 251.323543 
L 330.187197 239.920049 
L 330.412808 247.877798 
L 330.63842 220.036164 
L 331.089642 233.22246 
L 331.315253 237.503082 
L 331.540864 234.931129 
L 331.992087 222.521919 
L 332.217698 232.257995 
L 332.894532 210.72057 
L 333.120143 211.241653 
L 333.571365 227.863892 
L 333.796977 229.268278 
L 334.022588 240.626589 
L 334.248199 233.920123 
L 334.47381 242.550608 
L 334.699422 207.363234 
L 335.150644 210.578085 
L 335.376255 195.784373 
L 335.601866 202.154743 
L 335.827478 180.472748 
L 336.2787 203.253649 
L 336.504311 225.280326 
L 336.729922 203.795222 
L 337.181145 217.813496 
L 337.406756 217.56137 
L 337.632367 233.650007 
L 337.857979 224.479073 
L 338.08359 225.841247 
L 338.309201 230.554888 
L 338.534812 224.493458 
L 338.760423 230.306802 
L 338.986035 221.474029 
L 339.211646 223.742459 
L 339.88848 195.883578 
L 340.114091 206.18909 
L 340.339702 233.862259 
L 340.565313 212.751675 
L 341.016536 225.715556 
L 341.242147 227.316214 
L 341.467758 223.386544 
L 341.693369 246.460858 
L 342.144592 208.956411 
L 342.370203 228.583748 
L 342.595814 215.191614 
L 342.821425 220.16037 
L 343.047037 207.544344 
L 343.272648 183.977824 
L 343.498259 176.060492 
L 343.72387 197.486465 
L 343.949482 195.96974 
L 344.175093 218.70073 
L 344.626315 205.494542 
L 344.851926 207.950713 
L 345.077538 211.911671 
L 345.52876 228.735129 
L 345.754371 216.877619 
L 345.979983 231.900794 
L 346.205594 234.292398 
L 346.431205 230.32606 
L 346.656816 230.683479 
L 346.882427 228.051216 
L 347.108039 229.202189 
L 347.559261 216.663302 
L 347.784872 215.818406 
L 348.010483 210.416848 
L 348.236095 214.808089 
L 348.461706 214.446232 
L 348.687317 218.777906 
L 348.912928 215.599705 
L 349.364151 240.144022 
L 349.589762 242.83866 
L 349.815373 241.054844 
L 350.040984 220.712052 
L 350.492207 252.40493 
L 350.717818 243.673175 
L 350.943429 225.431816 
L 351.169041 228.320444 
L 351.394652 208.881028 
L 351.620263 200.186302 
L 351.845874 198.985636 
L 352.071485 200.962247 
L 352.297097 205.916873 
L 352.522708 200.422595 
L 352.748319 211.857285 
L 352.97393 195.984541 
L 353.650764 220.331879 
L 353.876375 207.813554 
L 354.101986 210.814142 
L 354.553209 226.438129 
L 354.77882 229.376596 
L 355.004431 219.084309 
L 355.230043 217.986671 
L 355.455654 211.89658 
L 355.681265 220.835932 
L 355.906876 197.99003 
L 356.358099 219.566695 
L 356.58371 208.904199 
L 357.034932 239.940701 
L 357.260544 224.706144 
L 357.486155 221.181213 
L 357.711766 240.533507 
L 357.937377 237.680043 
L 358.162988 244.887664 
L 358.614211 221.445042 
L 358.839822 218.392932 
L 359.065433 238.082101 
L 359.291044 240.475589 
L 359.516656 231.64403 
L 359.742267 217.768386 
L 359.967878 213.371275 
L 360.419101 235.391648 
L 360.644712 230.842686 
L 360.870323 239.993094 
L 361.095934 222.971859 
L 361.321545 236.563491 
L 361.547157 238.179567 
L 361.772768 240.717661 
L 361.998379 233.625496 
L 362.22399 233.413769 
L 362.449602 219.865453 
L 362.675213 226.105856 
L 362.900824 226.041687 
L 363.126435 188.296998 
L 363.352046 210.887586 
L 363.577658 199.052558 
L 363.803269 201.510269 
L 364.02888 209.874406 
L 364.254491 187.987733 
L 364.931325 225.402649 
L 365.156936 219.361834 
L 365.608159 240.593418 
L 365.83377 234.794422 
L 366.059381 239.420434 
L 366.284992 247.395231 
L 366.510604 250.217336 
L 366.961826 216.346174 
L 367.413048 206.541418 
L 367.63866 197.297402 
L 367.864271 194.890381 
L 368.089882 198.571313 
L 368.315493 206.454061 
L 368.766716 191.395469 
L 368.992327 210.541018 
L 369.217938 209.320768 
L 369.669161 225.886575 
L 369.894772 218.404436 
L 370.120383 217.512147 
L 370.345994 226.748065 
L 370.571605 229.653342 
L 370.797217 230.062302 
L 371.022828 225.433175 
L 371.248439 215.610991 
L 371.47405 214.93918 
L 371.699662 177.898785 
L 371.925273 176.109189 
L 372.150884 179.80802 
L 372.376495 199.521647 
L 372.602106 197.536775 
L 373.053329 216.245664 
L 373.27894 226.483221 
L 373.504551 214.419329 
L 373.730163 210.999871 
L 373.955774 204.443808 
L 374.632607 231.521653 
L 374.858219 232.880204 
L 375.08383 222.14671 
L 375.309441 234.921328 
L 375.535052 227.403246 
L 375.760664 230.595976 
L 375.986275 227.440529 
L 376.437497 218.19039 
L 376.663108 240.334987 
L 376.88872 236.503055 
L 377.114331 242.588164 
L 377.339942 238.079637 
L 377.791165 243.582013 
L 378.016776 241.841803 
L 378.242387 261.216 
L 378.467998 240.942341 
L 378.693609 244.396491 
L 378.919221 228.926402 
L 379.144832 239.42172 
L 379.370443 234.781922 
L 379.596054 232.462965 
L 379.821665 217.243626 
L 380.047277 210.908746 
L 380.272888 196.33292 
L 380.498499 207.537532 
L 380.72411 224.791871 
L 380.949722 219.964423 
L 381.175333 229.564662 
L 381.400944 230.042157 
L 381.626555 228.396606 
L 382.077778 236.436549 
L 382.303389 248.152027 
L 382.529 237.610929 
L 382.754611 249.550905 
L 382.980223 238.877901 
L 383.205834 234.784512 
L 383.431445 220.088738 
L 383.657056 228.994919 
L 383.882667 220.707088 
L 384.108279 219.955655 
L 384.33389 211.476913 
L 384.559501 213.661356 
L 385.010724 229.114795 
L 385.236335 235.98353 
L 385.461946 237.047997 
L 385.913168 232.377763 
L 386.13878 221.049054 
L 386.364391 224.793357 
L 386.815613 237.604461 
L 387.041225 228.699621 
L 387.266836 233.875213 
L 387.492447 202.051642 
L 387.718058 197.787778 
L 387.943669 208.17619 
L 388.169281 199.939973 
L 388.846114 217.887991 
L 389.071726 225.431236 
L 389.297337 195.789826 
L 389.748559 240.025812 
L 389.97417 233.461343 
L 390.199782 233.811244 
L 390.425393 249.464236 
L 390.651004 230.930224 
L 390.876615 252.312048 
L 391.102226 241.057525 
L 391.327838 215.207846 
L 391.553449 211.704184 
L 391.77906 201.273813 
L 392.004671 219.903969 
L 392.230283 217.975312 
L 392.455894 205.350191 
L 392.681505 208.312281 
L 392.907116 234.796342 
L 393.132727 228.487659 
L 393.358339 244.398176 
L 393.58395 211.236508 
L 393.809561 230.441534 
L 394.035172 238.794964 
L 394.260784 242.850326 
L 394.486395 240.756212 
L 394.712006 232.521553 
L 394.937617 242.265836 
L 395.163228 230.174842 
L 395.38884 244.66369 
L 395.614451 218.221061 
L 395.840062 209.252813 
L 396.065673 219.473866 
L 396.291285 219.578869 
L 396.516896 229.364566 
L 396.742507 232.830384 
L 396.968118 221.03947 
L 397.193729 215.161885 
L 397.419341 219.204548 
L 397.644952 220.444363 
L 397.870563 222.363799 
L 398.096174 226.128918 
L 398.321786 209.686756 
L 398.547397 212.009953 
L 398.773008 227.895378 
L 398.998619 226.403346 
L 399.22423 227.242336 
L 399.449842 230.573294 
L 399.675453 220.000312 
L 399.901064 220.705204 
L 400.352287 200.641369 
L 400.577898 202.072784 
L 400.577898 202.072784 
" clip-path="url(#p5d424c9383)" style="fill: none; stroke: #ff7f0e; stroke-width: 1.5; stroke-linecap: square"/>
   </g>
   <g id="patch_3">
    <path d="M 59.690625 273.312 
L 59.690625 7.2 
" style="fill: none; stroke: #000000; stroke-width: 0.8; stroke-linejoin: miter; stroke-linecap: square"/>
   </g>
   <g id="patch_4">
    <path d="M 416.810625 273.312 
L 416.810625 7.2 
" style="fill: none; stroke: #000000; stroke-width: 0.8; stroke-linejoin: miter; stroke-linecap: square"/>
   </g>
   <g id="patch_5">
    <path d="M 59.690625 273.312 
L 416.810625 273.312 
" style="fill: none; stroke: #000000; stroke-width: 0.8; stroke-linejoin: miter; stroke-linecap: square"/>
   </g>
   <g id="patch_6">
    <path d="M 59.690625 7.2 
L 416.810625 7.2 
" style="fill: none; stroke: #000000; stroke-width: 0.8; stroke-linejoin: miter; stroke-linecap: square"/>
   </g>
  </g>
 </g>
 <defs>
  <clipPath id="p5d424c9383">
   <rect x="59.690625" y="7.2" width="357.12" height="266.112"/>
  </clipPath>
 </defs>
</svg>