<?xml version="1.0" encoding="utf-8" standalone="no"?>
<!DOCTYPE svg PUBLIC "-//W3C//DTD SVG 1.1//EN"
  "http://www.w3.org/Graphics/SVG/1.1/DTD/svg11.dtd">
<svg xmlns:xlink="http://www.w3.org/1999/xlink" width="411.285625pt" height="325.986375pt" viewBox="0 0 411.285625 325.986375" xmlns="http://www.w3.org/2000/svg" version="1.1">
 <metadata>
  <rdf:RDF xmlns:dc="http://purl.org/dc/elements/1.1/" xmlns:cc="http://creativecommons.org/ns#" xmlns:rdf="http://www.w3.org/1999/02/22-rdf-syntax-ns#">
   <cc:Work>
    <dc:type rdf:resource="http://purl.org/dc/dcmitype/StillImage"/>
    <dc:date>2023-01-26T18:41:25.593275</dc:date>
    <dc:format>image/svg+xml</dc:format>
    <dc:creator>
     <cc:Agent>
      <dc:title>Matplotlib v3.6.3, https://matplotlib.org/</dc:title>
     </cc:Agent>
    </dc:creator>
   </cc:Work>
  </rdf:RDF>
 </metadata>
 <defs>
  <style type="text/css">*{stroke-linejoin: round; stroke-linecap: butt}</style>
 </defs>
 <g id="figure_1">
  <g id="patch_1">
   <path d="M 0 325.986375 
L 411.285625 325.986375 
L 411.285625 0 
L 0 0 
z
" style="fill: #ffffff"/>
  </g>
  <g id="axes_1">
   <g id="patch_2">
    <path d="M 46.965625 288.430125 
L 404.085625 288.430125 
L 404.085625 22.318125 
L 46.965625 22.318125 
z
" style="fill: #ffffff"/>
   </g>
   <g id="matplotlib.axis_1">
    <g id="xtick_1">
     <g id="line2d_1">
      <defs>
       <path id="m269b30fdc2" d="M 0 0 
L 0 3.5 
" style="stroke: #000000; stroke-width: 0.8"/>
      </defs>
      <g>
       <use xlink:href="#m269b30fdc2" x="63.198352" y="288.430125" style="stroke: #000000; stroke-width: 0.8"/>
      </g>
     </g>
     <g id="text_1">
      <!-- 0 -->
      <g transform="translate(60.017102 303.028562) scale(0.1 -0.1)">
       <defs>
        <path id="DejaVuSans-30" d="M 2034 4250 
Q 1547 4250 1301 3770 
Q 1056 3291 1056 2328 
Q 1056 1369 1301 889 
Q 1547 409 2034 409 
Q 2525 409 2770 889 
Q 3016 1369 3016 2328 
Q 3016 3291 2770 3770 
Q 2525 4250 2034 4250 
z
M 2034 4750 
Q 2819 4750 3233 4129 
Q 3647 3509 3647 2328 
Q 3647 1150 3233 529 
Q 2819 -91 2034 -91 
Q 1250 -91 836 529 
Q 422 1150 422 2328 
Q 422 3509 836 4129 
Q 1250 4750 2034 4750 
z
" transform="scale(0.015625)"/>
       </defs>
       <use xlink:href="#DejaVuSans-30"/>
      </g>
     </g>
    </g>
    <g id="xtick_2">
     <g id="line2d_2">
      <g>
       <use xlink:href="#m269b30fdc2" x="122.333971" y="288.430125" style="stroke: #000000; stroke-width: 0.8"/>
      </g>
     </g>
     <g id="text_2">
      <!-- 100 -->
      <g transform="translate(112.790221 303.028562) scale(0.1 -0.1)">
       <defs>
        <path id="DejaVuSans-31" d="M 794 531 
L 1825 531 
L 1825 4091 
L 703 3866 
L 703 4441 
L 1819 4666 
L 2450 4666 
L 2450 531 
L 3481 531 
L 3481 0 
L 794 0 
L 794 531 
z
" transform="scale(0.015625)"/>
       </defs>
       <use xlink:href="#DejaVuSans-31"/>
       <use xlink:href="#DejaVuSans-30" x="63.623047"/>
       <use xlink:href="#DejaVuSans-30" x="127.246094"/>
      </g>
     </g>
    </g>
    <g id="xtick_3">
     <g id="line2d_3">
      <g>
       <use xlink:href="#m269b30fdc2" x="181.469589" y="288.430125" style="stroke: #000000; stroke-width: 0.8"/>
      </g>
     </g>
     <g id="text_3">
      <!-- 200 -->
      <g transform="translate(171.925839 303.028562) scale(0.1 -0.1)">
       <defs>
        <path id="DejaVuSans-32" d="M 1228 531 
L 3431 531 
L 3431 0 
L 469 0 
L 469 531 
Q 828 903 1448 1529 
Q 2069 2156 2228 2338 
Q 2531 2678 2651 2914 
Q 2772 3150 2772 3378 
Q 2772 3750 2511 3984 
Q 2250 4219 1831 4219 
Q 1534 4219 1204 4116 
Q 875 4013 500 3803 
L 500 4441 
Q 881 4594 1212 4672 
Q 1544 4750 1819 4750 
Q 2544 4750 2975 4387 
Q 3406 4025 3406 3419 
Q 3406 3131 3298 2873 
Q 3191 2616 2906 2266 
Q 2828 2175 2409 1742 
Q 1991 1309 1228 531 
z
" transform="scale(0.015625)"/>
       </defs>
       <use xlink:href="#DejaVuSans-32"/>
       <use xlink:href="#DejaVuSans-30" x="63.623047"/>
       <use xlink:href="#DejaVuSans-30" x="127.246094"/>
      </g>
     </g>
    </g>
    <g id="xtick_4">
     <g id="line2d_4">
      <g>
       <use xlink:href="#m269b30fdc2" x="240.605208" y="288.430125" style="stroke: #000000; stroke-width: 0.8"/>
      </g>
     </g>
     <g id="text_4">
      <!-- 300 -->
      <g transform="translate(231.061458 303.028562) scale(0.1 -0.1)">
       <defs>
        <path id="DejaVuSans-33" d="M 2597 2516 
Q 3050 2419 3304 2112 
Q 3559 1806 3559 1356 
Q 3559 666 3084 287 
Q 2609 -91 1734 -91 
Q 1441 -91 1130 -33 
Q 819 25 488 141 
L 488 750 
Q 750 597 1062 519 
Q 1375 441 1716 441 
Q 2309 441 2620 675 
Q 2931 909 2931 1356 
Q 2931 1769 2642 2001 
Q 2353 2234 1838 2234 
L 1294 2234 
L 1294 2753 
L 1863 2753 
Q 2328 2753 2575 2939 
Q 2822 3125 2822 3475 
Q 2822 3834 2567 4026 
Q 2313 4219 1838 4219 
Q 1578 4219 1281 4162 
Q 984 4106 628 3988 
L 628 4550 
Q 988 4650 1302 4700 
Q 1616 4750 1894 4750 
Q 2613 4750 3031 4423 
Q 3450 4097 3450 3541 
Q 3450 3153 3228 2886 
Q 3006 2619 2597 2516 
z
" transform="scale(0.015625)"/>
       </defs>
       <use xlink:href="#DejaVuSans-33"/>
       <use xlink:href="#DejaVuSans-30" x="63.623047"/>
       <use xlink:href="#DejaVuSans-30" x="127.246094"/>
      </g>
     </g>
    </g>
    <g id="xtick_5">
     <g id="line2d_5">
      <g>
       <use xlink:href="#m269b30fdc2" x="299.740826" y="288.430125" style="stroke: #000000; stroke-width: 0.8"/>
      </g>
     </g>
     <g id="text_5">
      <!-- 400 -->
      <g transform="translate(290.197076 303.028562) scale(0.1 -0.1)">
       <defs>
        <path id="DejaVuSans-34" d="M 2419 4116 
L 825 1625 
L 2419 1625 
L 2419 4116 
z
M 2253 4666 
L 3047 4666 
L 3047 1625 
L 3713 1625 
L 3713 1100 
L 3047 1100 
L 3047 0 
L 2419 0 
L 2419 1100 
L 313 1100 
L 313 1709 
L 2253 4666 
z
" transform="scale(0.015625)"/>
       </defs>
       <use xlink:href="#DejaVuSans-34"/>
       <use xlink:href="#DejaVuSans-30" x="63.623047"/>
       <use xlink:href="#DejaVuSans-30" x="127.246094"/>
      </g>
     </g>
    </g>
    <g id="xtick_6">
     <g id="line2d_6">
      <g>
       <use xlink:href="#m269b30fdc2" x="358.876445" y="288.430125" style="stroke: #000000; stroke-width: 0.8"/>
      </g>
     </g>
     <g id="text_6">
      <!-- 500 -->
      <g transform="translate(349.332695 303.028562) scale(0.1 -0.1)">
       <defs>
        <path id="DejaVuSans-35" d="M 691 4666 
L 3169 4666 
L 3169 4134 
L 1269 4134 
L 1269 2991 
Q 1406 3038 1543 3061 
Q 1681 3084 1819 3084 
Q 2600 3084 3056 2656 
Q 3513 2228 3513 1497 
Q 3513 744 3044 326 
Q 2575 -91 1722 -91 
Q 1428 -91 1123 -41 
Q 819 9 494 109 
L 494 744 
Q 775 591 1075 516 
Q 1375 441 1709 441 
Q 2250 441 2565 725 
Q 2881 1009 2881 1497 
Q 2881 1984 2565 2268 
Q 2250 2553 1709 2553 
Q 1456 2553 1204 2497 
Q 953 2441 691 2322 
L 691 4666 
z
" transform="scale(0.015625)"/>
       </defs>
       <use xlink:href="#DejaVuSans-35"/>
       <use xlink:href="#DejaVuSans-30" x="63.623047"/>
       <use xlink:href="#DejaVuSans-30" x="127.246094"/>
      </g>
     </g>
    </g>
    <g id="text_7">
     <!-- Time (ms) -->
     <g transform="translate(200.326406 316.706687) scale(0.1 -0.1)">
      <defs>
       <path id="DejaVuSans-54" d="M -19 4666 
L 3928 4666 
L 3928 4134 
L 2272 4134 
L 2272 0 
L 1638 0 
L 1638 4134 
L -19 4134 
L -19 4666 
z
" transform="scale(0.015625)"/>
       <path id="DejaVuSans-69" d="M 603 3500 
L 1178 3500 
L 1178 0 
L 603 0 
L 603 3500 
z
M 603 4863 
L 1178 4863 
L 1178 4134 
L 603 4134 
L 603 4863 
z
" transform="scale(0.015625)"/>
       <path id="DejaVuSans-6d" d="M 3328 2828 
Q 3544 3216 3844 3400 
Q 4144 3584 4550 3584 
Q 5097 3584 5394 3201 
Q 5691 2819 5691 2113 
L 5691 0 
L 5113 0 
L 5113 2094 
Q 5113 2597 4934 2840 
Q 4756 3084 4391 3084 
Q 3944 3084 3684 2787 
Q 3425 2491 3425 1978 
L 3425 0 
L 2847 0 
L 2847 2094 
Q 2847 2600 2669 2842 
Q 2491 3084 2119 3084 
Q 1678 3084 1418 2786 
Q 1159 2488 1159 1978 
L 1159 0 
L 581 0 
L 581 3500 
L 1159 3500 
L 1159 2956 
Q 1356 3278 1631 3431 
Q 1906 3584 2284 3584 
Q 2666 3584 2933 3390 
Q 3200 3197 3328 2828 
z
" transform="scale(0.015625)"/>
       <path id="DejaVuSans-65" d="M 3597 1894 
L 3597 1613 
L 953 1613 
Q 991 1019 1311 708 
Q 1631 397 2203 397 
Q 2534 397 2845 478 
Q 3156 559 3463 722 
L 3463 178 
Q 3153 47 2828 -22 
Q 2503 -91 2169 -91 
Q 1331 -91 842 396 
Q 353 884 353 1716 
Q 353 2575 817 3079 
Q 1281 3584 2069 3584 
Q 2775 3584 3186 3129 
Q 3597 2675 3597 1894 
z
M 3022 2063 
Q 3016 2534 2758 2815 
Q 2500 3097 2075 3097 
Q 1594 3097 1305 2825 
Q 1016 2553 972 2059 
L 3022 2063 
z
" transform="scale(0.015625)"/>
       <path id="DejaVuSans-20" transform="scale(0.015625)"/>
       <path id="DejaVuSans-28" d="M 1984 4856 
Q 1566 4138 1362 3434 
Q 1159 2731 1159 2009 
Q 1159 1288 1364 580 
Q 1569 -128 1984 -844 
L 1484 -844 
Q 1016 -109 783 600 
Q 550 1309 550 2009 
Q 550 2706 781 3412 
Q 1013 4119 1484 4856 
L 1984 4856 
z
" transform="scale(0.015625)"/>
       <path id="DejaVuSans-73" d="M 2834 3397 
L 2834 2853 
Q 2591 2978 2328 3040 
Q 2066 3103 1784 3103 
Q 1356 3103 1142 2972 
Q 928 2841 928 2578 
Q 928 2378 1081 2264 
Q 1234 2150 1697 2047 
L 1894 2003 
Q 2506 1872 2764 1633 
Q 3022 1394 3022 966 
Q 3022 478 2636 193 
Q 2250 -91 1575 -91 
Q 1294 -91 989 -36 
Q 684 19 347 128 
L 347 722 
Q 666 556 975 473 
Q 1284 391 1588 391 
Q 1994 391 2212 530 
Q 2431 669 2431 922 
Q 2431 1156 2273 1281 
Q 2116 1406 1581 1522 
L 1381 1569 
Q 847 1681 609 1914 
Q 372 2147 372 2553 
Q 372 3047 722 3315 
Q 1072 3584 1716 3584 
Q 2034 3584 2315 3537 
Q 2597 3491 2834 3397 
z
" transform="scale(0.015625)"/>
       <path id="DejaVuSans-29" d="M 513 4856 
L 1013 4856 
Q 1481 4119 1714 3412 
Q 1947 2706 1947 2009 
Q 1947 1309 1714 600 
Q 1481 -109 1013 -844 
L 513 -844 
Q 928 -128 1133 580 
Q 1338 1288 1338 2009 
Q 1338 2731 1133 3434 
Q 928 4138 513 4856 
z
" transform="scale(0.015625)"/>
      </defs>
      <use xlink:href="#DejaVuSans-54"/>
      <use xlink:href="#DejaVuSans-69" x="57.958984"/>
      <use xlink:href="#DejaVuSans-6d" x="85.742188"/>
      <use xlink:href="#DejaVuSans-65" x="183.154297"/>
      <use xlink:href="#DejaVuSans-20" x="244.677734"/>
      <use xlink:href="#DejaVuSans-28" x="276.464844"/>
      <use xlink:href="#DejaVuSans-6d" x="315.478516"/>
      <use xlink:href="#DejaVuSans-73" x="412.890625"/>
      <use xlink:href="#DejaVuSans-29" x="464.990234"/>
     </g>
    </g>
   </g>
   <g id="matplotlib.axis_2">
    <g id="ytick_1">
     <g id="line2d_7">
      <defs>
       <path id="mbbb4099e4c" d="M 0 0 
L -3.5 0 
" style="stroke: #000000; stroke-width: 0.8"/>
      </defs>
      <g>
       <use xlink:href="#mbbb4099e4c" x="46.965625" y="276.334125" style="stroke: #000000; stroke-width: 0.8"/>
      </g>
     </g>
     <g id="text_8">
      <!-- 0 -->
      <g transform="translate(33.603125 280.133344) scale(0.1 -0.1)">
       <use xlink:href="#DejaVuSans-30"/>
      </g>
     </g>
    </g>
    <g id="ytick_2">
     <g id="line2d_8">
      <g>
       <use xlink:href="#mbbb4099e4c" x="46.965625" y="219.153034" style="stroke: #000000; stroke-width: 0.8"/>
      </g>
     </g>
     <g id="text_9">
      <!-- 100 -->
      <g transform="translate(20.878125 222.952253) scale(0.1 -0.1)">
       <use xlink:href="#DejaVuSans-31"/>
       <use xlink:href="#DejaVuSans-30" x="63.623047"/>
       <use xlink:href="#DejaVuSans-30" x="127.246094"/>
      </g>
     </g>
    </g>
    <g id="ytick_3">
     <g id="line2d_9">
      <g>
       <use xlink:href="#mbbb4099e4c" x="46.965625" y="161.971943" style="stroke: #000000; stroke-width: 0.8"/>
      </g>
     </g>
     <g id="text_10">
      <!-- 200 -->
      <g transform="translate(20.878125 165.771162) scale(0.1 -0.1)">
       <use xlink:href="#DejaVuSans-32"/>
       <use xlink:href="#DejaVuSans-30" x="63.623047"/>
       <use xlink:href="#DejaVuSans-30" x="127.246094"/>
      </g>
     </g>
    </g>
    <g id="ytick_4">
     <g id="line2d_10">
      <g>
       <use xlink:href="#mbbb4099e4c" x="46.965625" y="104.790852" style="stroke: #000000; stroke-width: 0.8"/>
      </g>
     </g>
     <g id="text_11">
      <!-- 300 -->
      <g transform="translate(20.878125 108.590071) scale(0.1 -0.1)">
       <use xlink:href="#DejaVuSans-33"/>
       <use xlink:href="#DejaVuSans-30" x="63.623047"/>
       <use xlink:href="#DejaVuSans-30" x="127.246094"/>
      </g>
     </g>
    </g>
    <g id="ytick_5">
     <g id="line2d_11">
      <g>
       <use xlink:href="#mbbb4099e4c" x="46.965625" y="47.609761" style="stroke: #000000; stroke-width: 0.8"/>
      </g>
     </g>
     <g id="text_12">
      <!-- 400 -->
      <g transform="translate(20.878125 51.40898) scale(0.1 -0.1)">
       <use xlink:href="#DejaVuSans-34"/>
       <use xlink:href="#DejaVuSans-30" x="63.623047"/>
       <use xlink:href="#DejaVuSans-30" x="127.246094"/>
      </g>
     </g>
    </g>
    <g id="text_13">
     <!-- Firing rate (Hz) -->
     <g transform="translate(14.798438 192.684281) rotate(-90) scale(0.1 -0.1)">
      <defs>
       <path id="DejaVuSans-46" d="M 628 4666 
L 3309 4666 
L 3309 4134 
L 1259 4134 
L 1259 2759 
L 3109 2759 
L 3109 2228 
L 1259 2228 
L 1259 0 
L 628 0 
L 628 4666 
z
" transform="scale(0.015625)"/>
       <path id="DejaVuSans-72" d="M 2631 2963 
Q 2534 3019 2420 3045 
Q 2306 3072 2169 3072 
Q 1681 3072 1420 2755 
Q 1159 2438 1159 1844 
L 1159 0 
L 581 0 
L 581 3500 
L 1159 3500 
L 1159 2956 
Q 1341 3275 1631 3429 
Q 1922 3584 2338 3584 
Q 2397 3584 2469 3576 
Q 2541 3569 2628 3553 
L 2631 2963 
z
" transform="scale(0.015625)"/>
       <path id="DejaVuSans-6e" d="M 3513 2113 
L 3513 0 
L 2938 0 
L 2938 2094 
Q 2938 2591 2744 2837 
Q 2550 3084 2163 3084 
Q 1697 3084 1428 2787 
Q 1159 2491 1159 1978 
L 1159 0 
L 581 0 
L 581 3500 
L 1159 3500 
L 1159 2956 
Q 1366 3272 1645 3428 
Q 1925 3584 2291 3584 
Q 2894 3584 3203 3211 
Q 3513 2838 3513 2113 
z
" transform="scale(0.015625)"/>
       <path id="DejaVuSans-67" d="M 2906 1791 
Q 2906 2416 2648 2759 
Q 2391 3103 1925 3103 
Q 1463 3103 1205 2759 
Q 947 2416 947 1791 
Q 947 1169 1205 825 
Q 1463 481 1925 481 
Q 2391 481 2648 825 
Q 2906 1169 2906 1791 
z
M 3481 434 
Q 3481 -459 3084 -895 
Q 2688 -1331 1869 -1331 
Q 1566 -1331 1297 -1286 
Q 1028 -1241 775 -1147 
L 775 -588 
Q 1028 -725 1275 -790 
Q 1522 -856 1778 -856 
Q 2344 -856 2625 -561 
Q 2906 -266 2906 331 
L 2906 616 
Q 2728 306 2450 153 
Q 2172 0 1784 0 
Q 1141 0 747 490 
Q 353 981 353 1791 
Q 353 2603 747 3093 
Q 1141 3584 1784 3584 
Q 2172 3584 2450 3431 
Q 2728 3278 2906 2969 
L 2906 3500 
L 3481 3500 
L 3481 434 
z
" transform="scale(0.015625)"/>
       <path id="DejaVuSans-61" d="M 2194 1759 
Q 1497 1759 1228 1600 
Q 959 1441 959 1056 
Q 959 750 1161 570 
Q 1363 391 1709 391 
Q 2188 391 2477 730 
Q 2766 1069 2766 1631 
L 2766 1759 
L 2194 1759 
z
M 3341 1997 
L 3341 0 
L 2766 0 
L 2766 531 
Q 2569 213 2275 61 
Q 1981 -91 1556 -91 
Q 1019 -91 701 211 
Q 384 513 384 1019 
Q 384 1609 779 1909 
Q 1175 2209 1959 2209 
L 2766 2209 
L 2766 2266 
Q 2766 2663 2505 2880 
Q 2244 3097 1772 3097 
Q 1472 3097 1187 3025 
Q 903 2953 641 2809 
L 641 3341 
Q 956 3463 1253 3523 
Q 1550 3584 1831 3584 
Q 2591 3584 2966 3190 
Q 3341 2797 3341 1997 
z
" transform="scale(0.015625)"/>
       <path id="DejaVuSans-74" d="M 1172 4494 
L 1172 3500 
L 2356 3500 
L 2356 3053 
L 1172 3053 
L 1172 1153 
Q 1172 725 1289 603 
Q 1406 481 1766 481 
L 2356 481 
L 2356 0 
L 1766 0 
Q 1100 0 847 248 
Q 594 497 594 1153 
L 594 3053 
L 172 3053 
L 172 3500 
L 594 3500 
L 594 4494 
L 1172 4494 
z
" transform="scale(0.015625)"/>
       <path id="DejaVuSans-48" d="M 628 4666 
L 1259 4666 
L 1259 2753 
L 3553 2753 
L 3553 4666 
L 4184 4666 
L 4184 0 
L 3553 0 
L 3553 2222 
L 1259 2222 
L 1259 0 
L 628 0 
L 628 4666 
z
" transform="scale(0.015625)"/>
       <path id="DejaVuSans-7a" d="M 353 3500 
L 3084 3500 
L 3084 2975 
L 922 459 
L 3084 459 
L 3084 0 
L 275 0 
L 275 525 
L 2438 3041 
L 353 3041 
L 353 3500 
z
" transform="scale(0.015625)"/>
      </defs>
      <use xlink:href="#DejaVuSans-46"/>
      <use xlink:href="#DejaVuSans-69" x="50.269531"/>
      <use xlink:href="#DejaVuSans-72" x="78.052734"/>
      <use xlink:href="#DejaVuSans-69" x="119.166016"/>
      <use xlink:href="#DejaVuSans-6e" x="146.949219"/>
      <use xlink:href="#DejaVuSans-67" x="210.328125"/>
      <use xlink:href="#DejaVuSans-20" x="273.804688"/>
      <use xlink:href="#DejaVuSans-72" x="305.591797"/>
      <use xlink:href="#DejaVuSans-61" x="346.705078"/>
      <use xlink:href="#DejaVuSans-74" x="407.984375"/>
      <use xlink:href="#DejaVuSans-65" x="447.193359"/>
      <use xlink:href="#DejaVuSans-20" x="508.716797"/>
      <use xlink:href="#DejaVuSans-28" x="540.503906"/>
      <use xlink:href="#DejaVuSans-48" x="579.517578"/>
      <use xlink:href="#DejaVuSans-7a" x="654.712891"/>
      <use xlink:href="#DejaVuSans-29" x="707.203125"/>
     </g>
    </g>
   </g>
   <g id="line2d_12">
    <path d="M 63.198352 265.337761 
L 63.789708 265.337761 
L 64.381065 254.341398 
L 64.972421 265.337761 
L 65.563777 265.337761 
L 66.155133 276.334125 
L 66.746489 276.334125 
L 67.337846 243.345034 
L 67.929202 276.334125 
L 68.520558 265.337761 
L 69.111914 265.337761 
L 69.70327 276.334125 
L 70.294626 232.34867 
L 70.885983 276.334125 
L 72.068695 254.341398 
L 72.660051 254.341398 
L 73.842764 276.334125 
L 74.43412 265.337761 
L 75.616832 265.337761 
L 76.208188 254.341398 
L 76.799545 265.337761 
L 77.390901 265.337761 
L 77.982257 276.334125 
L 79.756325 276.334125 
L 80.347682 232.34867 
L 80.939038 276.334125 
L 81.530394 254.341398 
L 82.12175 265.337761 
L 83.304463 243.345034 
L 83.895819 276.334125 
L 84.487175 276.334125 
L 85.669887 254.341398 
L 86.261243 265.337761 
L 86.8526 265.337761 
L 87.443956 254.341398 
L 88.035312 265.337761 
L 88.626668 254.341398 
L 89.809381 276.334125 
L 90.400737 276.334125 
L 90.992093 254.341398 
L 91.583449 265.337761 
L 92.174805 254.341398 
L 93.357518 276.334125 
L 93.948874 276.334125 
L 94.54023 243.345034 
L 95.131586 265.337761 
L 96.314299 243.345034 
L 96.905655 265.337761 
L 97.497011 265.337761 
L 98.088367 243.345034 
L 98.679723 254.341398 
L 99.27108 276.334125 
L 99.862436 265.337761 
L 100.453792 243.345034 
L 101.045148 276.334125 
L 101.636504 265.337761 
L 103.410573 265.337761 
L 104.001929 243.345034 
L 104.593285 265.337761 
L 105.184641 254.341398 
L 105.775998 265.337761 
L 106.367354 243.345034 
L 106.95871 276.334125 
L 108.141422 276.334125 
L 108.732779 254.341398 
L 109.324135 276.334125 
L 109.915491 276.334125 
L 110.506847 243.345034 
L 111.098203 265.337761 
L 111.689559 265.337761 
L 112.872272 243.345034 
L 113.463628 276.334125 
L 114.054984 265.337761 
L 114.64634 276.334125 
L 115.237697 232.34867 
L 115.829053 254.341398 
L 116.420409 265.337761 
L 117.011765 254.341398 
L 117.603121 276.334125 
L 118.194477 254.341398 
L 118.785834 254.341398 
L 119.37719 265.337761 
L 119.968546 265.337761 
L 120.559902 276.334125 
L 121.151258 254.341398 
L 121.742615 254.341398 
L 122.333971 265.337761 
L 122.925327 254.341398 
L 123.516683 232.34867 
L 124.108039 254.341398 
L 124.699395 265.337761 
L 125.290752 265.337761 
L 125.882108 276.334125 
L 126.473464 221.352307 
L 127.06482 232.34867 
L 127.656176 265.337761 
L 128.247533 254.341398 
L 128.838889 276.334125 
L 129.430245 254.341398 
L 130.021601 276.334125 
L 130.612957 254.341398 
L 131.79567 276.334125 
L 132.387026 243.345034 
L 132.978382 254.341398 
L 133.569738 276.334125 
L 134.161094 276.334125 
L 134.752451 243.345034 
L 135.935163 265.337761 
L 136.526519 243.345034 
L 137.117875 254.341398 
L 137.709232 243.345034 
L 138.300588 276.334125 
L 138.891944 254.341398 
L 139.4833 276.334125 
L 140.074656 265.337761 
L 140.666012 265.337761 
L 141.257369 276.334125 
L 141.848725 265.337761 
L 142.440081 276.334125 
L 143.031437 276.334125 
L 143.622793 254.341398 
L 144.21415 243.345034 
L 144.805506 254.341398 
L 145.396862 254.341398 
L 145.988218 265.337761 
L 147.170931 265.337761 
L 147.762287 276.334125 
L 148.353643 254.341398 
L 148.944999 254.341398 
L 149.536355 265.337761 
L 150.719068 265.337761 
L 151.310424 243.345034 
L 151.90178 276.334125 
L 153.084492 254.341398 
L 153.675849 265.337761 
L 154.267205 243.345034 
L 154.858561 243.345034 
L 155.449917 276.334125 
L 156.041273 254.341398 
L 156.632629 276.334125 
L 157.223986 265.337761 
L 157.815342 232.34867 
L 158.406698 265.337761 
L 158.998054 276.334125 
L 159.58941 265.337761 
L 160.180767 276.334125 
L 160.772123 254.341398 
L 161.954835 254.341398 
L 162.546191 265.337761 
L 163.137548 243.345034 
L 163.728904 254.341398 
L 164.32026 243.345034 
L 164.911616 243.345034 
L 165.502972 254.341398 
L 166.094328 254.341398 
L 166.685685 265.337761 
L 167.277041 265.337761 
L 167.868397 254.341398 
L 168.459753 254.341398 
L 169.051109 276.334125 
L 170.233822 254.341398 
L 170.825178 276.334125 
L 171.416534 265.337761 
L 172.00789 265.337761 
L 172.599246 254.341398 
L 173.781959 276.334125 
L 174.373315 254.341398 
L 175.556027 254.341398 
L 176.73874 232.34867 
L 177.330096 254.341398 
L 178.512808 254.341398 
L 179.104164 243.345034 
L 179.695521 265.337761 
L 180.286877 265.337761 
L 180.878233 254.341398 
L 181.469589 276.334125 
L 182.060945 254.341398 
L 182.652302 254.341398 
L 183.243658 232.34867 
L 183.835014 276.334125 
L 184.42637 254.341398 
L 185.017726 265.337761 
L 185.609083 254.341398 
L 186.200439 254.341398 
L 186.791795 243.345034 
L 187.383151 265.337761 
L 187.974507 265.337761 
L 189.15722 243.345034 
L 189.748576 265.337761 
L 190.339932 276.334125 
L 190.931288 254.341398 
L 192.114001 276.334125 
L 193.296713 254.341398 
L 194.479425 254.341398 
L 195.070781 265.337761 
L 195.662138 265.337761 
L 196.253494 232.34867 
L 196.84485 265.337761 
L 197.436206 265.337761 
L 198.027562 254.341398 
L 199.210275 276.334125 
L 199.801631 265.337761 
L 200.392987 243.345034 
L 200.984343 265.337761 
L 201.5757 243.345034 
L 202.167056 265.337761 
L 202.758412 254.341398 
L 203.349768 265.337761 
L 204.53248 265.337761 
L 205.123837 243.345034 
L 205.715193 265.337761 
L 206.306549 265.337761 
L 206.897905 243.345034 
L 207.489261 254.341398 
L 208.080618 276.334125 
L 208.671974 265.337761 
L 209.26333 276.334125 
L 209.854686 265.337761 
L 210.446042 276.334125 
L 211.037398 276.334125 
L 211.628755 243.345034 
L 212.811467 243.345034 
L 213.402823 254.341398 
L 215.768248 254.341398 
L 216.359604 243.345034 
L 216.95096 221.352307 
L 217.542317 254.341398 
L 218.133673 232.34867 
L 218.725029 265.337761 
L 219.316385 265.337761 
L 219.907741 210.355943 
L 220.499097 210.355943 
L 221.090454 232.34867 
L 221.68181 221.352307 
L 222.273166 188.363216 
L 222.864522 221.352307 
L 223.455878 221.352307 
L 224.047235 243.345034 
L 224.638591 232.34867 
L 225.229947 210.355943 
L 225.821303 221.352307 
L 226.412659 166.370489 
L 227.004015 210.355943 
L 228.186728 188.363216 
L 228.778084 144.377761 
L 229.36944 199.35958 
L 229.960796 188.363216 
L 230.552153 155.374125 
L 231.143509 144.377761 
L 231.734865 210.355943 
L 232.326221 155.374125 
L 232.917577 177.366852 
L 233.508933 122.385034 
L 234.10029 133.381398 
L 234.691646 155.374125 
L 235.283002 122.385034 
L 235.874358 155.374125 
L 236.465714 122.385034 
L 237.057071 133.381398 
L 238.239783 111.38867 
L 238.831139 89.395943 
L 240.013852 177.366852 
L 240.605208 144.377761 
L 241.196564 34.414125 
L 242.379276 199.35958 
L 242.970632 78.39958 
L 243.561989 122.385034 
L 244.153345 122.385034 
L 244.744701 144.377761 
L 245.336057 210.355943 
L 245.927413 177.366852 
L 246.51877 210.355943 
L 247.110126 232.34867 
L 247.701482 188.363216 
L 248.292838 232.34867 
L 248.884194 199.35958 
L 249.47555 232.34867 
L 250.066907 221.352307 
L 251.249619 243.345034 
L 251.840975 221.352307 
L 253.023688 221.352307 
L 253.615044 254.341398 
L 254.2064 199.35958 
L 255.389112 221.352307 
L 255.980469 221.352307 
L 256.571825 232.34867 
L 257.163181 177.366852 
L 257.754537 221.352307 
L 258.937249 199.35958 
L 260.119962 199.35958 
L 260.711318 232.34867 
L 261.302674 210.355943 
L 261.89403 166.370489 
L 262.485387 265.337761 
L 263.076743 166.370489 
L 263.668099 177.366852 
L 266.033524 177.366852 
L 266.62488 166.370489 
L 267.216236 199.35958 
L 267.807592 177.366852 
L 268.398948 210.355943 
L 268.990305 166.370489 
L 269.581661 232.34867 
L 270.173017 177.366852 
L 270.764373 221.352307 
L 271.355729 199.35958 
L 271.947086 155.374125 
L 272.538442 188.363216 
L 273.129798 232.34867 
L 273.721154 232.34867 
L 274.31251 155.374125 
L 274.903866 243.345034 
L 275.495223 243.345034 
L 276.086579 155.374125 
L 276.677935 188.363216 
L 277.269291 232.34867 
L 277.860647 210.355943 
L 278.452004 166.370489 
L 279.04336 210.355943 
L 279.634716 232.34867 
L 280.226072 232.34867 
L 280.817428 199.35958 
L 281.408784 210.355943 
L 282.591497 188.363216 
L 283.182853 199.35958 
L 283.774209 221.352307 
L 284.365565 210.355943 
L 284.956922 210.355943 
L 285.548278 166.370489 
L 286.139634 232.34867 
L 286.73099 210.355943 
L 287.322346 177.366852 
L 287.913702 199.35958 
L 288.505059 199.35958 
L 289.096415 177.366852 
L 289.687771 232.34867 
L 290.279127 188.363216 
L 290.870483 232.34867 
L 291.46184 188.363216 
L 292.053196 210.355943 
L 292.644552 177.366852 
L 293.235908 221.352307 
L 293.827264 232.34867 
L 294.418621 232.34867 
L 295.009977 221.352307 
L 295.601333 265.337761 
L 296.192689 210.355943 
L 296.784045 177.366852 
L 297.375401 254.341398 
L 297.966758 243.345034 
L 298.558114 199.35958 
L 299.14947 254.341398 
L 300.332182 210.355943 
L 300.923539 232.34867 
L 301.514895 188.363216 
L 302.106251 210.355943 
L 302.697607 199.35958 
L 303.288963 243.345034 
L 303.880319 221.352307 
L 304.471676 221.352307 
L 305.063032 232.34867 
L 305.654388 199.35958 
L 306.245744 221.352307 
L 306.8371 221.352307 
L 307.428457 254.341398 
L 308.611169 210.355943 
L 309.202525 232.34867 
L 309.793881 210.355943 
L 310.976594 232.34867 
L 311.56795 221.352307 
L 312.159306 232.34867 
L 313.342018 232.34867 
L 313.933375 243.345034 
L 315.116087 221.352307 
L 315.707443 254.341398 
L 316.298799 232.34867 
L 316.890156 243.345034 
L 317.481512 188.363216 
L 318.072868 254.341398 
L 319.25558 188.363216 
L 319.846936 221.352307 
L 320.438293 199.35958 
L 321.621005 265.337761 
L 322.803717 221.352307 
L 323.98643 265.337761 
L 324.577786 221.352307 
L 325.760498 243.345034 
L 326.351855 221.352307 
L 326.943211 254.341398 
L 327.534567 199.35958 
L 328.125923 210.355943 
L 328.717279 254.341398 
L 329.308635 177.366852 
L 330.491348 199.35958 
L 331.082704 243.345034 
L 331.67406 221.352307 
L 332.265416 232.34867 
L 332.856773 254.341398 
L 333.448129 221.352307 
L 334.039485 221.352307 
L 334.630841 210.355943 
L 335.222197 265.337761 
L 335.813553 210.355943 
L 336.40491 232.34867 
L 336.996266 155.374125 
L 337.587622 243.345034 
L 338.178978 177.366852 
L 338.770334 199.35958 
L 339.361691 232.34867 
L 339.953047 199.35958 
L 340.544403 254.341398 
L 341.135759 243.345034 
L 341.727115 221.352307 
L 342.318471 210.355943 
L 342.909828 221.352307 
L 343.501184 265.337761 
L 344.09254 221.352307 
L 344.683896 188.363216 
L 345.275252 210.355943 
L 345.866609 199.35958 
L 346.457965 232.34867 
L 347.049321 232.34867 
L 347.640677 210.355943 
L 348.232033 199.35958 
L 348.82339 232.34867 
L 349.414746 210.355943 
L 350.006102 210.355943 
L 350.597458 199.35958 
L 351.188814 221.352307 
L 351.78017 221.352307 
L 352.371527 199.35958 
L 352.962883 243.345034 
L 353.554239 199.35958 
L 354.145595 188.363216 
L 354.736951 243.345034 
L 355.919664 221.352307 
L 356.51102 199.35958 
L 357.102376 243.345034 
L 357.693732 199.35958 
L 358.285088 199.35958 
L 358.876445 221.352307 
L 359.467801 210.355943 
L 360.059157 232.34867 
L 360.650513 199.35958 
L 361.241869 243.345034 
L 361.833226 221.352307 
L 362.424582 243.345034 
L 363.015938 232.34867 
L 363.607294 188.363216 
L 364.19865 265.337761 
L 364.790007 232.34867 
L 365.381363 221.352307 
L 365.972719 232.34867 
L 366.564075 199.35958 
L 367.155431 243.345034 
L 367.746787 254.341398 
L 368.338144 188.363216 
L 368.9295 221.352307 
L 370.112212 221.352307 
L 370.703568 232.34867 
L 371.886281 188.363216 
L 372.477637 188.363216 
L 374.251705 221.352307 
L 374.843062 221.352307 
L 375.434418 188.363216 
L 376.025774 243.345034 
L 376.61713 232.34867 
L 377.208486 166.370489 
L 377.799843 243.345034 
L 378.391199 199.35958 
L 380.165267 232.34867 
L 380.756624 177.366852 
L 381.34798 210.355943 
L 381.939336 199.35958 
L 382.530692 232.34867 
L 383.122048 254.341398 
L 383.713404 199.35958 
L 384.304761 254.341398 
L 384.896117 188.363216 
L 385.487473 254.341398 
L 386.078829 177.366852 
L 386.670185 232.34867 
L 387.261542 243.345034 
L 387.852898 199.35958 
L 387.852898 199.35958 
" clip-path="url(#pa7f6cf6ce3)" style="fill: none; stroke: #1f77b4; stroke-width: 1.5; stroke-linecap: square"/>
   </g>
   <g id="patch_3">
    <path d="M 46.965625 288.430125 
L 46.965625 22.318125 
" style="fill: none; stroke: #000000; stroke-width: 0.8; stroke-linejoin: miter; stroke-linecap: square"/>
   </g>
   <g id="patch_4">
    <path d="M 404.085625 288.430125 
L 404.085625 22.318125 
" style="fill: none; stroke: #000000; stroke-width: 0.8; stroke-linejoin: miter; stroke-linecap: square"/>
   </g>
   <g id="patch_5">
    <path d="M 46.965625 288.430125 
L 404.085625 288.430125 
" style="fill: none; stroke: #000000; stroke-width: 0.8; stroke-linejoin: miter; stroke-linecap: square"/>
   </g>
   <g id="patch_6">
    <path d="M 46.965625 22.318125 
L 404.085625 22.318125 
" style="fill: none; stroke: #000000; stroke-width: 0.8; stroke-linejoin: miter; stroke-linecap: square"/>
   </g>
   <g id="text_14">
    <!-- Unit 1 -->
    <g transform="translate(207.588438 16.318125) scale(0.12 -0.12)">
     <defs>
      <path id="DejaVuSans-55" d="M 556 4666 
L 1191 4666 
L 1191 1831 
Q 1191 1081 1462 751 
Q 1734 422 2344 422 
Q 2950 422 3222 751 
Q 3494 1081 3494 1831 
L 3494 4666 
L 4128 4666 
L 4128 1753 
Q 4128 841 3676 375 
Q 3225 -91 2344 -91 
Q 1459 -91 1007 375 
Q 556 841 556 1753 
L 556 4666 
z
" transform="scale(0.015625)"/>
     </defs>
     <use xlink:href="#DejaVuSans-55"/>
     <use xlink:href="#DejaVuSans-6e" x="73.193359"/>
     <use xlink:href="#DejaVuSans-69" x="136.572266"/>
     <use xlink:href="#DejaVuSans-74" x="164.355469"/>
     <use xlink:href="#DejaVuSans-20" x="203.564453"/>
     <use xlink:href="#DejaVuSans-31" x="235.351562"/>
    </g>
   </g>
  </g>
 </g>
 <defs>
  <clipPath id="pa7f6cf6ce3">
   <rect x="46.965625" y="22.318125" width="357.12" height="266.112"/>
  </clipPath>
 </defs>
</svg>
