<?xml version="1.0" encoding="utf-8" standalone="no"?>
<!DOCTYPE svg PUBLIC "-//W3C//DTD SVG 1.1//EN"
  "http://www.w3.org/Graphics/SVG/1.1/DTD/svg11.dtd">
<svg xmlns:xlink="http://www.w3.org/1999/xlink" width="411.285625pt" height="310.86825pt" viewBox="0 0 411.285625 310.86825" xmlns="http://www.w3.org/2000/svg" version="1.1">
 <metadata>
  <rdf:RDF xmlns:dc="http://purl.org/dc/elements/1.1/" xmlns:cc="http://creativecommons.org/ns#" xmlns:rdf="http://www.w3.org/1999/02/22-rdf-syntax-ns#">
   <cc:Work>
    <dc:type rdf:resource="http://purl.org/dc/dcmitype/StillImage"/>
    <dc:date>2023-02-13T19:03:00.823764</dc:date>
    <dc:format>image/svg+xml</dc:format>
    <dc:creator>
     <cc:Agent>
      <dc:title>Matplotlib v3.6.3, https://matplotlib.org/</dc:title>
     </cc:Agent>
    </dc:creator>
   </cc:Work>
  </rdf:RDF>
 </metadata>
 <defs>
  <style type="text/css">*{stroke-linejoin: round; stroke-linecap: butt}</style>
 </defs>
 <g id="figure_1">
  <g id="patch_1">
   <path d="M 0 310.86825 
L 411.285625 310.86825 
L 411.285625 0 
L 0 0 
z
" style="fill: #ffffff"/>
  </g>
  <g id="axes_1">
   <g id="patch_2">
    <path d="M 46.965625 273.312 
L 404.085625 273.312 
L 404.085625 7.2 
L 46.965625 7.2 
z
" style="fill: #ffffff"/>
   </g>
   <g id="matplotlib.axis_1">
    <g id="xtick_1">
     <g id="line2d_1">
      <defs>
       <path id="mcb57dd2a2a" d="M 0 0 
L 0 3.5 
" style="stroke: #000000; stroke-width: 0.8"/>
      </defs>
      <g>
       <use xlink:href="#mcb57dd2a2a" x="63.198352" y="273.312" style="stroke: #000000; stroke-width: 0.8"/>
      </g>
     </g>
     <g id="text_1">
      <!-- 0 -->
      <g transform="translate(60.017102 287.910437) scale(0.1 -0.1)">
       <defs>
        <path id="DejaVuSans-30" d="M 2034 4250 
Q 1547 4250 1301 3770 
Q 1056 3291 1056 2328 
Q 1056 1369 1301 889 
Q 1547 409 2034 409 
Q 2525 409 2770 889 
Q 3016 1369 3016 2328 
Q 3016 3291 2770 3770 
Q 2525 4250 2034 4250 
z
M 2034 4750 
Q 2819 4750 3233 4129 
Q 3647 3509 3647 2328 
Q 3647 1150 3233 529 
Q 2819 -91 2034 -91 
Q 1250 -91 836 529 
Q 422 1150 422 2328 
Q 422 3509 836 4129 
Q 1250 4750 2034 4750 
z
" transform="scale(0.015625)"/>
       </defs>
       <use xlink:href="#DejaVuSans-30"/>
      </g>
     </g>
    </g>
    <g id="xtick_2">
     <g id="line2d_2">
      <g>
       <use xlink:href="#mcb57dd2a2a" x="122.333971" y="273.312" style="stroke: #000000; stroke-width: 0.8"/>
      </g>
     </g>
     <g id="text_2">
      <!-- 100 -->
      <g transform="translate(112.790221 287.910437) scale(0.1 -0.1)">
       <defs>
        <path id="DejaVuSans-31" d="M 794 531 
L 1825 531 
L 1825 4091 
L 703 3866 
L 703 4441 
L 1819 4666 
L 2450 4666 
L 2450 531 
L 3481 531 
L 3481 0 
L 794 0 
L 794 531 
z
" transform="scale(0.015625)"/>
       </defs>
       <use xlink:href="#DejaVuSans-31"/>
       <use xlink:href="#DejaVuSans-30" x="63.623047"/>
       <use xlink:href="#DejaVuSans-30" x="127.246094"/>
      </g>
     </g>
    </g>
    <g id="xtick_3">
     <g id="line2d_3">
      <g>
       <use xlink:href="#mcb57dd2a2a" x="181.469589" y="273.312" style="stroke: #000000; stroke-width: 0.8"/>
      </g>
     </g>
     <g id="text_3">
      <!-- 200 -->
      <g transform="translate(171.925839 287.910437) scale(0.1 -0.1)">
       <defs>
        <path id="DejaVuSans-32" d="M 1228 531 
L 3431 531 
L 3431 0 
L 469 0 
L 469 531 
Q 828 903 1448 1529 
Q 2069 2156 2228 2338 
Q 2531 2678 2651 2914 
Q 2772 3150 2772 3378 
Q 2772 3750 2511 3984 
Q 2250 4219 1831 4219 
Q 1534 4219 1204 4116 
Q 875 4013 500 3803 
L 500 4441 
Q 881 4594 1212 4672 
Q 1544 4750 1819 4750 
Q 2544 4750 2975 4387 
Q 3406 4025 3406 3419 
Q 3406 3131 3298 2873 
Q 3191 2616 2906 2266 
Q 2828 2175 2409 1742 
Q 1991 1309 1228 531 
z
" transform="scale(0.015625)"/>
       </defs>
       <use xlink:href="#DejaVuSans-32"/>
       <use xlink:href="#DejaVuSans-30" x="63.623047"/>
       <use xlink:href="#DejaVuSans-30" x="127.246094"/>
      </g>
     </g>
    </g>
    <g id="xtick_4">
     <g id="line2d_4">
      <g>
       <use xlink:href="#mcb57dd2a2a" x="240.605208" y="273.312" style="stroke: #000000; stroke-width: 0.8"/>
      </g>
     </g>
     <g id="text_4">
      <!-- 300 -->
      <g transform="translate(231.061458 287.910437) scale(0.1 -0.1)">
       <defs>
        <path id="DejaVuSans-33" d="M 2597 2516 
Q 3050 2419 3304 2112 
Q 3559 1806 3559 1356 
Q 3559 666 3084 287 
Q 2609 -91 1734 -91 
Q 1441 -91 1130 -33 
Q 819 25 488 141 
L 488 750 
Q 750 597 1062 519 
Q 1375 441 1716 441 
Q 2309 441 2620 675 
Q 2931 909 2931 1356 
Q 2931 1769 2642 2001 
Q 2353 2234 1838 2234 
L 1294 2234 
L 1294 2753 
L 1863 2753 
Q 2328 2753 2575 2939 
Q 2822 3125 2822 3475 
Q 2822 3834 2567 4026 
Q 2313 4219 1838 4219 
Q 1578 4219 1281 4162 
Q 984 4106 628 3988 
L 628 4550 
Q 988 4650 1302 4700 
Q 1616 4750 1894 4750 
Q 2613 4750 3031 4423 
Q 3450 4097 3450 3541 
Q 3450 3153 3228 2886 
Q 3006 2619 2597 2516 
z
" transform="scale(0.015625)"/>
       </defs>
       <use xlink:href="#DejaVuSans-33"/>
       <use xlink:href="#DejaVuSans-30" x="63.623047"/>
       <use xlink:href="#DejaVuSans-30" x="127.246094"/>
      </g>
     </g>
    </g>
    <g id="xtick_5">
     <g id="line2d_5">
      <g>
       <use xlink:href="#mcb57dd2a2a" x="299.740826" y="273.312" style="stroke: #000000; stroke-width: 0.8"/>
      </g>
     </g>
     <g id="text_5">
      <!-- 400 -->
      <g transform="translate(290.197076 287.910437) scale(0.1 -0.1)">
       <defs>
        <path id="DejaVuSans-34" d="M 2419 4116 
L 825 1625 
L 2419 1625 
L 2419 4116 
z
M 2253 4666 
L 3047 4666 
L 3047 1625 
L 3713 1625 
L 3713 1100 
L 3047 1100 
L 3047 0 
L 2419 0 
L 2419 1100 
L 313 1100 
L 313 1709 
L 2253 4666 
z
" transform="scale(0.015625)"/>
       </defs>
       <use xlink:href="#DejaVuSans-34"/>
       <use xlink:href="#DejaVuSans-30" x="63.623047"/>
       <use xlink:href="#DejaVuSans-30" x="127.246094"/>
      </g>
     </g>
    </g>
    <g id="xtick_6">
     <g id="line2d_6">
      <g>
       <use xlink:href="#mcb57dd2a2a" x="358.876445" y="273.312" style="stroke: #000000; stroke-width: 0.8"/>
      </g>
     </g>
     <g id="text_6">
      <!-- 500 -->
      <g transform="translate(349.332695 287.910437) scale(0.1 -0.1)">
       <defs>
        <path id="DejaVuSans-35" d="M 691 4666 
L 3169 4666 
L 3169 4134 
L 1269 4134 
L 1269 2991 
Q 1406 3038 1543 3061 
Q 1681 3084 1819 3084 
Q 2600 3084 3056 2656 
Q 3513 2228 3513 1497 
Q 3513 744 3044 326 
Q 2575 -91 1722 -91 
Q 1428 -91 1123 -41 
Q 819 9 494 109 
L 494 744 
Q 775 591 1075 516 
Q 1375 441 1709 441 
Q 2250 441 2565 725 
Q 2881 1009 2881 1497 
Q 2881 1984 2565 2268 
Q 2250 2553 1709 2553 
Q 1456 2553 1204 2497 
Q 953 2441 691 2322 
L 691 4666 
z
" transform="scale(0.015625)"/>
       </defs>
       <use xlink:href="#DejaVuSans-35"/>
       <use xlink:href="#DejaVuSans-30" x="63.623047"/>
       <use xlink:href="#DejaVuSans-30" x="127.246094"/>
      </g>
     </g>
    </g>
    <g id="text_7">
     <!-- Time (ms) -->
     <g transform="translate(200.326406 301.588562) scale(0.1 -0.1)">
      <defs>
       <path id="DejaVuSans-54" d="M -19 4666 
L 3928 4666 
L 3928 4134 
L 2272 4134 
L 2272 0 
L 1638 0 
L 1638 4134 
L -19 4134 
L -19 4666 
z
" transform="scale(0.015625)"/>
       <path id="DejaVuSans-69" d="M 603 3500 
L 1178 3500 
L 1178 0 
L 603 0 
L 603 3500 
z
M 603 4863 
L 1178 4863 
L 1178 4134 
L 603 4134 
L 603 4863 
z
" transform="scale(0.015625)"/>
       <path id="DejaVuSans-6d" d="M 3328 2828 
Q 3544 3216 3844 3400 
Q 4144 3584 4550 3584 
Q 5097 3584 5394 3201 
Q 5691 2819 5691 2113 
L 5691 0 
L 5113 0 
L 5113 2094 
Q 5113 2597 4934 2840 
Q 4756 3084 4391 3084 
Q 3944 3084 3684 2787 
Q 3425 2491 3425 1978 
L 3425 0 
L 2847 0 
L 2847 2094 
Q 2847 2600 2669 2842 
Q 2491 3084 2119 3084 
Q 1678 3084 1418 2786 
Q 1159 2488 1159 1978 
L 1159 0 
L 581 0 
L 581 3500 
L 1159 3500 
L 1159 2956 
Q 1356 3278 1631 3431 
Q 1906 3584 2284 3584 
Q 2666 3584 2933 3390 
Q 3200 3197 3328 2828 
z
" transform="scale(0.015625)"/>
       <path id="DejaVuSans-65" d="M 3597 1894 
L 3597 1613 
L 953 1613 
Q 991 1019 1311 708 
Q 1631 397 2203 397 
Q 2534 397 2845 478 
Q 3156 559 3463 722 
L 3463 178 
Q 3153 47 2828 -22 
Q 2503 -91 2169 -91 
Q 1331 -91 842 396 
Q 353 884 353 1716 
Q 353 2575 817 3079 
Q 1281 3584 2069 3584 
Q 2775 3584 3186 3129 
Q 3597 2675 3597 1894 
z
M 3022 2063 
Q 3016 2534 2758 2815 
Q 2500 3097 2075 3097 
Q 1594 3097 1305 2825 
Q 1016 2553 972 2059 
L 3022 2063 
z
" transform="scale(0.015625)"/>
       <path id="DejaVuSans-20" transform="scale(0.015625)"/>
       <path id="DejaVuSans-28" d="M 1984 4856 
Q 1566 4138 1362 3434 
Q 1159 2731 1159 2009 
Q 1159 1288 1364 580 
Q 1569 -128 1984 -844 
L 1484 -844 
Q 1016 -109 783 600 
Q 550 1309 550 2009 
Q 550 2706 781 3412 
Q 1013 4119 1484 4856 
L 1984 4856 
z
" transform="scale(0.015625)"/>
       <path id="DejaVuSans-73" d="M 2834 3397 
L 2834 2853 
Q 2591 2978 2328 3040 
Q 2066 3103 1784 3103 
Q 1356 3103 1142 2972 
Q 928 2841 928 2578 
Q 928 2378 1081 2264 
Q 1234 2150 1697 2047 
L 1894 2003 
Q 2506 1872 2764 1633 
Q 3022 1394 3022 966 
Q 3022 478 2636 193 
Q 2250 -91 1575 -91 
Q 1294 -91 989 -36 
Q 684 19 347 128 
L 347 722 
Q 666 556 975 473 
Q 1284 391 1588 391 
Q 1994 391 2212 530 
Q 2431 669 2431 922 
Q 2431 1156 2273 1281 
Q 2116 1406 1581 1522 
L 1381 1569 
Q 847 1681 609 1914 
Q 372 2147 372 2553 
Q 372 3047 722 3315 
Q 1072 3584 1716 3584 
Q 2034 3584 2315 3537 
Q 2597 3491 2834 3397 
z
" transform="scale(0.015625)"/>
       <path id="DejaVuSans-29" d="M 513 4856 
L 1013 4856 
Q 1481 4119 1714 3412 
Q 1947 2706 1947 2009 
Q 1947 1309 1714 600 
Q 1481 -109 1013 -844 
L 513 -844 
Q 928 -128 1133 580 
Q 1338 1288 1338 2009 
Q 1338 2731 1133 3434 
Q 928 4138 513 4856 
z
" transform="scale(0.015625)"/>
      </defs>
      <use xlink:href="#DejaVuSans-54"/>
      <use xlink:href="#DejaVuSans-69" x="57.958984"/>
      <use xlink:href="#DejaVuSans-6d" x="85.742188"/>
      <use xlink:href="#DejaVuSans-65" x="183.154297"/>
      <use xlink:href="#DejaVuSans-20" x="244.677734"/>
      <use xlink:href="#DejaVuSans-28" x="276.464844"/>
      <use xlink:href="#DejaVuSans-6d" x="315.478516"/>
      <use xlink:href="#DejaVuSans-73" x="412.890625"/>
      <use xlink:href="#DejaVuSans-29" x="464.990234"/>
     </g>
    </g>
   </g>
   <g id="matplotlib.axis_2">
    <g id="ytick_1">
     <g id="line2d_7">
      <defs>
       <path id="md475b0a3f1" d="M 0 0 
L -3.5 0 
" style="stroke: #000000; stroke-width: 0.8"/>
      </defs>
      <g>
       <use xlink:href="#md475b0a3f1" x="46.965625" y="261.216" style="stroke: #000000; stroke-width: 0.8"/>
      </g>
     </g>
     <g id="text_8">
      <!-- 0 -->
      <g transform="translate(33.603125 265.015219) scale(0.1 -0.1)">
       <use xlink:href="#DejaVuSans-30"/>
      </g>
     </g>
    </g>
    <g id="ytick_2">
     <g id="line2d_8">
      <g>
       <use xlink:href="#md475b0a3f1" x="46.965625" y="226.656" style="stroke: #000000; stroke-width: 0.8"/>
      </g>
     </g>
     <g id="text_9">
      <!-- 50 -->
      <g transform="translate(27.240625 230.455219) scale(0.1 -0.1)">
       <use xlink:href="#DejaVuSans-35"/>
       <use xlink:href="#DejaVuSans-30" x="63.623047"/>
      </g>
     </g>
    </g>
    <g id="ytick_3">
     <g id="line2d_9">
      <g>
       <use xlink:href="#md475b0a3f1" x="46.965625" y="192.096" style="stroke: #000000; stroke-width: 0.8"/>
      </g>
     </g>
     <g id="text_10">
      <!-- 100 -->
      <g transform="translate(20.878125 195.895219) scale(0.1 -0.1)">
       <use xlink:href="#DejaVuSans-31"/>
       <use xlink:href="#DejaVuSans-30" x="63.623047"/>
       <use xlink:href="#DejaVuSans-30" x="127.246094"/>
      </g>
     </g>
    </g>
    <g id="ytick_4">
     <g id="line2d_10">
      <g>
       <use xlink:href="#md475b0a3f1" x="46.965625" y="157.536" style="stroke: #000000; stroke-width: 0.8"/>
      </g>
     </g>
     <g id="text_11">
      <!-- 150 -->
      <g transform="translate(20.878125 161.335219) scale(0.1 -0.1)">
       <use xlink:href="#DejaVuSans-31"/>
       <use xlink:href="#DejaVuSans-35" x="63.623047"/>
       <use xlink:href="#DejaVuSans-30" x="127.246094"/>
      </g>
     </g>
    </g>
    <g id="ytick_5">
     <g id="line2d_11">
      <g>
       <use xlink:href="#md475b0a3f1" x="46.965625" y="122.976" style="stroke: #000000; stroke-width: 0.8"/>
      </g>
     </g>
     <g id="text_12">
      <!-- 200 -->
      <g transform="translate(20.878125 126.775219) scale(0.1 -0.1)">
       <use xlink:href="#DejaVuSans-32"/>
       <use xlink:href="#DejaVuSans-30" x="63.623047"/>
       <use xlink:href="#DejaVuSans-30" x="127.246094"/>
      </g>
     </g>
    </g>
    <g id="ytick_6">
     <g id="line2d_12">
      <g>
       <use xlink:href="#md475b0a3f1" x="46.965625" y="88.416" style="stroke: #000000; stroke-width: 0.8"/>
      </g>
     </g>
     <g id="text_13">
      <!-- 250 -->
      <g transform="translate(20.878125 92.215219) scale(0.1 -0.1)">
       <use xlink:href="#DejaVuSans-32"/>
       <use xlink:href="#DejaVuSans-35" x="63.623047"/>
       <use xlink:href="#DejaVuSans-30" x="127.246094"/>
      </g>
     </g>
    </g>
    <g id="ytick_7">
     <g id="line2d_13">
      <g>
       <use xlink:href="#md475b0a3f1" x="46.965625" y="53.856" style="stroke: #000000; stroke-width: 0.8"/>
      </g>
     </g>
     <g id="text_14">
      <!-- 300 -->
      <g transform="translate(20.878125 57.655219) scale(0.1 -0.1)">
       <use xlink:href="#DejaVuSans-33"/>
       <use xlink:href="#DejaVuSans-30" x="63.623047"/>
       <use xlink:href="#DejaVuSans-30" x="127.246094"/>
      </g>
     </g>
    </g>
    <g id="ytick_8">
     <g id="line2d_14">
      <g>
       <use xlink:href="#md475b0a3f1" x="46.965625" y="19.296" style="stroke: #000000; stroke-width: 0.8"/>
      </g>
     </g>
     <g id="text_15">
      <!-- 350 -->
      <g transform="translate(20.878125 23.095219) scale(0.1 -0.1)">
       <use xlink:href="#DejaVuSans-33"/>
       <use xlink:href="#DejaVuSans-35" x="63.623047"/>
       <use xlink:href="#DejaVuSans-30" x="127.246094"/>
      </g>
     </g>
    </g>
    <g id="text_16">
     <!-- Rate (spks/s) -->
     <g transform="translate(14.798438 172.777094) rotate(-90) scale(0.1 -0.1)">
      <defs>
       <path id="DejaVuSans-52" d="M 2841 2188 
Q 3044 2119 3236 1894 
Q 3428 1669 3622 1275 
L 4263 0 
L 3584 0 
L 2988 1197 
Q 2756 1666 2539 1819 
Q 2322 1972 1947 1972 
L 1259 1972 
L 1259 0 
L 628 0 
L 628 4666 
L 2053 4666 
Q 2853 4666 3247 4331 
Q 3641 3997 3641 3322 
Q 3641 2881 3436 2590 
Q 3231 2300 2841 2188 
z
M 1259 4147 
L 1259 2491 
L 2053 2491 
Q 2509 2491 2742 2702 
Q 2975 2913 2975 3322 
Q 2975 3731 2742 3939 
Q 2509 4147 2053 4147 
L 1259 4147 
z
" transform="scale(0.015625)"/>
       <path id="DejaVuSans-61" d="M 2194 1759 
Q 1497 1759 1228 1600 
Q 959 1441 959 1056 
Q 959 750 1161 570 
Q 1363 391 1709 391 
Q 2188 391 2477 730 
Q 2766 1069 2766 1631 
L 2766 1759 
L 2194 1759 
z
M 3341 1997 
L 3341 0 
L 2766 0 
L 2766 531 
Q 2569 213 2275 61 
Q 1981 -91 1556 -91 
Q 1019 -91 701 211 
Q 384 513 384 1019 
Q 384 1609 779 1909 
Q 1175 2209 1959 2209 
L 2766 2209 
L 2766 2266 
Q 2766 2663 2505 2880 
Q 2244 3097 1772 3097 
Q 1472 3097 1187 3025 
Q 903 2953 641 2809 
L 641 3341 
Q 956 3463 1253 3523 
Q 1550 3584 1831 3584 
Q 2591 3584 2966 3190 
Q 3341 2797 3341 1997 
z
" transform="scale(0.015625)"/>
       <path id="DejaVuSans-74" d="M 1172 4494 
L 1172 3500 
L 2356 3500 
L 2356 3053 
L 1172 3053 
L 1172 1153 
Q 1172 725 1289 603 
Q 1406 481 1766 481 
L 2356 481 
L 2356 0 
L 1766 0 
Q 1100 0 847 248 
Q 594 497 594 1153 
L 594 3053 
L 172 3053 
L 172 3500 
L 594 3500 
L 594 4494 
L 1172 4494 
z
" transform="scale(0.015625)"/>
       <path id="DejaVuSans-70" d="M 1159 525 
L 1159 -1331 
L 581 -1331 
L 581 3500 
L 1159 3500 
L 1159 2969 
Q 1341 3281 1617 3432 
Q 1894 3584 2278 3584 
Q 2916 3584 3314 3078 
Q 3713 2572 3713 1747 
Q 3713 922 3314 415 
Q 2916 -91 2278 -91 
Q 1894 -91 1617 61 
Q 1341 213 1159 525 
z
M 3116 1747 
Q 3116 2381 2855 2742 
Q 2594 3103 2138 3103 
Q 1681 3103 1420 2742 
Q 1159 2381 1159 1747 
Q 1159 1113 1420 752 
Q 1681 391 2138 391 
Q 2594 391 2855 752 
Q 3116 1113 3116 1747 
z
" transform="scale(0.015625)"/>
       <path id="DejaVuSans-6b" d="M 581 4863 
L 1159 4863 
L 1159 1991 
L 2875 3500 
L 3609 3500 
L 1753 1863 
L 3688 0 
L 2938 0 
L 1159 1709 
L 1159 0 
L 581 0 
L 581 4863 
z
" transform="scale(0.015625)"/>
       <path id="DejaVuSans-2f" d="M 1625 4666 
L 2156 4666 
L 531 -594 
L 0 -594 
L 1625 4666 
z
" transform="scale(0.015625)"/>
      </defs>
      <use xlink:href="#DejaVuSans-52"/>
      <use xlink:href="#DejaVuSans-61" x="67.232422"/>
      <use xlink:href="#DejaVuSans-74" x="128.511719"/>
      <use xlink:href="#DejaVuSans-65" x="167.720703"/>
      <use xlink:href="#DejaVuSans-20" x="229.244141"/>
      <use xlink:href="#DejaVuSans-28" x="261.03125"/>
      <use xlink:href="#DejaVuSans-73" x="300.044922"/>
      <use xlink:href="#DejaVuSans-70" x="352.144531"/>
      <use xlink:href="#DejaVuSans-6b" x="415.621094"/>
      <use xlink:href="#DejaVuSans-73" x="473.53125"/>
      <use xlink:href="#DejaVuSans-2f" x="525.630859"/>
      <use xlink:href="#DejaVuSans-73" x="559.322266"/>
      <use xlink:href="#DejaVuSans-29" x="611.421875"/>
     </g>
    </g>
   </g>
   <g id="line2d_15">
    <path d="M 63.198352 226.656 
L 73.251407 226.656 
L 73.842764 261.216 
L 77.390901 261.216 
L 77.982257 226.656 
L 89.218024 226.656 
L 89.809381 261.216 
L 94.54023 261.216 
L 95.131586 226.656 
L 106.367354 226.656 
L 106.95871 261.216 
L 147.170931 261.216 
L 147.762287 226.656 
L 152.493136 226.656 
L 153.084492 192.096 
L 158.998054 192.096 
L 159.58941 226.656 
L 164.32026 226.656 
L 164.911616 261.216 
L 172.599246 261.216 
L 173.190603 226.656 
L 184.42637 226.656 
L 185.017726 261.216 
L 194.479425 261.216 
L 195.070781 226.656 
L 206.306549 226.656 
L 206.897905 261.216 
L 221.68181 261.216 
L 222.273166 226.656 
L 225.229947 226.656 
L 225.821303 192.096 
L 228.186728 192.096 
L 228.778084 157.536 
L 231.143509 157.536 
L 231.734865 122.976 
L 234.691646 122.976 
L 235.283002 88.416 
L 235.874358 88.416 
L 236.465714 53.856 
L 237.057071 53.856 
L 237.648427 88.416 
L 238.239783 53.856 
L 241.196564 53.856 
L 241.78792 19.296 
L 245.336057 19.296 
L 245.927413 53.856 
L 246.51877 53.856 
L 247.110126 88.416 
L 247.701482 88.416 
L 248.292838 122.976 
L 249.47555 122.976 
L 250.066907 157.536 
L 251.840975 157.536 
L 252.432331 192.096 
L 253.023688 192.096 
L 253.615044 226.656 
L 254.797756 226.656 
L 255.389112 261.216 
L 258.937249 261.216 
L 259.528606 226.656 
L 261.302674 226.656 
L 261.89403 192.096 
L 264.850811 192.096 
L 265.442167 157.536 
L 266.033524 157.536 
L 266.62488 122.976 
L 270.764373 122.976 
L 271.355729 157.536 
L 273.129798 157.536 
L 273.721154 192.096 
L 276.677935 192.096 
L 277.269291 226.656 
L 277.860647 192.096 
L 278.452004 226.656 
L 279.634716 226.656 
L 280.226072 192.096 
L 282.000141 192.096 
L 282.591497 157.536 
L 287.322346 157.536 
L 287.913702 122.976 
L 289.096415 122.976 
L 289.687771 157.536 
L 291.46184 157.536 
L 292.053196 192.096 
L 293.827264 192.096 
L 294.418621 226.656 
L 299.14947 226.656 
L 299.740826 261.216 
L 303.288963 261.216 
L 303.880319 226.656 
L 307.428457 226.656 
L 308.019813 192.096 
L 310.385238 192.096 
L 310.976594 157.536 
L 315.116087 157.536 
L 315.707443 192.096 
L 319.25558 192.096 
L 319.846936 226.656 
L 322.212361 226.656 
L 322.803717 261.216 
L 327.534567 261.216 
L 328.125923 226.656 
L 329.899992 226.656 
L 330.491348 192.096 
L 332.265416 192.096 
L 332.856773 157.536 
L 341.727115 157.536 
L 342.318471 192.096 
L 344.09254 192.096 
L 344.683896 226.656 
L 354.736951 226.656 
L 355.328308 192.096 
L 360.059157 192.096 
L 360.650513 157.536 
L 363.015938 157.536 
L 363.607294 192.096 
L 366.564075 192.096 
L 367.155431 226.656 
L 371.294925 226.656 
L 371.886281 192.096 
L 372.477637 226.656 
L 374.843062 226.656 
L 375.434418 192.096 
L 376.61713 192.096 
L 377.208486 157.536 
L 383.122048 157.536 
L 383.713404 192.096 
L 386.670185 192.096 
L 387.261542 226.656 
L 387.852898 226.656 
L 387.852898 226.656 
" clip-path="url(#peabd72af41)" style="fill: none; stroke: #1f77b4; stroke-width: 1.5; stroke-linecap: square"/>
   </g>
   <g id="line2d_16">
    <path d="M 63.198352 247.392 
L 68.520558 247.392 
L 69.111914 233.568 
L 82.12175 233.568 
L 82.713106 247.392 
L 85.669887 247.392 
L 86.261243 233.568 
L 98.088367 233.568 
L 98.679723 247.392 
L 115.237697 247.392 
L 115.829053 261.216 
L 138.300588 261.216 
L 138.891944 247.392 
L 143.622793 247.392 
L 144.21415 233.568 
L 163.728904 233.568 
L 164.32026 219.744 
L 167.868397 219.744 
L 168.459753 233.568 
L 173.190603 233.568 
L 173.781959 247.392 
L 185.609083 247.392 
L 186.200439 233.568 
L 193.296713 233.568 
L 193.888069 247.392 
L 212.811467 247.392 
L 213.402823 233.568 
L 215.176892 233.568 
L 215.768248 247.392 
L 216.359604 247.392 
L 216.95096 233.568 
L 219.316385 233.568 
L 219.907741 219.744 
L 222.273166 219.744 
L 222.864522 205.92 
L 224.638591 205.92 
L 225.229947 192.096 
L 225.821303 192.096 
L 226.412659 178.272 
L 227.004015 178.272 
L 227.595372 164.448 
L 228.778084 164.448 
L 229.36944 150.624 
L 231.143509 150.624 
L 231.734865 136.8 
L 232.326221 136.8 
L 232.917577 122.976 
L 234.10029 122.976 
L 234.691646 109.152 
L 242.379276 109.152 
L 242.970632 122.976 
L 245.927413 122.976 
L 246.51877 136.8 
L 248.884194 136.8 
L 249.47555 150.624 
L 250.066907 150.624 
L 250.658263 136.8 
L 251.840975 136.8 
L 252.432331 150.624 
L 253.023688 136.8 
L 254.2064 136.8 
L 254.797756 150.624 
L 255.389112 150.624 
L 255.980469 164.448 
L 256.571825 150.624 
L 257.163181 164.448 
L 257.754537 150.624 
L 258.345893 150.624 
L 258.937249 164.448 
L 260.711318 164.448 
L 261.302674 178.272 
L 261.89403 178.272 
L 262.485387 192.096 
L 263.668099 192.096 
L 264.259455 205.92 
L 268.398948 205.92 
L 268.990305 192.096 
L 270.764373 192.096 
L 271.355729 178.272 
L 273.129798 178.272 
L 273.721154 164.448 
L 278.452004 164.448 
L 279.04336 150.624 
L 279.634716 150.624 
L 280.226072 164.448 
L 282.000141 164.448 
L 282.591497 178.272 
L 285.548278 178.272 
L 286.139634 192.096 
L 286.73099 192.096 
L 287.322346 205.92 
L 294.418621 205.92 
L 295.009977 192.096 
L 297.966758 192.096 
L 298.558114 205.92 
L 299.14947 192.096 
L 300.332182 192.096 
L 300.923539 205.92 
L 301.514895 205.92 
L 302.106251 192.096 
L 302.697607 192.096 
L 303.288963 205.92 
L 308.019813 205.92 
L 308.611169 219.744 
L 318.664224 219.744 
L 319.25558 205.92 
L 321.029649 205.92 
L 321.621005 192.096 
L 323.395074 192.096 
L 323.98643 178.272 
L 324.577786 192.096 
L 328.125923 192.096 
L 328.717279 205.92 
L 330.491348 205.92 
L 331.082704 192.096 
L 331.67406 205.92 
L 342.318471 205.92 
L 342.909828 192.096 
L 345.866609 192.096 
L 346.457965 178.272 
L 348.232033 178.272 
L 348.82339 192.096 
L 350.597458 192.096 
L 351.188814 205.92 
L 351.78017 192.096 
L 352.962883 192.096 
L 353.554239 205.92 
L 360.059157 205.92 
L 360.650513 219.744 
L 362.424582 219.744 
L 363.015938 205.92 
L 365.972719 205.92 
L 366.564075 192.096 
L 367.746787 192.096 
L 368.338144 178.272 
L 371.886281 178.272 
L 372.477637 192.096 
L 375.434418 192.096 
L 376.025774 205.92 
L 380.756624 205.92 
L 381.34798 219.744 
L 387.852898 219.744 
L 387.852898 219.744 
" clip-path="url(#peabd72af41)" style="fill: none; stroke: #ff7f0e; stroke-width: 1.5; stroke-linecap: square"/>
   </g>
   <g id="line2d_17">
    <path d="M 63.198352 247.392 
L 70.885983 247.392 
L 71.477339 240.48 
L 96.905655 240.48 
L 97.497011 247.392 
L 112.872272 247.392 
L 113.463628 254.304 
L 123.516683 254.304 
L 124.108039 247.392 
L 128.838889 247.392 
L 129.430245 240.48 
L 130.021601 240.48 
L 130.612957 247.392 
L 148.944999 247.392 
L 149.536355 240.48 
L 170.825178 240.48 
L 171.416534 233.568 
L 182.652302 233.568 
L 183.243658 240.48 
L 187.974507 240.48 
L 188.565863 247.392 
L 198.027562 247.392 
L 198.618919 240.48 
L 201.5757 240.48 
L 202.167056 233.568 
L 204.53248 233.568 
L 205.123837 226.656 
L 207.489261 226.656 
L 208.080618 219.744 
L 208.671974 226.656 
L 209.854686 226.656 
L 210.446042 219.744 
L 211.037398 219.744 
L 211.628755 212.832 
L 212.220111 212.832 
L 212.811467 205.92 
L 213.994179 205.92 
L 214.585536 199.008 
L 216.359604 199.008 
L 216.95096 192.096 
L 217.542317 192.096 
L 218.133673 185.184 
L 219.316385 185.184 
L 219.907741 178.272 
L 229.960796 178.272 
L 230.552153 185.184 
L 235.283002 185.184 
L 235.874358 178.272 
L 237.648427 178.272 
L 238.239783 171.36 
L 241.196564 171.36 
L 241.78792 164.448 
L 242.379276 164.448 
L 242.970632 157.536 
L 253.615044 157.536 
L 254.2064 150.624 
L 255.980469 150.624 
L 256.571825 143.712 
L 257.163181 143.712 
L 257.754537 150.624 
L 258.345893 150.624 
L 258.937249 143.712 
L 260.711318 143.712 
L 261.302674 150.624 
L 266.62488 150.624 
L 267.216236 157.536 
L 268.990305 157.536 
L 269.581661 164.448 
L 270.173017 164.448 
L 270.764373 171.36 
L 271.355729 171.36 
L 271.947086 178.272 
L 273.129798 178.272 
L 273.721154 185.184 
L 275.495223 185.184 
L 276.086579 192.096 
L 276.677935 192.096 
L 277.269291 199.008 
L 278.452004 199.008 
L 279.04336 205.92 
L 279.634716 205.92 
L 280.226072 199.008 
L 283.774209 199.008 
L 284.365565 192.096 
L 286.73099 192.096 
L 287.322346 185.184 
L 294.418621 185.184 
L 295.009977 192.096 
L 296.784045 192.096 
L 297.375401 199.008 
L 300.332182 199.008 
L 300.923539 205.92 
L 301.514895 205.92 
L 302.106251 212.832 
L 303.880319 212.832 
L 304.471676 205.92 
L 306.245744 205.92 
L 306.8371 199.008 
L 308.611169 199.008 
L 309.202525 192.096 
L 312.750662 192.096 
L 313.342018 199.008 
L 315.116087 199.008 
L 315.707443 205.92 
L 316.298799 199.008 
L 317.481512 199.008 
L 318.072868 205.92 
L 322.803717 205.92 
L 323.395074 212.832 
L 327.534567 212.832 
L 328.125923 205.92 
L 331.082704 205.92 
L 331.67406 199.008 
L 336.40491 199.008 
L 336.996266 192.096 
L 338.770334 192.096 
L 339.361691 199.008 
L 342.909828 199.008 
L 343.501184 205.92 
L 345.866609 205.92 
L 346.457965 212.832 
L 347.640677 212.832 
L 348.232033 205.92 
L 351.188814 205.92 
L 351.78017 199.008 
L 352.962883 199.008 
L 353.554239 192.096 
L 363.015938 192.096 
L 363.607294 199.008 
L 365.381363 199.008 
L 365.972719 205.92 
L 367.746787 205.92 
L 368.338144 212.832 
L 374.843062 212.832 
L 375.434418 219.744 
L 386.670185 219.744 
L 387.261542 226.656 
L 387.852898 226.656 
L 387.852898 226.656 
" clip-path="url(#peabd72af41)" style="fill: none; stroke: #2ca02c; stroke-width: 1.5; stroke-linecap: square"/>
   </g>
   <g id="line2d_18">
    <path d="M 63.198352 250.848 
L 93.948874 250.848 
L 94.54023 247.392 
L 99.27108 247.392 
L 99.862436 243.936 
L 119.37719 243.936 
L 119.968546 240.48 
L 126.473464 240.48 
L 127.06482 243.936 
L 141.257369 243.936 
L 141.848725 240.48 
L 142.440081 240.48 
L 143.031437 243.936 
L 159.58941 243.936 
L 160.180767 247.392 
L 168.459753 247.392 
L 169.051109 243.936 
L 172.00789 243.936 
L 172.599246 240.48 
L 174.964671 240.48 
L 175.556027 237.024 
L 177.921452 237.024 
L 178.512808 233.568 
L 180.286877 233.568 
L 180.878233 230.112 
L 181.469589 230.112 
L 182.060945 226.656 
L 182.652302 226.656 
L 183.243658 223.2 
L 184.42637 223.2 
L 185.017726 219.744 
L 186.791795 219.744 
L 187.383151 216.288 
L 187.974507 216.288 
L 188.565863 212.832 
L 189.748576 212.832 
L 190.339932 209.376 
L 205.715193 209.376 
L 206.306549 205.92 
L 208.080618 205.92 
L 208.671974 202.464 
L 211.628755 202.464 
L 212.220111 199.008 
L 212.811467 202.464 
L 213.402823 199.008 
L 217.542317 199.008 
L 218.133673 202.464 
L 224.047235 202.464 
L 224.638591 199.008 
L 226.412659 199.008 
L 227.004015 195.552 
L 228.778084 195.552 
L 229.36944 192.096 
L 234.10029 192.096 
L 234.691646 188.64 
L 237.648427 188.64 
L 238.239783 192.096 
L 250.066907 192.096 
L 250.658263 188.64 
L 254.2064 188.64 
L 254.797756 185.184 
L 257.163181 185.184 
L 257.754537 181.728 
L 259.528606 181.728 
L 260.119962 185.184 
L 274.31251 185.184 
L 274.903866 181.728 
L 276.677935 181.728 
L 277.269291 178.272 
L 279.04336 178.272 
L 279.634716 174.816 
L 286.139634 174.816 
L 286.73099 171.36 
L 287.322346 174.816 
L 290.279127 174.816 
L 290.870483 178.272 
L 293.235908 178.272 
L 293.827264 181.728 
L 296.192689 181.728 
L 296.784045 185.184 
L 297.966758 185.184 
L 298.558114 181.728 
L 299.14947 185.184 
L 299.740826 185.184 
L 300.332182 188.64 
L 300.923539 188.64 
L 301.514895 192.096 
L 302.106251 188.64 
L 302.697607 188.64 
L 303.288963 192.096 
L 305.063032 192.096 
L 305.654388 195.552 
L 306.245744 195.552 
L 306.8371 199.008 
L 307.428457 195.552 
L 308.019813 195.552 
L 308.611169 199.008 
L 318.072868 199.008 
L 318.664224 195.552 
L 321.621005 195.552 
L 322.212361 192.096 
L 323.395074 192.096 
L 323.98643 188.64 
L 324.577786 192.096 
L 326.351855 192.096 
L 326.943211 195.552 
L 329.899992 195.552 
L 330.491348 199.008 
L 331.082704 199.008 
L 331.67406 202.464 
L 342.318471 202.464 
L 342.909828 205.92 
L 344.683896 205.92 
L 345.275252 209.376 
L 347.049321 209.376 
L 347.640677 212.832 
L 352.371527 212.832 
L 352.962883 216.288 
L 368.338144 216.288 
L 368.9295 219.744 
L 372.477637 219.744 
L 373.068993 223.2 
L 375.434418 223.2 
L 376.025774 226.656 
L 387.852898 226.656 
L 387.852898 226.656 
" clip-path="url(#peabd72af41)" style="fill: none; stroke: #d62728; stroke-width: 1.5; stroke-linecap: square"/>
   </g>
   <g id="patch_3">
    <path d="M 46.965625 273.312 
L 46.965625 7.2 
" style="fill: none; stroke: #000000; stroke-width: 0.8; stroke-linejoin: miter; stroke-linecap: square"/>
   </g>
   <g id="patch_4">
    <path d="M 404.085625 273.312 
L 404.085625 7.2 
" style="fill: none; stroke: #000000; stroke-width: 0.8; stroke-linejoin: miter; stroke-linecap: square"/>
   </g>
   <g id="patch_5">
    <path d="M 46.965625 273.312 
L 404.085625 273.312 
" style="fill: none; stroke: #000000; stroke-width: 0.8; stroke-linejoin: miter; stroke-linecap: square"/>
   </g>
   <g id="patch_6">
    <path d="M 46.965625 7.2 
L 404.085625 7.2 
" style="fill: none; stroke: #000000; stroke-width: 0.8; stroke-linejoin: miter; stroke-linecap: square"/>
   </g>
   <g id="legend_1">
    <g id="patch_7">
     <path d="M 335.279375 99.788437 
L 397.085625 99.788437 
Q 399.085625 99.788437 399.085625 97.788437 
L 399.085625 14.2 
Q 399.085625 12.2 397.085625 12.2 
L 335.279375 12.2 
Q 333.279375 12.2 333.279375 14.2 
L 333.279375 97.788437 
Q 333.279375 99.788437 335.279375 99.788437 
z
" style="fill: #ffffff; opacity: 0.8; stroke: #cccccc; stroke-linejoin: miter"/>
    </g>
    <g id="text_17">
     <!-- Window -->
     <g transform="translate(337.279375 23.798437) scale(0.1 -0.1)">
      <defs>
       <path id="DejaVuSans-57" d="M 213 4666 
L 850 4666 
L 1831 722 
L 2809 4666 
L 3519 4666 
L 4500 722 
L 5478 4666 
L 6119 4666 
L 4947 0 
L 4153 0 
L 3169 4050 
L 2175 0 
L 1381 0 
L 213 4666 
z
" transform="scale(0.015625)"/>
       <path id="DejaVuSans-6e" d="M 3513 2113 
L 3513 0 
L 2938 0 
L 2938 2094 
Q 2938 2591 2744 2837 
Q 2550 3084 2163 3084 
Q 1697 3084 1428 2787 
Q 1159 2491 1159 1978 
L 1159 0 
L 581 0 
L 581 3500 
L 1159 3500 
L 1159 2956 
Q 1366 3272 1645 3428 
Q 1925 3584 2291 3584 
Q 2894 3584 3203 3211 
Q 3513 2838 3513 2113 
z
" transform="scale(0.015625)"/>
       <path id="DejaVuSans-64" d="M 2906 2969 
L 2906 4863 
L 3481 4863 
L 3481 0 
L 2906 0 
L 2906 525 
Q 2725 213 2448 61 
Q 2172 -91 1784 -91 
Q 1150 -91 751 415 
Q 353 922 353 1747 
Q 353 2572 751 3078 
Q 1150 3584 1784 3584 
Q 2172 3584 2448 3432 
Q 2725 3281 2906 2969 
z
M 947 1747 
Q 947 1113 1208 752 
Q 1469 391 1925 391 
Q 2381 391 2643 752 
Q 2906 1113 2906 1747 
Q 2906 2381 2643 2742 
Q 2381 3103 1925 3103 
Q 1469 3103 1208 2742 
Q 947 2381 947 1747 
z
" transform="scale(0.015625)"/>
       <path id="DejaVuSans-6f" d="M 1959 3097 
Q 1497 3097 1228 2736 
Q 959 2375 959 1747 
Q 959 1119 1226 758 
Q 1494 397 1959 397 
Q 2419 397 2687 759 
Q 2956 1122 2956 1747 
Q 2956 2369 2687 2733 
Q 2419 3097 1959 3097 
z
M 1959 3584 
Q 2709 3584 3137 3096 
Q 3566 2609 3566 1747 
Q 3566 888 3137 398 
Q 2709 -91 1959 -91 
Q 1206 -91 779 398 
Q 353 888 353 1747 
Q 353 2609 779 3096 
Q 1206 3584 1959 3584 
z
" transform="scale(0.015625)"/>
       <path id="DejaVuSans-77" d="M 269 3500 
L 844 3500 
L 1563 769 
L 2278 3500 
L 2956 3500 
L 3675 769 
L 4391 3500 
L 4966 3500 
L 4050 0 
L 3372 0 
L 2619 2869 
L 1863 0 
L 1184 0 
L 269 3500 
z
" transform="scale(0.015625)"/>
      </defs>
      <use xlink:href="#DejaVuSans-57"/>
      <use xlink:href="#DejaVuSans-69" x="96.626953"/>
      <use xlink:href="#DejaVuSans-6e" x="124.410156"/>
      <use xlink:href="#DejaVuSans-64" x="187.789062"/>
      <use xlink:href="#DejaVuSans-6f" x="251.265625"/>
      <use xlink:href="#DejaVuSans-77" x="312.447266"/>
     </g>
     <!-- length (ms) -->
     <g transform="translate(337.279375 34.99625) scale(0.1 -0.1)">
      <defs>
       <path id="DejaVuSans-6c" d="M 603 4863 
L 1178 4863 
L 1178 0 
L 603 0 
L 603 4863 
z
" transform="scale(0.015625)"/>
       <path id="DejaVuSans-67" d="M 2906 1791 
Q 2906 2416 2648 2759 
Q 2391 3103 1925 3103 
Q 1463 3103 1205 2759 
Q 947 2416 947 1791 
Q 947 1169 1205 825 
Q 1463 481 1925 481 
Q 2391 481 2648 825 
Q 2906 1169 2906 1791 
z
M 3481 434 
Q 3481 -459 3084 -895 
Q 2688 -1331 1869 -1331 
Q 1566 -1331 1297 -1286 
Q 1028 -1241 775 -1147 
L 775 -588 
Q 1028 -725 1275 -790 
Q 1522 -856 1778 -856 
Q 2344 -856 2625 -561 
Q 2906 -266 2906 331 
L 2906 616 
Q 2728 306 2450 153 
Q 2172 0 1784 0 
Q 1141 0 747 490 
Q 353 981 353 1791 
Q 353 2603 747 3093 
Q 1141 3584 1784 3584 
Q 2172 3584 2450 3431 
Q 2728 3278 2906 2969 
L 2906 3500 
L 3481 3500 
L 3481 434 
z
" transform="scale(0.015625)"/>
       <path id="DejaVuSans-68" d="M 3513 2113 
L 3513 0 
L 2938 0 
L 2938 2094 
Q 2938 2591 2744 2837 
Q 2550 3084 2163 3084 
Q 1697 3084 1428 2787 
Q 1159 2491 1159 1978 
L 1159 0 
L 581 0 
L 581 4863 
L 1159 4863 
L 1159 2956 
Q 1366 3272 1645 3428 
Q 1925 3584 2291 3584 
Q 2894 3584 3203 3211 
Q 3513 2838 3513 2113 
z
" transform="scale(0.015625)"/>
      </defs>
      <use xlink:href="#DejaVuSans-6c"/>
      <use xlink:href="#DejaVuSans-65" x="27.783203"/>
      <use xlink:href="#DejaVuSans-6e" x="89.306641"/>
      <use xlink:href="#DejaVuSans-67" x="152.685547"/>
      <use xlink:href="#DejaVuSans-74" x="216.162109"/>
      <use xlink:href="#DejaVuSans-68" x="255.371094"/>
      <use xlink:href="#DejaVuSans-20" x="318.75"/>
      <use xlink:href="#DejaVuSans-28" x="350.537109"/>
      <use xlink:href="#DejaVuSans-6d" x="389.550781"/>
      <use xlink:href="#DejaVuSans-73" x="486.962891"/>
      <use xlink:href="#DejaVuSans-29" x="539.0625"/>
     </g>
    </g>
    <g id="line2d_19">
     <path d="M 342.63875 46.174375 
L 352.63875 46.174375 
L 362.63875 46.174375 
" style="fill: none; stroke: #1f77b4; stroke-width: 1.5; stroke-linecap: square"/>
    </g>
    <g id="text_18">
     <!-- 20 -->
     <g transform="translate(370.63875 49.674375) scale(0.1 -0.1)">
      <use xlink:href="#DejaVuSans-32"/>
      <use xlink:href="#DejaVuSans-30" x="63.623047"/>
     </g>
    </g>
    <g id="line2d_20">
     <path d="M 342.63875 60.8525 
L 352.63875 60.8525 
L 362.63875 60.8525 
" style="fill: none; stroke: #ff7f0e; stroke-width: 1.5; stroke-linecap: square"/>
    </g>
    <g id="text_19">
     <!-- 50 -->
     <g transform="translate(370.63875 64.3525) scale(0.1 -0.1)">
      <use xlink:href="#DejaVuSans-35"/>
      <use xlink:href="#DejaVuSans-30" x="63.623047"/>
     </g>
    </g>
    <g id="line2d_21">
     <path d="M 342.63875 75.530625 
L 352.63875 75.530625 
L 362.63875 75.530625 
" style="fill: none; stroke: #2ca02c; stroke-width: 1.5; stroke-linecap: square"/>
    </g>
    <g id="text_20">
     <!-- 100 -->
     <g transform="translate(370.63875 79.030625) scale(0.1 -0.1)">
      <use xlink:href="#DejaVuSans-31"/>
      <use xlink:href="#DejaVuSans-30" x="63.623047"/>
      <use xlink:href="#DejaVuSans-30" x="127.246094"/>
     </g>
    </g>
    <g id="line2d_22">
     <path d="M 342.63875 90.20875 
L 352.63875 90.20875 
L 362.63875 90.20875 
" style="fill: none; stroke: #d62728; stroke-width: 1.5; stroke-linecap: square"/>
    </g>
    <g id="text_21">
     <!-- 200 -->
     <g transform="translate(370.63875 93.70875) scale(0.1 -0.1)">
      <use xlink:href="#DejaVuSans-32"/>
      <use xlink:href="#DejaVuSans-30" x="63.623047"/>
      <use xlink:href="#DejaVuSans-30" x="127.246094"/>
     </g>
    </g>
   </g>
  </g>
 </g>
 <defs>
  <clipPath id="peabd72af41">
   <rect x="46.965625" y="7.2" width="357.12" height="266.112"/>
  </clipPath>
 </defs>
</svg>
