<?xml version="1.0" encoding="utf-8" standalone="no"?>
<!DOCTYPE svg PUBLIC "-//W3C//DTD SVG 1.1//EN"
  "http://www.w3.org/Graphics/SVG/1.1/DTD/svg11.dtd">
<svg xmlns:xlink="http://www.w3.org/1999/xlink" width="411.285625pt" height="310.86825pt" viewBox="0 0 411.285625 310.86825" xmlns="http://www.w3.org/2000/svg" version="1.1">
 <metadata>
  <rdf:RDF xmlns:dc="http://purl.org/dc/elements/1.1/" xmlns:cc="http://creativecommons.org/ns#" xmlns:rdf="http://www.w3.org/1999/02/22-rdf-syntax-ns#">
   <cc:Work>
    <dc:type rdf:resource="http://purl.org/dc/dcmitype/StillImage"/>
    <dc:date>2023-02-17T02:10:26.095584</dc:date>
    <dc:format>image/svg+xml</dc:format>
    <dc:creator>
     <cc:Agent>
      <dc:title>Matplotlib v3.7.0, https://matplotlib.org/</dc:title>
     </cc:Agent>
    </dc:creator>
   </cc:Work>
  </rdf:RDF>
 </metadata>
 <defs>
  <style type="text/css">*{stroke-linejoin: round; stroke-linecap: butt}</style>
 </defs>
 <g id="figure_1">
  <g id="patch_1">
   <path d="M 0 310.86825 
L 411.285625 310.86825 
L 411.285625 0 
L 0 0 
z
" style="fill: #ffffff"/>
  </g>
  <g id="axes_1">
   <g id="patch_2">
    <path d="M 46.965625 273.312 
L 404.085625 273.312 
L 404.085625 7.2 
L 46.965625 7.2 
z
" style="fill: #ffffff"/>
   </g>
   <g id="matplotlib.axis_1">
    <g id="xtick_1">
     <g id="line2d_1">
      <defs>
       <path id="mf39f359e61" d="M 0 0 
L 0 3.5 
" style="stroke: #000000; stroke-width: 0.8"/>
      </defs>
      <g>
       <use xlink:href="#mf39f359e61" x="63.198352" y="273.312" style="stroke: #000000; stroke-width: 0.8"/>
      </g>
     </g>
     <g id="text_1">
      <!-- 0 -->
      <g transform="translate(60.017102 287.910437) scale(0.1 -0.1)">
       <defs>
        <path id="DejaVuSans-30" d="M 2034 4250 
Q 1547 4250 1301 3770 
Q 1056 3291 1056 2328 
Q 1056 1369 1301 889 
Q 1547 409 2034 409 
Q 2525 409 2770 889 
Q 3016 1369 3016 2328 
Q 3016 3291 2770 3770 
Q 2525 4250 2034 4250 
z
M 2034 4750 
Q 2819 4750 3233 4129 
Q 3647 3509 3647 2328 
Q 3647 1150 3233 529 
Q 2819 -91 2034 -91 
Q 1250 -91 836 529 
Q 422 1150 422 2328 
Q 422 3509 836 4129 
Q 1250 4750 2034 4750 
z
" transform="scale(0.015625)"/>
       </defs>
       <use xlink:href="#DejaVuSans-30"/>
      </g>
     </g>
    </g>
    <g id="xtick_2">
     <g id="line2d_2">
      <g>
       <use xlink:href="#mf39f359e61" x="122.333971" y="273.312" style="stroke: #000000; stroke-width: 0.8"/>
      </g>
     </g>
     <g id="text_2">
      <!-- 100 -->
      <g transform="translate(112.790221 287.910437) scale(0.1 -0.1)">
       <defs>
        <path id="DejaVuSans-31" d="M 794 531 
L 1825 531 
L 1825 4091 
L 703 3866 
L 703 4441 
L 1819 4666 
L 2450 4666 
L 2450 531 
L 3481 531 
L 3481 0 
L 794 0 
L 794 531 
z
" transform="scale(0.015625)"/>
       </defs>
       <use xlink:href="#DejaVuSans-31"/>
       <use xlink:href="#DejaVuSans-30" x="63.623047"/>
       <use xlink:href="#DejaVuSans-30" x="127.246094"/>
      </g>
     </g>
    </g>
    <g id="xtick_3">
     <g id="line2d_3">
      <g>
       <use xlink:href="#mf39f359e61" x="181.469589" y="273.312" style="stroke: #000000; stroke-width: 0.8"/>
      </g>
     </g>
     <g id="text_3">
      <!-- 200 -->
      <g transform="translate(171.925839 287.910437) scale(0.1 -0.1)">
       <defs>
        <path id="DejaVuSans-32" d="M 1228 531 
L 3431 531 
L 3431 0 
L 469 0 
L 469 531 
Q 828 903 1448 1529 
Q 2069 2156 2228 2338 
Q 2531 2678 2651 2914 
Q 2772 3150 2772 3378 
Q 2772 3750 2511 3984 
Q 2250 4219 1831 4219 
Q 1534 4219 1204 4116 
Q 875 4013 500 3803 
L 500 4441 
Q 881 4594 1212 4672 
Q 1544 4750 1819 4750 
Q 2544 4750 2975 4387 
Q 3406 4025 3406 3419 
Q 3406 3131 3298 2873 
Q 3191 2616 2906 2266 
Q 2828 2175 2409 1742 
Q 1991 1309 1228 531 
z
" transform="scale(0.015625)"/>
       </defs>
       <use xlink:href="#DejaVuSans-32"/>
       <use xlink:href="#DejaVuSans-30" x="63.623047"/>
       <use xlink:href="#DejaVuSans-30" x="127.246094"/>
      </g>
     </g>
    </g>
    <g id="xtick_4">
     <g id="line2d_4">
      <g>
       <use xlink:href="#mf39f359e61" x="240.605208" y="273.312" style="stroke: #000000; stroke-width: 0.8"/>
      </g>
     </g>
     <g id="text_4">
      <!-- 300 -->
      <g transform="translate(231.061458 287.910437) scale(0.1 -0.1)">
       <defs>
        <path id="DejaVuSans-33" d="M 2597 2516 
Q 3050 2419 3304 2112 
Q 3559 1806 3559 1356 
Q 3559 666 3084 287 
Q 2609 -91 1734 -91 
Q 1441 -91 1130 -33 
Q 819 25 488 141 
L 488 750 
Q 750 597 1062 519 
Q 1375 441 1716 441 
Q 2309 441 2620 675 
Q 2931 909 2931 1356 
Q 2931 1769 2642 2001 
Q 2353 2234 1838 2234 
L 1294 2234 
L 1294 2753 
L 1863 2753 
Q 2328 2753 2575 2939 
Q 2822 3125 2822 3475 
Q 2822 3834 2567 4026 
Q 2313 4219 1838 4219 
Q 1578 4219 1281 4162 
Q 984 4106 628 3988 
L 628 4550 
Q 988 4650 1302 4700 
Q 1616 4750 1894 4750 
Q 2613 4750 3031 4423 
Q 3450 4097 3450 3541 
Q 3450 3153 3228 2886 
Q 3006 2619 2597 2516 
z
" transform="scale(0.015625)"/>
       </defs>
       <use xlink:href="#DejaVuSans-33"/>
       <use xlink:href="#DejaVuSans-30" x="63.623047"/>
       <use xlink:href="#DejaVuSans-30" x="127.246094"/>
      </g>
     </g>
    </g>
    <g id="xtick_5">
     <g id="line2d_5">
      <g>
       <use xlink:href="#mf39f359e61" x="299.740826" y="273.312" style="stroke: #000000; stroke-width: 0.8"/>
      </g>
     </g>
     <g id="text_5">
      <!-- 400 -->
      <g transform="translate(290.197076 287.910437) scale(0.1 -0.1)">
       <defs>
        <path id="DejaVuSans-34" d="M 2419 4116 
L 825 1625 
L 2419 1625 
L 2419 4116 
z
M 2253 4666 
L 3047 4666 
L 3047 1625 
L 3713 1625 
L 3713 1100 
L 3047 1100 
L 3047 0 
L 2419 0 
L 2419 1100 
L 313 1100 
L 313 1709 
L 2253 4666 
z
" transform="scale(0.015625)"/>
       </defs>
       <use xlink:href="#DejaVuSans-34"/>
       <use xlink:href="#DejaVuSans-30" x="63.623047"/>
       <use xlink:href="#DejaVuSans-30" x="127.246094"/>
      </g>
     </g>
    </g>
    <g id="xtick_6">
     <g id="line2d_6">
      <g>
       <use xlink:href="#mf39f359e61" x="358.876445" y="273.312" style="stroke: #000000; stroke-width: 0.8"/>
      </g>
     </g>
     <g id="text_6">
      <!-- 500 -->
      <g transform="translate(349.332695 287.910437) scale(0.1 -0.1)">
       <defs>
        <path id="DejaVuSans-35" d="M 691 4666 
L 3169 4666 
L 3169 4134 
L 1269 4134 
L 1269 2991 
Q 1406 3038 1543 3061 
Q 1681 3084 1819 3084 
Q 2600 3084 3056 2656 
Q 3513 2228 3513 1497 
Q 3513 744 3044 326 
Q 2575 -91 1722 -91 
Q 1428 -91 1123 -41 
Q 819 9 494 109 
L 494 744 
Q 775 591 1075 516 
Q 1375 441 1709 441 
Q 2250 441 2565 725 
Q 2881 1009 2881 1497 
Q 2881 1984 2565 2268 
Q 2250 2553 1709 2553 
Q 1456 2553 1204 2497 
Q 953 2441 691 2322 
L 691 4666 
z
" transform="scale(0.015625)"/>
       </defs>
       <use xlink:href="#DejaVuSans-35"/>
       <use xlink:href="#DejaVuSans-30" x="63.623047"/>
       <use xlink:href="#DejaVuSans-30" x="127.246094"/>
      </g>
     </g>
    </g>
    <g id="text_7">
     <!-- Time (ms) -->
     <g transform="translate(200.326406 301.588562) scale(0.1 -0.1)">
      <defs>
       <path id="DejaVuSans-54" d="M -19 4666 
L 3928 4666 
L 3928 4134 
L 2272 4134 
L 2272 0 
L 1638 0 
L 1638 4134 
L -19 4134 
L -19 4666 
z
" transform="scale(0.015625)"/>
       <path id="DejaVuSans-69" d="M 603 3500 
L 1178 3500 
L 1178 0 
L 603 0 
L 603 3500 
z
M 603 4863 
L 1178 4863 
L 1178 4134 
L 603 4134 
L 603 4863 
z
" transform="scale(0.015625)"/>
       <path id="DejaVuSans-6d" d="M 3328 2828 
Q 3544 3216 3844 3400 
Q 4144 3584 4550 3584 
Q 5097 3584 5394 3201 
Q 5691 2819 5691 2113 
L 5691 0 
L 5113 0 
L 5113 2094 
Q 5113 2597 4934 2840 
Q 4756 3084 4391 3084 
Q 3944 3084 3684 2787 
Q 3425 2491 3425 1978 
L 3425 0 
L 2847 0 
L 2847 2094 
Q 2847 2600 2669 2842 
Q 2491 3084 2119 3084 
Q 1678 3084 1418 2786 
Q 1159 2488 1159 1978 
L 1159 0 
L 581 0 
L 581 3500 
L 1159 3500 
L 1159 2956 
Q 1356 3278 1631 3431 
Q 1906 3584 2284 3584 
Q 2666 3584 2933 3390 
Q 3200 3197 3328 2828 
z
" transform="scale(0.015625)"/>
       <path id="DejaVuSans-65" d="M 3597 1894 
L 3597 1613 
L 953 1613 
Q 991 1019 1311 708 
Q 1631 397 2203 397 
Q 2534 397 2845 478 
Q 3156 559 3463 722 
L 3463 178 
Q 3153 47 2828 -22 
Q 2503 -91 2169 -91 
Q 1331 -91 842 396 
Q 353 884 353 1716 
Q 353 2575 817 3079 
Q 1281 3584 2069 3584 
Q 2775 3584 3186 3129 
Q 3597 2675 3597 1894 
z
M 3022 2063 
Q 3016 2534 2758 2815 
Q 2500 3097 2075 3097 
Q 1594 3097 1305 2825 
Q 1016 2553 972 2059 
L 3022 2063 
z
" transform="scale(0.015625)"/>
       <path id="DejaVuSans-20" transform="scale(0.015625)"/>
       <path id="DejaVuSans-28" d="M 1984 4856 
Q 1566 4138 1362 3434 
Q 1159 2731 1159 2009 
Q 1159 1288 1364 580 
Q 1569 -128 1984 -844 
L 1484 -844 
Q 1016 -109 783 600 
Q 550 1309 550 2009 
Q 550 2706 781 3412 
Q 1013 4119 1484 4856 
L 1984 4856 
z
" transform="scale(0.015625)"/>
       <path id="DejaVuSans-73" d="M 2834 3397 
L 2834 2853 
Q 2591 2978 2328 3040 
Q 2066 3103 1784 3103 
Q 1356 3103 1142 2972 
Q 928 2841 928 2578 
Q 928 2378 1081 2264 
Q 1234 2150 1697 2047 
L 1894 2003 
Q 2506 1872 2764 1633 
Q 3022 1394 3022 966 
Q 3022 478 2636 193 
Q 2250 -91 1575 -91 
Q 1294 -91 989 -36 
Q 684 19 347 128 
L 347 722 
Q 666 556 975 473 
Q 1284 391 1588 391 
Q 1994 391 2212 530 
Q 2431 669 2431 922 
Q 2431 1156 2273 1281 
Q 2116 1406 1581 1522 
L 1381 1569 
Q 847 1681 609 1914 
Q 372 2147 372 2553 
Q 372 3047 722 3315 
Q 1072 3584 1716 3584 
Q 2034 3584 2315 3537 
Q 2597 3491 2834 3397 
z
" transform="scale(0.015625)"/>
       <path id="DejaVuSans-29" d="M 513 4856 
L 1013 4856 
Q 1481 4119 1714 3412 
Q 1947 2706 1947 2009 
Q 1947 1309 1714 600 
Q 1481 -109 1013 -844 
L 513 -844 
Q 928 -128 1133 580 
Q 1338 1288 1338 2009 
Q 1338 2731 1133 3434 
Q 928 4138 513 4856 
z
" transform="scale(0.015625)"/>
      </defs>
      <use xlink:href="#DejaVuSans-54"/>
      <use xlink:href="#DejaVuSans-69" x="57.958984"/>
      <use xlink:href="#DejaVuSans-6d" x="85.742188"/>
      <use xlink:href="#DejaVuSans-65" x="183.154297"/>
      <use xlink:href="#DejaVuSans-20" x="244.677734"/>
      <use xlink:href="#DejaVuSans-28" x="276.464844"/>
      <use xlink:href="#DejaVuSans-6d" x="315.478516"/>
      <use xlink:href="#DejaVuSans-73" x="412.890625"/>
      <use xlink:href="#DejaVuSans-29" x="464.990234"/>
     </g>
    </g>
   </g>
   <g id="matplotlib.axis_2">
    <g id="ytick_1">
     <g id="line2d_7">
      <defs>
       <path id="mb01a75f8b8" d="M 0 0 
L -3.5 0 
" style="stroke: #000000; stroke-width: 0.8"/>
      </defs>
      <g>
       <use xlink:href="#mb01a75f8b8" x="46.965625" y="266.075484" style="stroke: #000000; stroke-width: 0.8"/>
      </g>
     </g>
     <g id="text_8">
      <!-- 0 -->
      <g transform="translate(33.603125 269.874702) scale(0.1 -0.1)">
       <use xlink:href="#DejaVuSans-30"/>
      </g>
     </g>
    </g>
    <g id="ytick_2">
     <g id="line2d_8">
      <g>
       <use xlink:href="#mb01a75f8b8" x="46.965625" y="234.766171" style="stroke: #000000; stroke-width: 0.8"/>
      </g>
     </g>
     <g id="text_9">
      <!-- 25 -->
      <g transform="translate(27.240625 238.56539) scale(0.1 -0.1)">
       <use xlink:href="#DejaVuSans-32"/>
       <use xlink:href="#DejaVuSans-35" x="63.623047"/>
      </g>
     </g>
    </g>
    <g id="ytick_3">
     <g id="line2d_9">
      <g>
       <use xlink:href="#mb01a75f8b8" x="46.965625" y="203.456858" style="stroke: #000000; stroke-width: 0.8"/>
      </g>
     </g>
     <g id="text_10">
      <!-- 50 -->
      <g transform="translate(27.240625 207.256077) scale(0.1 -0.1)">
       <use xlink:href="#DejaVuSans-35"/>
       <use xlink:href="#DejaVuSans-30" x="63.623047"/>
      </g>
     </g>
    </g>
    <g id="ytick_4">
     <g id="line2d_10">
      <g>
       <use xlink:href="#mb01a75f8b8" x="46.965625" y="172.147545" style="stroke: #000000; stroke-width: 0.8"/>
      </g>
     </g>
     <g id="text_11">
      <!-- 75 -->
      <g transform="translate(27.240625 175.946764) scale(0.1 -0.1)">
       <defs>
        <path id="DejaVuSans-37" d="M 525 4666 
L 3525 4666 
L 3525 4397 
L 1831 0 
L 1172 0 
L 2766 4134 
L 525 4134 
L 525 4666 
z
" transform="scale(0.015625)"/>
       </defs>
       <use xlink:href="#DejaVuSans-37"/>
       <use xlink:href="#DejaVuSans-35" x="63.623047"/>
      </g>
     </g>
    </g>
    <g id="ytick_5">
     <g id="line2d_11">
      <g>
       <use xlink:href="#mb01a75f8b8" x="46.965625" y="140.838233" style="stroke: #000000; stroke-width: 0.8"/>
      </g>
     </g>
     <g id="text_12">
      <!-- 100 -->
      <g transform="translate(20.878125 144.637451) scale(0.1 -0.1)">
       <use xlink:href="#DejaVuSans-31"/>
       <use xlink:href="#DejaVuSans-30" x="63.623047"/>
       <use xlink:href="#DejaVuSans-30" x="127.246094"/>
      </g>
     </g>
    </g>
    <g id="ytick_6">
     <g id="line2d_12">
      <g>
       <use xlink:href="#mb01a75f8b8" x="46.965625" y="109.52892" style="stroke: #000000; stroke-width: 0.8"/>
      </g>
     </g>
     <g id="text_13">
      <!-- 125 -->
      <g transform="translate(20.878125 113.328138) scale(0.1 -0.1)">
       <use xlink:href="#DejaVuSans-31"/>
       <use xlink:href="#DejaVuSans-32" x="63.623047"/>
       <use xlink:href="#DejaVuSans-35" x="127.246094"/>
      </g>
     </g>
    </g>
    <g id="ytick_7">
     <g id="line2d_13">
      <g>
       <use xlink:href="#mb01a75f8b8" x="46.965625" y="78.219607" style="stroke: #000000; stroke-width: 0.8"/>
      </g>
     </g>
     <g id="text_14">
      <!-- 150 -->
      <g transform="translate(20.878125 82.018826) scale(0.1 -0.1)">
       <use xlink:href="#DejaVuSans-31"/>
       <use xlink:href="#DejaVuSans-35" x="63.623047"/>
       <use xlink:href="#DejaVuSans-30" x="127.246094"/>
      </g>
     </g>
    </g>
    <g id="ytick_8">
     <g id="line2d_14">
      <g>
       <use xlink:href="#mb01a75f8b8" x="46.965625" y="46.910294" style="stroke: #000000; stroke-width: 0.8"/>
      </g>
     </g>
     <g id="text_15">
      <!-- 175 -->
      <g transform="translate(20.878125 50.709513) scale(0.1 -0.1)">
       <use xlink:href="#DejaVuSans-31"/>
       <use xlink:href="#DejaVuSans-37" x="63.623047"/>
       <use xlink:href="#DejaVuSans-35" x="127.246094"/>
      </g>
     </g>
    </g>
    <g id="ytick_9">
     <g id="line2d_15">
      <g>
       <use xlink:href="#mb01a75f8b8" x="46.965625" y="15.600981" style="stroke: #000000; stroke-width: 0.8"/>
      </g>
     </g>
     <g id="text_16">
      <!-- 200 -->
      <g transform="translate(20.878125 19.4002) scale(0.1 -0.1)">
       <use xlink:href="#DejaVuSans-32"/>
       <use xlink:href="#DejaVuSans-30" x="63.623047"/>
       <use xlink:href="#DejaVuSans-30" x="127.246094"/>
      </g>
     </g>
    </g>
    <g id="text_17">
     <!-- Rate (spks/s) -->
     <g transform="translate(14.798438 172.777094) rotate(-90) scale(0.1 -0.1)">
      <defs>
       <path id="DejaVuSans-52" d="M 2841 2188 
Q 3044 2119 3236 1894 
Q 3428 1669 3622 1275 
L 4263 0 
L 3584 0 
L 2988 1197 
Q 2756 1666 2539 1819 
Q 2322 1972 1947 1972 
L 1259 1972 
L 1259 0 
L 628 0 
L 628 4666 
L 2053 4666 
Q 2853 4666 3247 4331 
Q 3641 3997 3641 3322 
Q 3641 2881 3436 2590 
Q 3231 2300 2841 2188 
z
M 1259 4147 
L 1259 2491 
L 2053 2491 
Q 2509 2491 2742 2702 
Q 2975 2913 2975 3322 
Q 2975 3731 2742 3939 
Q 2509 4147 2053 4147 
L 1259 4147 
z
" transform="scale(0.015625)"/>
       <path id="DejaVuSans-61" d="M 2194 1759 
Q 1497 1759 1228 1600 
Q 959 1441 959 1056 
Q 959 750 1161 570 
Q 1363 391 1709 391 
Q 2188 391 2477 730 
Q 2766 1069 2766 1631 
L 2766 1759 
L 2194 1759 
z
M 3341 1997 
L 3341 0 
L 2766 0 
L 2766 531 
Q 2569 213 2275 61 
Q 1981 -91 1556 -91 
Q 1019 -91 701 211 
Q 384 513 384 1019 
Q 384 1609 779 1909 
Q 1175 2209 1959 2209 
L 2766 2209 
L 2766 2266 
Q 2766 2663 2505 2880 
Q 2244 3097 1772 3097 
Q 1472 3097 1187 3025 
Q 903 2953 641 2809 
L 641 3341 
Q 956 3463 1253 3523 
Q 1550 3584 1831 3584 
Q 2591 3584 2966 3190 
Q 3341 2797 3341 1997 
z
" transform="scale(0.015625)"/>
       <path id="DejaVuSans-74" d="M 1172 4494 
L 1172 3500 
L 2356 3500 
L 2356 3053 
L 1172 3053 
L 1172 1153 
Q 1172 725 1289 603 
Q 1406 481 1766 481 
L 2356 481 
L 2356 0 
L 1766 0 
Q 1100 0 847 248 
Q 594 497 594 1153 
L 594 3053 
L 172 3053 
L 172 3500 
L 594 3500 
L 594 4494 
L 1172 4494 
z
" transform="scale(0.015625)"/>
       <path id="DejaVuSans-70" d="M 1159 525 
L 1159 -1331 
L 581 -1331 
L 581 3500 
L 1159 3500 
L 1159 2969 
Q 1341 3281 1617 3432 
Q 1894 3584 2278 3584 
Q 2916 3584 3314 3078 
Q 3713 2572 3713 1747 
Q 3713 922 3314 415 
Q 2916 -91 2278 -91 
Q 1894 -91 1617 61 
Q 1341 213 1159 525 
z
M 3116 1747 
Q 3116 2381 2855 2742 
Q 2594 3103 2138 3103 
Q 1681 3103 1420 2742 
Q 1159 2381 1159 1747 
Q 1159 1113 1420 752 
Q 1681 391 2138 391 
Q 2594 391 2855 752 
Q 3116 1113 3116 1747 
z
" transform="scale(0.015625)"/>
       <path id="DejaVuSans-6b" d="M 581 4863 
L 1159 4863 
L 1159 1991 
L 2875 3500 
L 3609 3500 
L 1753 1863 
L 3688 0 
L 2938 0 
L 1159 1709 
L 1159 0 
L 581 0 
L 581 4863 
z
" transform="scale(0.015625)"/>
       <path id="DejaVuSans-2f" d="M 1625 4666 
L 2156 4666 
L 531 -594 
L 0 -594 
L 1625 4666 
z
" transform="scale(0.015625)"/>
      </defs>
      <use xlink:href="#DejaVuSans-52"/>
      <use xlink:href="#DejaVuSans-61" x="67.232422"/>
      <use xlink:href="#DejaVuSans-74" x="128.511719"/>
      <use xlink:href="#DejaVuSans-65" x="167.720703"/>
      <use xlink:href="#DejaVuSans-20" x="229.244141"/>
      <use xlink:href="#DejaVuSans-28" x="261.03125"/>
      <use xlink:href="#DejaVuSans-73" x="300.044922"/>
      <use xlink:href="#DejaVuSans-70" x="352.144531"/>
      <use xlink:href="#DejaVuSans-6b" x="415.621094"/>
      <use xlink:href="#DejaVuSans-73" x="473.53125"/>
      <use xlink:href="#DejaVuSans-2f" x="525.630859"/>
      <use xlink:href="#DejaVuSans-73" x="559.322266"/>
      <use xlink:href="#DejaVuSans-29" x="611.421875"/>
     </g>
    </g>
   </g>
   <g id="line2d_16">
    <path d="M 63.198352 237.463058 
L 65.563777 233.796613 
L 67.929202 230.555628 
L 69.70327 228.468138 
L 71.477339 226.701001 
L 73.251407 225.258758 
L 75.025476 224.131235 
L 76.799545 223.297316 
L 78.573613 222.729116 
L 80.347682 222.396032 
L 82.12175 222.268356 
L 83.895819 222.320332 
L 86.261243 222.636892 
L 88.626668 223.217435 
L 90.992093 224.070625 
L 92.766162 224.91152 
L 94.54023 225.951323 
L 96.314299 227.21748 
L 98.088367 228.735334 
L 99.862436 230.522441 
L 101.636504 232.58314 
L 104.001929 235.730877 
L 106.367354 239.25432 
L 115.237697 253.007844 
L 117.011765 255.281892 
L 118.785834 257.24159 
L 120.559902 258.843149 
L 122.333971 260.053302 
L 123.516683 260.629637 
L 124.699395 261.013817 
L 125.882108 261.199537 
L 127.06482 261.180456 
L 128.247533 260.950019 
L 129.430245 260.501458 
L 130.612957 259.827999 
L 131.79567 258.923288 
L 132.978382 257.782006 
L 134.161094 256.400671 
L 135.935163 253.877971 
L 137.709232 250.828726 
L 139.4833 247.293298 
L 141.848725 241.952425 
L 145.396862 233.174251 
L 148.353643 225.9777 
L 150.127711 222.087538 
L 151.90178 218.726901 
L 153.084492 216.849841 
L 154.267205 215.299487 
L 155.449917 214.095175 
L 156.632629 213.245051 
L 157.815342 212.745862 
L 158.998054 212.58337 
L 160.180767 212.733367 
L 161.363479 213.163225 
L 162.546191 213.833866 
L 164.32026 215.19606 
L 166.685685 217.442104 
L 172.599246 223.35681 
L 174.964671 225.368989 
L 177.330096 227.093909 
L 179.695521 228.549854 
L 182.060945 229.764969 
L 184.42637 230.757048 
L 186.791795 231.532391 
L 189.15722 232.098925 
L 192.114001 232.553856 
L 195.662138 232.854239 
L 199.801631 232.99969 
L 202.167056 232.857948 
L 203.941124 232.474252 
L 205.123837 231.99789 
L 206.306549 231.274786 
L 207.489261 230.235589 
L 208.671974 228.804844 
L 209.854686 226.90336 
L 211.037398 224.451003 
L 212.220111 221.369808 
L 213.402823 217.587302 
L 214.585536 213.039888 
L 215.768248 207.676187 
L 216.95096 201.46019 
L 218.725029 190.504835 
L 220.499097 177.625867 
L 222.273166 162.96999 
L 224.638591 141.14963 
L 228.186728 105.63984 
L 231.143509 76.440466 
L 232.917577 60.452613 
L 234.691646 46.410882 
L 235.874358 38.42071 
L 237.057071 31.699294 
L 238.239783 26.362502 
L 239.422495 22.492794 
L 240.013852 21.123773 
L 240.605208 20.135435 
L 241.196564 19.527217 
L 241.78792 19.296 
L 242.379276 19.436113 
L 242.970632 19.939368 
L 243.561989 20.795121 
L 244.153345 21.990353 
L 244.744701 23.509787 
L 245.927413 27.449699 
L 247.110126 32.453245 
L 248.292838 38.333794 
L 250.066907 48.349172 
L 256.571825 86.723166 
L 258.345893 95.10748 
L 259.528606 99.848932 
L 260.711318 103.874449 
L 261.89403 107.187408 
L 263.076743 109.81898 
L 264.259455 111.823552 
L 265.442167 113.273487 
L 266.62488 114.253614 
L 267.807592 114.855845 
L 268.990305 115.174244 
L 270.764373 115.319548 
L 274.31251 115.411186 
L 275.495223 115.625068 
L 276.677935 116.014843 
L 277.860647 116.61744 
L 279.04336 117.461644 
L 280.226072 118.568721 
L 281.408784 119.952807 
L 282.591497 121.621016 
L 283.774209 123.573255 
L 285.548278 127.015121 
L 287.322346 131.016227 
L 289.687771 137.034925 
L 296.784045 155.889386 
L 298.558114 159.757574 
L 300.332182 162.973085 
L 301.514895 164.719349 
L 302.697607 166.143156 
L 303.880319 167.255709 
L 305.063032 168.08021 
L 306.245744 168.64964 
L 307.428457 169.003831 
L 309.202525 169.22634 
L 310.976594 169.204069 
L 313.933375 168.920278 
L 317.481512 168.408228 
L 319.846936 167.840757 
L 321.621005 167.161729 
L 323.395074 166.176825 
L 325.169142 164.839548 
L 326.943211 163.153315 
L 329.308635 160.47575 
L 334.039485 154.854051 
L 335.813553 153.155889 
L 336.996266 152.263547 
L 338.178978 151.593938 
L 339.361691 151.159942 
L 340.544403 150.961576 
L 341.727115 150.986344 
L 342.909828 151.210486 
L 344.683896 151.846406 
L 347.049321 153.036135 
L 350.597458 154.862703 
L 352.371527 155.543075 
L 354.145595 155.978214 
L 355.919664 156.152738 
L 357.693732 156.088185 
L 360.059157 155.718908 
L 366.564075 154.416228 
L 368.338144 154.392493 
L 369.520856 154.551558 
L 370.703568 154.888765 
L 371.886281 155.43895 
L 373.068993 156.238166 
L 374.251705 157.322668 
L 375.434418 158.727475 
L 376.61713 160.484604 
L 377.799843 162.62109 
L 378.982555 165.156956 
L 380.165267 168.103306 
L 381.939336 173.290607 
L 383.713404 179.352333 
L 385.487473 186.179618 
L 387.852898 196.181443 
L 387.852898 196.181443 
" clip-path="url(#p0c98252b7e)" style="fill: none; stroke: #1f77b4; stroke-width: 1.5; stroke-linecap: square"/>
   </g>
   <g id="line2d_17">
    <path d="M 63.198352 243.834532 
L 67.929202 241.864288 
L 72.068695 240.405009 
L 75.616832 239.386288 
L 79.164969 238.600834 
L 82.713106 238.055579 
L 86.261243 237.745992 
L 89.809381 237.655711 
L 93.948874 237.790275 
L 98.679723 238.184655 
L 107.550066 239.226096 
L 113.463628 239.805376 
L 117.603121 240.015557 
L 121.742615 239.999757 
L 125.290752 239.779059 
L 128.838889 239.356899 
L 132.387026 238.735646 
L 136.526519 237.776864 
L 140.666012 236.599123 
L 145.988218 234.832096 
L 152.493136 232.40384 
L 159.58941 229.516658 
L 165.502972 226.882773 
L 170.233822 224.517446 
L 173.781959 222.507088 
L 177.330096 220.216282 
L 180.286877 218.037095 
L 183.243658 215.563358 
L 186.200439 212.751047 
L 189.15722 209.56078 
L 192.114001 205.960484 
L 195.070781 201.928094 
L 198.027562 197.45378 
L 200.984343 192.542147 
L 203.941124 187.213464 
L 207.489261 180.321511 
L 211.628755 171.718178 
L 217.542317 158.779476 
L 225.229947 141.981612 
L 228.778084 134.709815 
L 231.734865 129.0682 
L 234.691646 123.908608 
L 237.057071 120.184223 
L 239.422495 116.8574 
L 241.78792 113.956827 
L 243.561989 112.074213 
L 245.336057 110.449626 
L 247.110126 109.086721 
L 248.884194 107.986742 
L 250.658263 107.14841 
L 252.432331 106.56828 
L 254.2064 106.240674 
L 255.980469 106.157892 
L 257.754537 106.310382 
L 259.528606 106.686938 
L 261.302674 107.27491 
L 263.076743 108.060419 
L 265.442167 109.389202 
L 267.807592 111.005264 
L 270.173017 112.869685 
L 273.129798 115.489076 
L 276.677935 118.954467 
L 281.408784 123.91208 
L 292.053196 135.188376 
L 296.192689 139.22385 
L 299.740826 142.409216 
L 303.288963 145.30199 
L 306.8371 147.880903 
L 310.385238 150.140139 
L 313.933375 152.088664 
L 317.481512 153.749063 
L 321.029649 155.156371 
L 325.169142 156.540288 
L 330.491348 158.050515 
L 340.544403 160.825485 
L 344.683896 162.24029 
L 348.232033 163.702744 
L 351.188814 165.144206 
L 354.145595 166.820853 
L 357.102376 168.758109 
L 360.059157 170.975427 
L 363.015938 173.485598 
L 365.972719 176.294174 
L 368.9295 179.399063 
L 371.886281 182.79035 
L 375.434418 187.212512 
L 378.982555 191.976641 
L 383.122048 197.888282 
L 387.852898 204.971323 
L 387.852898 204.971323 
" clip-path="url(#p0c98252b7e)" style="fill: none; stroke: #ff7f0e; stroke-width: 1.5; stroke-linecap: square"/>
   </g>
   <g id="line2d_18">
    <path d="M 63.198352 248.144145 
L 76.208188 245.71403 
L 79.756325 245.098226 
L 80.347682 244.775614 
L 83.304463 244.255102 
L 83.895819 243.930498 
L 86.261243 243.504175 
L 86.8526 243.17658 
L 89.218024 242.737339 
L 89.809381 242.406264 
L 91.583449 242.065142 
L 92.174805 241.729742 
L 92.766162 241.6113 
L 93.357518 241.270753 
L 93.948874 241.147042 
L 94.54023 240.801104 
L 95.722942 240.542575 
L 96.314299 240.190911 
L 98.088367 239.785003 
L 98.679723 239.426972 
L 99.27108 239.285368 
L 99.862436 238.921119 
L 101.045148 238.624695 
L 101.636504 238.253433 
L 112.280916 235.348389 
L 117.011765 233.968329 
L 117.603121 233.569144 
L 119.37719 233.015072 
L 119.968546 232.605768 
L 122.925327 231.623305 
L 123.516683 231.200466 
L 124.108039 230.992905 
L 124.699395 230.561548 
L 131.79567 227.854102 
L 135.343807 226.404445 
L 135.935163 225.934123 
L 137.709232 225.16164 
L 138.300588 224.67789 
L 140.074656 223.864277 
L 140.666012 223.366538 
L 145.396862 221.037506 
L 145.988218 220.513888 
L 151.90178 217.314626 
L 158.406698 213.526187 
L 161.363479 211.71552 
L 161.954835 211.124801 
L 165.502972 208.836756 
L 166.094328 208.225994 
L 168.459753 206.629648 
L 169.051109 206.00334 
L 176.147384 200.942124 
L 185.017726 194.319661 
L 185.609083 193.870431 
L 186.200439 193.198297 
L 187.974507 191.828444 
L 188.565863 191.148498 
L 190.339932 189.756088 
L 190.931288 189.068921 
L 197.436206 183.88489 
L 198.027562 183.192289 
L 208.671974 174.762389 
L 209.26333 174.306454 
L 209.854686 173.63007 
L 212.811467 171.360554 
L 213.402823 170.690619 
L 215.176892 169.344366 
L 215.768248 169.122553 
L 218.133673 167.350189 
L 218.725029 166.691807 
L 224.047235 162.853105 
L 231.143509 157.944835 
L 231.734865 157.797737 
L 232.917577 157.060679 
L 233.508933 156.476445 
L 234.691646 155.754612 
L 235.283002 155.178055 
L 240.013852 152.461317 
L 244.153345 150.331719 
L 248.292838 148.44666 
L 248.884194 148.420243 
L 253.023688 146.791036 
L 257.163181 145.430543 
L 260.711318 144.481615 
L 264.259455 143.734575 
L 267.807592 143.189396 
L 271.355729 142.844825 
L 274.903866 142.698477 
L 278.452004 142.746929 
L 282.591497 143.04383 
L 286.73099 143.591691 
L 290.870483 144.381066 
L 295.009977 145.401583 
L 299.14947 146.642211 
L 300.923539 147.238464 
L 301.514895 147.667856 
L 306.245744 149.429462 
L 306.8371 149.890113 
L 311.56795 151.894317 
L 316.298799 154.137977 
L 321.621005 156.925592 
L 326.351855 159.618313 
L 326.943211 160.19051 
L 332.856773 163.791494 
L 338.770334 167.657097 
L 345.275252 172.177645 
L 348.232033 174.314848 
L 348.82339 174.970237 
L 355.919664 180.242005 
L 364.19865 186.670321 
L 374.843062 195.233757 
L 375.434418 195.71571 
L 376.025774 196.420357 
L 378.982555 198.81075 
L 379.573911 199.512166 
L 381.939336 201.409618 
L 382.530692 202.1069 
L 384.896117 203.986918 
L 385.487473 204.679607 
L 387.261542 206.07496 
L 387.852898 206.762534 
L 387.852898 206.762534 
" clip-path="url(#p0c98252b7e)" style="fill: none; stroke: #2ca02c; stroke-width: 1.5; stroke-linecap: square"/>
   </g>
   <g id="line2d_19">
    <path d="M 63.198352 248.570213 
L 79.756325 247.407018 
L 80.347682 245.91969 
L 83.304463 245.693068 
L 83.895819 244.198542 
L 86.261243 243.987776 
L 86.8526 242.48571 
L 89.218024 242.244723 
L 89.809381 240.735087 
L 91.583449 240.53116 
L 92.174805 239.013632 
L 92.766162 238.937467 
L 93.357518 237.411446 
L 93.948874 237.326775 
L 94.54023 235.792235 
L 95.722942 235.606086 
L 96.314299 234.063263 
L 98.088367 233.759537 
L 98.679723 232.208668 
L 99.27108 232.099127 
L 99.862436 230.539696 
L 101.045148 230.303706 
L 101.636504 228.735936 
L 117.011765 225.538919 
L 117.603121 223.970271 
L 119.37719 223.589796 
L 119.968546 222.013589 
L 122.925327 221.343645 
L 123.516683 219.760695 
L 124.108039 219.619219 
L 124.699395 218.027999 
L 135.343807 215.397854 
L 135.935163 213.806077 
L 137.709232 213.357037 
L 138.300588 211.758255 
L 140.074656 211.288265 
L 140.666012 209.682522 
L 145.396862 208.384795 
L 145.988218 206.775008 
L 157.223986 203.689534 
L 161.363479 202.617348 
L 161.954835 201.017191 
L 165.502972 200.079734 
L 166.094328 198.476264 
L 168.459753 197.835166 
L 169.051109 196.226908 
L 178.512808 193.675435 
L 185.609083 191.928954 
L 186.200439 190.340302 
L 187.974507 189.904245 
L 188.565863 188.310997 
L 190.339932 187.861242 
L 190.931288 186.263458 
L 197.436206 184.616448 
L 198.027562 183.023784 
L 205.715193 181.167366 
L 209.26333 180.385305 
L 209.854686 178.809608 
L 212.811467 178.157234 
L 213.402823 176.580814 
L 215.176892 176.183222 
L 215.768248 177.50366 
L 218.133673 176.963137 
L 218.725029 175.381551 
L 225.821303 173.812464 
L 229.36944 173.111515 
L 229.960796 171.550134 
L 231.143509 171.314328 
L 231.734865 172.648972 
L 232.917577 172.404746 
L 233.508933 170.834965 
L 234.691646 170.582487 
L 235.283002 169.008582 
L 242.379276 167.544477 
L 248.292838 166.513013 
L 248.884194 167.869697 
L 255.389112 166.862222 
L 261.89403 166.079899 
L 268.398948 165.528061 
L 274.903866 165.21047 
L 281.408784 165.129267 
L 287.913702 165.284959 
L 294.418621 165.676409 
L 300.923539 166.300853 
L 301.514895 167.819174 
L 306.245744 168.360379 
L 306.8371 169.886648 
L 313.342018 170.748031 
L 319.846936 171.831535 
L 326.351855 173.129178 
L 326.943211 174.707589 
L 334.039485 176.26885 
L 341.135759 178.062021 
L 348.232033 180.071829 
L 348.82339 181.698715 
L 356.51102 184.002128 
L 364.790007 186.721205 
L 373.660349 189.8757 
L 375.434418 190.53327 
L 376.025774 192.204427 
L 378.982555 193.277652 
L 379.573911 194.945056 
L 381.939336 195.786376 
L 382.530692 197.448928 
L 384.896117 198.270485 
L 385.487473 199.928008 
L 387.261542 200.527675 
L 387.852898 202.179245 
L 387.852898 202.179245 
" clip-path="url(#p0c98252b7e)" style="fill: none; stroke: #d62728; stroke-width: 1.5; stroke-linecap: square"/>
   </g>
   <g id="patch_3">
    <path d="M 46.965625 273.312 
L 46.965625 7.2 
" style="fill: none; stroke: #000000; stroke-width: 0.8; stroke-linejoin: miter; stroke-linecap: square"/>
   </g>
   <g id="patch_4">
    <path d="M 404.085625 273.312 
L 404.085625 7.2 
" style="fill: none; stroke: #000000; stroke-width: 0.8; stroke-linejoin: miter; stroke-linecap: square"/>
   </g>
   <g id="patch_5">
    <path d="M 46.965625 273.312 
L 404.085625 273.312 
" style="fill: none; stroke: #000000; stroke-width: 0.8; stroke-linejoin: miter; stroke-linecap: square"/>
   </g>
   <g id="patch_6">
    <path d="M 46.965625 7.2 
L 404.085625 7.2 
" style="fill: none; stroke: #000000; stroke-width: 0.8; stroke-linejoin: miter; stroke-linecap: square"/>
   </g>
   <g id="legend_1">
    <g id="patch_7">
     <path d="M 345.998125 99.788437 
L 397.085625 99.788437 
Q 399.085625 99.788437 399.085625 97.788437 
L 399.085625 14.2 
Q 399.085625 12.2 397.085625 12.2 
L 345.998125 12.2 
Q 343.998125 12.2 343.998125 14.2 
L 343.998125 97.788437 
Q 343.998125 99.788437 345.998125 99.788437 
z
" style="fill: #ffffff; opacity: 0.8; stroke: #cccccc; stroke-linejoin: miter"/>
    </g>
    <g id="text_18">
     <!-- Standard -->
     <g transform="translate(348.30125 23.798437) scale(0.1 -0.1)">
      <defs>
       <path id="DejaVuSans-53" d="M 3425 4513 
L 3425 3897 
Q 3066 4069 2747 4153 
Q 2428 4238 2131 4238 
Q 1616 4238 1336 4038 
Q 1056 3838 1056 3469 
Q 1056 3159 1242 3001 
Q 1428 2844 1947 2747 
L 2328 2669 
Q 3034 2534 3370 2195 
Q 3706 1856 3706 1288 
Q 3706 609 3251 259 
Q 2797 -91 1919 -91 
Q 1588 -91 1214 -16 
Q 841 59 441 206 
L 441 856 
Q 825 641 1194 531 
Q 1563 422 1919 422 
Q 2459 422 2753 634 
Q 3047 847 3047 1241 
Q 3047 1584 2836 1778 
Q 2625 1972 2144 2069 
L 1759 2144 
Q 1053 2284 737 2584 
Q 422 2884 422 3419 
Q 422 4038 858 4394 
Q 1294 4750 2059 4750 
Q 2388 4750 2728 4690 
Q 3069 4631 3425 4513 
z
" transform="scale(0.015625)"/>
       <path id="DejaVuSans-6e" d="M 3513 2113 
L 3513 0 
L 2938 0 
L 2938 2094 
Q 2938 2591 2744 2837 
Q 2550 3084 2163 3084 
Q 1697 3084 1428 2787 
Q 1159 2491 1159 1978 
L 1159 0 
L 581 0 
L 581 3500 
L 1159 3500 
L 1159 2956 
Q 1366 3272 1645 3428 
Q 1925 3584 2291 3584 
Q 2894 3584 3203 3211 
Q 3513 2838 3513 2113 
z
" transform="scale(0.015625)"/>
       <path id="DejaVuSans-64" d="M 2906 2969 
L 2906 4863 
L 3481 4863 
L 3481 0 
L 2906 0 
L 2906 525 
Q 2725 213 2448 61 
Q 2172 -91 1784 -91 
Q 1150 -91 751 415 
Q 353 922 353 1747 
Q 353 2572 751 3078 
Q 1150 3584 1784 3584 
Q 2172 3584 2448 3432 
Q 2725 3281 2906 2969 
z
M 947 1747 
Q 947 1113 1208 752 
Q 1469 391 1925 391 
Q 2381 391 2643 752 
Q 2906 1113 2906 1747 
Q 2906 2381 2643 2742 
Q 2381 3103 1925 3103 
Q 1469 3103 1208 2742 
Q 947 2381 947 1747 
z
" transform="scale(0.015625)"/>
       <path id="DejaVuSans-72" d="M 2631 2963 
Q 2534 3019 2420 3045 
Q 2306 3072 2169 3072 
Q 1681 3072 1420 2755 
Q 1159 2438 1159 1844 
L 1159 0 
L 581 0 
L 581 3500 
L 1159 3500 
L 1159 2956 
Q 1341 3275 1631 3429 
Q 1922 3584 2338 3584 
Q 2397 3584 2469 3576 
Q 2541 3569 2628 3553 
L 2631 2963 
z
" transform="scale(0.015625)"/>
      </defs>
      <use xlink:href="#DejaVuSans-53"/>
      <use xlink:href="#DejaVuSans-74" x="63.476562"/>
      <use xlink:href="#DejaVuSans-61" x="102.685547"/>
      <use xlink:href="#DejaVuSans-6e" x="163.964844"/>
      <use xlink:href="#DejaVuSans-64" x="227.34375"/>
      <use xlink:href="#DejaVuSans-61" x="290.820312"/>
      <use xlink:href="#DejaVuSans-72" x="352.099609"/>
      <use xlink:href="#DejaVuSans-64" x="391.462891"/>
     </g>
     <!-- deviation -->
     <g transform="translate(348.30125 34.99625) scale(0.1 -0.1)">
      <defs>
       <path id="DejaVuSans-76" d="M 191 3500 
L 800 3500 
L 1894 563 
L 2988 3500 
L 3597 3500 
L 2284 0 
L 1503 0 
L 191 3500 
z
" transform="scale(0.015625)"/>
       <path id="DejaVuSans-6f" d="M 1959 3097 
Q 1497 3097 1228 2736 
Q 959 2375 959 1747 
Q 959 1119 1226 758 
Q 1494 397 1959 397 
Q 2419 397 2687 759 
Q 2956 1122 2956 1747 
Q 2956 2369 2687 2733 
Q 2419 3097 1959 3097 
z
M 1959 3584 
Q 2709 3584 3137 3096 
Q 3566 2609 3566 1747 
Q 3566 888 3137 398 
Q 2709 -91 1959 -91 
Q 1206 -91 779 398 
Q 353 888 353 1747 
Q 353 2609 779 3096 
Q 1206 3584 1959 3584 
z
" transform="scale(0.015625)"/>
      </defs>
      <use xlink:href="#DejaVuSans-64"/>
      <use xlink:href="#DejaVuSans-65" x="63.476562"/>
      <use xlink:href="#DejaVuSans-76" x="125"/>
      <use xlink:href="#DejaVuSans-69" x="184.179688"/>
      <use xlink:href="#DejaVuSans-61" x="211.962891"/>
      <use xlink:href="#DejaVuSans-74" x="273.242188"/>
      <use xlink:href="#DejaVuSans-69" x="312.451172"/>
      <use xlink:href="#DejaVuSans-6f" x="340.234375"/>
      <use xlink:href="#DejaVuSans-6e" x="401.416016"/>
     </g>
    </g>
    <g id="line2d_20">
     <path d="M 347.998125 46.174375 
L 357.998125 46.174375 
L 367.998125 46.174375 
" style="fill: none; stroke: #1f77b4; stroke-width: 1.5; stroke-linecap: square"/>
    </g>
    <g id="text_19">
     <!-- 20 -->
     <g transform="translate(375.998125 49.674375) scale(0.1 -0.1)">
      <use xlink:href="#DejaVuSans-32"/>
      <use xlink:href="#DejaVuSans-30" x="63.623047"/>
     </g>
    </g>
    <g id="line2d_21">
     <path d="M 347.998125 60.8525 
L 357.998125 60.8525 
L 367.998125 60.8525 
" style="fill: none; stroke: #ff7f0e; stroke-width: 1.5; stroke-linecap: square"/>
    </g>
    <g id="text_20">
     <!-- 50 -->
     <g transform="translate(375.998125 64.3525) scale(0.1 -0.1)">
      <use xlink:href="#DejaVuSans-35"/>
      <use xlink:href="#DejaVuSans-30" x="63.623047"/>
     </g>
    </g>
    <g id="line2d_22">
     <path d="M 347.998125 75.530625 
L 357.998125 75.530625 
L 367.998125 75.530625 
" style="fill: none; stroke: #2ca02c; stroke-width: 1.5; stroke-linecap: square"/>
    </g>
    <g id="text_21">
     <!-- 100 -->
     <g transform="translate(375.998125 79.030625) scale(0.1 -0.1)">
      <use xlink:href="#DejaVuSans-31"/>
      <use xlink:href="#DejaVuSans-30" x="63.623047"/>
      <use xlink:href="#DejaVuSans-30" x="127.246094"/>
     </g>
    </g>
    <g id="line2d_23">
     <path d="M 347.998125 90.20875 
L 357.998125 90.20875 
L 367.998125 90.20875 
" style="fill: none; stroke: #d62728; stroke-width: 1.5; stroke-linecap: square"/>
    </g>
    <g id="text_22">
     <!-- 200 -->
     <g transform="translate(375.998125 93.70875) scale(0.1 -0.1)">
      <use xlink:href="#DejaVuSans-32"/>
      <use xlink:href="#DejaVuSans-30" x="63.623047"/>
      <use xlink:href="#DejaVuSans-30" x="127.246094"/>
     </g>
    </g>
   </g>
  </g>
 </g>
 <defs>
  <clipPath id="p0c98252b7e">
   <rect x="46.965625" y="7.2" width="357.12" height="266.112"/>
  </clipPath>
 </defs>
</svg>
