<?xml version="1.0" encoding="utf-8" standalone="no"?>
<!DOCTYPE svg PUBLIC "-//W3C//DTD SVG 1.1//EN"
  "http://www.w3.org/Graphics/SVG/1.1/DTD/svg11.dtd">
<svg xmlns:xlink="http://www.w3.org/1999/xlink" width="668.549688pt" height="435.295625pt" viewBox="0 0 668.549688 435.295625" xmlns="http://www.w3.org/2000/svg" version="1.1">
 <metadata>
  <rdf:RDF xmlns:dc="http://purl.org/dc/elements/1.1/" xmlns:cc="http://creativecommons.org/ns#" xmlns:rdf="http://www.w3.org/1999/02/22-rdf-syntax-ns#">
   <cc:Work>
    <dc:type rdf:resource="http://purl.org/dc/dcmitype/StillImage"/>
    <dc:date>2023-02-20T17:48:50.761795</dc:date>
    <dc:format>image/svg+xml</dc:format>
    <dc:creator>
     <cc:Agent>
      <dc:title>Matplotlib v3.7.0, https://matplotlib.org/</dc:title>
     </cc:Agent>
    </dc:creator>
   </cc:Work>
  </rdf:RDF>
 </metadata>
 <defs>
  <style type="text/css">*{stroke-linejoin: round; stroke-linecap: butt}</style>
 </defs>
 <g id="figure_1">
  <g id="patch_1">
   <path d="M 0 435.295625 
L 668.549688 435.295625 
L 668.549688 0 
L 0 0 
z
" style="fill: #ffffff"/>
  </g>
  <g id="axes_1">
   <g id="patch_2">
    <path d="M 103.349688 364.07625 
L 661.349688 364.07625 
L 661.349688 31.43625 
L 103.349688 31.43625 
z
" style="fill: #ffffff"/>
   </g>
   <g id="PolyCollection_1">
    <path d="M 128.713324 145.038264 
L 128.713324 175.641443 
L 129.731944 173.275375 
L 130.750564 174.535172 
L 131.769184 171.241805 
L 132.787804 170.219572 
L 133.806424 169.248063 
L 134.825043 168.155475 
L 135.843663 165.998456 
L 136.862283 167.552014 
L 137.880903 168.960451 
L 138.899523 169.278574 
L 139.918143 168.270855 
L 140.936763 169.421933 
L 141.955383 170.327927 
L 142.974003 172.85227 
L 143.992623 174.859249 
L 145.011243 177.12334 
L 146.029863 179.134965 
L 147.048483 180.899253 
L 148.067103 184.039908 
L 149.085723 188.410433 
L 150.104342 190.23563 
L 151.122962 193.50891 
L 152.141582 196.822186 
L 153.160202 200.867582 
L 154.178822 207.045375 
L 155.197442 212.895934 
L 156.216062 216.433501 
L 157.234682 221.497094 
L 158.253302 226.452562 
L 159.271922 228.26234 
L 160.290542 231.491905 
L 161.309162 240.449901 
L 162.327782 237.345377 
L 163.346402 244.235258 
L 164.365022 249.121648 
L 165.383641 249.930868 
L 166.402261 248.750969 
L 167.420881 248.222971 
L 168.439501 247.35636 
L 169.458121 251.714526 
L 170.476741 253.544216 
L 171.495361 249.521933 
L 172.513981 250.876588 
L 173.532601 250.585843 
L 174.551221 253.688632 
L 175.569841 256.329799 
L 176.588461 252.050005 
L 177.607081 256.611761 
L 178.625701 257.725148 
L 179.644321 259.75723 
L 180.662941 265.940525 
L 181.68156 269.138006 
L 182.70018 271.487529 
L 183.7188 274.851038 
L 184.73742 277.162474 
L 185.75604 280.048596 
L 186.77466 280.10527 
L 187.79328 284.886451 
L 188.8119 286.749431 
L 189.83052 285.157031 
L 190.84914 288.329831 
L 191.86776 287.375861 
L 192.88638 289.262 
L 193.905 293.115708 
L 194.92362 294.862281 
L 195.94224 295.055282 
L 196.960859 298.169037 
L 197.979479 302.566167 
L 198.998099 299.673828 
L 200.016719 304.579499 
L 201.035339 307.548177 
L 202.053959 309.279776 
L 203.072579 311.190239 
L 204.091199 307.756494 
L 205.109819 312.204521 
L 206.128439 314.284764 
L 207.147059 309.663354 
L 208.165679 309.802083 
L 209.184299 303.135295 
L 210.202919 298.235284 
L 211.221539 305.091855 
L 212.240158 296.834479 
L 213.258778 289.399446 
L 214.277398 288.202327 
L 215.296018 281.506706 
L 216.314638 274.897747 
L 217.333258 272.416746 
L 218.351878 263.231391 
L 219.370498 257.192227 
L 220.389118 253.885491 
L 221.407738 246.07855 
L 222.426358 240.540676 
L 223.444978 240.248572 
L 224.463598 232.523468 
L 225.482218 235.336896 
L 226.500838 230.736615 
L 227.519457 225.724602 
L 228.538077 229.868368 
L 229.556697 225.488616 
L 230.575317 222.008513 
L 231.593937 219.350362 
L 232.612557 216.248843 
L 233.631177 216.418617 
L 234.649797 213.3656 
L 235.668417 211.612728 
L 236.687037 207.921878 
L 237.705657 209.536627 
L 238.724277 207.242827 
L 239.742897 205.660072 
L 240.761517 204.006381 
L 241.780137 201.837823 
L 242.798757 202.196165 
L 243.817376 201.073829 
L 244.835996 200.038703 
L 245.854616 198.412421 
L 246.873236 198.301318 
L 247.891856 198.113923 
L 248.910476 197.334554 
L 249.929096 196.057161 
L 250.947716 194.771808 
L 251.966336 195.887593 
L 252.984956 191.75421 
L 254.003576 187.478611 
L 255.022196 183.205696 
L 256.040816 184.429503 
L 257.059436 182.215245 
L 258.078056 182.165631 
L 259.096675 178.190522 
L 260.115295 176.651285 
L 261.133915 174.439135 
L 262.152535 174.778219 
L 263.171155 171.71794 
L 264.189775 167.842062 
L 265.208395 164.782183 
L 266.227015 161.572018 
L 267.245635 157.438243 
L 268.264255 153.690545 
L 269.282875 151.117621 
L 270.301495 152.130155 
L 271.320115 145.218296 
L 272.338735 146.893971 
L 273.357355 143.516914 
L 274.375974 141.674526 
L 275.394594 139.273035 
L 276.413214 140.026744 
L 277.431834 140.98695 
L 278.450454 141.014575 
L 279.469074 144.233806 
L 280.487694 142.645056 
L 281.506314 142.958654 
L 282.524934 144.228716 
L 283.543554 143.608101 
L 284.562174 144.989838 
L 285.580794 144.229356 
L 286.599414 146.436847 
L 287.618034 149.018279 
L 288.636654 144.784209 
L 289.655273 148.005102 
L 290.673893 150.518629 
L 291.692513 152.34889 
L 292.711133 152.174008 
L 293.729753 151.500237 
L 294.748373 151.235229 
L 295.766993 155.193314 
L 296.785613 154.046675 
L 297.804233 154.5874 
L 298.822853 155.552356 
L 299.841473 153.03619 
L 300.860093 153.352817 
L 301.878713 152.878121 
L 302.897333 155.244649 
L 303.915953 154.139571 
L 304.934572 153.919557 
L 305.953192 154.94991 
L 306.971812 154.240198 
L 307.990432 152.485975 
L 309.009052 151.758333 
L 310.027672 151.746518 
L 311.046292 150.25254 
L 312.064912 150.795727 
L 313.083532 148.085966 
L 314.102152 151.266084 
L 315.120772 148.551024 
L 316.139392 149.489293 
L 317.158012 148.166071 
L 318.176632 149.544049 
L 319.195252 148.370466 
L 320.213872 145.510293 
L 321.232491 146.786032 
L 322.251111 144.828979 
L 323.269731 147.477748 
L 324.288351 147.803869 
L 325.306971 144.638621 
L 326.325591 145.493805 
L 327.344211 146.083172 
L 328.362831 143.026997 
L 329.381451 144.358591 
L 330.400071 139.390305 
L 331.418691 136.344911 
L 332.437311 135.823586 
L 333.455931 134.708737 
L 334.474551 135.313704 
L 335.493171 130.450263 
L 336.51179 129.670994 
L 337.53041 130.052322 
L 338.54903 125.818343 
L 339.56765 127.133802 
L 340.58627 124.75786 
L 341.60489 124.087 
L 342.62351 124.115633 
L 343.64213 122.824799 
L 344.66075 123.365583 
L 345.67937 119.532728 
L 346.69799 118.961117 
L 347.71661 119.257291 
L 348.73523 118.082084 
L 349.75385 118.730074 
L 350.77247 117.922746 
L 351.791089 115.990929 
L 352.809709 114.002326 
L 353.828329 113.151258 
L 354.846949 114.039512 
L 355.865569 111.186732 
L 356.884189 108.233075 
L 357.902809 108.886739 
L 358.921429 106.216385 
L 359.940049 105.225072 
L 360.958669 105.115244 
L 361.977289 104.342545 
L 362.995909 103.71237 
L 364.014529 102.258564 
L 365.033149 101.498358 
L 366.051769 101.853167 
L 367.070388 99.476952 
L 368.089008 99.105076 
L 369.107628 101.000654 
L 370.126248 101.287241 
L 371.144868 103.832969 
L 372.163488 102.393626 
L 373.182108 105.312363 
L 374.200728 107.984206 
L 375.219348 106.798076 
L 376.237968 110.033761 
L 377.256588 112.966916 
L 378.275208 113.412077 
L 379.293828 115.559098 
L 380.312448 118.43025 
L 381.331068 118.525828 
L 382.349688 118.385441 
L 383.368307 120.563553 
L 384.386927 123.586556 
L 385.405547 122.438677 
L 386.424167 121.671809 
L 387.442787 127.112778 
L 388.461407 125.936494 
L 389.480027 130.717272 
L 390.498647 134.00777 
L 391.517267 137.521665 
L 392.535887 141.113232 
L 393.554507 143.011826 
L 394.573127 149.300735 
L 395.591747 154.249051 
L 396.610367 159.041125 
L 397.628987 163.449333 
L 398.647606 168.399992 
L 399.666226 173.428155 
L 400.684846 179.332875 
L 401.703466 183.059242 
L 402.722086 186.867629 
L 403.740706 189.998834 
L 404.759326 191.813646 
L 405.777946 196.833069 
L 406.796566 199.898529 
L 407.815186 204.29775 
L 408.833806 205.562332 
L 409.852426 209.055518 
L 410.871046 212.21083 
L 411.889666 216.991223 
L 412.908286 218.91092 
L 413.926905 222.481707 
L 414.945525 224.100949 
L 415.964145 227.315366 
L 416.982765 227.173586 
L 418.001385 226.570316 
L 419.020005 227.58979 
L 420.038625 227.459494 
L 421.057245 225.626958 
L 422.075865 230.908457 
L 423.094485 231.984018 
L 424.113105 233.422715 
L 425.131725 235.69304 
L 426.150345 237.562383 
L 427.168965 237.787219 
L 428.187585 239.846687 
L 429.206204 242.778369 
L 430.224824 243.134708 
L 431.243444 249.736117 
L 432.262064 253.742644 
L 433.280684 253.519287 
L 434.299304 259.365542 
L 435.317924 263.721578 
L 436.336544 267.927685 
L 437.355164 269.674238 
L 438.373784 273.850899 
L 439.392404 275.737888 
L 440.411024 279.727054 
L 441.429644 289.69578 
L 442.448264 292.382106 
L 443.466884 293.964821 
L 444.485503 298.676066 
L 445.504123 300.409883 
L 446.522743 303.174368 
L 447.541363 307.089462 
L 448.559983 306.278357 
L 449.578603 309.03038 
L 450.597223 310.378069 
L 451.615843 312.061537 
L 452.634463 312.909177 
L 453.653083 314.476911 
L 454.671703 317.717716 
L 455.690323 317.473356 
L 456.708943 317.99409 
L 457.727563 319.719672 
L 458.746183 323.247386 
L 459.764803 327.015919 
L 460.783422 328.534836 
L 461.802042 327.39331 
L 462.820662 328.865774 
L 463.839282 328.989669 
L 464.857902 330.206476 
L 465.876522 331.15194 
L 466.895142 329.989942 
L 467.913762 332.943464 
L 468.932382 333.368109 
L 469.951002 332.763078 
L 470.969622 333.935046 
L 471.988242 335.483041 
L 473.006862 335.480558 
L 474.025482 333.504495 
L 475.044102 333.092179 
L 476.062721 332.903092 
L 477.081341 330.932925 
L 478.099961 331.006674 
L 479.118581 327.901222 
L 480.137201 327.499767 
L 481.155821 327.310744 
L 482.174441 327.791208 
L 483.193061 326.451988 
L 484.211681 329.86692 
L 485.230301 329.194659 
L 486.248921 332.229083 
L 487.267541 333.728732 
L 488.286161 336.473507 
L 489.304781 337.106292 
L 490.323401 339.105061 
L 491.34202 339.303564 
L 492.36064 341.079397 
L 493.37926 343.364054 
L 494.39788 345.901743 
L 495.4165 345.277477 
L 496.43512 346.018692 
L 497.45374 346.692782 
L 498.47236 348.009341 
L 499.49098 343.672177 
L 500.5096 340.284574 
L 501.52822 335.04376 
L 502.54684 335.735649 
L 503.56546 333.081667 
L 504.58408 333.572291 
L 505.6027 331.572894 
L 506.621319 334.88841 
L 507.639939 331.160648 
L 508.658559 331.010917 
L 509.677179 327.786252 
L 510.695799 329.100319 
L 511.714419 328.671087 
L 512.733039 326.254886 
L 513.751659 327.151828 
L 514.770279 331.78516 
L 515.788899 335.158742 
L 516.807519 331.70849 
L 517.826139 332.386759 
L 518.844759 335.009368 
L 519.863379 337.046757 
L 520.881999 335.897818 
L 521.900618 338.298161 
L 522.919238 341.068122 
L 523.937858 343.78966 
L 524.956478 343.36396 
L 525.975098 340.715918 
L 526.993718 341.978454 
L 528.012338 341.467846 
L 529.030958 340.873295 
L 530.049578 342.18436 
L 531.068198 342.079943 
L 532.086818 339.698216 
L 533.105438 340.110704 
L 534.124058 340.620518 
L 535.142678 342.271434 
L 536.161298 343.845954 
L 537.179918 344.907053 
L 538.198537 343.681251 
L 539.217157 343.843107 
L 540.235777 340.739353 
L 541.254397 342.091871 
L 542.273017 337.568855 
L 543.291637 337.340577 
L 544.310257 336.645353 
L 545.328877 331.924528 
L 546.347497 332.369638 
L 547.366117 328.185752 
L 548.384737 323.628442 
L 549.403357 324.128124 
L 550.421977 321.141228 
L 551.440597 320.119597 
L 552.459217 320.914568 
L 553.477836 316.343023 
L 554.496456 315.832861 
L 555.515076 316.147172 
L 556.533696 314.417175 
L 557.552316 316.594785 
L 558.570936 317.719574 
L 559.589556 318.545003 
L 560.608176 319.781898 
L 561.626796 319.715689 
L 562.645416 320.122449 
L 563.664036 321.559807 
L 564.682656 321.656494 
L 565.701276 323.915305 
L 566.719896 325.455279 
L 567.738516 322.328085 
L 568.757135 322.321057 
L 569.775755 322.889296 
L 570.794375 320.480507 
L 571.812995 320.597999 
L 572.831615 316.538778 
L 573.850235 313.043922 
L 574.868855 314.486866 
L 575.887475 312.017348 
L 576.906095 316.19439 
L 577.924715 311.126974 
L 578.943335 311.890091 
L 579.961955 310.184269 
L 580.980575 310.932106 
L 581.999195 310.558579 
L 583.017815 311.621269 
L 584.036434 314.251884 
L 585.055054 311.670759 
L 586.073674 312.176483 
L 587.092294 308.365604 
L 588.110914 309.580929 
L 589.129534 309.629423 
L 590.148154 315.001984 
L 591.166774 316.718457 
L 592.185394 310.644022 
L 593.204014 312.645008 
L 594.222634 312.745055 
L 595.241254 314.728008 
L 596.259874 315.035066 
L 597.278494 314.60092 
L 598.297114 315.455434 
L 599.315734 315.815587 
L 600.334353 315.190175 
L 601.352973 315.905512 
L 602.371593 314.544367 
L 603.390213 315.91672 
L 604.408833 316.648979 
L 605.427453 320.098197 
L 606.446073 319.52308 
L 607.464693 322.877359 
L 608.483313 324.690627 
L 609.501933 324.917429 
L 610.520553 324.659557 
L 611.539173 327.939438 
L 612.557793 328.965018 
L 613.576413 332.839938 
L 614.595033 334.417555 
L 615.613652 335.381579 
L 616.632272 338.922501 
L 617.650892 340.019653 
L 618.669512 341.057474 
L 619.688132 343.839753 
L 620.706752 348.95625 
L 621.725372 347.183855 
L 622.743992 345.606581 
L 623.762612 343.264791 
L 624.781232 346.563697 
L 625.799852 344.18506 
L 626.818472 343.978817 
L 627.837092 340.033379 
L 628.855712 341.058333 
L 629.874332 340.653022 
L 630.892951 339.734192 
L 631.911571 335.678167 
L 632.930191 335.949795 
L 633.948811 335.261475 
L 634.967431 329.899427 
L 635.986051 329.124019 
L 635.986051 172.027685 
L 635.986051 172.027685 
L 634.967431 171.997187 
L 633.948811 174.024291 
L 632.930191 174.231047 
L 631.911571 171.90243 
L 630.892951 171.322135 
L 629.874332 170.513824 
L 628.855712 169.092497 
L 627.837092 165.636647 
L 626.818472 166.965917 
L 625.799852 163.506783 
L 624.781232 162.268623 
L 623.762612 162.609768 
L 622.743992 158.844658 
L 621.725372 160.918211 
L 620.706752 160.099076 
L 619.688132 155.502669 
L 618.669512 153.297136 
L 617.650892 153.064805 
L 616.632272 152.612764 
L 615.613652 149.500892 
L 614.595033 149.10288 
L 613.576413 147.848806 
L 612.557793 143.646866 
L 611.539173 143.464513 
L 610.520553 140.276897 
L 609.501933 141.050967 
L 608.483313 141.682259 
L 607.464693 140.105306 
L 606.446073 136.321445 
L 605.427453 137.813627 
L 604.408833 134.353851 
L 603.390213 133.37183 
L 602.371593 131.340699 
L 601.352973 133.455257 
L 600.334353 132.64347 
L 599.315734 133.745543 
L 598.297114 133.149411 
L 597.278494 131.591181 
L 596.259874 132.336249 
L 595.241254 131.940163 
L 594.222634 128.437893 
L 593.204014 127.108965 
L 592.185394 123.297872 
L 591.166774 126.284269 
L 590.148154 125.415905 
L 589.129534 122.026279 
L 588.110914 122.383658 
L 587.092294 121.112523 
L 586.073674 121.256473 
L 585.055054 121.80601 
L 584.036434 124.612246 
L 583.017815 124.461337 
L 581.999195 127.097481 
L 580.980575 129.413147 
L 579.961955 130.028439 
L 578.943335 130.315973 
L 577.924715 133.058049 
L 576.906095 136.654425 
L 575.887475 136.583887 
L 574.868855 136.93913 
L 573.850235 137.133791 
L 572.831615 140.471955 
L 571.812995 142.715479 
L 570.794375 142.3849 
L 569.775755 145.756979 
L 568.757135 143.147842 
L 567.738516 143.610582 
L 566.719896 143.711069 
L 565.701276 140.641563 
L 564.682656 137.982566 
L 563.664036 137.713177 
L 562.645416 136.208663 
L 561.626796 134.750899 
L 560.608176 134.369002 
L 559.589556 131.770236 
L 558.570936 130.618367 
L 557.552316 129.143204 
L 556.533696 126.273436 
L 555.515076 128.321192 
L 554.496456 127.058311 
L 553.477836 127.249223 
L 552.459217 130.353315 
L 551.440597 128.869859 
L 550.421977 129.102971 
L 549.403357 131.092346 
L 548.384737 129.397582 
L 547.366117 132.513509 
L 546.347497 136.595708 
L 545.328877 136.907673 
L 544.310257 140.552509 
L 543.291637 141.329364 
L 542.273017 139.950579 
L 541.254397 143.243752 
L 540.235777 143.003068 
L 539.217157 143.790026 
L 538.198537 144.253035 
L 537.179918 145.298323 
L 536.161298 143.356551 
L 535.142678 142.003781 
L 534.124058 139.104189 
L 533.105438 137.763366 
L 532.086818 137.283792 
L 531.068198 139.110007 
L 530.049578 139.394828 
L 529.030958 136.381436 
L 528.012338 137.255869 
L 526.993718 135.63965 
L 525.975098 135.676602 
L 524.956478 138.359439 
L 523.937858 136.449016 
L 522.919238 135.315788 
L 521.900618 136.847568 
L 520.881999 134.466962 
L 519.863379 134.722223 
L 518.844759 136.649767 
L 517.826139 134.924524 
L 516.807519 135.18402 
L 515.788899 134.57703 
L 514.770279 134.989636 
L 513.751659 134.031704 
L 512.733039 135.126024 
L 511.714419 136.616729 
L 510.695799 137.071114 
L 509.677179 138.984464 
L 508.658559 139.497545 
L 507.639939 141.248793 
L 506.621319 144.076916 
L 505.6027 142.288254 
L 504.58408 146.268877 
L 503.56546 146.668946 
L 502.54684 146.380233 
L 501.52822 146.252138 
L 500.5096 148.8875 
L 499.49098 148.516013 
L 498.47236 150.930289 
L 497.45374 148.890659 
L 496.43512 149.213855 
L 495.4165 148.286985 
L 494.39788 150.564362 
L 493.37926 149.196491 
L 492.36064 146.356675 
L 491.34202 144.792014 
L 490.323401 148.133304 
L 489.304781 147.866528 
L 488.286161 149.189875 
L 487.267541 147.660141 
L 486.248921 147.647034 
L 485.230301 145.009277 
L 484.211681 148.749069 
L 483.193061 145.349089 
L 482.174441 147.775874 
L 481.155821 147.25826 
L 480.137201 149.215622 
L 479.118581 149.170572 
L 478.099961 153.73141 
L 477.081341 154.390288 
L 476.062721 158.072861 
L 475.044102 158.649988 
L 474.025482 159.476576 
L 473.006862 163.196371 
L 471.988242 163.952904 
L 470.969622 161.169509 
L 469.951002 160.722086 
L 468.932382 161.510158 
L 467.913762 161.959627 
L 466.895142 158.320326 
L 465.876522 160.746915 
L 464.857902 160.279868 
L 463.839282 158.576117 
L 462.820662 159.198653 
L 461.802042 157.469826 
L 460.783422 159.791445 
L 459.764803 157.655577 
L 458.746183 159.046925 
L 457.727563 158.190325 
L 456.708943 159.542852 
L 455.690323 159.466184 
L 454.671703 159.168494 
L 453.653083 159.161119 
L 452.634463 159.050559 
L 451.615843 159.952298 
L 450.597223 159.595157 
L 449.578603 159.4618 
L 448.559983 157.39396 
L 447.541363 160.602518 
L 446.522743 156.189773 
L 445.504123 153.17582 
L 444.485503 151.362674 
L 443.466884 146.565557 
L 442.448264 145.435115 
L 441.429644 142.723859 
L 440.411024 135.882081 
L 439.392404 132.764738 
L 438.373784 132.184529 
L 437.355164 128.371689 
L 436.336544 128.944341 
L 435.317924 125.999549 
L 434.299304 123.604193 
L 433.280684 121.816063 
L 432.262064 121.276604 
L 431.243444 118.555733 
L 430.224824 113.386727 
L 429.206204 112.861298 
L 428.187585 113.826065 
L 427.168965 111.967875 
L 426.150345 111.582679 
L 425.131725 112.206737 
L 424.113105 111.22105 
L 423.094485 111.687399 
L 422.075865 112.298092 
L 421.057245 108.765884 
L 420.038625 110.665096 
L 419.020005 111.23126 
L 418.001385 109.761341 
L 416.982765 111.114237 
L 415.964145 113.237549 
L 414.945525 110.603962 
L 413.926905 110.924914 
L 412.908286 108.416533 
L 411.889666 107.917403 
L 410.871046 105.663651 
L 409.852426 105.068449 
L 408.833806 102.586843 
L 407.815186 102.335986 
L 406.796566 100.504875 
L 405.777946 99.847414 
L 404.759326 95.228103 
L 403.740706 95.77102 
L 402.722086 93.577679 
L 401.703466 93.351219 
L 400.684846 92.031375 
L 399.666226 89.727426 
L 398.647606 86.791663 
L 397.628987 85.772329 
L 396.610367 83.209378 
L 395.591747 81.119072 
L 394.573127 78.577352 
L 393.554507 74.840018 
L 392.535887 73.568761 
L 391.517267 71.283531 
L 390.498647 69.228956 
L 389.480027 68.621593 
L 388.461407 66.009729 
L 387.442787 65.241973 
L 386.424167 63.358084 
L 385.405547 65.490359 
L 384.386927 65.998716 
L 383.368307 65.725515 
L 382.349688 65.162894 
L 381.331068 62.656086 
L 380.312448 63.227376 
L 379.293828 62.891105 
L 378.275208 62.117435 
L 377.256588 61.587849 
L 376.237968 59.548794 
L 375.219348 57.159622 
L 374.200728 58.407145 
L 373.182108 56.751027 
L 372.163488 53.30828 
L 371.144868 51.930746 
L 370.126248 50.205324 
L 369.107628 48.806154 
L 368.089008 47.114421 
L 367.070388 46.882759 
L 366.051769 49.657983 
L 365.033149 46.55625 
L 364.014529 49.273875 
L 362.995909 49.648288 
L 361.977289 49.250705 
L 360.958669 48.638616 
L 359.940049 48.42426 
L 358.921429 48.910847 
L 357.902809 50.667302 
L 356.884189 48.475081 
L 355.865569 51.703421 
L 354.846949 54.417182 
L 353.828329 52.129629 
L 352.809709 52.74644 
L 351.791089 53.689373 
L 350.77247 55.160581 
L 349.75385 55.87272 
L 348.73523 54.642575 
L 347.71661 55.829338 
L 346.69799 55.206251 
L 345.67937 54.763934 
L 344.66075 57.699614 
L 343.64213 58.542851 
L 342.62351 56.597094 
L 341.60489 57.655209 
L 340.58627 58.297765 
L 339.56765 60.020985 
L 338.54903 58.107725 
L 337.53041 60.833037 
L 336.51179 60.315499 
L 335.493171 60.223393 
L 334.474551 64.539922 
L 333.455931 63.973687 
L 332.437311 65.871056 
L 331.418691 67.656213 
L 330.400071 69.159576 
L 329.381451 74.742238 
L 328.362831 73.821384 
L 327.344211 76.985174 
L 326.325591 77.663944 
L 325.306971 78.897663 
L 324.288351 81.56607 
L 323.269731 81.959999 
L 322.251111 80.584335 
L 321.232491 82.542588 
L 320.213872 81.929393 
L 319.195252 83.713955 
L 318.176632 84.537327 
L 317.158012 84.820586 
L 316.139392 85.1476 
L 315.120772 84.464473 
L 314.102152 85.671916 
L 313.083532 81.774919 
L 312.064912 83.302588 
L 311.046292 83.838 
L 310.027672 85.514302 
L 309.009052 85.67547 
L 307.990432 84.930827 
L 306.971812 87.785718 
L 305.953192 87.262958 
L 304.934572 86.01484 
L 303.915953 86.171333 
L 302.897333 86.811641 
L 301.878713 86.251851 
L 300.860093 86.688735 
L 299.841473 86.532468 
L 298.822853 88.253503 
L 297.804233 87.572241 
L 296.785613 86.455951 
L 295.766993 87.148275 
L 294.748373 83.468747 
L 293.729753 84.220524 
L 292.711133 84.840673 
L 291.692513 86.512062 
L 290.673893 87.713574 
L 289.655273 85.045421 
L 288.636654 85.174543 
L 287.618034 89.102062 
L 286.599414 88.22101 
L 285.580794 87.588671 
L 284.562174 86.044677 
L 283.543554 90.429212 
L 282.524934 89.548163 
L 281.506314 89.496039 
L 280.487694 91.008059 
L 279.469074 91.243984 
L 278.450454 91.072715 
L 277.431834 90.447597 
L 276.413214 88.96508 
L 275.394594 88.844098 
L 274.375974 89.235455 
L 273.357355 88.339549 
L 272.338735 90.497897 
L 271.320115 86.055631 
L 270.301495 91.334736 
L 269.282875 86.448878 
L 268.264255 89.920758 
L 267.245635 91.118924 
L 266.227015 91.308358 
L 265.208395 94.285766 
L 264.189775 95.793839 
L 263.171155 98.076139 
L 262.152535 100.601774 
L 261.133915 99.62395 
L 260.115295 101.665187 
L 259.096675 102.396201 
L 258.078056 105.697168 
L 257.059436 106.799067 
L 256.040816 109.228704 
L 255.022196 110.803812 
L 254.003576 114.534352 
L 252.984956 116.881932 
L 251.966336 119.637467 
L 250.947716 119.663341 
L 249.929096 121.147298 
L 248.910476 121.964974 
L 247.891856 122.980745 
L 246.873236 121.891521 
L 245.854616 122.45622 
L 244.835996 125.287252 
L 243.817376 125.248254 
L 242.798757 127.797417 
L 241.780137 127.635441 
L 240.761517 128.627542 
L 239.742897 130.409245 
L 238.724277 133.206064 
L 237.705657 135.810679 
L 236.687037 135.28704 
L 235.668417 138.522876 
L 234.649797 141.939102 
L 233.631177 144.046365 
L 232.612557 145.474934 
L 231.593937 147.864817 
L 230.575317 152.311691 
L 229.556697 154.943245 
L 228.538077 158.784254 
L 227.519457 158.073323 
L 226.500838 161.560779 
L 225.482218 165.911062 
L 224.463598 166.861989 
L 223.444978 169.565503 
L 222.426358 169.870322 
L 221.407738 172.13848 
L 220.389118 177.914176 
L 219.370498 181.046953 
L 218.351878 183.831942 
L 217.333258 190.554248 
L 216.314638 191.617808 
L 215.296018 196.14083 
L 214.277398 199.108735 
L 213.258778 199.563422 
L 212.240158 204.011993 
L 211.221539 207.046761 
L 210.202919 205.386323 
L 209.184299 207.592038 
L 208.165679 211.205431 
L 207.147059 210.652316 
L 206.128439 212.561367 
L 205.109819 210.690729 
L 204.091199 206.748549 
L 203.072579 209.515573 
L 202.053959 207.677889 
L 201.035339 208.790206 
L 200.016719 206.455902 
L 198.998099 204.308203 
L 197.979479 205.182753 
L 196.960859 205.073515 
L 195.94224 203.072643 
L 194.92362 204.06563 
L 193.905 205.54444 
L 192.88638 202.016053 
L 191.86776 202.397519 
L 190.84914 203.6736 
L 189.83052 201.656191 
L 188.8119 203.096454 
L 187.79328 203.465557 
L 186.77466 200.051235 
L 185.75604 199.254683 
L 184.73742 198.915736 
L 183.7188 197.255877 
L 182.70018 194.622967 
L 181.68156 194.108535 
L 180.662941 190.341425 
L 179.644321 186.382073 
L 178.625701 184.546636 
L 177.607081 183.055457 
L 176.588461 178.743519 
L 175.569841 179.948262 
L 174.551221 177.144531 
L 173.532601 174.291641 
L 172.513981 172.773908 
L 171.495361 169.801502 
L 170.476741 169.675628 
L 169.458121 168.768184 
L 168.439501 164.185472 
L 167.420881 164.31725 
L 166.402261 165.599851 
L 165.383641 165.100416 
L 164.365022 163.811052 
L 163.346402 160.614062 
L 162.327782 154.78965 
L 161.309162 154.043871 
L 160.290542 152.41535 
L 159.271922 149.746898 
L 158.253302 148.78278 
L 157.234682 148.462579 
L 156.216062 147.32552 
L 155.197442 145.370269 
L 154.178822 143.263789 
L 153.160202 141.783271 
L 152.141582 139.157726 
L 151.122962 141.206592 
L 150.104342 143.111086 
L 149.085723 145.454055 
L 148.067103 144.530915 
L 147.048483 143.841562 
L 146.029863 146.150016 
L 145.011243 149.13733 
L 143.992623 149.798916 
L 142.974003 151.404307 
L 141.955383 152.848022 
L 140.936763 155.325965 
L 139.918143 157.323163 
L 138.899523 161.528539 
L 137.880903 163.969282 
L 136.862283 162.154754 
L 135.843663 159.224387 
L 134.825043 157.601615 
L 133.806424 155.579616 
L 132.787804 151.965498 
L 131.769184 149.508772 
L 130.750564 149.882117 
L 129.731944 145.474814 
L 128.713324 145.038264 
z
" clip-path="url(#peb7979cb19)" style="fill: #1f77b4; fill-opacity: 0.5"/>
   </g>
   <g id="PolyCollection_2">
    <path d="M 128.713324 162.827364 
L 128.713324 174.208376 
L 129.731944 172.103993 
L 130.750564 171.544907 
L 131.769184 169.266805 
L 132.787804 168.871481 
L 133.806424 167.508921 
L 134.825043 167.050441 
L 135.843663 164.887306 
L 136.862283 163.023808 
L 137.880903 162.807202 
L 138.899523 161.801855 
L 139.918143 162.463526 
L 140.936763 161.950424 
L 141.955383 162.243829 
L 142.974003 162.13256 
L 143.992623 161.85105 
L 145.011243 162.555232 
L 146.029863 163.185045 
L 147.048483 164.822842 
L 148.067103 166.577297 
L 149.085723 169.323092 
L 150.104342 170.284177 
L 151.122962 171.035521 
L 152.141582 173.121224 
L 153.160202 175.668154 
L 154.178822 177.244594 
L 155.197442 177.241065 
L 156.216062 180.399657 
L 157.234682 183.474563 
L 158.253302 183.820949 
L 159.271922 183.724141 
L 160.290542 184.704794 
L 161.309162 185.78064 
L 162.327782 187.442833 
L 163.346402 189.670363 
L 164.365022 190.276243 
L 165.383641 190.470323 
L 166.402261 190.762242 
L 167.420881 192.01804 
L 168.439501 192.962818 
L 169.458121 193.143109 
L 170.476741 193.844286 
L 171.495361 193.637321 
L 172.513981 194.583259 
L 173.532601 194.892805 
L 174.551221 195.423188 
L 175.569841 195.292238 
L 176.588461 197.362642 
L 177.607081 196.110072 
L 178.625701 196.530611 
L 179.644321 196.583383 
L 180.662941 198.028816 
L 181.68156 200.004627 
L 182.70018 200.658081 
L 183.7188 201.414529 
L 184.73742 201.631577 
L 185.75604 202.842 
L 186.77466 203.30296 
L 187.79328 203.223469 
L 188.8119 201.807038 
L 189.83052 202.191615 
L 190.84914 201.705736 
L 191.86776 201.755769 
L 192.88638 200.530346 
L 193.905 198.739615 
L 194.92362 199.114255 
L 195.94224 198.569789 
L 196.960859 197.196329 
L 197.979479 195.118563 
L 198.998099 195.867373 
L 200.016719 194.443699 
L 201.035339 193.17584 
L 202.053959 193.685288 
L 203.072579 192.143868 
L 204.091199 191.692513 
L 205.109819 190.460074 
L 206.128439 188.677198 
L 207.147059 186.944738 
L 208.165679 187.046364 
L 209.184299 183.148237 
L 210.202919 182.593099 
L 211.221539 181.886951 
L 212.240158 182.045651 
L 213.258778 181.49925 
L 214.277398 180.179282 
L 215.296018 178.169767 
L 216.314638 178.210484 
L 217.333258 175.936521 
L 218.351878 175.856657 
L 219.370498 175.669717 
L 220.389118 173.58481 
L 221.407738 172.759196 
L 222.426358 173.116932 
L 223.444978 172.567905 
L 224.463598 170.738727 
L 225.482218 169.914516 
L 226.500838 169.962163 
L 227.519457 169.77902 
L 228.538077 169.652034 
L 229.556697 167.380859 
L 230.575317 169.781349 
L 231.593937 169.416134 
L 232.612557 167.41451 
L 233.631177 166.683231 
L 234.649797 166.340554 
L 235.668417 165.473775 
L 236.687037 164.188772 
L 237.705657 162.90792 
L 238.724277 160.906831 
L 239.742897 161.091496 
L 240.761517 159.477134 
L 241.780137 158.370414 
L 242.798757 157.699455 
L 243.817376 156.276436 
L 244.835996 153.76045 
L 245.854616 151.283324 
L 246.873236 149.670234 
L 247.891856 148.41256 
L 248.910476 146.808534 
L 249.929096 145.610969 
L 250.947716 145.672557 
L 251.966336 145.49118 
L 252.984956 142.58465 
L 254.003576 141.561905 
L 255.022196 139.967732 
L 256.040816 139.905144 
L 257.059436 138.661305 
L 258.078056 137.181526 
L 259.096675 136.618833 
L 260.115295 137.435258 
L 261.133915 135.636802 
L 262.152535 134.513458 
L 263.171155 134.24519 
L 264.189775 133.180117 
L 265.208395 131.508271 
L 266.227015 130.403406 
L 267.245635 128.964798 
L 268.264255 129.210721 
L 269.282875 127.189302 
L 270.301495 126.589207 
L 271.320115 125.767917 
L 272.338735 124.26309 
L 273.357355 124.572331 
L 274.375974 123.432477 
L 275.394594 122.811162 
L 276.413214 122.379075 
L 277.431834 123.653654 
L 278.450454 125.712706 
L 279.469074 125.673019 
L 280.487694 127.300419 
L 281.506314 128.384169 
L 282.524934 130.002668 
L 283.543554 133.144139 
L 284.562174 134.678994 
L 285.580794 137.115997 
L 286.599414 139.357566 
L 287.618034 142.355444 
L 288.636654 145.305642 
L 289.655273 148.319619 
L 290.673893 151.444353 
L 291.692513 154.159827 
L 292.711133 157.405415 
L 293.729753 165.414049 
L 294.748373 168.136162 
L 295.766993 170.762712 
L 296.785613 172.579063 
L 297.804233 175.369981 
L 298.822853 177.667329 
L 299.841473 180.218669 
L 300.860093 181.856638 
L 301.878713 184.375731 
L 302.897333 187.262141 
L 303.915953 190.176326 
L 304.934572 192.742957 
L 305.953192 195.210383 
L 306.971812 196.742986 
L 307.990432 198.603092 
L 309.009052 202.321932 
L 310.027672 203.934581 
L 311.046292 205.045622 
L 312.064912 207.557371 
L 313.083532 209.319865 
L 314.102152 211.13446 
L 315.120772 213.656001 
L 316.139392 213.413699 
L 317.158012 213.772465 
L 318.176632 215.192179 
L 319.195252 215.197218 
L 320.213872 215.066238 
L 321.232491 216.489207 
L 322.251111 217.288371 
L 323.269731 218.193662 
L 324.288351 219.66771 
L 325.306971 222.153978 
L 326.325591 222.874771 
L 327.344211 225.210551 
L 328.362831 227.934359 
L 329.381451 231.225041 
L 330.400071 229.942014 
L 331.418691 230.595459 
L 332.437311 232.070083 
L 333.455931 233.527494 
L 334.474551 234.468937 
L 335.493171 236.024802 
L 336.51179 237.845847 
L 337.53041 237.216603 
L 338.54903 238.57699 
L 339.56765 238.007019 
L 340.58627 238.640015 
L 341.60489 238.533104 
L 342.62351 238.383634 
L 343.64213 238.15398 
L 344.66075 237.213502 
L 345.67937 238.696311 
L 346.69799 238.614017 
L 347.71661 238.390547 
L 348.73523 238.138233 
L 349.75385 238.287201 
L 350.77247 235.386382 
L 351.791089 236.059447 
L 352.809709 236.739089 
L 353.828329 236.363986 
L 354.846949 237.00005 
L 355.865569 236.26354 
L 356.884189 233.423895 
L 357.902809 235.074735 
L 358.921429 236.982786 
L 359.940049 236.977396 
L 360.958669 235.533164 
L 361.977289 236.514286 
L 362.995909 235.65391 
L 364.014529 236.795895 
L 365.033149 236.918355 
L 366.051769 236.243591 
L 367.070388 234.070431 
L 368.089008 232.58775 
L 369.107628 230.591854 
L 370.126248 232.217825 
L 371.144868 229.147477 
L 372.163488 227.456737 
L 373.182108 225.810741 
L 374.200728 225.894461 
L 375.219348 224.433044 
L 376.237968 221.906969 
L 377.256588 220.434963 
L 378.275208 218.03765 
L 379.293828 217.159545 
L 380.312448 215.444636 
L 381.331068 212.451572 
L 382.349688 211.511839 
L 383.368307 208.542885 
L 384.386927 206.179971 
L 385.405547 204.919715 
L 386.424167 202.084075 
L 387.442787 201.625252 
L 388.461407 199.442895 
L 389.480027 197.891649 
L 390.498647 195.758157 
L 391.517267 194.50609 
L 392.535887 191.54927 
L 393.554507 189.902639 
L 394.573127 188.89663 
L 395.591747 188.664176 
L 396.610367 186.859979 
L 397.628987 184.432092 
L 398.647606 184.252403 
L 399.666226 182.994458 
L 400.684846 182.768053 
L 401.703466 180.668202 
L 402.722086 179.788069 
L 403.740706 177.464132 
L 404.759326 178.296493 
L 405.777946 176.979138 
L 406.796566 176.957054 
L 407.815186 177.219911 
L 408.833806 176.807736 
L 409.852426 174.572816 
L 410.871046 174.011284 
L 411.889666 172.778713 
L 412.908286 171.86069 
L 413.926905 171.690513 
L 414.945525 171.67592 
L 415.964145 171.186552 
L 416.982765 169.486965 
L 418.001385 170.357182 
L 419.020005 167.977891 
L 420.038625 169.542499 
L 421.057245 169.444047 
L 422.075865 169.933638 
L 423.094485 170.958866 
L 424.113105 172.597882 
L 425.131725 173.355716 
L 426.150345 174.977542 
L 427.168965 177.638412 
L 428.187585 177.61592 
L 429.206204 177.281157 
L 430.224824 178.640016 
L 431.243444 180.554162 
L 432.262064 182.821139 
L 433.280684 184.877241 
L 434.299304 184.569696 
L 435.317924 185.641014 
L 436.336544 186.913972 
L 437.355164 187.566483 
L 438.373784 187.061369 
L 439.392404 187.153303 
L 440.411024 187.767604 
L 441.429644 187.449938 
L 442.448264 186.256062 
L 443.466884 186.756736 
L 444.485503 186.752811 
L 445.504123 186.744881 
L 446.522743 186.49537 
L 447.541363 187.630066 
L 448.559983 189.188461 
L 449.578603 191.04569 
L 450.597223 190.784853 
L 451.615843 192.712609 
L 452.634463 192.830052 
L 453.653083 192.094795 
L 454.671703 192.203599 
L 455.690323 193.490324 
L 456.708943 193.777895 
L 457.727563 193.768083 
L 458.746183 193.520799 
L 459.764803 192.762644 
L 460.783422 191.717245 
L 461.802042 190.9438 
L 462.820662 190.469421 
L 463.839282 193.462587 
L 464.857902 192.629896 
L 465.876522 192.656704 
L 466.895142 192.988836 
L 467.913762 192.345434 
L 468.932382 191.215238 
L 469.951002 192.080258 
L 470.969622 192.42488 
L 471.988242 192.731947 
L 473.006862 192.802296 
L 474.025482 193.637294 
L 475.044102 193.338389 
L 476.062721 194.146677 
L 477.081341 194.830735 
L 478.099961 194.865139 
L 479.118581 195.414548 
L 480.137201 194.641065 
L 481.155821 194.495507 
L 482.174441 194.42013 
L 483.193061 194.32495 
L 484.211681 194.082959 
L 485.230301 194.678282 
L 486.248921 195.575193 
L 487.267541 197.46917 
L 488.286161 198.379517 
L 489.304781 198.618142 
L 490.323401 198.393573 
L 491.34202 199.075177 
L 492.36064 199.23902 
L 493.37926 200.622196 
L 494.39788 201.003812 
L 495.4165 199.599759 
L 496.43512 201.621456 
L 497.45374 202.900089 
L 498.47236 205.918164 
L 499.49098 204.909249 
L 500.5096 204.640122 
L 501.52822 206.099805 
L 502.54684 207.421575 
L 503.56546 207.556065 
L 504.58408 208.601884 
L 505.6027 209.484721 
L 506.621319 208.003125 
L 507.639939 208.250485 
L 508.658559 209.108822 
L 509.677179 208.978291 
L 510.695799 209.493651 
L 511.714419 209.635927 
L 512.733039 209.546578 
L 513.751659 210.350978 
L 514.770279 209.361391 
L 515.788899 209.538225 
L 516.807519 209.374431 
L 517.826139 209.704394 
L 518.844759 210.068033 
L 519.863379 211.238703 
L 520.881999 209.872864 
L 521.900618 212.477913 
L 522.919238 212.088481 
L 523.937858 212.823872 
L 524.956478 214.470664 
L 525.975098 215.700919 
L 526.993718 214.363709 
L 528.012338 216.81109 
L 529.030958 216.002368 
L 530.049578 216.153118 
L 531.068198 215.975504 
L 532.086818 216.39276 
L 533.105438 217.033638 
L 534.124058 216.786868 
L 535.142678 218.39839 
L 536.161298 217.399758 
L 537.179918 216.533694 
L 538.198537 215.618231 
L 539.217157 216.686386 
L 540.235777 214.317284 
L 541.254397 212.241912 
L 542.273017 213.877269 
L 543.291637 213.417579 
L 544.310257 211.243577 
L 545.328877 210.577617 
L 546.347497 210.202188 
L 547.366117 209.951082 
L 548.384737 209.604275 
L 549.403357 208.648005 
L 550.421977 208.348876 
L 551.440597 206.492372 
L 552.459217 207.689889 
L 553.477836 205.244955 
L 554.496456 204.806644 
L 555.515076 204.560472 
L 556.533696 203.280202 
L 557.552316 203.101323 
L 558.570936 203.558592 
L 559.589556 202.003305 
L 560.608176 201.317498 
L 561.626796 201.056418 
L 562.645416 199.686549 
L 563.664036 199.199155 
L 564.682656 197.351882 
L 565.701276 197.543853 
L 566.719896 197.850994 
L 567.738516 196.60751 
L 568.757135 195.459639 
L 569.775755 195.907101 
L 570.794375 195.933983 
L 571.812995 196.716758 
L 572.831615 195.447851 
L 573.850235 194.396954 
L 574.868855 193.283495 
L 575.887475 193.772125 
L 576.906095 191.942752 
L 577.924715 191.627216 
L 578.943335 190.817062 
L 579.961955 189.026405 
L 580.980575 187.16508 
L 581.999195 186.55332 
L 583.017815 184.925433 
L 584.036434 184.056429 
L 585.055054 182.154426 
L 586.073674 181.96213 
L 587.092294 179.976471 
L 588.110914 177.636663 
L 589.129534 177.071447 
L 590.148154 177.695406 
L 591.166774 177.120554 
L 592.185394 175.857515 
L 593.204014 173.779213 
L 594.222634 172.896272 
L 595.241254 172.89503 
L 596.259874 170.852822 
L 597.278494 168.324152 
L 598.297114 168.9071 
L 599.315734 165.948571 
L 600.334353 165.459751 
L 601.352973 163.305171 
L 602.371593 163.735368 
L 603.390213 162.418665 
L 604.408833 160.463799 
L 605.427453 160.283273 
L 606.446073 161.587709 
L 607.464693 172.63439 
L 608.483313 172.108064 
L 609.501933 170.31444 
L 610.520553 169.11202 
L 611.539173 169.603167 
L 612.557793 168.097372 
L 613.576413 166.856878 
L 614.595033 166.803486 
L 615.613652 165.80463 
L 616.632272 164.74017 
L 617.650892 164.070407 
L 618.669512 165.497121 
L 619.688132 164.985075 
L 620.706752 165.046427 
L 621.725372 164.991074 
L 622.743992 167.066141 
L 623.762612 167.319726 
L 624.781232 167.970822 
L 625.799852 168.552297 
L 626.818472 167.524107 
L 627.837092 166.567415 
L 628.855712 167.214426 
L 629.874332 166.957954 
L 630.892951 168.135425 
L 631.911571 165.776793 
L 632.930191 166.091184 
L 633.948811 166.68576 
L 634.967431 167.329193 
L 635.986051 167.366701 
L 635.986051 73.695745 
L 635.986051 73.695745 
L 634.967431 73.542076 
L 633.948811 72.998943 
L 632.930191 72.84072 
L 631.911571 72.695842 
L 630.892951 74.483883 
L 629.874332 73.538321 
L 628.855712 73.612119 
L 627.837092 73.057577 
L 626.818472 73.946235 
L 625.799852 74.847911 
L 624.781232 73.99444 
L 623.762612 73.164595 
L 622.743992 72.453919 
L 621.725372 70.834524 
L 620.706752 70.496531 
L 619.688132 70.485434 
L 618.669512 70.287106 
L 617.650892 69.063196 
L 616.632272 69.104287 
L 615.613652 70.378619 
L 614.595033 71.153221 
L 613.576413 70.664879 
L 612.557793 71.714794 
L 611.539173 72.640974 
L 610.520553 71.980271 
L 609.501933 73.455503 
L 608.483313 74.457768 
L 607.464693 75.384981 
L 606.446073 60.90549 
L 605.427453 60.095948 
L 604.408833 60.55557 
L 603.390213 61.761332 
L 602.371593 62.398683 
L 601.352973 62.157878 
L 600.334353 64.341808 
L 599.315734 65.046246 
L 598.297114 66.950224 
L 597.278494 66.373136 
L 596.259874 69.119206 
L 595.241254 70.190916 
L 594.222634 70.360511 
L 593.204014 70.805793 
L 592.185394 72.375026 
L 591.166774 73.957046 
L 590.148154 73.929688 
L 589.129534 74.049406 
L 588.110914 74.130909 
L 587.092294 76.239772 
L 586.073674 77.542572 
L 585.055054 77.221335 
L 584.036434 78.339396 
L 583.017815 79.292194 
L 581.999195 80.30011 
L 580.980575 80.47856 
L 579.961955 81.589817 
L 578.943335 82.696522 
L 577.924715 82.872577 
L 576.906095 82.977285 
L 575.887475 84.341818 
L 574.868855 84.090178 
L 573.850235 84.221736 
L 572.831615 85.056764 
L 571.812995 86.705294 
L 570.794375 85.956154 
L 569.775755 85.909519 
L 568.757135 85.741935 
L 567.738516 86.488955 
L 566.719896 87.792051 
L 565.701276 87.399969 
L 564.682656 87.815015 
L 563.664036 89.283521 
L 562.645416 89.904725 
L 561.626796 91.207452 
L 560.608176 91.295713 
L 559.589556 91.562022 
L 558.570936 93.159734 
L 557.552316 92.889341 
L 556.533696 93.431634 
L 555.515076 94.384681 
L 554.496456 94.531757 
L 553.477836 95.283009 
L 552.459217 97.576095 
L 551.440597 96.892489 
L 550.421977 98.952269 
L 549.403357 99.695713 
L 548.384737 100.740797 
L 547.366117 102.150603 
L 546.347497 102.36671 
L 545.328877 103.079864 
L 544.310257 104.146222 
L 543.291637 105.964936 
L 542.273017 106.792157 
L 541.254397 105.747199 
L 540.235777 107.536319 
L 539.217157 109.6811 
L 538.198537 109.623775 
L 537.179918 109.856837 
L 536.161298 110.843014 
L 535.142678 112.068107 
L 534.124058 111.298727 
L 533.105438 111.763548 
L 532.086818 111.29145 
L 531.068198 111.861989 
L 530.049578 112.252076 
L 529.030958 112.130895 
L 528.012338 113.341748 
L 526.993718 112.039019 
L 525.975098 113.286309 
L 524.956478 112.691584 
L 523.937858 111.964269 
L 522.919238 112.004056 
L 521.900618 113.0183 
L 520.881999 110.838338 
L 519.863379 112.435694 
L 518.844759 112.460394 
L 517.826139 112.275266 
L 516.807519 112.355047 
L 515.788899 112.570512 
L 514.770279 112.893045 
L 513.751659 113.591652 
L 512.733039 112.811714 
L 511.714419 113.090313 
L 510.695799 112.509057 
L 509.677179 112.390447 
L 508.658559 112.012669 
L 507.639939 111.535272 
L 506.621319 110.985332 
L 505.6027 111.910381 
L 504.58408 110.197037 
L 503.56546 109.047339 
L 502.54684 108.56722 
L 501.52822 107.259514 
L 500.5096 104.972901 
L 499.49098 104.35598 
L 498.47236 105.179973 
L 497.45374 101.647239 
L 496.43512 101.142658 
L 495.4165 99.024465 
L 494.39788 99.807495 
L 493.37926 98.226512 
L 492.36064 96.919289 
L 491.34202 96.282517 
L 490.323401 95.77287 
L 489.304781 95.762026 
L 488.286161 95.299163 
L 487.267541 94.058333 
L 486.248921 92.433583 
L 485.230301 92.254564 
L 484.211681 90.842548 
L 483.193061 91.791067 
L 482.174441 92.576484 
L 481.155821 93.322061 
L 480.137201 94.143095 
L 479.118581 94.397961 
L 478.099961 94.282339 
L 477.081341 95.288168 
L 476.062721 94.904986 
L 475.044102 94.272493 
L 474.025482 95.133456 
L 473.006862 95.538779 
L 471.988242 95.294883 
L 470.969622 95.79223 
L 469.951002 96.149916 
L 468.932382 95.011445 
L 467.913762 96.509871 
L 466.895142 96.910134 
L 465.876522 97.127919 
L 464.857902 97.519324 
L 463.839282 99.084604 
L 462.820662 96.7996 
L 461.802042 97.630742 
L 460.783422 98.62428 
L 459.764803 99.734036 
L 458.746183 100.383441 
L 457.727563 100.252904 
L 456.708943 100.413801 
L 455.690323 100.1849 
L 454.671703 99.393258 
L 453.653083 99.758225 
L 452.634463 100.573286 
L 451.615843 100.605744 
L 450.597223 99.402537 
L 449.578603 100.470476 
L 448.559983 99.556347 
L 447.541363 98.790193 
L 446.522743 98.728959 
L 445.504123 99.763425 
L 444.485503 100.221435 
L 443.466884 100.697706 
L 442.448264 100.970827 
L 441.429644 102.326018 
L 440.411024 103.285731 
L 439.392404 103.059261 
L 438.373784 103.66181 
L 437.355164 104.425787 
L 436.336544 104.006181 
L 435.317924 102.716458 
L 434.299304 101.966222 
L 433.280684 102.751155 
L 432.262064 100.400481 
L 431.243444 98.372529 
L 430.224824 96.719139 
L 429.206204 96.167631 
L 428.187585 94.997674 
L 427.168965 95.370049 
L 426.150345 93.191627 
L 425.131725 91.721504 
L 424.113105 91.055212 
L 423.094485 89.264168 
L 422.075865 88.261721 
L 421.057245 88.028652 
L 420.038625 88.151676 
L 419.020005 87.25836 
L 418.001385 88.762686 
L 416.982765 88.312911 
L 415.964145 89.575707 
L 414.945525 89.539253 
L 413.926905 88.968526 
L 412.908286 89.07619 
L 411.889666 89.353918 
L 410.871046 90.409941 
L 409.852426 90.946455 
L 408.833806 91.61103 
L 407.815186 91.421991 
L 406.796566 90.994233 
L 405.777946 90.462391 
L 404.759326 91.727597 
L 403.740706 90.431417 
L 402.722086 91.924879 
L 401.703466 93.483578 
L 400.684846 95.191524 
L 399.666226 94.679904 
L 398.647606 96.703736 
L 397.628987 97.189753 
L 396.610367 100.191385 
L 395.591747 102.165594 
L 394.573127 103.124526 
L 393.554507 104.216246 
L 392.535887 105.994234 
L 391.517267 109.045969 
L 390.498647 111.175845 
L 389.480027 113.368089 
L 388.461407 115.311688 
L 387.442787 117.229605 
L 386.424167 118.58014 
L 385.405547 121.188876 
L 384.386927 122.601386 
L 383.368307 125.153761 
L 382.349688 127.962608 
L 381.331068 129.198565 
L 380.312448 132.309697 
L 379.293828 133.300354 
L 378.275208 134.059978 
L 377.256588 136.245917 
L 376.237968 137.673529 
L 375.219348 139.810128 
L 374.200728 141.033751 
L 373.182108 140.601873 
L 372.163488 142.063887 
L 371.144868 143.471855 
L 370.126248 145.746938 
L 369.107628 144.533859 
L 368.089008 145.939849 
L 367.070388 146.709435 
L 366.051769 148.56267 
L 365.033149 148.903592 
L 364.014529 149.119326 
L 362.995909 148.878031 
L 361.977289 149.120464 
L 360.958669 148.581897 
L 359.940049 150.087998 
L 358.921429 149.871448 
L 357.902809 148.187185 
L 356.884189 147.238432 
L 355.865569 150.155406 
L 354.846949 151.367864 
L 353.828329 151.085712 
L 352.809709 151.524917 
L 351.791089 151.50806 
L 350.77247 151.812921 
L 349.75385 155.074823 
L 348.73523 155.291535 
L 347.71661 156.859202 
L 346.69799 157.518005 
L 345.67937 158.033393 
L 344.66075 157.378334 
L 343.64213 158.553889 
L 342.62351 159.337856 
L 341.60489 160.176427 
L 340.58627 160.585724 
L 339.56765 159.93678 
L 338.54903 161.289144 
L 337.53041 160.825121 
L 336.51179 161.655664 
L 335.493171 160.494344 
L 334.474551 160.25068 
L 333.455931 160.27953 
L 332.437311 159.524537 
L 331.418691 158.2553 
L 330.400071 157.845151 
L 329.381451 160.385797 
L 328.362831 157.966761 
L 327.344211 155.879483 
L 326.325591 154.109611 
L 325.306971 153.812699 
L 324.288351 151.584415 
L 323.269731 150.849824 
L 322.251111 149.698668 
L 321.232491 149.930407 
L 320.213872 147.996349 
L 319.195252 149.114875 
L 318.176632 149.666648 
L 317.158012 148.738345 
L 316.139392 148.95558 
L 315.120772 150.08502 
L 314.102152 147.820496 
L 313.083532 146.76956 
L 312.064912 145.571018 
L 311.046292 143.346576 
L 310.027672 142.820942 
L 309.009052 141.726132 
L 307.990432 138.846054 
L 306.971812 137.032328 
L 305.953192 136.063081 
L 304.934572 134.073393 
L 303.915953 131.702399 
L 302.897333 128.63199 
L 301.878713 126.007608 
L 300.860093 123.660673 
L 299.841473 121.908842 
L 298.822853 119.125295 
L 297.804233 116.914358 
L 296.785613 114.09955 
L 295.766993 112.365981 
L 294.748373 110.074546 
L 293.729753 107.263475 
L 292.711133 99.430694 
L 291.692513 96.284807 
L 290.673893 93.76252 
L 289.655273 90.538969 
L 288.636654 87.235439 
L 287.618034 84.276153 
L 286.599414 80.939636 
L 285.580794 78.390226 
L 284.562174 75.694565 
L 283.543554 73.649579 
L 282.524934 69.894305 
L 281.506314 68.104511 
L 280.487694 66.93542 
L 279.469074 65.177027 
L 278.450454 65.082876 
L 277.431834 62.773442 
L 276.413214 61.259439 
L 275.394594 61.805891 
L 274.375974 61.526188 
L 273.357355 63.105329 
L 272.338735 62.79206 
L 271.320115 64.354354 
L 270.301495 65.526256 
L 269.282875 66.064989 
L 268.264255 68.190919 
L 267.245635 68.96617 
L 266.227015 71.084926 
L 265.208395 72.671516 
L 264.189775 74.962882 
L 263.171155 76.671684 
L 262.152535 76.941163 
L 261.133915 78.121632 
L 260.115295 80.590641 
L 259.096675 80.556792 
L 258.078056 82.250982 
L 257.059436 83.455213 
L 256.040816 85.067027 
L 255.022196 85.631864 
L 254.003576 86.793841 
L 252.984956 88.141985 
L 251.966336 90.035501 
L 250.947716 90.216415 
L 249.929096 90.247055 
L 248.910476 90.890433 
L 247.891856 91.353935 
L 246.873236 92.823024 
L 245.854616 93.025333 
L 244.835996 93.929254 
L 243.817376 95.529358 
L 242.798757 96.975104 
L 241.780137 97.326902 
L 240.761517 98.005522 
L 239.742897 99.43149 
L 238.724277 98.903318 
L 237.705657 100.697551 
L 236.687037 101.995879 
L 235.668417 103.61338 
L 234.649797 104.394123 
L 233.631177 105.0636 
L 232.612557 105.840895 
L 231.593937 107.862302 
L 230.575317 107.800053 
L 229.556697 105.355797 
L 228.538077 107.503146 
L 227.519457 107.42662 
L 226.500838 107.782677 
L 225.482218 107.422321 
L 224.463598 108.426051 
L 223.444978 110.76004 
L 222.426358 111.077849 
L 221.407738 111.16 
L 220.389118 112.066012 
L 219.370498 114.506545 
L 218.351878 114.89404 
L 217.333258 114.751189 
L 216.314638 117.75762 
L 215.296018 117.97066 
L 214.277398 120.386677 
L 213.258778 121.875104 
L 212.240158 123.028805 
L 211.221539 123.034912 
L 210.202919 123.958353 
L 209.184299 125.131346 
L 208.165679 129.137998 
L 207.147059 129.714753 
L 206.128439 131.399794 
L 205.109819 133.378323 
L 204.091199 135.762807 
L 203.072579 136.81989 
L 202.053959 139.050031 
L 201.035339 138.973578 
L 200.016719 139.9984 
L 198.998099 142.02813 
L 197.979479 142.095424 
L 196.960859 144.829941 
L 195.94224 146.315086 
L 194.92362 147.237715 
L 193.905 147.146953 
L 192.88638 149.700657 
L 191.86776 151.921902 
L 190.84914 151.824659 
L 189.83052 153.122235 
L 188.8119 152.933812 
L 187.79328 155.039477 
L 186.77466 155.536054 
L 185.75604 155.93595 
L 184.73742 155.633483 
L 183.7188 155.435259 
L 182.70018 155.69713 
L 181.68156 155.485145 
L 180.662941 153.560932 
L 179.644321 152.842814 
L 178.625701 153.705398 
L 177.607081 153.315473 
L 176.588461 155.939738 
L 175.569841 154.681308 
L 174.551221 155.409078 
L 173.532601 155.887334 
L 172.513981 156.266052 
L 171.495361 156.214928 
L 170.476741 157.508592 
L 169.458121 158.089785 
L 168.439501 159.030011 
L 167.420881 158.547555 
L 166.402261 158.918846 
L 165.383641 159.120306 
L 164.365022 159.804209 
L 163.346402 159.426011 
L 162.327782 158.088476 
L 161.309162 157.85735 
L 160.290542 157.633413 
L 159.271922 157.152692 
L 158.253302 158.275563 
L 157.234682 159.021733 
L 156.216062 157.304703 
L 155.197442 155.359722 
L 154.178822 156.594084 
L 153.160202 156.667347 
L 152.141582 155.216885 
L 151.122962 154.772412 
L 150.104342 155.593803 
L 149.085723 155.66176 
L 148.067103 153.642233 
L 147.048483 153.733094 
L 146.029863 153.331495 
L 145.011243 153.855676 
L 143.992623 153.90914 
L 142.974003 155.342922 
L 141.955383 156.782626 
L 140.936763 157.156467 
L 139.918143 157.963924 
L 138.899523 158.471865 
L 137.880903 159.990311 
L 136.862283 160.656035 
L 135.843663 162.64811 
L 134.825043 163.603092 
L 133.806424 162.966647 
L 132.787804 163.122318 
L 131.769184 162.274004 
L 130.750564 163.240318 
L 129.731944 162.413244 
L 128.713324 162.827364 
z
" clip-path="url(#peb7979cb19)" style="fill: #ff7f0e; fill-opacity: 0.5"/>
   </g>
   <g id="matplotlib.axis_1">
    <g id="xtick_1">
     <g id="line2d_1">
      <defs>
       <path id="m417e9ac5db" d="M 0 0 
L 0 12 
" style="stroke: #000000; stroke-width: 2.5"/>
      </defs>
      <g>
       <use xlink:href="#m417e9ac5db" x="147.048483" y="364.07625" style="stroke: #000000; stroke-width: 2.5"/>
      </g>
     </g>
     <g id="text_1">
      <!-- 0 -->
      <g transform="translate(140.049733 396.292812) scale(0.22 -0.22)">
       <defs>
        <path id="DejaVuSans-30" d="M 2034 4250 
Q 1547 4250 1301 3770 
Q 1056 3291 1056 2328 
Q 1056 1369 1301 889 
Q 1547 409 2034 409 
Q 2525 409 2770 889 
Q 3016 1369 3016 2328 
Q 3016 3291 2770 3770 
Q 2525 4250 2034 4250 
z
M 2034 4750 
Q 2819 4750 3233 4129 
Q 3647 3509 3647 2328 
Q 3647 1150 3233 529 
Q 2819 -91 2034 -91 
Q 1250 -91 836 529 
Q 422 1150 422 2328 
Q 422 3509 836 4129 
Q 1250 4750 2034 4750 
z
" transform="scale(0.015625)"/>
       </defs>
       <use xlink:href="#DejaVuSans-30"/>
      </g>
     </g>
    </g>
    <g id="xtick_2">
     <g id="line2d_2">
      <g>
       <use xlink:href="#m417e9ac5db" x="269.282875" y="364.07625" style="stroke: #000000; stroke-width: 2.5"/>
      </g>
     </g>
     <g id="text_2">
      <!-- 2 -->
      <g transform="translate(262.284125 396.292812) scale(0.22 -0.22)">
       <defs>
        <path id="DejaVuSans-32" d="M 1228 531 
L 3431 531 
L 3431 0 
L 469 0 
L 469 531 
Q 828 903 1448 1529 
Q 2069 2156 2228 2338 
Q 2531 2678 2651 2914 
Q 2772 3150 2772 3378 
Q 2772 3750 2511 3984 
Q 2250 4219 1831 4219 
Q 1534 4219 1204 4116 
Q 875 4013 500 3803 
L 500 4441 
Q 881 4594 1212 4672 
Q 1544 4750 1819 4750 
Q 2544 4750 2975 4387 
Q 3406 4025 3406 3419 
Q 3406 3131 3298 2873 
Q 3191 2616 2906 2266 
Q 2828 2175 2409 1742 
Q 1991 1309 1228 531 
z
" transform="scale(0.015625)"/>
       </defs>
       <use xlink:href="#DejaVuSans-32"/>
      </g>
     </g>
    </g>
    <g id="xtick_3">
     <g id="line2d_3">
      <g>
       <use xlink:href="#m417e9ac5db" x="391.517267" y="364.07625" style="stroke: #000000; stroke-width: 2.5"/>
      </g>
     </g>
     <g id="text_3">
      <!-- 4 -->
      <g transform="translate(384.518517 396.292812) scale(0.22 -0.22)">
       <defs>
        <path id="DejaVuSans-34" d="M 2419 4116 
L 825 1625 
L 2419 1625 
L 2419 4116 
z
M 2253 4666 
L 3047 4666 
L 3047 1625 
L 3713 1625 
L 3713 1100 
L 3047 1100 
L 3047 0 
L 2419 0 
L 2419 1100 
L 313 1100 
L 313 1709 
L 2253 4666 
z
" transform="scale(0.015625)"/>
       </defs>
       <use xlink:href="#DejaVuSans-34"/>
      </g>
     </g>
    </g>
    <g id="xtick_4">
     <g id="line2d_4">
      <g>
       <use xlink:href="#m417e9ac5db" x="513.751659" y="364.07625" style="stroke: #000000; stroke-width: 2.5"/>
      </g>
     </g>
     <g id="text_4">
      <!-- 6 -->
      <g transform="translate(506.752909 396.292812) scale(0.22 -0.22)">
       <defs>
        <path id="DejaVuSans-36" d="M 2113 2584 
Q 1688 2584 1439 2293 
Q 1191 2003 1191 1497 
Q 1191 994 1439 701 
Q 1688 409 2113 409 
Q 2538 409 2786 701 
Q 3034 994 3034 1497 
Q 3034 2003 2786 2293 
Q 2538 2584 2113 2584 
z
M 3366 4563 
L 3366 3988 
Q 3128 4100 2886 4159 
Q 2644 4219 2406 4219 
Q 1781 4219 1451 3797 
Q 1122 3375 1075 2522 
Q 1259 2794 1537 2939 
Q 1816 3084 2150 3084 
Q 2853 3084 3261 2657 
Q 3669 2231 3669 1497 
Q 3669 778 3244 343 
Q 2819 -91 2113 -91 
Q 1303 -91 875 529 
Q 447 1150 447 2328 
Q 447 3434 972 4092 
Q 1497 4750 2381 4750 
Q 2619 4750 2861 4703 
Q 3103 4656 3366 4563 
z
" transform="scale(0.015625)"/>
       </defs>
       <use xlink:href="#DejaVuSans-36"/>
      </g>
     </g>
    </g>
    <g id="xtick_5">
     <g id="line2d_5">
      <g>
       <use xlink:href="#m417e9ac5db" x="635.986051" y="364.07625" style="stroke: #000000; stroke-width: 2.5"/>
      </g>
     </g>
     <g id="text_5">
      <!-- 8 -->
      <g transform="translate(628.987301 396.292812) scale(0.22 -0.22)">
       <defs>
        <path id="DejaVuSans-38" d="M 2034 2216 
Q 1584 2216 1326 1975 
Q 1069 1734 1069 1313 
Q 1069 891 1326 650 
Q 1584 409 2034 409 
Q 2484 409 2743 651 
Q 3003 894 3003 1313 
Q 3003 1734 2745 1975 
Q 2488 2216 2034 2216 
z
M 1403 2484 
Q 997 2584 770 2862 
Q 544 3141 544 3541 
Q 544 4100 942 4425 
Q 1341 4750 2034 4750 
Q 2731 4750 3128 4425 
Q 3525 4100 3525 3541 
Q 3525 3141 3298 2862 
Q 3072 2584 2669 2484 
Q 3125 2378 3379 2068 
Q 3634 1759 3634 1313 
Q 3634 634 3220 271 
Q 2806 -91 2034 -91 
Q 1263 -91 848 271 
Q 434 634 434 1313 
Q 434 1759 690 2068 
Q 947 2378 1403 2484 
z
M 1172 3481 
Q 1172 3119 1398 2916 
Q 1625 2713 2034 2713 
Q 2441 2713 2670 2916 
Q 2900 3119 2900 3481 
Q 2900 3844 2670 4047 
Q 2441 4250 2034 4250 
Q 1625 4250 1398 4047 
Q 1172 3844 1172 3481 
z
" transform="scale(0.015625)"/>
       </defs>
       <use xlink:href="#DejaVuSans-38"/>
      </g>
     </g>
    </g>
    <g id="text_6">
     <!-- Time from sound (seconds) -->
     <g transform="translate(218.793438 423.104375) scale(0.24 -0.24)">
      <defs>
       <path id="DejaVuSans-54" d="M -19 4666 
L 3928 4666 
L 3928 4134 
L 2272 4134 
L 2272 0 
L 1638 0 
L 1638 4134 
L -19 4134 
L -19 4666 
z
" transform="scale(0.015625)"/>
       <path id="DejaVuSans-69" d="M 603 3500 
L 1178 3500 
L 1178 0 
L 603 0 
L 603 3500 
z
M 603 4863 
L 1178 4863 
L 1178 4134 
L 603 4134 
L 603 4863 
z
" transform="scale(0.015625)"/>
       <path id="DejaVuSans-6d" d="M 3328 2828 
Q 3544 3216 3844 3400 
Q 4144 3584 4550 3584 
Q 5097 3584 5394 3201 
Q 5691 2819 5691 2113 
L 5691 0 
L 5113 0 
L 5113 2094 
Q 5113 2597 4934 2840 
Q 4756 3084 4391 3084 
Q 3944 3084 3684 2787 
Q 3425 2491 3425 1978 
L 3425 0 
L 2847 0 
L 2847 2094 
Q 2847 2600 2669 2842 
Q 2491 3084 2119 3084 
Q 1678 3084 1418 2786 
Q 1159 2488 1159 1978 
L 1159 0 
L 581 0 
L 581 3500 
L 1159 3500 
L 1159 2956 
Q 1356 3278 1631 3431 
Q 1906 3584 2284 3584 
Q 2666 3584 2933 3390 
Q 3200 3197 3328 2828 
z
" transform="scale(0.015625)"/>
       <path id="DejaVuSans-65" d="M 3597 1894 
L 3597 1613 
L 953 1613 
Q 991 1019 1311 708 
Q 1631 397 2203 397 
Q 2534 397 2845 478 
Q 3156 559 3463 722 
L 3463 178 
Q 3153 47 2828 -22 
Q 2503 -91 2169 -91 
Q 1331 -91 842 396 
Q 353 884 353 1716 
Q 353 2575 817 3079 
Q 1281 3584 2069 3584 
Q 2775 3584 3186 3129 
Q 3597 2675 3597 1894 
z
M 3022 2063 
Q 3016 2534 2758 2815 
Q 2500 3097 2075 3097 
Q 1594 3097 1305 2825 
Q 1016 2553 972 2059 
L 3022 2063 
z
" transform="scale(0.015625)"/>
       <path id="DejaVuSans-20" transform="scale(0.015625)"/>
       <path id="DejaVuSans-66" d="M 2375 4863 
L 2375 4384 
L 1825 4384 
Q 1516 4384 1395 4259 
Q 1275 4134 1275 3809 
L 1275 3500 
L 2222 3500 
L 2222 3053 
L 1275 3053 
L 1275 0 
L 697 0 
L 697 3053 
L 147 3053 
L 147 3500 
L 697 3500 
L 697 3744 
Q 697 4328 969 4595 
Q 1241 4863 1831 4863 
L 2375 4863 
z
" transform="scale(0.015625)"/>
       <path id="DejaVuSans-72" d="M 2631 2963 
Q 2534 3019 2420 3045 
Q 2306 3072 2169 3072 
Q 1681 3072 1420 2755 
Q 1159 2438 1159 1844 
L 1159 0 
L 581 0 
L 581 3500 
L 1159 3500 
L 1159 2956 
Q 1341 3275 1631 3429 
Q 1922 3584 2338 3584 
Q 2397 3584 2469 3576 
Q 2541 3569 2628 3553 
L 2631 2963 
z
" transform="scale(0.015625)"/>
       <path id="DejaVuSans-6f" d="M 1959 3097 
Q 1497 3097 1228 2736 
Q 959 2375 959 1747 
Q 959 1119 1226 758 
Q 1494 397 1959 397 
Q 2419 397 2687 759 
Q 2956 1122 2956 1747 
Q 2956 2369 2687 2733 
Q 2419 3097 1959 3097 
z
M 1959 3584 
Q 2709 3584 3137 3096 
Q 3566 2609 3566 1747 
Q 3566 888 3137 398 
Q 2709 -91 1959 -91 
Q 1206 -91 779 398 
Q 353 888 353 1747 
Q 353 2609 779 3096 
Q 1206 3584 1959 3584 
z
" transform="scale(0.015625)"/>
       <path id="DejaVuSans-73" d="M 2834 3397 
L 2834 2853 
Q 2591 2978 2328 3040 
Q 2066 3103 1784 3103 
Q 1356 3103 1142 2972 
Q 928 2841 928 2578 
Q 928 2378 1081 2264 
Q 1234 2150 1697 2047 
L 1894 2003 
Q 2506 1872 2764 1633 
Q 3022 1394 3022 966 
Q 3022 478 2636 193 
Q 2250 -91 1575 -91 
Q 1294 -91 989 -36 
Q 684 19 347 128 
L 347 722 
Q 666 556 975 473 
Q 1284 391 1588 391 
Q 1994 391 2212 530 
Q 2431 669 2431 922 
Q 2431 1156 2273 1281 
Q 2116 1406 1581 1522 
L 1381 1569 
Q 847 1681 609 1914 
Q 372 2147 372 2553 
Q 372 3047 722 3315 
Q 1072 3584 1716 3584 
Q 2034 3584 2315 3537 
Q 2597 3491 2834 3397 
z
" transform="scale(0.015625)"/>
       <path id="DejaVuSans-75" d="M 544 1381 
L 544 3500 
L 1119 3500 
L 1119 1403 
Q 1119 906 1312 657 
Q 1506 409 1894 409 
Q 2359 409 2629 706 
Q 2900 1003 2900 1516 
L 2900 3500 
L 3475 3500 
L 3475 0 
L 2900 0 
L 2900 538 
Q 2691 219 2414 64 
Q 2138 -91 1772 -91 
Q 1169 -91 856 284 
Q 544 659 544 1381 
z
M 1991 3584 
L 1991 3584 
z
" transform="scale(0.015625)"/>
       <path id="DejaVuSans-6e" d="M 3513 2113 
L 3513 0 
L 2938 0 
L 2938 2094 
Q 2938 2591 2744 2837 
Q 2550 3084 2163 3084 
Q 1697 3084 1428 2787 
Q 1159 2491 1159 1978 
L 1159 0 
L 581 0 
L 581 3500 
L 1159 3500 
L 1159 2956 
Q 1366 3272 1645 3428 
Q 1925 3584 2291 3584 
Q 2894 3584 3203 3211 
Q 3513 2838 3513 2113 
z
" transform="scale(0.015625)"/>
       <path id="DejaVuSans-64" d="M 2906 2969 
L 2906 4863 
L 3481 4863 
L 3481 0 
L 2906 0 
L 2906 525 
Q 2725 213 2448 61 
Q 2172 -91 1784 -91 
Q 1150 -91 751 415 
Q 353 922 353 1747 
Q 353 2572 751 3078 
Q 1150 3584 1784 3584 
Q 2172 3584 2448 3432 
Q 2725 3281 2906 2969 
z
M 947 1747 
Q 947 1113 1208 752 
Q 1469 391 1925 391 
Q 2381 391 2643 752 
Q 2906 1113 2906 1747 
Q 2906 2381 2643 2742 
Q 2381 3103 1925 3103 
Q 1469 3103 1208 2742 
Q 947 2381 947 1747 
z
" transform="scale(0.015625)"/>
       <path id="DejaVuSans-28" d="M 1984 4856 
Q 1566 4138 1362 3434 
Q 1159 2731 1159 2009 
Q 1159 1288 1364 580 
Q 1569 -128 1984 -844 
L 1484 -844 
Q 1016 -109 783 600 
Q 550 1309 550 2009 
Q 550 2706 781 3412 
Q 1013 4119 1484 4856 
L 1984 4856 
z
" transform="scale(0.015625)"/>
       <path id="DejaVuSans-63" d="M 3122 3366 
L 3122 2828 
Q 2878 2963 2633 3030 
Q 2388 3097 2138 3097 
Q 1578 3097 1268 2742 
Q 959 2388 959 1747 
Q 959 1106 1268 751 
Q 1578 397 2138 397 
Q 2388 397 2633 464 
Q 2878 531 3122 666 
L 3122 134 
Q 2881 22 2623 -34 
Q 2366 -91 2075 -91 
Q 1284 -91 818 406 
Q 353 903 353 1747 
Q 353 2603 823 3093 
Q 1294 3584 2113 3584 
Q 2378 3584 2631 3529 
Q 2884 3475 3122 3366 
z
" transform="scale(0.015625)"/>
       <path id="DejaVuSans-29" d="M 513 4856 
L 1013 4856 
Q 1481 4119 1714 3412 
Q 1947 2706 1947 2009 
Q 1947 1309 1714 600 
Q 1481 -109 1013 -844 
L 513 -844 
Q 928 -128 1133 580 
Q 1338 1288 1338 2009 
Q 1338 2731 1133 3434 
Q 928 4138 513 4856 
z
" transform="scale(0.015625)"/>
      </defs>
      <use xlink:href="#DejaVuSans-54"/>
      <use xlink:href="#DejaVuSans-69" x="57.958984"/>
      <use xlink:href="#DejaVuSans-6d" x="85.742188"/>
      <use xlink:href="#DejaVuSans-65" x="183.154297"/>
      <use xlink:href="#DejaVuSans-20" x="244.677734"/>
      <use xlink:href="#DejaVuSans-66" x="276.464844"/>
      <use xlink:href="#DejaVuSans-72" x="311.669922"/>
      <use xlink:href="#DejaVuSans-6f" x="350.533203"/>
      <use xlink:href="#DejaVuSans-6d" x="411.714844"/>
      <use xlink:href="#DejaVuSans-20" x="509.126953"/>
      <use xlink:href="#DejaVuSans-73" x="540.914062"/>
      <use xlink:href="#DejaVuSans-6f" x="593.013672"/>
      <use xlink:href="#DejaVuSans-75" x="654.195312"/>
      <use xlink:href="#DejaVuSans-6e" x="717.574219"/>
      <use xlink:href="#DejaVuSans-64" x="780.953125"/>
      <use xlink:href="#DejaVuSans-20" x="844.429688"/>
      <use xlink:href="#DejaVuSans-28" x="876.216797"/>
      <use xlink:href="#DejaVuSans-73" x="915.230469"/>
      <use xlink:href="#DejaVuSans-65" x="967.330078"/>
      <use xlink:href="#DejaVuSans-63" x="1028.853516"/>
      <use xlink:href="#DejaVuSans-6f" x="1083.833984"/>
      <use xlink:href="#DejaVuSans-6e" x="1145.015625"/>
      <use xlink:href="#DejaVuSans-64" x="1208.394531"/>
      <use xlink:href="#DejaVuSans-73" x="1271.871094"/>
      <use xlink:href="#DejaVuSans-29" x="1323.970703"/>
     </g>
    </g>
   </g>
   <g id="matplotlib.axis_2">
    <g id="ytick_1">
     <g id="line2d_6">
      <defs>
       <path id="m4a2909fb6b" d="M 0 0 
L -12 0 
" style="stroke: #000000; stroke-width: 2.5"/>
      </defs>
      <g>
       <use xlink:href="#m4a2909fb6b" x="103.349688" y="351.199749" style="stroke: #000000; stroke-width: 2.5"/>
      </g>
     </g>
     <g id="text_7">
      <!-- 0.4 -->
      <g transform="translate(34.4275 359.55803) scale(0.22 -0.22)">
       <defs>
        <path id="DejaVuSans-2212" d="M 678 2272 
L 4684 2272 
L 4684 1741 
L 678 1741 
L 678 2272 
z
" transform="scale(0.015625)"/>
        <path id="DejaVuSans-2e" d="M 684 794 
L 1344 794 
L 1344 0 
L 684 0 
L 684 794 
z
" transform="scale(0.015625)"/>
       </defs>
       <use xlink:href="#DejaVuSans-2212"/>
       <use xlink:href="#DejaVuSans-30" x="83.789062"/>
       <use xlink:href="#DejaVuSans-2e" x="147.412109"/>
       <use xlink:href="#DejaVuSans-34" x="179.199219"/>
      </g>
     </g>
    </g>
    <g id="ytick_2">
     <g id="line2d_7">
      <g>
       <use xlink:href="#m4a2909fb6b" x="103.349688" y="256.850046" style="stroke: #000000; stroke-width: 2.5"/>
      </g>
     </g>
     <g id="text_8">
      <!-- 0.2 -->
      <g transform="translate(34.4275 265.208327) scale(0.22 -0.22)">
       <use xlink:href="#DejaVuSans-2212"/>
       <use xlink:href="#DejaVuSans-30" x="83.789062"/>
       <use xlink:href="#DejaVuSans-2e" x="147.412109"/>
       <use xlink:href="#DejaVuSans-32" x="179.199219"/>
      </g>
     </g>
    </g>
    <g id="ytick_3">
     <g id="line2d_8">
      <g>
       <use xlink:href="#m4a2909fb6b" x="103.349688" y="162.500342" style="stroke: #000000; stroke-width: 2.5"/>
      </g>
     </g>
     <g id="text_9">
      <!-- 0.0 -->
      <g transform="translate(52.862813 170.858623) scale(0.22 -0.22)">
       <use xlink:href="#DejaVuSans-30"/>
       <use xlink:href="#DejaVuSans-2e" x="63.623047"/>
       <use xlink:href="#DejaVuSans-30" x="95.410156"/>
      </g>
     </g>
    </g>
    <g id="ytick_4">
     <g id="line2d_9">
      <g>
       <use xlink:href="#m4a2909fb6b" x="103.349688" y="68.150639" style="stroke: #000000; stroke-width: 2.5"/>
      </g>
     </g>
     <g id="text_10">
      <!-- 0.2 -->
      <g transform="translate(52.862813 76.50892) scale(0.22 -0.22)">
       <use xlink:href="#DejaVuSans-30"/>
       <use xlink:href="#DejaVuSans-2e" x="63.623047"/>
       <use xlink:href="#DejaVuSans-32" x="95.410156"/>
      </g>
     </g>
    </g>
    <g id="text_11">
     <!-- Normalized pupil size (a.u.) -->
     <g transform="translate(25.43625 361.97625) rotate(-90) scale(0.24 -0.24)">
      <defs>
       <path id="DejaVuSans-4e" d="M 628 4666 
L 1478 4666 
L 3547 763 
L 3547 4666 
L 4159 4666 
L 4159 0 
L 3309 0 
L 1241 3903 
L 1241 0 
L 628 0 
L 628 4666 
z
" transform="scale(0.015625)"/>
       <path id="DejaVuSans-61" d="M 2194 1759 
Q 1497 1759 1228 1600 
Q 959 1441 959 1056 
Q 959 750 1161 570 
Q 1363 391 1709 391 
Q 2188 391 2477 730 
Q 2766 1069 2766 1631 
L 2766 1759 
L 2194 1759 
z
M 3341 1997 
L 3341 0 
L 2766 0 
L 2766 531 
Q 2569 213 2275 61 
Q 1981 -91 1556 -91 
Q 1019 -91 701 211 
Q 384 513 384 1019 
Q 384 1609 779 1909 
Q 1175 2209 1959 2209 
L 2766 2209 
L 2766 2266 
Q 2766 2663 2505 2880 
Q 2244 3097 1772 3097 
Q 1472 3097 1187 3025 
Q 903 2953 641 2809 
L 641 3341 
Q 956 3463 1253 3523 
Q 1550 3584 1831 3584 
Q 2591 3584 2966 3190 
Q 3341 2797 3341 1997 
z
" transform="scale(0.015625)"/>
       <path id="DejaVuSans-6c" d="M 603 4863 
L 1178 4863 
L 1178 0 
L 603 0 
L 603 4863 
z
" transform="scale(0.015625)"/>
       <path id="DejaVuSans-7a" d="M 353 3500 
L 3084 3500 
L 3084 2975 
L 922 459 
L 3084 459 
L 3084 0 
L 275 0 
L 275 525 
L 2438 3041 
L 353 3041 
L 353 3500 
z
" transform="scale(0.015625)"/>
       <path id="DejaVuSans-70" d="M 1159 525 
L 1159 -1331 
L 581 -1331 
L 581 3500 
L 1159 3500 
L 1159 2969 
Q 1341 3281 1617 3432 
Q 1894 3584 2278 3584 
Q 2916 3584 3314 3078 
Q 3713 2572 3713 1747 
Q 3713 922 3314 415 
Q 2916 -91 2278 -91 
Q 1894 -91 1617 61 
Q 1341 213 1159 525 
z
M 3116 1747 
Q 3116 2381 2855 2742 
Q 2594 3103 2138 3103 
Q 1681 3103 1420 2742 
Q 1159 2381 1159 1747 
Q 1159 1113 1420 752 
Q 1681 391 2138 391 
Q 2594 391 2855 752 
Q 3116 1113 3116 1747 
z
" transform="scale(0.015625)"/>
      </defs>
      <use xlink:href="#DejaVuSans-4e"/>
      <use xlink:href="#DejaVuSans-6f" x="74.804688"/>
      <use xlink:href="#DejaVuSans-72" x="135.986328"/>
      <use xlink:href="#DejaVuSans-6d" x="175.349609"/>
      <use xlink:href="#DejaVuSans-61" x="272.761719"/>
      <use xlink:href="#DejaVuSans-6c" x="334.041016"/>
      <use xlink:href="#DejaVuSans-69" x="361.824219"/>
      <use xlink:href="#DejaVuSans-7a" x="389.607422"/>
      <use xlink:href="#DejaVuSans-65" x="442.097656"/>
      <use xlink:href="#DejaVuSans-64" x="503.621094"/>
      <use xlink:href="#DejaVuSans-20" x="567.097656"/>
      <use xlink:href="#DejaVuSans-70" x="598.884766"/>
      <use xlink:href="#DejaVuSans-75" x="662.361328"/>
      <use xlink:href="#DejaVuSans-70" x="725.740234"/>
      <use xlink:href="#DejaVuSans-69" x="789.216797"/>
      <use xlink:href="#DejaVuSans-6c" x="817"/>
      <use xlink:href="#DejaVuSans-20" x="844.783203"/>
      <use xlink:href="#DejaVuSans-73" x="876.570312"/>
      <use xlink:href="#DejaVuSans-69" x="928.669922"/>
      <use xlink:href="#DejaVuSans-7a" x="956.453125"/>
      <use xlink:href="#DejaVuSans-65" x="1008.943359"/>
      <use xlink:href="#DejaVuSans-20" x="1070.466797"/>
      <use xlink:href="#DejaVuSans-28" x="1102.253906"/>
      <use xlink:href="#DejaVuSans-61" x="1141.267578"/>
      <use xlink:href="#DejaVuSans-2e" x="1202.546875"/>
      <use xlink:href="#DejaVuSans-75" x="1234.333984"/>
      <use xlink:href="#DejaVuSans-2e" x="1297.712891"/>
      <use xlink:href="#DejaVuSans-29" x="1329.5"/>
     </g>
    </g>
   </g>
   <g id="line2d_10">
    <path d="M 128.713324 160.339854 
L 129.731944 159.375095 
L 130.750564 162.208644 
L 131.769184 160.375289 
L 132.787804 161.092535 
L 133.806424 162.413839 
L 134.825043 162.878545 
L 135.843663 162.611422 
L 136.862283 164.853384 
L 137.880903 166.464867 
L 138.899523 165.403557 
L 139.918143 162.797009 
L 140.936763 162.373949 
L 141.955383 161.587974 
L 142.974003 162.128289 
L 143.992623 162.329082 
L 145.011243 163.130335 
L 146.029863 162.64249 
L 147.048483 162.370408 
L 148.067103 164.285412 
L 149.085723 166.932244 
L 150.104342 166.673358 
L 152.141582 167.989956 
L 153.160202 171.325427 
L 155.197442 179.133102 
L 156.216062 181.87951 
L 157.234682 184.979836 
L 158.253302 187.617671 
L 159.271922 189.004619 
L 160.290542 191.953628 
L 161.309162 197.246886 
L 162.327782 196.067514 
L 163.346402 202.42466 
L 164.365022 206.46635 
L 165.383641 207.515642 
L 166.402261 207.17541 
L 167.420881 206.27011 
L 168.439501 205.770916 
L 169.458121 210.241355 
L 170.476741 211.609922 
L 171.495361 209.661717 
L 172.513981 211.825248 
L 173.532601 212.438742 
L 175.569841 218.139031 
L 176.588461 215.396762 
L 177.607081 219.833609 
L 178.625701 221.135892 
L 179.644321 223.069651 
L 180.662941 228.140975 
L 181.68156 231.623271 
L 182.70018 233.055248 
L 183.7188 236.053458 
L 184.73742 238.039105 
L 185.75604 239.65164 
L 186.77466 240.078253 
L 187.79328 244.176004 
L 188.8119 244.922942 
L 189.83052 243.406611 
L 190.84914 246.001715 
L 191.86776 244.88669 
L 192.88638 245.639027 
L 193.905 249.330074 
L 194.92362 249.463956 
L 195.94224 249.063963 
L 196.960859 251.621276 
L 197.979479 253.87446 
L 198.998099 251.991015 
L 200.016719 255.517701 
L 201.035339 258.169192 
L 202.053959 258.478832 
L 203.072579 260.352906 
L 204.091199 257.252521 
L 205.109819 261.447625 
L 206.128439 263.423065 
L 207.147059 260.157835 
L 208.165679 260.503757 
L 209.184299 255.363667 
L 210.202919 251.810804 
L 211.221539 256.069308 
L 213.258778 244.481434 
L 214.277398 243.655531 
L 215.296018 238.823768 
L 216.314638 233.257778 
L 217.333258 231.485497 
L 218.351878 223.531667 
L 219.370498 219.11959 
L 220.389118 215.899834 
L 221.407738 209.108515 
L 222.426358 205.205499 
L 223.444978 204.907037 
L 224.463598 199.692729 
L 225.482218 200.623979 
L 227.519457 191.898962 
L 228.538077 194.326311 
L 229.556697 190.21593 
L 230.575317 187.160102 
L 231.593937 183.60759 
L 232.612557 180.861889 
L 233.631177 180.232491 
L 235.668417 175.067802 
L 236.687037 171.604459 
L 237.705657 172.673653 
L 239.742897 168.034659 
L 241.780137 164.736632 
L 242.798757 164.996791 
L 243.817376 163.161041 
L 244.835996 162.662978 
L 245.854616 160.434321 
L 246.873236 160.09642 
L 247.891856 160.547334 
L 248.910476 159.649764 
L 249.929096 158.60223 
L 250.947716 157.217574 
L 251.966336 157.76253 
L 254.003576 151.006482 
L 255.022196 147.004754 
L 256.040816 146.829103 
L 257.059436 144.507156 
L 258.078056 143.931399 
L 259.096675 140.293361 
L 260.115295 139.158236 
L 261.133915 137.031543 
L 262.152535 137.689996 
L 266.227015 126.440188 
L 267.245635 124.278584 
L 268.264255 121.805652 
L 269.282875 118.783249 
L 270.301495 121.732445 
L 271.320115 115.636964 
L 272.338735 118.695934 
L 273.357355 115.928231 
L 274.375974 115.454991 
L 275.394594 114.058566 
L 276.413214 114.495912 
L 277.431834 115.717273 
L 278.450454 116.043645 
L 279.469074 117.738895 
L 280.487694 116.826558 
L 281.506314 116.227346 
L 282.524934 116.888439 
L 283.543554 117.018657 
L 284.562174 115.517257 
L 285.580794 115.909013 
L 286.599414 117.328928 
L 287.618034 119.06017 
L 288.636654 114.979376 
L 289.655273 116.525261 
L 290.673893 119.116102 
L 291.692513 119.430476 
L 292.711133 118.507341 
L 293.729753 117.860381 
L 294.748373 117.351988 
L 295.766993 121.170794 
L 296.785613 120.251313 
L 298.822853 121.90293 
L 299.841473 119.784329 
L 300.860093 120.020776 
L 301.878713 119.564986 
L 302.897333 121.028145 
L 303.915953 120.155452 
L 304.934572 119.967199 
L 305.953192 121.106434 
L 306.971812 121.012958 
L 307.990432 118.708401 
L 310.027672 118.63041 
L 311.046292 117.04527 
L 312.064912 117.049157 
L 313.083532 114.930442 
L 314.102152 118.469 
L 315.120772 116.507749 
L 316.139392 117.318446 
L 317.158012 116.493328 
L 318.176632 117.040688 
L 319.195252 116.04221 
L 320.213872 113.719843 
L 321.232491 114.66431 
L 322.251111 112.706657 
L 323.269731 114.718873 
L 324.288351 114.684969 
L 325.306971 111.768142 
L 326.325591 111.578874 
L 327.344211 111.534173 
L 328.362831 108.424191 
L 329.381451 109.550415 
L 330.400071 104.274941 
L 331.418691 102.000562 
L 332.437311 100.847321 
L 333.455931 99.341212 
L 334.474551 99.926813 
L 335.493171 95.336828 
L 336.51179 94.993247 
L 337.53041 95.44268 
L 338.54903 91.963034 
L 339.56765 93.577393 
L 340.58627 91.527812 
L 341.60489 90.871105 
L 342.62351 90.356364 
L 343.64213 90.683825 
L 344.66075 90.532598 
L 345.67937 87.148331 
L 346.69799 87.083684 
L 347.71661 87.543314 
L 348.73523 86.362329 
L 349.75385 87.301397 
L 350.77247 86.541664 
L 351.791089 84.840151 
L 352.809709 83.374383 
L 353.828329 82.640443 
L 354.846949 84.228347 
L 356.884189 78.354078 
L 357.902809 79.777021 
L 358.921429 77.563616 
L 359.940049 76.824666 
L 360.958669 76.87693 
L 362.995909 76.680329 
L 364.014529 75.76622 
L 365.033149 74.027304 
L 366.051769 75.755575 
L 367.070388 73.179856 
L 368.089008 73.109748 
L 369.107628 74.903404 
L 370.126248 75.746283 
L 371.144868 77.881858 
L 372.163488 77.850953 
L 373.182108 81.031695 
L 374.200728 83.195675 
L 375.219348 81.978849 
L 376.237968 84.791277 
L 377.256588 87.277382 
L 378.275208 87.764756 
L 380.312448 90.828813 
L 381.331068 90.590957 
L 382.349688 91.774168 
L 383.368307 93.144534 
L 384.386927 94.792636 
L 385.405547 93.964518 
L 386.424167 92.514946 
L 387.442787 96.177375 
L 388.461407 95.973111 
L 389.480027 99.669432 
L 390.498647 101.618363 
L 392.535887 107.340997 
L 393.554507 108.925922 
L 394.573127 113.939043 
L 396.610367 121.125251 
L 397.628987 124.610831 
L 398.647606 127.595828 
L 400.684846 135.682125 
L 401.703466 138.20523 
L 402.722086 140.222654 
L 403.740706 142.884927 
L 404.759326 143.520875 
L 405.777946 148.340241 
L 406.796566 150.201702 
L 407.815186 153.316868 
L 408.833806 154.074587 
L 409.852426 157.061984 
L 410.871046 158.937241 
L 411.889666 162.454313 
L 412.908286 163.663726 
L 413.926905 166.70331 
L 414.945525 167.352455 
L 415.964145 170.276457 
L 418.001385 168.165829 
L 419.020005 169.410525 
L 420.038625 169.062295 
L 421.057245 167.196421 
L 422.075865 171.603275 
L 423.094485 171.835708 
L 424.113105 172.321882 
L 425.131725 173.949889 
L 426.150345 174.572531 
L 427.168965 174.877547 
L 428.187585 176.836376 
L 429.206204 177.819833 
L 430.224824 178.260718 
L 431.243444 184.145925 
L 432.262064 187.509624 
L 433.280684 187.667675 
L 434.299304 191.484868 
L 436.336544 198.436013 
L 437.355164 199.022963 
L 438.373784 203.017714 
L 439.392404 204.251313 
L 440.411024 207.804567 
L 441.429644 216.20982 
L 442.448264 218.90861 
L 443.466884 220.265189 
L 444.485503 225.01937 
L 445.504123 226.792851 
L 446.522743 229.68207 
L 447.541363 233.84599 
L 448.559983 231.836158 
L 449.578603 234.24609 
L 450.597223 234.986613 
L 451.615843 236.006918 
L 452.634463 235.979868 
L 453.653083 236.819015 
L 454.671703 238.443105 
L 455.690323 238.46977 
L 457.727563 238.954999 
L 458.746183 241.147156 
L 459.764803 242.335748 
L 460.783422 244.16314 
L 461.802042 242.431568 
L 462.820662 244.032214 
L 463.839282 243.782893 
L 464.857902 245.243172 
L 465.876522 245.949428 
L 466.895142 244.155134 
L 467.913762 247.451546 
L 468.932382 247.439134 
L 469.951002 246.742582 
L 470.969622 247.552278 
L 471.988242 249.717972 
L 473.006862 249.338464 
L 474.025482 246.490535 
L 475.044102 245.871084 
L 476.062721 245.487976 
L 477.081341 242.661606 
L 478.099961 242.369042 
L 479.118581 238.535897 
L 480.137201 238.357695 
L 481.155821 237.284502 
L 482.174441 237.783541 
L 483.193061 235.900538 
L 484.211681 239.307995 
L 485.230301 237.101968 
L 486.248921 239.938058 
L 487.267541 240.694437 
L 488.286161 242.831691 
L 489.304781 242.48641 
L 490.323401 243.619183 
L 491.34202 242.047789 
L 492.36064 243.718036 
L 493.37926 246.280273 
L 494.39788 248.233053 
L 495.4165 246.782231 
L 496.43512 247.616273 
L 497.45374 247.79172 
L 498.47236 249.469815 
L 499.49098 246.094095 
L 500.5096 244.586037 
L 501.52822 240.647949 
L 502.54684 241.057941 
L 503.56546 239.875307 
L 504.58408 239.920584 
L 505.6027 236.930574 
L 506.621319 239.482663 
L 507.639939 236.20472 
L 508.658559 235.254231 
L 509.677179 233.385358 
L 510.695799 233.085716 
L 511.714419 232.643908 
L 512.733039 230.690455 
L 513.751659 230.591766 
L 514.770279 233.387398 
L 515.788899 234.867886 
L 516.807519 233.446255 
L 517.826139 233.655642 
L 518.844759 235.829567 
L 519.863379 235.88449 
L 520.881999 235.18239 
L 521.900618 237.572865 
L 522.919238 238.191955 
L 523.937858 240.119338 
L 524.956478 240.861699 
L 525.975098 238.19626 
L 528.012338 239.361858 
L 529.030958 238.627366 
L 530.049578 240.789594 
L 531.068198 240.594975 
L 532.086818 238.491004 
L 533.105438 238.937035 
L 534.124058 239.862353 
L 535.142678 242.137608 
L 537.179918 245.102688 
L 538.198537 243.967143 
L 539.217157 243.816566 
L 540.235777 241.871211 
L 541.254397 242.667812 
L 542.273017 238.759717 
L 543.291637 239.33497 
L 544.310257 238.598931 
L 545.328877 234.4161 
L 546.347497 234.482673 
L 548.384737 226.513012 
L 549.403357 227.610235 
L 550.421977 225.1221 
L 551.440597 224.494728 
L 552.459217 225.633941 
L 553.477836 221.796123 
L 554.496456 221.445586 
L 555.515076 222.234182 
L 556.533696 220.345306 
L 557.552316 222.868994 
L 558.570936 224.16897 
L 559.589556 225.157619 
L 560.608176 227.07545 
L 561.626796 227.233294 
L 562.645416 228.165556 
L 563.664036 229.636492 
L 564.682656 229.81953 
L 566.719896 234.583174 
L 567.738516 232.969333 
L 568.757135 232.734449 
L 569.775755 234.323137 
L 570.794375 231.432704 
L 571.812995 231.656739 
L 573.850235 225.088856 
L 574.868855 225.712998 
L 575.887475 224.300617 
L 576.906095 226.424407 
L 577.924715 222.092512 
L 579.961955 220.106354 
L 580.980575 220.172627 
L 581.999195 218.82803 
L 583.017815 218.041303 
L 584.036434 219.432065 
L 585.055054 216.738385 
L 586.073674 216.716478 
L 587.092294 214.739064 
L 588.110914 215.982293 
L 589.129534 215.827851 
L 590.148154 220.208945 
L 591.166774 221.501363 
L 592.185394 216.970947 
L 593.204014 219.876987 
L 594.222634 220.591474 
L 595.241254 223.334085 
L 596.259874 223.685658 
L 597.278494 223.096051 
L 598.297114 224.302422 
L 599.315734 224.780565 
L 600.334353 223.916822 
L 601.352973 224.680384 
L 602.371593 222.942533 
L 603.390213 224.644275 
L 604.408833 225.501415 
L 605.427453 228.955912 
L 606.446073 227.922262 
L 607.464693 231.491333 
L 608.483313 233.186443 
L 609.501933 232.984198 
L 610.520553 232.468227 
L 611.539173 235.701976 
L 612.557793 236.305942 
L 613.576413 240.344372 
L 614.595033 241.760218 
L 615.613652 242.441236 
L 616.632272 245.767633 
L 618.669512 247.177305 
L 619.688132 249.671211 
L 620.706752 254.527663 
L 621.725372 254.051033 
L 622.743992 252.225619 
L 623.762612 252.93728 
L 624.781232 254.41616 
L 625.799852 253.845921 
L 626.818472 255.472367 
L 627.837092 252.835013 
L 628.855712 255.075415 
L 629.874332 255.583423 
L 630.892951 255.528163 
L 631.911571 253.790298 
L 632.930191 255.090421 
L 633.948811 254.642883 
L 634.967431 250.948307 
L 635.986051 250.575852 
L 635.986051 250.575852 
" clip-path="url(#peb7979cb19)" style="fill: none; stroke: #1f77b4; stroke-width: 3; stroke-linecap: square"/>
   </g>
   <g id="line2d_11">
    <path d="M 128.713324 168.51787 
L 129.731944 167.258618 
L 130.750564 167.392612 
L 131.769184 165.770404 
L 132.787804 165.996899 
L 133.806424 165.237784 
L 134.825043 165.326766 
L 135.843663 163.767708 
L 136.862283 161.839922 
L 137.880903 161.398757 
L 138.899523 160.13686 
L 139.918143 160.213725 
L 140.936763 159.553446 
L 141.955383 159.513228 
L 143.992623 157.880095 
L 145.011243 158.205454 
L 146.029863 158.25827 
L 147.048483 159.277968 
L 148.067103 160.109765 
L 149.085723 162.492426 
L 150.104342 162.93899 
L 151.122962 162.903966 
L 152.141582 164.169055 
L 153.160202 166.16775 
L 154.178822 166.919339 
L 155.197442 166.300393 
L 157.234682 171.248148 
L 158.253302 171.048256 
L 159.271922 170.438417 
L 162.327782 172.765655 
L 163.346402 174.548187 
L 164.365022 175.040226 
L 165.383641 174.795315 
L 166.402261 174.840544 
L 167.420881 175.282797 
L 168.439501 175.996414 
L 169.458121 175.616447 
L 170.476741 175.676439 
L 171.495361 174.926125 
L 172.513981 175.424655 
L 174.551221 175.416133 
L 175.569841 174.986773 
L 176.588461 176.65119 
L 177.607081 174.712772 
L 178.625701 175.118004 
L 179.644321 174.713098 
L 180.662941 175.794874 
L 181.68156 177.744886 
L 182.70018 178.177606 
L 184.73742 178.63253 
L 185.75604 179.388975 
L 186.77466 179.419507 
L 187.79328 179.131473 
L 188.8119 177.370425 
L 189.83052 177.656925 
L 190.84914 176.765197 
L 191.86776 176.838835 
L 192.88638 175.115502 
L 193.905 172.943284 
L 194.92362 173.175985 
L 195.94224 172.442437 
L 196.960859 171.013135 
L 197.979479 168.606993 
L 198.998099 168.947752 
L 200.016719 167.221049 
L 201.035339 166.074709 
L 202.053959 166.367659 
L 203.072579 164.481879 
L 204.091199 163.72766 
L 207.147059 158.329745 
L 208.165679 158.092181 
L 209.184299 154.139792 
L 211.221539 152.460931 
L 212.240158 152.537228 
L 213.258778 151.687177 
L 214.277398 150.28298 
L 215.296018 148.070214 
L 216.314638 147.984052 
L 217.333258 145.343855 
L 218.351878 145.375349 
L 219.370498 145.088131 
L 220.389118 142.825411 
L 221.407738 141.959598 
L 222.426358 142.09739 
L 223.444978 141.663972 
L 224.463598 139.582389 
L 225.482218 138.668419 
L 226.500838 138.87242 
L 227.519457 138.60282 
L 228.538077 138.57759 
L 229.556697 136.368328 
L 230.575317 138.790701 
L 231.593937 138.639218 
L 232.612557 136.627702 
L 233.631177 135.873415 
L 234.649797 135.367339 
L 235.668417 134.543577 
L 237.705657 131.802736 
L 238.724277 129.905074 
L 239.742897 130.261493 
L 240.761517 128.741328 
L 241.780137 127.848658 
L 242.798757 127.33728 
L 243.817376 125.902897 
L 244.835996 123.844852 
L 245.854616 122.154329 
L 246.873236 121.246629 
L 247.891856 119.883248 
L 249.929096 117.929012 
L 250.947716 117.944486 
L 251.966336 117.76334 
L 252.984956 115.363318 
L 254.003576 114.177873 
L 255.022196 112.799798 
L 256.040816 112.486086 
L 258.078056 109.716254 
L 259.096675 108.587813 
L 260.115295 109.012949 
L 261.133915 106.879217 
L 262.152535 105.72731 
L 263.171155 105.458437 
L 264.189775 104.071499 
L 265.208395 102.089893 
L 266.227015 100.744166 
L 267.245635 98.965484 
L 268.264255 98.70082 
L 269.282875 96.627145 
L 270.301495 96.057732 
L 271.320115 95.061136 
L 272.338735 93.527575 
L 273.357355 93.83883 
L 274.375974 92.479332 
L 275.394594 92.308526 
L 276.413214 91.819257 
L 277.431834 93.213548 
L 278.450454 95.397791 
L 279.469074 95.425023 
L 280.487694 97.117919 
L 281.506314 98.24434 
L 282.524934 99.948487 
L 283.543554 103.396859 
L 284.562174 105.186779 
L 286.599414 110.148601 
L 290.673893 122.603437 
L 291.692513 125.222317 
L 292.711133 128.418054 
L 293.729753 136.338762 
L 295.766993 141.564346 
L 296.785613 143.339306 
L 297.804233 146.14217 
L 298.822853 148.396312 
L 299.841473 151.063756 
L 300.860093 152.758656 
L 301.878713 155.19167 
L 304.934572 163.408175 
L 305.953192 165.636732 
L 306.971812 166.887657 
L 307.990432 168.724573 
L 309.009052 172.024032 
L 310.027672 173.377761 
L 311.046292 174.196099 
L 312.064912 176.564195 
L 314.102152 179.477478 
L 315.120772 181.87051 
L 316.139392 181.184639 
L 317.158012 181.255405 
L 318.176632 182.429413 
L 319.195252 182.156047 
L 320.213872 181.531293 
L 321.232491 183.209807 
L 322.251111 183.49352 
L 324.288351 185.626063 
L 325.306971 187.983339 
L 326.325591 188.492191 
L 327.344211 190.545017 
L 328.362831 192.95056 
L 329.381451 195.805419 
L 330.400071 193.893582 
L 331.418691 194.425379 
L 332.437311 195.79731 
L 333.455931 196.903512 
L 334.474551 197.359809 
L 335.493171 198.259573 
L 336.51179 199.750755 
L 337.53041 199.020862 
L 338.54903 199.933067 
L 339.56765 198.971899 
L 340.58627 199.61287 
L 341.60489 199.354765 
L 343.64213 198.353935 
L 344.66075 197.295918 
L 345.67937 198.364852 
L 346.69799 198.066011 
L 347.71661 197.624874 
L 348.73523 196.714884 
L 349.75385 196.681012 
L 350.77247 193.599652 
L 351.791089 193.783754 
L 352.809709 194.132003 
L 353.828329 193.724849 
L 354.846949 194.183957 
L 355.865569 193.209473 
L 356.884189 190.331163 
L 357.902809 191.63096 
L 358.921429 193.427117 
L 359.940049 193.532697 
L 360.958669 192.05753 
L 361.977289 192.817375 
L 362.995909 192.26597 
L 364.014529 192.95761 
L 365.033149 192.910973 
L 366.051769 192.40313 
L 367.070388 190.389933 
L 368.089008 189.2638 
L 369.107628 187.562856 
L 370.126248 188.982381 
L 371.144868 186.309666 
L 373.182108 183.206307 
L 374.200728 183.464106 
L 375.219348 182.121586 
L 376.237968 179.790249 
L 377.256588 178.34044 
L 378.275208 176.048814 
L 379.293828 175.229949 
L 380.312448 173.877167 
L 381.331068 170.825069 
L 382.349688 169.737224 
L 383.368307 166.848323 
L 384.386927 164.390678 
L 385.405547 163.054296 
L 386.424167 160.332107 
L 387.442787 159.427429 
L 388.461407 157.377291 
L 389.480027 155.629869 
L 390.498647 153.467001 
L 391.517267 151.77603 
L 392.535887 148.771752 
L 393.554507 147.059443 
L 394.573127 146.010578 
L 395.591747 145.414885 
L 396.610367 143.525682 
L 397.628987 140.810922 
L 398.647606 140.478069 
L 399.666226 138.837181 
L 400.684846 138.979788 
L 401.703466 137.07589 
L 402.722086 135.856474 
L 403.740706 133.947774 
L 404.759326 135.012045 
L 405.777946 133.720765 
L 407.815186 134.320951 
L 408.833806 134.209383 
L 409.852426 132.759636 
L 410.871046 132.210613 
L 411.889666 131.066316 
L 412.908286 130.46844 
L 413.926905 130.329519 
L 414.945525 130.607587 
L 415.964145 130.38113 
L 416.982765 128.899938 
L 418.001385 129.559934 
L 419.020005 127.618125 
L 420.038625 128.847087 
L 421.057245 128.73635 
L 422.075865 129.09768 
L 423.094485 130.111517 
L 424.113105 131.826547 
L 425.131725 132.53861 
L 426.150345 134.084584 
L 427.168965 136.504231 
L 428.187585 136.306797 
L 429.206204 136.724394 
L 430.224824 137.679578 
L 431.243444 139.463345 
L 433.280684 143.814198 
L 434.299304 143.267959 
L 435.317924 144.178736 
L 436.336544 145.460077 
L 437.355164 145.996135 
L 438.373784 145.361589 
L 439.392404 145.106282 
L 440.411024 145.526667 
L 441.429644 144.887978 
L 442.448264 143.613444 
L 443.466884 143.727221 
L 445.504123 143.254153 
L 446.522743 142.612165 
L 447.541363 143.21013 
L 448.559983 144.372404 
L 449.578603 145.758083 
L 450.597223 145.093695 
L 451.615843 146.659177 
L 452.634463 146.701669 
L 453.653083 145.92651 
L 454.671703 145.798429 
L 455.690323 146.837612 
L 456.708943 147.095848 
L 458.746183 146.95212 
L 459.764803 146.24834 
L 460.783422 145.170762 
L 461.802042 144.287271 
L 462.820662 143.63451 
L 463.839282 146.273596 
L 464.857902 145.07461 
L 465.876522 144.892311 
L 466.895142 144.949485 
L 467.913762 144.427652 
L 468.932382 143.113341 
L 469.951002 144.115087 
L 473.006862 144.170537 
L 474.025482 144.385375 
L 475.044102 143.805441 
L 476.062721 144.525832 
L 477.081341 145.059451 
L 478.099961 144.573739 
L 479.118581 144.906255 
L 481.155821 143.908784 
L 483.193061 143.058008 
L 484.211681 142.462753 
L 485.230301 143.466423 
L 486.248921 144.004388 
L 487.267541 145.763751 
L 488.286161 146.83934 
L 489.304781 147.190084 
L 490.323401 147.083222 
L 491.34202 147.678847 
L 492.36064 148.079155 
L 493.37926 149.424354 
L 494.39788 150.405653 
L 495.4165 149.312112 
L 496.43512 151.382057 
L 497.45374 152.273664 
L 498.47236 155.549069 
L 499.49098 154.632614 
L 500.5096 154.806511 
L 501.52822 156.67966 
L 502.54684 157.994397 
L 503.56546 158.301702 
L 504.58408 159.399461 
L 505.6027 160.697551 
L 506.621319 159.494228 
L 507.639939 159.892879 
L 508.658559 160.560746 
L 509.677179 160.684369 
L 511.714419 161.36312 
L 512.733039 161.179146 
L 513.751659 161.971315 
L 514.770279 161.127218 
L 515.788899 161.054368 
L 516.807519 160.864739 
L 517.826139 160.98983 
L 518.844759 161.264214 
L 519.863379 161.837198 
L 520.881999 160.355601 
L 521.900618 162.748106 
L 522.919238 162.046268 
L 523.937858 162.39407 
L 524.956478 163.581124 
L 525.975098 164.493614 
L 526.993718 163.201364 
L 528.012338 165.076419 
L 529.030958 164.066632 
L 530.049578 164.202597 
L 531.068198 163.918747 
L 532.086818 163.842105 
L 533.105438 164.398593 
L 534.124058 164.042798 
L 535.142678 165.233248 
L 536.161298 164.121386 
L 537.179918 163.195266 
L 538.198537 162.621003 
L 539.217157 163.183743 
L 540.235777 160.926801 
L 541.254397 158.994555 
L 542.273017 160.334713 
L 543.291637 159.691257 
L 544.310257 157.694899 
L 545.328877 156.828741 
L 546.347497 156.284449 
L 547.366117 156.050842 
L 549.403357 154.171859 
L 550.421977 153.650572 
L 551.440597 151.69243 
L 552.459217 152.632992 
L 553.477836 150.263982 
L 554.496456 149.669201 
L 555.515076 149.472576 
L 556.533696 148.355918 
L 557.552316 147.995332 
L 558.570936 148.359163 
L 559.589556 146.782663 
L 560.608176 146.306606 
L 561.626796 146.131935 
L 562.645416 144.795637 
L 563.664036 144.241338 
L 564.682656 142.583449 
L 565.701276 142.471911 
L 566.719896 142.821522 
L 567.738516 141.548232 
L 568.757135 140.600787 
L 569.775755 140.90831 
L 570.794375 140.945069 
L 571.812995 141.711026 
L 572.831615 140.252308 
L 573.850235 139.309345 
L 574.868855 138.686836 
L 575.887475 139.056971 
L 576.906095 137.460018 
L 577.924715 137.249897 
L 578.943335 136.756792 
L 580.980575 133.82182 
L 581.999195 133.426715 
L 583.017815 132.108813 
L 584.036434 131.197912 
L 585.055054 129.68788 
L 586.073674 129.752351 
L 587.092294 128.108122 
L 588.110914 125.883786 
L 589.129534 125.560427 
L 590.148154 125.812547 
L 591.166774 125.5388 
L 592.185394 124.116271 
L 593.204014 122.292503 
L 594.222634 121.628391 
L 595.241254 121.542973 
L 596.259874 119.986014 
L 597.278494 117.348644 
L 598.297114 117.928662 
L 599.315734 115.497408 
L 600.334353 114.900779 
L 601.352973 112.731524 
L 602.371593 113.067025 
L 603.390213 112.089998 
L 604.408833 110.509684 
L 605.427453 110.189611 
L 606.446073 111.2466 
L 607.464693 124.009686 
L 608.483313 123.282916 
L 610.520553 120.546145 
L 611.539173 121.12207 
L 613.576413 118.760878 
L 614.595033 118.978354 
L 615.613652 118.091625 
L 616.632272 116.922229 
L 617.650892 116.566802 
L 618.669512 117.892113 
L 619.688132 117.735254 
L 621.725372 117.912799 
L 622.743992 119.76003 
L 623.762612 120.242161 
L 625.799852 121.700104 
L 627.837092 119.812496 
L 628.855712 120.413272 
L 629.874332 120.248138 
L 630.892951 121.309654 
L 631.911571 119.236318 
L 632.930191 119.465952 
L 633.948811 119.842352 
L 634.967431 120.435634 
L 635.986051 120.531223 
L 635.986051 120.531223 
" clip-path="url(#peb7979cb19)" style="fill: none; stroke: #ff7f0e; stroke-width: 3; stroke-linecap: square"/>
   </g>
   <g id="patch_3">
    <path d="M 103.349688 364.07625 
L 103.349688 31.43625 
" style="fill: none; stroke: #000000; stroke-width: 2.5; stroke-linejoin: miter; stroke-linecap: square"/>
   </g>
   <g id="patch_4">
    <path d="M 661.349688 364.07625 
L 661.349688 31.43625 
" style="fill: none; stroke: #000000; stroke-width: 2.5; stroke-linejoin: miter; stroke-linecap: square"/>
   </g>
   <g id="patch_5">
    <path d="M 103.349688 364.07625 
L 661.349687 364.07625 
" style="fill: none; stroke: #000000; stroke-width: 2.5; stroke-linejoin: miter; stroke-linecap: square"/>
   </g>
   <g id="patch_6">
    <path d="M 103.349688 31.43625 
L 661.349687 31.43625 
" style="fill: none; stroke: #000000; stroke-width: 2.5; stroke-linejoin: miter; stroke-linecap: square"/>
   </g>
   <g id="text_12">
    <!-- Pupillary response to oddball -->
    <g transform="translate(208.505313 25.43625) scale(0.24 -0.24)">
     <defs>
      <path id="DejaVuSans-50" d="M 1259 4147 
L 1259 2394 
L 2053 2394 
Q 2494 2394 2734 2622 
Q 2975 2850 2975 3272 
Q 2975 3691 2734 3919 
Q 2494 4147 2053 4147 
L 1259 4147 
z
M 628 4666 
L 2053 4666 
Q 2838 4666 3239 4311 
Q 3641 3956 3641 3272 
Q 3641 2581 3239 2228 
Q 2838 1875 2053 1875 
L 1259 1875 
L 1259 0 
L 628 0 
L 628 4666 
z
" transform="scale(0.015625)"/>
      <path id="DejaVuSans-79" d="M 2059 -325 
Q 1816 -950 1584 -1140 
Q 1353 -1331 966 -1331 
L 506 -1331 
L 506 -850 
L 844 -850 
Q 1081 -850 1212 -737 
Q 1344 -625 1503 -206 
L 1606 56 
L 191 3500 
L 800 3500 
L 1894 763 
L 2988 3500 
L 3597 3500 
L 2059 -325 
z
" transform="scale(0.015625)"/>
      <path id="DejaVuSans-74" d="M 1172 4494 
L 1172 3500 
L 2356 3500 
L 2356 3053 
L 1172 3053 
L 1172 1153 
Q 1172 725 1289 603 
Q 1406 481 1766 481 
L 2356 481 
L 2356 0 
L 1766 0 
Q 1100 0 847 248 
Q 594 497 594 1153 
L 594 3053 
L 172 3053 
L 172 3500 
L 594 3500 
L 594 4494 
L 1172 4494 
z
" transform="scale(0.015625)"/>
      <path id="DejaVuSans-62" d="M 3116 1747 
Q 3116 2381 2855 2742 
Q 2594 3103 2138 3103 
Q 1681 3103 1420 2742 
Q 1159 2381 1159 1747 
Q 1159 1113 1420 752 
Q 1681 391 2138 391 
Q 2594 391 2855 752 
Q 3116 1113 3116 1747 
z
M 1159 2969 
Q 1341 3281 1617 3432 
Q 1894 3584 2278 3584 
Q 2916 3584 3314 3078 
Q 3713 2572 3713 1747 
Q 3713 922 3314 415 
Q 2916 -91 2278 -91 
Q 1894 -91 1617 61 
Q 1341 213 1159 525 
L 1159 0 
L 581 0 
L 581 4863 
L 1159 4863 
L 1159 2969 
z
" transform="scale(0.015625)"/>
     </defs>
     <use xlink:href="#DejaVuSans-50"/>
     <use xlink:href="#DejaVuSans-75" x="58.552734"/>
     <use xlink:href="#DejaVuSans-70" x="121.931641"/>
     <use xlink:href="#DejaVuSans-69" x="185.408203"/>
     <use xlink:href="#DejaVuSans-6c" x="213.191406"/>
     <use xlink:href="#DejaVuSans-6c" x="240.974609"/>
     <use xlink:href="#DejaVuSans-61" x="268.757812"/>
     <use xlink:href="#DejaVuSans-72" x="330.037109"/>
     <use xlink:href="#DejaVuSans-79" x="371.150391"/>
     <use xlink:href="#DejaVuSans-20" x="430.330078"/>
     <use xlink:href="#DejaVuSans-72" x="462.117188"/>
     <use xlink:href="#DejaVuSans-65" x="500.980469"/>
     <use xlink:href="#DejaVuSans-73" x="562.503906"/>
     <use xlink:href="#DejaVuSans-70" x="614.603516"/>
     <use xlink:href="#DejaVuSans-6f" x="678.080078"/>
     <use xlink:href="#DejaVuSans-6e" x="739.261719"/>
     <use xlink:href="#DejaVuSans-73" x="802.640625"/>
     <use xlink:href="#DejaVuSans-65" x="854.740234"/>
     <use xlink:href="#DejaVuSans-20" x="916.263672"/>
     <use xlink:href="#DejaVuSans-74" x="948.050781"/>
     <use xlink:href="#DejaVuSans-6f" x="987.259766"/>
     <use xlink:href="#DejaVuSans-20" x="1048.441406"/>
     <use xlink:href="#DejaVuSans-6f" x="1080.228516"/>
     <use xlink:href="#DejaVuSans-64" x="1141.410156"/>
     <use xlink:href="#DejaVuSans-64" x="1204.886719"/>
     <use xlink:href="#DejaVuSans-62" x="1268.363281"/>
     <use xlink:href="#DejaVuSans-61" x="1331.839844"/>
     <use xlink:href="#DejaVuSans-6c" x="1393.119141"/>
     <use xlink:href="#DejaVuSans-6c" x="1420.902344"/>
    </g>
   </g>
   <g id="legend_1">
    <g id="patch_7">
     <path d="M 118.749688 353.07625 
L 289.239375 353.07625 
Q 293.639375 353.07625 293.639375 348.67625 
L 293.639375 286.2925 
Q 293.639375 281.8925 289.239375 281.8925 
L 118.749688 281.8925 
Q 114.349688 281.8925 114.349688 286.2925 
L 114.349688 348.67625 
Q 114.349688 353.07625 118.749688 353.07625 
z
" style="fill: #ffffff; opacity: 0.8; stroke: #cccccc; stroke-width: 2; stroke-linejoin: miter"/>
    </g>
    <g id="patch_8">
     <path d="M 123.149688 307.409062 
L 167.149688 307.409062 
L 167.149688 292.009062 
L 123.149688 292.009062 
z
" style="fill: #1f77b4; fill-opacity: 0.5"/>
    </g>
    <g id="text_13">
     <!-- Oddball -->
     <g transform="translate(184.749688 307.409062) scale(0.22 -0.22)">
      <defs>
       <path id="DejaVuSans-4f" d="M 2522 4238 
Q 1834 4238 1429 3725 
Q 1025 3213 1025 2328 
Q 1025 1447 1429 934 
Q 1834 422 2522 422 
Q 3209 422 3611 934 
Q 4013 1447 4013 2328 
Q 4013 3213 3611 3725 
Q 3209 4238 2522 4238 
z
M 2522 4750 
Q 3503 4750 4090 4092 
Q 4678 3434 4678 2328 
Q 4678 1225 4090 567 
Q 3503 -91 2522 -91 
Q 1538 -91 948 565 
Q 359 1222 359 2328 
Q 359 3434 948 4092 
Q 1538 4750 2522 4750 
z
" transform="scale(0.015625)"/>
      </defs>
      <use xlink:href="#DejaVuSans-4f"/>
      <use xlink:href="#DejaVuSans-64" x="78.710938"/>
      <use xlink:href="#DejaVuSans-64" x="142.1875"/>
      <use xlink:href="#DejaVuSans-62" x="205.664062"/>
      <use xlink:href="#DejaVuSans-61" x="269.140625"/>
      <use xlink:href="#DejaVuSans-6c" x="330.419922"/>
      <use xlink:href="#DejaVuSans-6c" x="358.203125"/>
     </g>
    </g>
    <g id="patch_9">
     <path d="M 123.149688 339.700937 
L 167.149688 339.700937 
L 167.149688 324.300937 
L 123.149688 324.300937 
z
" style="fill: #ff7f0e; fill-opacity: 0.5"/>
    </g>
    <g id="text_14">
     <!-- Standard -->
     <g transform="translate(184.749688 339.700937) scale(0.22 -0.22)">
      <defs>
       <path id="DejaVuSans-53" d="M 3425 4513 
L 3425 3897 
Q 3066 4069 2747 4153 
Q 2428 4238 2131 4238 
Q 1616 4238 1336 4038 
Q 1056 3838 1056 3469 
Q 1056 3159 1242 3001 
Q 1428 2844 1947 2747 
L 2328 2669 
Q 3034 2534 3370 2195 
Q 3706 1856 3706 1288 
Q 3706 609 3251 259 
Q 2797 -91 1919 -91 
Q 1588 -91 1214 -16 
Q 841 59 441 206 
L 441 856 
Q 825 641 1194 531 
Q 1563 422 1919 422 
Q 2459 422 2753 634 
Q 3047 847 3047 1241 
Q 3047 1584 2836 1778 
Q 2625 1972 2144 2069 
L 1759 2144 
Q 1053 2284 737 2584 
Q 422 2884 422 3419 
Q 422 4038 858 4394 
Q 1294 4750 2059 4750 
Q 2388 4750 2728 4690 
Q 3069 4631 3425 4513 
z
" transform="scale(0.015625)"/>
      </defs>
      <use xlink:href="#DejaVuSans-53"/>
      <use xlink:href="#DejaVuSans-74" x="63.476562"/>
      <use xlink:href="#DejaVuSans-61" x="102.685547"/>
      <use xlink:href="#DejaVuSans-6e" x="163.964844"/>
      <use xlink:href="#DejaVuSans-64" x="227.34375"/>
      <use xlink:href="#DejaVuSans-61" x="290.820312"/>
      <use xlink:href="#DejaVuSans-72" x="352.099609"/>
      <use xlink:href="#DejaVuSans-64" x="391.462891"/>
     </g>
    </g>
   </g>
  </g>
 </g>
 <defs>
  <clipPath id="peb7979cb19">
   <rect x="103.349688" y="31.43625" width="558" height="332.64"/>
  </clipPath>
 </defs>
</svg>
