<?xml version="1.0" encoding="utf-8" standalone="no"?>
<!DOCTYPE svg PUBLIC "-//W3C//DTD SVG 1.1//EN"
  "http://www.w3.org/Graphics/SVG/1.1/DTD/svg11.dtd">
<svg xmlns:xlink="http://www.w3.org/1999/xlink" width="417.405807pt" height="310.86825pt" viewBox="0 0 417.405807 310.86825" xmlns="http://www.w3.org/2000/svg" version="1.1">
 <metadata>
  <rdf:RDF xmlns:dc="http://purl.org/dc/elements/1.1/" xmlns:cc="http://creativecommons.org/ns#" xmlns:rdf="http://www.w3.org/1999/02/22-rdf-syntax-ns#">
   <cc:Work>
    <dc:type rdf:resource="http://purl.org/dc/dcmitype/StillImage"/>
    <dc:date>2023-02-10T13:59:09.016994</dc:date>
    <dc:format>image/svg+xml</dc:format>
    <dc:creator>
     <cc:Agent>
      <dc:title>Matplotlib v3.6.3, https://matplotlib.org/</dc:title>
     </cc:Agent>
    </dc:creator>
   </cc:Work>
  </rdf:RDF>
 </metadata>
 <defs>
  <style type="text/css">*{stroke-linejoin: round; stroke-linecap: butt}</style>
 </defs>
 <g id="figure_1">
  <g id="patch_1">
   <path d="M 0 310.86825 
L 417.405807 310.86825 
L 417.405807 0 
L 0 0 
z
" style="fill: #ffffff"/>
  </g>
  <g id="axes_1">
   <g id="patch_2">
    <path d="M 46.0125 273.312 
L 403.1325 273.312 
L 403.1325 7.2 
L 46.0125 7.2 
z
" style="fill: #ffffff"/>
   </g>
   <g id="matplotlib.axis_1">
    <g id="xtick_1">
     <g id="line2d_1">
      <defs>
       <path id="mc7f84db633" d="M 0 0 
L 0 3.5 
" style="stroke: #000000; stroke-width: 0.8"/>
      </defs>
      <g>
       <use xlink:href="#mc7f84db633" x="62.245227" y="273.312" style="stroke: #000000; stroke-width: 0.8"/>
      </g>
     </g>
     <g id="text_1">
      <!-- 0 -->
      <g transform="translate(59.063977 287.910437) scale(0.1 -0.1)">
       <defs>
        <path id="DejaVuSans-30" d="M 2034 4250 
Q 1547 4250 1301 3770 
Q 1056 3291 1056 2328 
Q 1056 1369 1301 889 
Q 1547 409 2034 409 
Q 2525 409 2770 889 
Q 3016 1369 3016 2328 
Q 3016 3291 2770 3770 
Q 2525 4250 2034 4250 
z
M 2034 4750 
Q 2819 4750 3233 4129 
Q 3647 3509 3647 2328 
Q 3647 1150 3233 529 
Q 2819 -91 2034 -91 
Q 1250 -91 836 529 
Q 422 1150 422 2328 
Q 422 3509 836 4129 
Q 1250 4750 2034 4750 
z
" transform="scale(0.015625)"/>
       </defs>
       <use xlink:href="#DejaVuSans-30"/>
      </g>
     </g>
    </g>
    <g id="xtick_2">
     <g id="line2d_2">
      <g>
       <use xlink:href="#mc7f84db633" x="129.928593" y="273.312" style="stroke: #000000; stroke-width: 0.8"/>
      </g>
     </g>
     <g id="text_2">
      <!-- 100 -->
      <g transform="translate(120.384843 287.910437) scale(0.1 -0.1)">
       <defs>
        <path id="DejaVuSans-31" d="M 794 531 
L 1825 531 
L 1825 4091 
L 703 3866 
L 703 4441 
L 1819 4666 
L 2450 4666 
L 2450 531 
L 3481 531 
L 3481 0 
L 794 0 
L 794 531 
z
" transform="scale(0.015625)"/>
       </defs>
       <use xlink:href="#DejaVuSans-31"/>
       <use xlink:href="#DejaVuSans-30" x="63.623047"/>
       <use xlink:href="#DejaVuSans-30" x="127.246094"/>
      </g>
     </g>
    </g>
    <g id="xtick_3">
     <g id="line2d_3">
      <g>
       <use xlink:href="#mc7f84db633" x="197.611959" y="273.312" style="stroke: #000000; stroke-width: 0.8"/>
      </g>
     </g>
     <g id="text_3">
      <!-- 200 -->
      <g transform="translate(188.068209 287.910437) scale(0.1 -0.1)">
       <defs>
        <path id="DejaVuSans-32" d="M 1228 531 
L 3431 531 
L 3431 0 
L 469 0 
L 469 531 
Q 828 903 1448 1529 
Q 2069 2156 2228 2338 
Q 2531 2678 2651 2914 
Q 2772 3150 2772 3378 
Q 2772 3750 2511 3984 
Q 2250 4219 1831 4219 
Q 1534 4219 1204 4116 
Q 875 4013 500 3803 
L 500 4441 
Q 881 4594 1212 4672 
Q 1544 4750 1819 4750 
Q 2544 4750 2975 4387 
Q 3406 4025 3406 3419 
Q 3406 3131 3298 2873 
Q 3191 2616 2906 2266 
Q 2828 2175 2409 1742 
Q 1991 1309 1228 531 
z
" transform="scale(0.015625)"/>
       </defs>
       <use xlink:href="#DejaVuSans-32"/>
       <use xlink:href="#DejaVuSans-30" x="63.623047"/>
       <use xlink:href="#DejaVuSans-30" x="127.246094"/>
      </g>
     </g>
    </g>
    <g id="xtick_4">
     <g id="line2d_4">
      <g>
       <use xlink:href="#mc7f84db633" x="265.295325" y="273.312" style="stroke: #000000; stroke-width: 0.8"/>
      </g>
     </g>
     <g id="text_4">
      <!-- 300 -->
      <g transform="translate(255.751575 287.910437) scale(0.1 -0.1)">
       <defs>
        <path id="DejaVuSans-33" d="M 2597 2516 
Q 3050 2419 3304 2112 
Q 3559 1806 3559 1356 
Q 3559 666 3084 287 
Q 2609 -91 1734 -91 
Q 1441 -91 1130 -33 
Q 819 25 488 141 
L 488 750 
Q 750 597 1062 519 
Q 1375 441 1716 441 
Q 2309 441 2620 675 
Q 2931 909 2931 1356 
Q 2931 1769 2642 2001 
Q 2353 2234 1838 2234 
L 1294 2234 
L 1294 2753 
L 1863 2753 
Q 2328 2753 2575 2939 
Q 2822 3125 2822 3475 
Q 2822 3834 2567 4026 
Q 2313 4219 1838 4219 
Q 1578 4219 1281 4162 
Q 984 4106 628 3988 
L 628 4550 
Q 988 4650 1302 4700 
Q 1616 4750 1894 4750 
Q 2613 4750 3031 4423 
Q 3450 4097 3450 3541 
Q 3450 3153 3228 2886 
Q 3006 2619 2597 2516 
z
" transform="scale(0.015625)"/>
       </defs>
       <use xlink:href="#DejaVuSans-33"/>
       <use xlink:href="#DejaVuSans-30" x="63.623047"/>
       <use xlink:href="#DejaVuSans-30" x="127.246094"/>
      </g>
     </g>
    </g>
    <g id="xtick_5">
     <g id="line2d_5">
      <g>
       <use xlink:href="#mc7f84db633" x="332.978691" y="273.312" style="stroke: #000000; stroke-width: 0.8"/>
      </g>
     </g>
     <g id="text_5">
      <!-- 400 -->
      <g transform="translate(323.434941 287.910437) scale(0.1 -0.1)">
       <defs>
        <path id="DejaVuSans-34" d="M 2419 4116 
L 825 1625 
L 2419 1625 
L 2419 4116 
z
M 2253 4666 
L 3047 4666 
L 3047 1625 
L 3713 1625 
L 3713 1100 
L 3047 1100 
L 3047 0 
L 2419 0 
L 2419 1100 
L 313 1100 
L 313 1709 
L 2253 4666 
z
" transform="scale(0.015625)"/>
       </defs>
       <use xlink:href="#DejaVuSans-34"/>
       <use xlink:href="#DejaVuSans-30" x="63.623047"/>
       <use xlink:href="#DejaVuSans-30" x="127.246094"/>
      </g>
     </g>
    </g>
    <g id="xtick_6">
     <g id="line2d_6">
      <g>
       <use xlink:href="#mc7f84db633" x="400.662057" y="273.312" style="stroke: #000000; stroke-width: 0.8"/>
      </g>
     </g>
     <g id="text_6">
      <!-- 500 -->
      <g transform="translate(391.118307 287.910437) scale(0.1 -0.1)">
       <defs>
        <path id="DejaVuSans-35" d="M 691 4666 
L 3169 4666 
L 3169 4134 
L 1269 4134 
L 1269 2991 
Q 1406 3038 1543 3061 
Q 1681 3084 1819 3084 
Q 2600 3084 3056 2656 
Q 3513 2228 3513 1497 
Q 3513 744 3044 326 
Q 2575 -91 1722 -91 
Q 1428 -91 1123 -41 
Q 819 9 494 109 
L 494 744 
Q 775 591 1075 516 
Q 1375 441 1709 441 
Q 2250 441 2565 725 
Q 2881 1009 2881 1497 
Q 2881 1984 2565 2268 
Q 2250 2553 1709 2553 
Q 1456 2553 1204 2497 
Q 953 2441 691 2322 
L 691 4666 
z
" transform="scale(0.015625)"/>
       </defs>
       <use xlink:href="#DejaVuSans-35"/>
       <use xlink:href="#DejaVuSans-30" x="63.623047"/>
       <use xlink:href="#DejaVuSans-30" x="127.246094"/>
      </g>
     </g>
    </g>
    <g id="text_7">
     <!-- time (s) -->
     <g transform="translate(205.181094 301.588562) scale(0.1 -0.1)">
      <defs>
       <path id="DejaVuSans-74" d="M 1172 4494 
L 1172 3500 
L 2356 3500 
L 2356 3053 
L 1172 3053 
L 1172 1153 
Q 1172 725 1289 603 
Q 1406 481 1766 481 
L 2356 481 
L 2356 0 
L 1766 0 
Q 1100 0 847 248 
Q 594 497 594 1153 
L 594 3053 
L 172 3053 
L 172 3500 
L 594 3500 
L 594 4494 
L 1172 4494 
z
" transform="scale(0.015625)"/>
       <path id="DejaVuSans-69" d="M 603 3500 
L 1178 3500 
L 1178 0 
L 603 0 
L 603 3500 
z
M 603 4863 
L 1178 4863 
L 1178 4134 
L 603 4134 
L 603 4863 
z
" transform="scale(0.015625)"/>
       <path id="DejaVuSans-6d" d="M 3328 2828 
Q 3544 3216 3844 3400 
Q 4144 3584 4550 3584 
Q 5097 3584 5394 3201 
Q 5691 2819 5691 2113 
L 5691 0 
L 5113 0 
L 5113 2094 
Q 5113 2597 4934 2840 
Q 4756 3084 4391 3084 
Q 3944 3084 3684 2787 
Q 3425 2491 3425 1978 
L 3425 0 
L 2847 0 
L 2847 2094 
Q 2847 2600 2669 2842 
Q 2491 3084 2119 3084 
Q 1678 3084 1418 2786 
Q 1159 2488 1159 1978 
L 1159 0 
L 581 0 
L 581 3500 
L 1159 3500 
L 1159 2956 
Q 1356 3278 1631 3431 
Q 1906 3584 2284 3584 
Q 2666 3584 2933 3390 
Q 3200 3197 3328 2828 
z
" transform="scale(0.015625)"/>
       <path id="DejaVuSans-65" d="M 3597 1894 
L 3597 1613 
L 953 1613 
Q 991 1019 1311 708 
Q 1631 397 2203 397 
Q 2534 397 2845 478 
Q 3156 559 3463 722 
L 3463 178 
Q 3153 47 2828 -22 
Q 2503 -91 2169 -91 
Q 1331 -91 842 396 
Q 353 884 353 1716 
Q 353 2575 817 3079 
Q 1281 3584 2069 3584 
Q 2775 3584 3186 3129 
Q 3597 2675 3597 1894 
z
M 3022 2063 
Q 3016 2534 2758 2815 
Q 2500 3097 2075 3097 
Q 1594 3097 1305 2825 
Q 1016 2553 972 2059 
L 3022 2063 
z
" transform="scale(0.015625)"/>
       <path id="DejaVuSans-20" transform="scale(0.015625)"/>
       <path id="DejaVuSans-28" d="M 1984 4856 
Q 1566 4138 1362 3434 
Q 1159 2731 1159 2009 
Q 1159 1288 1364 580 
Q 1569 -128 1984 -844 
L 1484 -844 
Q 1016 -109 783 600 
Q 550 1309 550 2009 
Q 550 2706 781 3412 
Q 1013 4119 1484 4856 
L 1984 4856 
z
" transform="scale(0.015625)"/>
       <path id="DejaVuSans-73" d="M 2834 3397 
L 2834 2853 
Q 2591 2978 2328 3040 
Q 2066 3103 1784 3103 
Q 1356 3103 1142 2972 
Q 928 2841 928 2578 
Q 928 2378 1081 2264 
Q 1234 2150 1697 2047 
L 1894 2003 
Q 2506 1872 2764 1633 
Q 3022 1394 3022 966 
Q 3022 478 2636 193 
Q 2250 -91 1575 -91 
Q 1294 -91 989 -36 
Q 684 19 347 128 
L 347 722 
Q 666 556 975 473 
Q 1284 391 1588 391 
Q 1994 391 2212 530 
Q 2431 669 2431 922 
Q 2431 1156 2273 1281 
Q 2116 1406 1581 1522 
L 1381 1569 
Q 847 1681 609 1914 
Q 372 2147 372 2553 
Q 372 3047 722 3315 
Q 1072 3584 1716 3584 
Q 2034 3584 2315 3537 
Q 2597 3491 2834 3397 
z
" transform="scale(0.015625)"/>
       <path id="DejaVuSans-29" d="M 513 4856 
L 1013 4856 
Q 1481 4119 1714 3412 
Q 1947 2706 1947 2009 
Q 1947 1309 1714 600 
Q 1481 -109 1013 -844 
L 513 -844 
Q 928 -128 1133 580 
Q 1338 1288 1338 2009 
Q 1338 2731 1133 3434 
Q 928 4138 513 4856 
z
" transform="scale(0.015625)"/>
      </defs>
      <use xlink:href="#DejaVuSans-74"/>
      <use xlink:href="#DejaVuSans-69" x="39.208984"/>
      <use xlink:href="#DejaVuSans-6d" x="66.992188"/>
      <use xlink:href="#DejaVuSans-65" x="164.404297"/>
      <use xlink:href="#DejaVuSans-20" x="225.927734"/>
      <use xlink:href="#DejaVuSans-28" x="257.714844"/>
      <use xlink:href="#DejaVuSans-73" x="296.728516"/>
      <use xlink:href="#DejaVuSans-29" x="348.828125"/>
     </g>
    </g>
   </g>
   <g id="matplotlib.axis_2">
    <g id="ytick_1">
     <g id="line2d_7">
      <defs>
       <path id="mf9e7bced79" d="M 0 0 
L -3.5 0 
" style="stroke: #000000; stroke-width: 0.8"/>
      </defs>
      <g>
       <use xlink:href="#mf9e7bced79" x="46.0125" y="257.989746" style="stroke: #000000; stroke-width: 0.8"/>
      </g>
     </g>
     <g id="text_8">
      <!-- 25000 -->
      <g transform="translate(7.2 261.788965) scale(0.1 -0.1)">
       <use xlink:href="#DejaVuSans-32"/>
       <use xlink:href="#DejaVuSans-35" x="63.623047"/>
       <use xlink:href="#DejaVuSans-30" x="127.246094"/>
       <use xlink:href="#DejaVuSans-30" x="190.869141"/>
       <use xlink:href="#DejaVuSans-30" x="254.492188"/>
      </g>
     </g>
    </g>
    <g id="ytick_2">
     <g id="line2d_8">
      <g>
       <use xlink:href="#mf9e7bced79" x="46.0125" y="226.478549" style="stroke: #000000; stroke-width: 0.8"/>
      </g>
     </g>
     <g id="text_9">
      <!-- 30000 -->
      <g transform="translate(7.2 230.277768) scale(0.1 -0.1)">
       <use xlink:href="#DejaVuSans-33"/>
       <use xlink:href="#DejaVuSans-30" x="63.623047"/>
       <use xlink:href="#DejaVuSans-30" x="127.246094"/>
       <use xlink:href="#DejaVuSans-30" x="190.869141"/>
       <use xlink:href="#DejaVuSans-30" x="254.492188"/>
      </g>
     </g>
    </g>
    <g id="ytick_3">
     <g id="line2d_9">
      <g>
       <use xlink:href="#mf9e7bced79" x="46.0125" y="194.967352" style="stroke: #000000; stroke-width: 0.8"/>
      </g>
     </g>
     <g id="text_10">
      <!-- 35000 -->
      <g transform="translate(7.2 198.766571) scale(0.1 -0.1)">
       <use xlink:href="#DejaVuSans-33"/>
       <use xlink:href="#DejaVuSans-35" x="63.623047"/>
       <use xlink:href="#DejaVuSans-30" x="127.246094"/>
       <use xlink:href="#DejaVuSans-30" x="190.869141"/>
       <use xlink:href="#DejaVuSans-30" x="254.492188"/>
      </g>
     </g>
    </g>
    <g id="ytick_4">
     <g id="line2d_10">
      <g>
       <use xlink:href="#mf9e7bced79" x="46.0125" y="163.456156" style="stroke: #000000; stroke-width: 0.8"/>
      </g>
     </g>
     <g id="text_11">
      <!-- 40000 -->
      <g transform="translate(7.2 167.255374) scale(0.1 -0.1)">
       <use xlink:href="#DejaVuSans-34"/>
       <use xlink:href="#DejaVuSans-30" x="63.623047"/>
       <use xlink:href="#DejaVuSans-30" x="127.246094"/>
       <use xlink:href="#DejaVuSans-30" x="190.869141"/>
       <use xlink:href="#DejaVuSans-30" x="254.492188"/>
      </g>
     </g>
    </g>
    <g id="ytick_5">
     <g id="line2d_11">
      <g>
       <use xlink:href="#mf9e7bced79" x="46.0125" y="131.944959" style="stroke: #000000; stroke-width: 0.8"/>
      </g>
     </g>
     <g id="text_12">
      <!-- 45000 -->
      <g transform="translate(7.2 135.744178) scale(0.1 -0.1)">
       <use xlink:href="#DejaVuSans-34"/>
       <use xlink:href="#DejaVuSans-35" x="63.623047"/>
       <use xlink:href="#DejaVuSans-30" x="127.246094"/>
       <use xlink:href="#DejaVuSans-30" x="190.869141"/>
       <use xlink:href="#DejaVuSans-30" x="254.492188"/>
      </g>
     </g>
    </g>
    <g id="ytick_6">
     <g id="line2d_12">
      <g>
       <use xlink:href="#mf9e7bced79" x="46.0125" y="100.433762" style="stroke: #000000; stroke-width: 0.8"/>
      </g>
     </g>
     <g id="text_13">
      <!-- 50000 -->
      <g transform="translate(7.2 104.232981) scale(0.1 -0.1)">
       <use xlink:href="#DejaVuSans-35"/>
       <use xlink:href="#DejaVuSans-30" x="63.623047"/>
       <use xlink:href="#DejaVuSans-30" x="127.246094"/>
       <use xlink:href="#DejaVuSans-30" x="190.869141"/>
       <use xlink:href="#DejaVuSans-30" x="254.492188"/>
      </g>
     </g>
    </g>
    <g id="ytick_7">
     <g id="line2d_13">
      <g>
       <use xlink:href="#mf9e7bced79" x="46.0125" y="68.922565" style="stroke: #000000; stroke-width: 0.8"/>
      </g>
     </g>
     <g id="text_14">
      <!-- 55000 -->
      <g transform="translate(7.2 72.721784) scale(0.1 -0.1)">
       <use xlink:href="#DejaVuSans-35"/>
       <use xlink:href="#DejaVuSans-35" x="63.623047"/>
       <use xlink:href="#DejaVuSans-30" x="127.246094"/>
       <use xlink:href="#DejaVuSans-30" x="190.869141"/>
       <use xlink:href="#DejaVuSans-30" x="254.492188"/>
      </g>
     </g>
    </g>
    <g id="ytick_8">
     <g id="line2d_14">
      <g>
       <use xlink:href="#mf9e7bced79" x="46.0125" y="37.411369" style="stroke: #000000; stroke-width: 0.8"/>
      </g>
     </g>
     <g id="text_15">
      <!-- 60000 -->
      <g transform="translate(7.2 41.210587) scale(0.1 -0.1)">
       <defs>
        <path id="DejaVuSans-36" d="M 2113 2584 
Q 1688 2584 1439 2293 
Q 1191 2003 1191 1497 
Q 1191 994 1439 701 
Q 1688 409 2113 409 
Q 2538 409 2786 701 
Q 3034 994 3034 1497 
Q 3034 2003 2786 2293 
Q 2538 2584 2113 2584 
z
M 3366 4563 
L 3366 3988 
Q 3128 4100 2886 4159 
Q 2644 4219 2406 4219 
Q 1781 4219 1451 3797 
Q 1122 3375 1075 2522 
Q 1259 2794 1537 2939 
Q 1816 3084 2150 3084 
Q 2853 3084 3261 2657 
Q 3669 2231 3669 1497 
Q 3669 778 3244 343 
Q 2819 -91 2113 -91 
Q 1303 -91 875 529 
Q 447 1150 447 2328 
Q 447 3434 972 4092 
Q 1497 4750 2381 4750 
Q 2619 4750 2861 4703 
Q 3103 4656 3366 4563 
z
" transform="scale(0.015625)"/>
       </defs>
       <use xlink:href="#DejaVuSans-36"/>
       <use xlink:href="#DejaVuSans-30" x="63.623047"/>
       <use xlink:href="#DejaVuSans-30" x="127.246094"/>
       <use xlink:href="#DejaVuSans-30" x="190.869141"/>
       <use xlink:href="#DejaVuSans-30" x="254.492188"/>
      </g>
     </g>
    </g>
   </g>
   <g id="line2d_15">
    <path d="M 62.245227 249.861113 
L 62.470838 251.73566 
L 62.69645 248.822856 
L 62.922061 243.160269 
L 63.147672 246.446013 
L 63.373283 252.100352 
L 63.598895 244.950462 
L 63.824506 242.973479 
L 64.050117 259.521867 
L 64.275728 250.628767 
L 64.501339 250.186404 
L 64.726951 248.048123 
L 64.952562 247.373168 
L 65.178173 221.246669 
L 65.403784 215.767204 
L 65.629396 214.807934 
L 65.855007 211.651423 
L 66.080618 221.338384 
L 66.306229 217.016524 
L 66.53184 220.435415 
L 66.757452 232.76651 
L 66.983063 235.65989 
L 67.208674 233.094522 
L 67.659897 239.501265 
L 67.885508 245.944775 
L 68.111119 243.439401 
L 68.33673 238.112077 
L 68.562341 239.312592 
L 68.787953 238.153263 
L 69.013564 249.724396 
L 69.239175 237.961488 
L 69.464786 243.922791 
L 69.690398 228.459422 
L 69.916009 230.394591 
L 70.14162 219.70571 
L 70.367231 224.350202 
L 70.592842 226.217794 
L 70.818454 220.757839 
L 71.044065 228.717764 
L 71.269676 230.630679 
L 71.720899 237.530043 
L 71.94651 236.051626 
L 72.172121 236.08038 
L 72.397732 243.203264 
L 72.623343 237.694763 
L 72.848955 245.067078 
L 73.074566 240.805829 
L 73.300177 231.044965 
L 73.525788 212.049523 
L 73.751399 208.077241 
L 73.977011 217.674764 
L 74.202622 211.394865 
L 74.428233 213.257903 
L 74.653844 223.576971 
L 74.879456 216.118221 
L 75.330678 231.787299 
L 75.556289 223.359088 
L 75.7819 239.094795 
L 76.233123 242.767721 
L 76.458734 238.715615 
L 76.684345 252.885104 
L 76.909957 249.742552 
L 77.135568 249.898864 
L 77.361179 236.003707 
L 77.58679 231.702342 
L 77.812401 237.584252 
L 78.038013 235.73548 
L 78.489235 230.283649 
L 78.714846 232.011989 
L 79.39168 244.461127 
L 79.617291 244.957441 
L 79.842902 250.008686 
L 80.068514 250.613639 
L 80.294125 245.321888 
L 80.519736 249.761409 
L 80.745347 246.608431 
L 80.970959 250.909438 
L 81.19657 252.32226 
L 81.422181 241.170989 
L 81.647792 245.838511 
L 81.873403 230.969805 
L 82.099015 234.089475 
L 82.324626 233.232297 
L 82.775848 234.780297 
L 83.00146 228.663949 
L 83.227071 242.275678 
L 83.452682 236.884925 
L 83.678293 242.656681 
L 83.903904 245.537062 
L 84.129516 245.578224 
L 84.355127 239.167099 
L 84.580738 238.603713 
L 84.806349 236.737856 
L 85.03196 250.528559 
L 85.257572 243.218971 
L 85.483183 250.612064 
L 86.160017 227.602588 
L 86.385628 235.512612 
L 86.611239 235.451252 
L 87.062461 230.893772 
L 87.288073 243.787034 
L 87.513684 242.220706 
L 87.739295 244.770503 
L 87.964906 251.977188 
L 88.190518 244.349583 
L 88.416129 243.486164 
L 88.64174 244.581732 
L 88.867351 251.8668 
L 89.092962 249.224906 
L 89.318574 237.25885 
L 89.544185 211.624983 
L 89.769796 216.53252 
L 89.995407 200.009956 
L 90.44663 217.610511 
L 90.672241 210.005357 
L 90.897852 212.87812 
L 91.123463 231.814835 
L 91.349075 235.1782 
L 91.574686 231.580889 
L 91.800297 234.362835 
L 92.025908 246.851633 
L 92.477131 240.557912 
L 92.702742 251.687063 
L 93.605187 229.43654 
L 93.830798 239.022529 
L 94.056409 223.171658 
L 94.282021 227.561525 
L 94.507632 228.500165 
L 94.733243 228.287649 
L 94.958854 243.815776 
L 95.184465 239.403506 
L 95.410077 239.789666 
L 95.635688 236.874265 
L 95.861299 239.378236 
L 96.08691 243.525565 
L 96.312521 242.630561 
L 96.763744 236.947147 
L 96.989355 242.42575 
L 97.214966 233.284069 
L 97.440578 237.559917 
L 97.666189 226.541288 
L 97.8918 237.603811 
L 98.117411 241.089565 
L 98.343022 237.865071 
L 98.568634 228.01179 
L 99.019856 239.972961 
L 99.245467 235.367501 
L 99.471079 241.742917 
L 99.69669 238.954558 
L 99.922301 242.054152 
L 100.147912 250.528941 
L 100.373523 242.453003 
L 100.599135 244.757874 
L 100.824746 258.495365 
L 101.050357 246.594583 
L 101.275968 249.523832 
L 101.50158 231.628734 
L 101.727191 186.5176 
L 101.952802 185.835851 
L 102.404024 212.407877 
L 102.855247 101.03405 
L 103.306469 160.776227 
L 103.532081 161.662627 
L 103.983303 181.227264 
L 104.208914 178.265261 
L 104.434525 202.817185 
L 104.660137 192.3921 
L 104.885748 211.854055 
L 105.111359 205.393718 
L 105.33697 205.087936 
L 105.562581 209.542783 
L 105.788193 197.998409 
L 106.013804 193.296274 
L 106.465026 203.404328 
L 106.690638 199.496422 
L 107.14186 212.358111 
L 107.367471 212.302622 
L 107.593082 207.560605 
L 107.818694 212.80866 
L 108.044305 207.96774 
L 108.495527 226.822218 
L 108.721139 233.567497 
L 108.94675 228.870077 
L 109.172361 239.94545 
L 109.397972 233.464852 
L 109.623583 222.034559 
L 109.849195 200.996601 
L 110.074806 193.033106 
L 110.300417 204.104147 
L 110.526028 209.280107 
L 110.75164 218.614548 
L 110.977251 209.747778 
L 111.202862 215.25367 
L 111.428473 213.192518 
L 111.654084 206.043144 
L 111.879696 227.056533 
L 112.105307 229.888454 
L 112.330918 225.286343 
L 112.556529 240.902258 
L 112.782141 234.98251 
L 113.007752 239.897691 
L 113.233363 236.26973 
L 113.458974 242.995808 
L 113.684585 242.012092 
L 113.910197 229.103222 
L 114.135808 232.486036 
L 114.361419 231.700914 
L 114.58703 219.32376 
L 114.812642 222.839695 
L 115.263864 233.256004 
L 115.489475 228.414321 
L 116.166309 241.469939 
L 116.39192 238.126897 
L 116.843142 253.342164 
L 117.294365 234.361395 
L 117.519976 249.957246 
L 118.19681 233.733879 
L 118.422421 244.372096 
L 118.648032 230.42641 
L 118.873643 230.783015 
L 119.099255 228.859922 
L 119.324866 232.608757 
L 119.550477 233.019941 
L 119.776088 245.094318 
L 120.0017 243.297355 
L 120.227311 238.045275 
L 120.452922 239.476191 
L 120.678533 242.360488 
L 120.904144 247.377169 
L 121.129756 246.308237 
L 121.355367 237.817841 
L 121.806589 251.489564 
L 122.032201 234.240582 
L 122.257812 230.912076 
L 122.483423 229.259043 
L 122.709034 224.294466 
L 122.934645 223.839142 
L 123.160257 228.923572 
L 123.385868 227.935782 
L 123.611479 231.246956 
L 123.83709 246.175484 
L 124.062702 238.755927 
L 124.288313 237.308615 
L 124.513924 251.111073 
L 124.739535 235.922085 
L 124.965146 240.269437 
L 125.190758 241.616762 
L 125.416369 245.369019 
L 125.64198 245.832283 
L 125.867591 250.537963 
L 126.093203 237.801322 
L 126.318814 232.063663 
L 126.544425 237.221331 
L 126.770036 237.517291 
L 126.995647 227.086174 
L 127.221259 238.510976 
L 127.44687 229.469159 
L 127.672481 233.078889 
L 128.123703 242.820453 
L 128.349315 242.637466 
L 128.574926 246.129879 
L 128.800537 242.761357 
L 129.026148 250.061578 
L 129.25176 252.015174 
L 129.702982 247.642934 
L 129.928593 233.171207 
L 130.154204 234.782894 
L 130.379816 217.350986 
L 130.605427 225.991467 
L 130.831038 226.893204 
L 131.056649 234.864146 
L 131.282261 233.465074 
L 131.507872 236.751716 
L 131.733483 245.972114 
L 131.959094 232.749745 
L 132.184705 239.664631 
L 132.410317 250.382032 
L 132.635928 247.849984 
L 132.861539 247.410908 
L 133.08715 241.897728 
L 133.312762 247.47974 
L 133.538373 248.253525 
L 133.763984 246.153414 
L 133.989595 239.838213 
L 134.215206 239.452078 
L 134.440818 247.000253 
L 134.666429 239.068995 
L 134.89204 240.073575 
L 135.343263 226.892134 
L 135.568874 237.57182 
L 135.794485 236.336987 
L 136.020096 239.678712 
L 136.245707 245.5951 
L 136.471319 234.884789 
L 136.69693 247.079376 
L 136.922541 249.156173 
L 137.148152 244.740198 
L 137.373764 251.159017 
L 137.599375 242.999451 
L 137.824986 243.70236 
L 138.050597 235.767533 
L 138.276208 233.268683 
L 138.50182 227.050625 
L 138.727431 227.603819 
L 138.953042 219.259506 
L 139.178653 219.259875 
L 139.404264 227.856364 
L 139.629876 228.542532 
L 139.855487 216.510991 
L 140.081098 217.801473 
L 140.306709 220.153858 
L 140.757932 234.908114 
L 140.983543 239.236854 
L 141.209154 229.54753 
L 141.434765 250.901671 
L 141.885988 237.668249 
L 142.111599 244.474384 
L 142.33721 229.566893 
L 142.562822 233.484805 
L 142.788433 226.320058 
L 143.014044 237.639015 
L 143.465266 200.432379 
L 144.1421 230.070739 
L 144.367711 210.646856 
L 144.593323 228.744192 
L 144.818934 234.213637 
L 145.044545 247.727731 
L 145.270156 239.545122 
L 145.495767 240.003696 
L 145.721379 237.068921 
L 145.94699 238.756456 
L 146.398212 227.075452 
L 146.623824 229.524525 
L 146.849435 235.97643 
L 147.075046 226.665413 
L 147.300657 224.228723 
L 147.526268 229.701849 
L 147.75188 229.401385 
L 147.977491 231.738432 
L 148.203102 241.994588 
L 148.428713 242.43385 
L 148.654324 238.880925 
L 148.879936 248.837011 
L 149.105547 250.867231 
L 149.331158 241.780128 
L 149.556769 239.85456 
L 149.782381 251.520448 
L 150.007992 250.423329 
L 150.233603 238.787339 
L 150.459214 220.408545 
L 150.684825 225.297765 
L 150.910437 225.533385 
L 151.136048 220.258042 
L 151.58727 232.552295 
L 151.812882 233.517067 
L 152.038493 232.245344 
L 152.264104 237.164907 
L 152.489715 244.641751 
L 152.715326 246.753161 
L 153.166549 241.320569 
L 153.39216 242.662515 
L 153.617771 253.532487 
L 153.843383 246.887883 
L 154.068994 256.85229 
L 154.520216 242.193601 
L 154.745827 235.914577 
L 155.19705 229.904395 
L 155.422661 234.651384 
L 155.873884 227.439911 
L 156.099495 228.721925 
L 156.325106 238.709682 
L 156.550717 238.005911 
L 156.776328 236.73937 
L 157.00194 242.49505 
L 157.227551 237.177117 
L 157.453162 241.559242 
L 157.678773 249.694965 
L 157.904385 249.702067 
L 158.129996 246.620765 
L 158.355607 236.730385 
L 158.581218 234.407185 
L 158.806829 237.909346 
L 159.032441 238.553541 
L 159.258052 242.137287 
L 159.483663 240.250419 
L 160.160497 254.52504 
L 160.386108 246.885631 
L 160.611719 252.826796 
L 161.062942 244.7635 
L 161.288553 247.604369 
L 161.514164 251.880168 
L 161.739775 249.153465 
L 161.965386 244.984903 
L 162.190998 257.358636 
L 162.416609 245.824565 
L 162.64222 241.084518 
L 162.867831 233.653082 
L 163.093443 232.962987 
L 163.544665 223.777978 
L 163.770276 221.378363 
L 164.221499 241.577742 
L 164.44711 237.21306 
L 164.672721 245.717624 
L 164.898332 239.718422 
L 165.349555 252.887505 
L 165.575166 250.369366 
L 165.800777 240.847261 
L 166.026388 252.046537 
L 166.252 243.830854 
L 166.477611 247.765236 
L 166.703222 240.807675 
L 166.928833 237.41595 
L 167.154445 238.84646 
L 167.380056 230.496461 
L 167.605667 235.746521 
L 167.831278 238.166914 
L 168.056889 242.099216 
L 168.508112 230.90373 
L 168.733723 251.269663 
L 168.959334 252.771147 
L 169.410557 244.158558 
L 169.636168 255.890879 
L 169.861779 244.665926 
L 170.08739 246.443428 
L 170.313002 254.156655 
L 170.538613 235.189795 
L 170.764224 236.986942 
L 170.989835 232.279219 
L 171.215446 243.038372 
L 171.441058 241.619888 
L 171.666669 230.84818 
L 171.89228 232.630593 
L 172.117891 230.082691 
L 172.343503 242.567009 
L 172.569114 238.802184 
L 172.794725 247.280149 
L 173.020336 243.575884 
L 173.245947 250.603731 
L 173.471559 249.409665 
L 173.69717 240.226269 
L 173.922781 247.177331 
L 174.148392 249.082515 
L 174.374004 247.041033 
L 174.599615 249.801943 
L 174.825226 236.487478 
L 175.276448 227.598157 
L 175.50206 230.426594 
L 175.727671 230.217033 
L 175.953282 230.428785 
L 176.178893 234.114857 
L 176.404505 231.257345 
L 176.630116 242.569988 
L 176.855727 235.065055 
L 177.306949 240.443647 
L 177.758172 258.635651 
L 177.983783 241.643546 
L 178.209394 244.902124 
L 178.435006 242.844148 
L 179.111839 229.039412 
L 179.33745 219.07908 
L 179.788673 232.810502 
L 180.014284 237.607073 
L 180.239895 246.06325 
L 180.465507 242.838288 
L 180.691118 232.86918 
L 180.916729 245.694766 
L 181.14234 239.847371 
L 181.367951 245.659525 
L 181.593563 247.319402 
L 181.819174 247.286685 
L 182.044785 235.44362 
L 182.270396 241.194389 
L 182.496007 250.12609 
L 182.94723 236.141716 
L 183.172841 231.215913 
L 183.398452 238.149287 
L 183.624064 232.289928 
L 183.849675 234.04376 
L 184.075286 229.922107 
L 184.300897 241.269536 
L 184.526508 238.241137 
L 184.75212 228.444294 
L 184.977731 226.813479 
L 185.203342 240.591823 
L 185.654565 247.284888 
L 186.105787 249.272247 
L 186.331398 256.372384 
L 187.008232 233.011706 
L 187.233843 232.224357 
L 187.459454 229.811498 
L 187.910677 241.499407 
L 188.136288 239.126109 
L 188.361899 234.716819 
L 188.58751 234.884998 
L 188.813122 242.823222 
L 189.264344 238.158211 
L 189.489955 235.328838 
L 189.715567 236.004039 
L 190.166789 255.743835 
L 190.3924 249.517505 
L 190.618011 255.378354 
L 191.069234 230.743663 
L 191.294845 241.97338 
L 191.520456 242.600145 
L 191.746068 244.676794 
L 191.971679 244.215389 
L 192.19729 250.733431 
L 192.422901 245.69052 
L 192.648512 243.743288 
L 192.874124 249.122594 
L 193.325346 241.063285 
L 193.550957 250.650394 
L 193.776568 246.74143 
L 194.00218 239.346146 
L 194.227791 237.794688 
L 194.453402 250.206751 
L 194.679013 249.369636 
L 195.130236 229.875616 
L 195.355847 235.114993 
L 195.581458 233.92883 
L 195.807069 234.154332 
L 196.032681 233.050578 
L 196.258292 225.802819 
L 196.483903 233.604092 
L 196.709514 235.863827 
L 196.935126 240.866254 
L 197.160737 248.906114 
L 197.386348 241.34179 
L 197.611959 254.604262 
L 197.83757 255.495241 
L 198.063182 256.9661 
L 198.288793 252.145761 
L 198.514404 250.728089 
L 198.740015 247.422343 
L 198.965627 255.50494 
L 199.191238 238.835763 
L 199.416849 242.75871 
L 199.64246 228.113266 
L 199.868071 221.603016 
L 200.093683 235.04008 
L 200.319294 229.85394 
L 200.544905 232.404205 
L 200.996128 244.052307 
L 201.44735 247.49536 
L 201.672961 241.321578 
L 201.898572 245.721785 
L 202.124184 247.373944 
L 202.349795 243.353632 
L 202.575406 250.224094 
L 203.25224 238.716045 
L 203.703462 221.2608 
L 203.929073 224.414935 
L 204.154685 225.663578 
L 204.380296 236.442919 
L 204.605907 224.783222 
L 204.831518 230.130094 
L 205.057129 227.409016 
L 205.282741 230.995556 
L 205.508352 237.996975 
L 205.733963 233.570095 
L 205.959574 237.046838 
L 206.410797 249.455086 
L 206.636408 254.01979 
L 206.862019 241.847569 
L 207.08763 245.380097 
L 207.313242 231.4488 
L 207.538853 226.872217 
L 207.764464 228.630296 
L 207.990075 232.897454 
L 208.215687 229.139559 
L 208.441298 227.33281 
L 208.89252 234.281792 
L 209.118131 246.455515 
L 209.343743 240.254924 
L 209.569354 251.641372 
L 209.794965 239.494606 
L 210.020576 234.680754 
L 210.246188 241.072751 
L 210.471799 232.481789 
L 210.69741 239.430759 
L 210.923021 232.56634 
L 211.148632 236.572718 
L 211.374244 221.421765 
L 211.599855 213.972457 
L 211.825466 228.807682 
L 212.051077 218.658135 
L 212.276689 222.170279 
L 212.5023 220.021536 
L 212.727911 214.522462 
L 212.953522 234.254762 
L 213.179133 227.199515 
L 213.404745 242.263566 
L 213.630356 239.037361 
L 213.855967 247.66557 
L 214.081578 240.337875 
L 214.307189 245.235761 
L 214.532801 236.400182 
L 214.758412 255.559937 
L 215.209634 236.428751 
L 215.435246 238.218685 
L 215.886468 232.006302 
L 216.112079 228.028124 
L 216.33769 228.64199 
L 216.563302 223.540204 
L 216.788913 238.688067 
L 217.014524 239.347648 
L 217.465747 250.059485 
L 217.916969 232.00176 
L 218.14258 242.039837 
L 218.368191 244.848912 
L 218.819414 256.943919 
L 219.045025 252.207626 
L 219.721859 222.92288 
L 219.94747 222.175043 
L 220.173081 212.842153 
L 220.398692 214.160724 
L 221.075526 221.175658 
L 221.301137 244.852285 
L 221.526749 248.163065 
L 221.75236 249.276974 
L 221.977971 246.373734 
L 222.203582 255.173322 
L 222.654805 241.449716 
L 222.880416 251.021119 
L 223.331638 242.538895 
L 223.782861 243.571182 
L 224.008472 246.528865 
L 224.459694 236.407973 
L 224.910917 243.91895 
L 225.136528 248.477279 
L 225.362139 248.888204 
L 225.58775 237.31557 
L 225.813362 245.600676 
L 226.038973 237.209859 
L 226.264584 245.060554 
L 226.490195 239.925558 
L 226.715807 240.640136 
L 226.941418 247.168973 
L 227.39264 240.430427 
L 227.618251 239.719763 
L 227.843863 243.732997 
L 228.069474 240.196912 
L 228.295085 229.239521 
L 228.520696 240.011894 
L 228.746308 237.410029 
L 228.971919 229.126413 
L 229.19753 240.478481 
L 229.423141 234.681652 
L 229.648752 232.209205 
L 229.874364 236.316246 
L 230.099975 254.255349 
L 230.325586 249.898077 
L 230.776809 259.267451 
L 231.228031 248.365119 
L 231.453642 254.401421 
L 231.679253 237.476511 
L 232.130476 227.056029 
L 232.356087 241.071483 
L 232.80731 220.777115 
L 233.032921 242.436865 
L 233.258532 226.679593 
L 233.484143 233.698897 
L 233.709754 235.507295 
L 233.935366 233.277274 
L 234.386588 246.581043 
L 234.612199 243.01112 
L 235.063422 241.321246 
L 235.289033 251.248221 
L 235.514644 241.218699 
L 235.740255 236.833953 
L 235.965867 236.495503 
L 236.191478 233.5037 
L 236.417089 239.417317 
L 236.6427 240.336829 
L 236.868311 238.679414 
L 237.093923 243.053968 
L 237.319534 239.421847 
L 237.545145 241.865208 
L 237.996368 250.247174 
L 238.221979 249.91691 
L 238.44759 240.0889 
L 238.673201 242.047271 
L 238.898812 249.732052 
L 239.124424 247.578791 
L 239.575646 241.504946 
L 239.801257 240.721512 
L 240.25248 235.57145 
L 240.478091 238.952552 
L 240.703702 234.962139 
L 240.929313 236.647335 
L 241.154925 233.652565 
L 241.380536 250.482129 
L 241.831758 234.830026 
L 242.05737 234.893356 
L 242.282981 249.626416 
L 242.508592 242.660053 
L 242.734203 246.926386 
L 243.185426 237.70344 
L 243.411037 250.534344 
L 243.862259 230.32923 
L 244.087871 228.690549 
L 244.539093 239.813127 
L 244.990315 236.991497 
L 245.215927 232.116087 
L 245.441538 239.103412 
L 245.667149 238.799882 
L 245.89276 245.920662 
L 246.118372 239.752555 
L 246.569594 235.504291 
L 246.795205 244.878023 
L 247.020816 238.368684 
L 247.246428 252.499388 
L 247.472039 247.324547 
L 247.69765 228.985437 
L 247.923261 225.155128 
L 248.148872 232.027252 
L 248.374484 227.769794 
L 248.600095 214.083423 
L 248.825706 225.517741 
L 249.051317 219.5774 
L 249.276929 221.895849 
L 249.50254 229.230621 
L 249.728151 229.362021 
L 249.953762 219.858231 
L 250.179373 85.423256 
L 250.404985 36.251609 
L 250.630596 29.220968 
L 250.856207 26.880622 
L 251.081818 58.575691 
L 251.30743 45.363022 
L 251.533041 42.634128 
L 251.758652 50.980287 
L 251.984263 45.05628 
L 252.209874 52.84511 
L 252.435486 85.646419 
L 252.661097 81.904144 
L 252.886708 74.441751 
L 253.337931 89.395242 
L 253.563542 109.53358 
L 253.789153 113.963734 
L 254.014764 114.83657 
L 254.240375 140.923434 
L 254.465987 141.715005 
L 254.691598 138.903714 
L 254.917209 142.332108 
L 255.14282 162.22717 
L 255.368432 161.277378 
L 255.594043 173.583337 
L 255.819654 178.057312 
L 256.045265 175.701924 
L 256.270876 160.295878 
L 256.496488 176.127842 
L 256.94771 163.973825 
L 257.173321 176.08737 
L 257.624544 183.765614 
L 257.850155 174.492041 
L 258.301377 205.152805 
L 258.526989 204.07975 
L 258.7526 209.897997 
L 258.978211 211.294091 
L 259.203822 207.946716 
L 259.429433 202.016973 
L 259.655045 219.983008 
L 260.106267 205.586182 
L 260.331878 204.469948 
L 260.55749 208.518324 
L 260.783101 220.920996 
L 261.008712 224.181137 
L 261.234323 220.365697 
L 261.459934 214.55934 
L 261.685546 220.589082 
L 261.911157 223.149822 
L 262.136768 230.211198 
L 262.362379 231.25348 
L 262.587991 239.359699 
L 263.039213 223.866517 
L 263.264824 244.664018 
L 263.490435 234.94935 
L 263.716047 242.255713 
L 264.39288 220.84191 
L 264.618492 222.224045 
L 264.844103 221.156197 
L 265.069714 218.787035 
L 265.295325 228.40051 
L 265.520936 229.66779 
L 265.746548 239.042026 
L 265.972159 233.281595 
L 266.19777 242.645455 
L 266.423381 235.807242 
L 266.648993 238.779068 
L 266.874604 232.152805 
L 267.100215 243.618991 
L 267.325826 245.698385 
L 267.551437 240.527361 
L 267.777049 243.961392 
L 268.00266 243.300211 
L 268.228271 242.140968 
L 268.905105 225.115308 
L 269.130716 233.277373 
L 269.356327 222.850453 
L 269.581938 245.398364 
L 270.033161 224.53016 
L 270.484383 237.824869 
L 270.709994 250.147815 
L 270.935606 244.995008 
L 271.161217 253.255656 
L 271.386828 256.728535 
L 271.612439 249.333522 
L 271.838051 251.422246 
L 272.063662 249.200141 
L 272.289273 240.239587 
L 272.514884 246.007736 
L 272.740495 240.641872 
L 272.966107 228.733803 
L 273.191718 224.11436 
L 273.64294 244.893175 
L 274.094163 232.932067 
L 274.319774 236.575574 
L 274.545385 235.873674 
L 274.770996 232.335767 
L 274.996608 238.495442 
L 275.222219 233.548702 
L 275.44783 246.426318 
L 275.673441 235.370861 
L 275.899053 247.941244 
L 276.124664 247.284112 
L 276.350275 234.744441 
L 276.575886 236.759237 
L 276.801497 240.530229 
L 277.027109 241.138715 
L 277.25272 235.949018 
L 277.478331 227.409262 
L 277.703942 239.527656 
L 277.929554 232.081252 
L 278.155165 242.816501 
L 278.380776 238.175948 
L 278.831998 240.244942 
L 279.05761 250.080325 
L 279.508832 237.983065 
L 279.734443 253.910794 
L 279.960054 245.564782 
L 280.185666 250.595028 
L 280.411277 238.323325 
L 280.636888 240.279678 
L 280.862499 237.525624 
L 281.088111 241.152009 
L 281.313722 233.970853 
L 281.539333 218.987599 
L 281.764944 232.799104 
L 282.216167 237.107214 
L 282.441778 229.893526 
L 283.344223 250.307131 
L 283.569834 245.140514 
L 283.795445 251.232244 
L 284.021056 243.849342 
L 284.246668 254.596864 
L 284.472279 234.870276 
L 284.69789 231.946062 
L 284.923501 236.228273 
L 285.149113 229.254525 
L 285.374724 233.101575 
L 285.600335 232.065287 
L 286.051557 241.27441 
L 286.277169 233.45594 
L 286.50278 238.635507 
L 286.728391 250.292668 
L 286.954002 234.02974 
L 287.179614 231.52812 
L 287.405225 241.926322 
L 287.630836 238.117665 
L 287.856447 244.797312 
L 288.082058 246.998973 
L 288.30767 241.143183 
L 288.533281 240.013507 
L 288.758892 239.991338 
L 289.210115 227.616042 
L 289.435726 227.269406 
L 289.661337 222.385011 
L 289.886948 236.065548 
L 290.112559 230.075749 
L 290.338171 246.435833 
L 291.015004 233.082656 
L 291.466227 254.514467 
L 291.691838 240.406092 
L 292.14306 247.253463 
L 292.368672 237.982868 
L 292.594283 237.411359 
L 292.819894 239.533429 
L 293.045505 233.420109 
L 293.271116 224.179401 
L 293.496728 224.28052 
L 293.722339 231.505373 
L 293.94795 233.661453 
L 294.173561 233.863838 
L 294.399173 233.105969 
L 294.850395 238.835173 
L 295.076006 228.691607 
L 295.527229 243.129939 
L 295.75284 245.57335 
L 295.978451 241.229728 
L 296.204062 239.598187 
L 296.429674 242.32974 
L 296.655285 236.12729 
L 296.880896 235.351794 
L 297.106507 233.313438 
L 297.332118 233.675977 
L 297.55773 221.772253 
L 297.783341 231.035684 
L 298.008952 225.390748 
L 298.234563 234.399233 
L 298.685786 243.173452 
L 298.911397 234.320701 
L 299.362619 244.090563 
L 299.588231 239.614164 
L 299.813842 238.585163 
L 300.265064 253.847648 
L 300.490676 240.291753 
L 300.716287 234.904963 
L 300.941898 236.010637 
L 301.167509 238.452324 
L 301.39312 235.845622 
L 301.618732 236.702628 
L 301.844343 227.035669 
L 302.295565 81.652326 
L 302.972399 150.169164 
L 303.19801 150.774376 
L 303.423621 157.970844 
L 303.649233 181.227387 
L 303.874844 174.410998 
L 304.100455 190.888056 
L 304.326066 183.666871 
L 304.551677 186.229987 
L 304.777289 157.138899 
L 305.0029 180.143057 
L 305.228511 169.01862 
L 305.454122 170.59514 
L 305.679734 185.429602 
L 305.905345 151.582589 
L 306.130956 174.004455 
L 306.582178 188.16182 
L 306.80779 202.949138 
L 307.033401 203.043081 
L 307.484623 216.230849 
L 307.710235 215.377598 
L 307.935846 206.277976 
L 308.161457 223.266093 
L 308.387068 224.847758 
L 308.612679 212.928562 
L 308.838291 215.031171 
L 309.063902 210.544198 
L 309.289513 213.432483 
L 309.515124 210.667609 
L 309.740736 223.854208 
L 309.966347 228.624277 
L 310.191958 222.739179 
L 310.417569 232.125454 
L 310.868792 217.703149 
L 311.094403 227.60441 
L 311.320014 223.634294 
L 311.545625 226.621556 
L 311.771236 232.249603 
L 311.996848 231.891779 
L 312.222459 232.344555 
L 312.44807 227.784331 
L 312.673681 244.763167 
L 312.899293 225.448871 
L 313.124904 225.474893 
L 313.350515 229.946307 
L 313.576126 222.861224 
L 313.801737 233.510383 
L 314.027349 226.059019 
L 314.25296 226.886102 
L 314.478571 233.306213 
L 314.704182 232.925715 
L 314.929794 236.985945 
L 315.155405 238.921951 
L 315.381016 247.082194 
L 315.606627 248.027604 
L 315.832238 242.368378 
L 316.05785 246.022495 
L 316.283461 245.263715 
L 316.734683 249.286403 
L 316.960295 240.309392 
L 317.185906 240.059062 
L 317.411517 240.395568 
L 317.637128 246.993495 
L 317.862739 244.637233 
L 318.088351 232.271661 
L 318.313962 238.193723 
L 318.539573 229.053408 
L 318.765184 245.59574 
L 318.990796 242.737465 
L 319.216407 253.821627 
L 319.667629 241.146962 
L 319.89324 241.963287 
L 320.118852 247.945761 
L 320.344463 250.538086 
L 320.570074 244.456844 
L 320.795685 246.947176 
L 321.472519 228.201116 
L 321.69813 207.696251 
L 321.923741 159.423461 
L 322.149353 85.832483 
L 322.374964 107.163938 
L 322.600575 140.899013 
L 322.826186 139.497233 
L 323.051797 157.160563 
L 323.277409 157.428014 
L 323.50302 38.966151 
L 323.728631 19.296 
L 323.954242 19.461163 
L 324.179854 27.956188 
L 324.405465 27.145538 
L 324.631076 26.753346 
L 324.856687 35.008787 
L 325.082298 38.550523 
L 325.30791 44.513057 
L 325.533521 43.579488 
L 325.759132 48.850967 
L 325.984743 48.868052 
L 326.210355 61.444835 
L 326.435966 64.578968 
L 326.661577 62.531356 
L 326.887188 87.385566 
L 327.112799 87.670792 
L 327.338411 105.393797 
L 327.789633 113.835228 
L 328.015244 125.300232 
L 328.240856 122.474219 
L 328.466467 140.927718 
L 328.692078 148.331323 
L 328.917689 144.387918 
L 329.1433 144.265049 
L 329.368912 138.249365 
L 329.594523 139.785929 
L 329.820134 139.357525 
L 330.045745 150.034921 
L 330.271357 146.709998 
L 330.496968 155.967249 
L 330.722579 151.403123 
L 330.94819 157.955605 
L 331.173801 171.90384 
L 331.399413 169.25136 
L 331.850635 189.738118 
L 332.076246 196.119505 
L 332.301858 193.080521 
L 332.527469 201.014646 
L 332.75308 204.012912 
L 332.978691 200.450547 
L 333.204302 204.203087 
L 333.429914 203.505434 
L 333.655525 205.424712 
L 333.881136 189.763007 
L 334.106747 189.493094 
L 334.332358 199.24485 
L 334.55797 195.232588 
L 334.783581 209.239438 
L 335.009192 202.606799 
L 335.234803 213.735581 
L 335.460415 216.666799 
L 335.686026 215.255812 
L 335.911637 220.603582 
L 336.137248 216.64292 
L 336.362859 236.604278 
L 336.588471 216.985543 
L 336.814082 224.201422 
L 337.265304 205.006475 
L 337.716527 223.188645 
L 338.167749 196.606279 
L 338.844583 217.591727 
L 339.070194 217.173994 
L 339.295805 233.953682 
L 339.521417 234.594886 
L 339.747028 224.303095 
L 339.972639 230.871801 
L 340.423861 236.148031 
L 340.649473 248.381416 
L 340.875084 236.167147 
L 341.100695 236.307802 
L 341.326306 238.915083 
L 342.228751 211.45001 
L 342.454362 211.727912 
L 342.679974 228.298001 
L 343.131196 222.697402 
L 343.356807 223.252861 
L 343.80803 239.378938 
L 344.033641 234.365888 
L 344.259252 233.536466 
L 344.484863 245.260281 
L 344.710475 245.556498 
L 344.936086 252.684984 
L 345.161697 238.245482 
L 345.387308 241.178892 
L 345.838531 235.240964 
L 346.064142 245.845011 
L 346.515364 235.321108 
L 346.740976 241.116571 
L 346.966587 239.955371 
L 347.192198 249.020551 
L 347.417809 233.507934 
L 347.64342 244.017977 
L 347.869032 240.659917 
L 348.094643 239.376328 
L 348.320254 253.372051 
L 348.545865 245.461891 
L 348.771477 244.382879 
L 348.997088 246.404039 
L 349.222699 237.65429 
L 349.44831 236.652567 
L 349.673921 232.650928 
L 349.899533 235.957622 
L 350.125144 228.770632 
L 350.350755 229.003039 
L 350.576366 231.663261 
L 350.801978 249.584122 
L 351.027589 234.28354 
L 351.2532 234.45807 
L 351.478811 231.203136 
L 351.704422 237.860516 
L 351.930034 240.71761 
L 352.155645 246.102578 
L 352.606867 250.903198 
L 352.832479 256.870692 
L 353.05809 256.89179 
L 353.509312 236.829842 
L 353.734923 240.893826 
L 354.186146 221.53907 
L 354.862979 238.337099 
L 355.088591 228.977645 
L 355.314202 233.961929 
L 355.539813 244.597536 
L 355.765424 241.880668 
L 355.991036 251.303267 
L 356.667869 235.011092 
L 356.89348 241.876889 
L 357.119092 253.716409 
L 357.344703 236.848392 
L 357.570314 236.120237 
L 357.795925 234.919512 
L 358.021537 224.126731 
L 358.247148 230.287674 
L 358.472759 223.806301 
L 358.69837 220.846797 
L 358.923981 229.357737 
L 359.149593 232.340801 
L 359.375204 242.824909 
L 359.600815 232.360496 
L 359.826426 240.457753 
L 360.052038 240.601498 
L 360.277649 243.963324 
L 360.50326 242.446823 
L 360.728871 236.324739 
L 360.954482 242.526069 
L 361.180094 243.379949 
L 361.405705 242.125335 
L 361.631316 233.37054 
L 361.856927 242.601327 
L 362.082539 241.575588 
L 362.30815 246.052824 
L 362.533761 231.5431 
L 362.759372 244.862489 
L 362.984983 247.386942 
L 363.210595 245.504923 
L 363.436206 235.503134 
L 363.661817 245.186783 
L 363.887428 248.329139 
L 364.11304 248.233055 
L 364.338651 247.218923 
L 364.564262 247.644521 
L 364.789873 249.195549 
L 365.015484 248.884856 
L 365.241096 245.502843 
L 365.466707 245.691467 
L 365.692318 238.310819 
L 365.917929 237.637329 
L 366.369152 225.462547 
L 366.820374 231.751936 
L 367.045985 228.059648 
L 367.271597 235.153705 
L 367.497208 236.72663 
L 367.722819 242.832516 
L 367.94843 238.041004 
L 368.174041 246.281404 
L 368.399653 248.288088 
L 368.625264 239.600501 
L 368.850875 242.300149 
L 369.302098 255.069766 
L 369.527709 241.140684 
L 369.75332 234.881305 
L 369.978931 238.010244 
L 370.204542 244.822226 
L 370.430154 226.922709 
L 370.655765 241.816526 
L 371.106987 226.479485 
L 371.332599 231.330535 
L 371.783821 251.865348 
L 372.009432 237.201465 
L 372.235043 249.565695 
L 372.460655 249.588122 
L 372.911877 245.452228 
L 373.137488 245.188507 
L 373.3631 254.546237 
L 373.814322 241.507753 
L 374.265544 227.806488 
L 374.491156 233.98006 
L 374.716767 234.648959 
L 374.942378 232.533979 
L 375.167989 243.104324 
L 375.393601 239.121998 
L 375.619212 239.47261 
L 375.844823 236.369594 
L 376.070434 235.623246 
L 376.521657 252.809465 
L 376.747268 253.034352 
L 376.972879 249.807531 
L 377.19849 253.756906 
L 377.424101 252.156679 
L 377.649713 246.384221 
L 377.875324 229.613593 
L 378.100935 239.41808 
L 378.326546 238.797236 
L 378.552158 231.695671 
L 378.777769 233.499071 
L 379.00338 233.242009 
L 379.228991 234.29228 
L 379.454602 236.622089 
L 379.680214 236.933435 
L 379.905825 246.75902 
L 380.131436 242.274977 
L 380.582659 252.719375 
L 380.80827 256.976267 
L 381.033881 252.395598 
L 381.259492 255.96621 
L 381.485103 251.334101 
L 381.710715 261.216 
L 382.161937 236.00767 
L 382.387548 241.846301 
L 382.61316 239.997345 
L 382.838771 240.703196 
L 383.064382 232.789971 
L 383.515604 239.111954 
L 383.741216 237.422708 
L 383.966827 233.936954 
L 384.192438 245.144576 
L 384.418049 246.862835 
L 384.643661 239.561739 
L 384.869272 239.273227 
L 385.320494 255.034931 
L 385.546105 245.53204 
L 385.771717 242.293809 
L 385.997328 246.612394 
L 386.222939 244.005261 
L 386.674162 223.860264 
L 386.899773 234.625991 
L 386.899773 234.625991 
" clip-path="url(#p3acab52bd8)" style="fill: none; stroke: #1f77b4; stroke-width: 1.5; stroke-linecap: square"/>
   </g>
   <g id="patch_3">
    <path d="M 46.0125 273.312 
L 46.0125 7.2 
" style="fill: none; stroke: #000000; stroke-width: 0.8; stroke-linejoin: miter; stroke-linecap: square"/>
   </g>
   <g id="patch_4">
    <path d="M 403.1325 273.312 
L 403.1325 7.2 
" style="fill: none; stroke: #000000; stroke-width: 0.8; stroke-linejoin: miter; stroke-linecap: square"/>
   </g>
   <g id="patch_5">
    <path d="M 46.0125 273.312 
L 403.1325 273.312 
" style="fill: none; stroke: #000000; stroke-width: 0.8; stroke-linejoin: miter; stroke-linecap: square"/>
   </g>
   <g id="patch_6">
    <path d="M 46.0125 7.2 
L 403.1325 7.2 
" style="fill: none; stroke: #000000; stroke-width: 0.8; stroke-linejoin: miter; stroke-linecap: square"/>
   </g>
  </g>
 </g>
 <defs>
  <clipPath id="p3acab52bd8">
   <rect x="46.0125" y="7.2" width="357.12" height="266.112"/>
  </clipPath>
 </defs>
</svg>
