<?xml version="1.0" encoding="utf-8" standalone="no"?>
<!DOCTYPE svg PUBLIC "-//W3C//DTD SVG 1.1//EN"
  "http://www.w3.org/Graphics/SVG/1.1/DTD/svg11.dtd">
<svg xmlns:xlink="http://www.w3.org/1999/xlink" width="512.911938pt" height="297.190125pt" viewBox="0 0 512.911938 297.190125" xmlns="http://www.w3.org/2000/svg" version="1.1">
 <metadata>
  <rdf:RDF xmlns:dc="http://purl.org/dc/elements/1.1/" xmlns:cc="http://creativecommons.org/ns#" xmlns:rdf="http://www.w3.org/1999/02/22-rdf-syntax-ns#">
   <cc:Work>
    <dc:type rdf:resource="http://purl.org/dc/dcmitype/StillImage"/>
    <dc:date>2023-02-09T21:25:47.087174</dc:date>
    <dc:format>image/svg+xml</dc:format>
    <dc:creator>
     <cc:Agent>
      <dc:title>Matplotlib v3.6.3, https://matplotlib.org/</dc:title>
     </cc:Agent>
    </dc:creator>
   </cc:Work>
  </rdf:RDF>
 </metadata>
 <defs>
  <style type="text/css">*{stroke-linejoin: round; stroke-linecap: butt}</style>
 </defs>
 <g id="figure_1">
  <g id="patch_1">
   <path d="M 0 297.190125 
L 512.911938 297.190125 
L 512.911938 0 
L 0 0 
z
" style="fill: #ffffff"/>
  </g>
  <g id="axes_1">
   <g id="patch_2">
    <path d="M 43.78125 273.312 
L 400.90125 273.312 
L 400.90125 7.2 
L 43.78125 7.2 
z
" style="fill: #ffffff"/>
   </g>
   <g id="matplotlib.axis_1">
    <g id="xtick_1">
     <g id="line2d_1">
      <defs>
       <path id="m4520e71cd7" d="M 0 0 
L 0 3.5 
" style="stroke: #000000; stroke-width: 0.8"/>
      </defs>
      <g>
       <use xlink:href="#m4520e71cd7" x="43.78125" y="273.312" style="stroke: #000000; stroke-width: 0.8"/>
      </g>
     </g>
     <g id="text_1">
      <!-- 0 -->
      <g transform="translate(40.6 287.910437) scale(0.1 -0.1)">
       <defs>
        <path id="DejaVuSans-30" d="M 2034 4250 
Q 1547 4250 1301 3770 
Q 1056 3291 1056 2328 
Q 1056 1369 1301 889 
Q 1547 409 2034 409 
Q 2525 409 2770 889 
Q 3016 1369 3016 2328 
Q 3016 3291 2770 3770 
Q 2525 4250 2034 4250 
z
M 2034 4750 
Q 2819 4750 3233 4129 
Q 3647 3509 3647 2328 
Q 3647 1150 3233 529 
Q 2819 -91 2034 -91 
Q 1250 -91 836 529 
Q 422 1150 422 2328 
Q 422 3509 836 4129 
Q 1250 4750 2034 4750 
z
" transform="scale(0.015625)"/>
       </defs>
       <use xlink:href="#DejaVuSans-30"/>
      </g>
     </g>
    </g>
    <g id="xtick_2">
     <g id="line2d_2">
      <g>
       <use xlink:href="#m4520e71cd7" x="103.30125" y="273.312" style="stroke: #000000; stroke-width: 0.8"/>
      </g>
     </g>
     <g id="text_2">
      <!-- 1 -->
      <g transform="translate(100.12 287.910437) scale(0.1 -0.1)">
       <defs>
        <path id="DejaVuSans-31" d="M 794 531 
L 1825 531 
L 1825 4091 
L 703 3866 
L 703 4441 
L 1819 4666 
L 2450 4666 
L 2450 531 
L 3481 531 
L 3481 0 
L 794 0 
L 794 531 
z
" transform="scale(0.015625)"/>
       </defs>
       <use xlink:href="#DejaVuSans-31"/>
      </g>
     </g>
    </g>
    <g id="xtick_3">
     <g id="line2d_3">
      <g>
       <use xlink:href="#m4520e71cd7" x="162.82125" y="273.312" style="stroke: #000000; stroke-width: 0.8"/>
      </g>
     </g>
     <g id="text_3">
      <!-- 2 -->
      <g transform="translate(159.64 287.910437) scale(0.1 -0.1)">
       <defs>
        <path id="DejaVuSans-32" d="M 1228 531 
L 3431 531 
L 3431 0 
L 469 0 
L 469 531 
Q 828 903 1448 1529 
Q 2069 2156 2228 2338 
Q 2531 2678 2651 2914 
Q 2772 3150 2772 3378 
Q 2772 3750 2511 3984 
Q 2250 4219 1831 4219 
Q 1534 4219 1204 4116 
Q 875 4013 500 3803 
L 500 4441 
Q 881 4594 1212 4672 
Q 1544 4750 1819 4750 
Q 2544 4750 2975 4387 
Q 3406 4025 3406 3419 
Q 3406 3131 3298 2873 
Q 3191 2616 2906 2266 
Q 2828 2175 2409 1742 
Q 1991 1309 1228 531 
z
" transform="scale(0.015625)"/>
       </defs>
       <use xlink:href="#DejaVuSans-32"/>
      </g>
     </g>
    </g>
    <g id="xtick_4">
     <g id="line2d_4">
      <g>
       <use xlink:href="#m4520e71cd7" x="222.34125" y="273.312" style="stroke: #000000; stroke-width: 0.8"/>
      </g>
     </g>
     <g id="text_4">
      <!-- 3 -->
      <g transform="translate(219.16 287.910437) scale(0.1 -0.1)">
       <defs>
        <path id="DejaVuSans-33" d="M 2597 2516 
Q 3050 2419 3304 2112 
Q 3559 1806 3559 1356 
Q 3559 666 3084 287 
Q 2609 -91 1734 -91 
Q 1441 -91 1130 -33 
Q 819 25 488 141 
L 488 750 
Q 750 597 1062 519 
Q 1375 441 1716 441 
Q 2309 441 2620 675 
Q 2931 909 2931 1356 
Q 2931 1769 2642 2001 
Q 2353 2234 1838 2234 
L 1294 2234 
L 1294 2753 
L 1863 2753 
Q 2328 2753 2575 2939 
Q 2822 3125 2822 3475 
Q 2822 3834 2567 4026 
Q 2313 4219 1838 4219 
Q 1578 4219 1281 4162 
Q 984 4106 628 3988 
L 628 4550 
Q 988 4650 1302 4700 
Q 1616 4750 1894 4750 
Q 2613 4750 3031 4423 
Q 3450 4097 3450 3541 
Q 3450 3153 3228 2886 
Q 3006 2619 2597 2516 
z
" transform="scale(0.015625)"/>
       </defs>
       <use xlink:href="#DejaVuSans-33"/>
      </g>
     </g>
    </g>
    <g id="xtick_5">
     <g id="line2d_5">
      <g>
       <use xlink:href="#m4520e71cd7" x="281.86125" y="273.312" style="stroke: #000000; stroke-width: 0.8"/>
      </g>
     </g>
     <g id="text_5">
      <!-- 4 -->
      <g transform="translate(278.68 287.910437) scale(0.1 -0.1)">
       <defs>
        <path id="DejaVuSans-34" d="M 2419 4116 
L 825 1625 
L 2419 1625 
L 2419 4116 
z
M 2253 4666 
L 3047 4666 
L 3047 1625 
L 3713 1625 
L 3713 1100 
L 3047 1100 
L 3047 0 
L 2419 0 
L 2419 1100 
L 313 1100 
L 313 1709 
L 2253 4666 
z
" transform="scale(0.015625)"/>
       </defs>
       <use xlink:href="#DejaVuSans-34"/>
      </g>
     </g>
    </g>
    <g id="xtick_6">
     <g id="line2d_6">
      <g>
       <use xlink:href="#m4520e71cd7" x="341.38125" y="273.312" style="stroke: #000000; stroke-width: 0.8"/>
      </g>
     </g>
     <g id="text_6">
      <!-- 5 -->
      <g transform="translate(338.2 287.910437) scale(0.1 -0.1)">
       <defs>
        <path id="DejaVuSans-35" d="M 691 4666 
L 3169 4666 
L 3169 4134 
L 1269 4134 
L 1269 2991 
Q 1406 3038 1543 3061 
Q 1681 3084 1819 3084 
Q 2600 3084 3056 2656 
Q 3513 2228 3513 1497 
Q 3513 744 3044 326 
Q 2575 -91 1722 -91 
Q 1428 -91 1123 -41 
Q 819 9 494 109 
L 494 744 
Q 775 591 1075 516 
Q 1375 441 1709 441 
Q 2250 441 2565 725 
Q 2881 1009 2881 1497 
Q 2881 1984 2565 2268 
Q 2250 2553 1709 2553 
Q 1456 2553 1204 2497 
Q 953 2441 691 2322 
L 691 4666 
z
" transform="scale(0.015625)"/>
       </defs>
       <use xlink:href="#DejaVuSans-35"/>
      </g>
     </g>
    </g>
    <g id="xtick_7">
     <g id="line2d_7">
      <g>
       <use xlink:href="#m4520e71cd7" x="400.90125" y="273.312" style="stroke: #000000; stroke-width: 0.8"/>
      </g>
     </g>
     <g id="text_7">
      <!-- 6 -->
      <g transform="translate(397.72 287.910437) scale(0.1 -0.1)">
       <defs>
        <path id="DejaVuSans-36" d="M 2113 2584 
Q 1688 2584 1439 2293 
Q 1191 2003 1191 1497 
Q 1191 994 1439 701 
Q 1688 409 2113 409 
Q 2538 409 2786 701 
Q 3034 994 3034 1497 
Q 3034 2003 2786 2293 
Q 2538 2584 2113 2584 
z
M 3366 4563 
L 3366 3988 
Q 3128 4100 2886 4159 
Q 2644 4219 2406 4219 
Q 1781 4219 1451 3797 
Q 1122 3375 1075 2522 
Q 1259 2794 1537 2939 
Q 1816 3084 2150 3084 
Q 2853 3084 3261 2657 
Q 3669 2231 3669 1497 
Q 3669 778 3244 343 
Q 2819 -91 2113 -91 
Q 1303 -91 875 529 
Q 447 1150 447 2328 
Q 447 3434 972 4092 
Q 1497 4750 2381 4750 
Q 2619 4750 2861 4703 
Q 3103 4656 3366 4563 
z
" transform="scale(0.015625)"/>
       </defs>
       <use xlink:href="#DejaVuSans-36"/>
      </g>
     </g>
    </g>
   </g>
   <g id="matplotlib.axis_2">
    <g id="ytick_1">
     <g id="line2d_8">
      <defs>
       <path id="mdb969c048e" d="M 0 0 
L -3.5 0 
" style="stroke: #000000; stroke-width: 0.8"/>
      </defs>
      <g>
       <use xlink:href="#mdb969c048e" x="43.78125" y="261.216" style="stroke: #000000; stroke-width: 0.8"/>
      </g>
     </g>
     <g id="text_8">
      <!-- 0.0 -->
      <g transform="translate(20.878125 265.015219) scale(0.1 -0.1)">
       <defs>
        <path id="DejaVuSans-2e" d="M 684 794 
L 1344 794 
L 1344 0 
L 684 0 
L 684 794 
z
" transform="scale(0.015625)"/>
       </defs>
       <use xlink:href="#DejaVuSans-30"/>
       <use xlink:href="#DejaVuSans-2e" x="63.623047"/>
       <use xlink:href="#DejaVuSans-30" x="95.410156"/>
      </g>
     </g>
    </g>
    <g id="ytick_2">
     <g id="line2d_9">
      <g>
       <use xlink:href="#mdb969c048e" x="43.78125" y="228.003781" style="stroke: #000000; stroke-width: 0.8"/>
      </g>
     </g>
     <g id="text_9">
      <!-- 0.5 -->
      <g transform="translate(20.878125 231.803) scale(0.1 -0.1)">
       <use xlink:href="#DejaVuSans-30"/>
       <use xlink:href="#DejaVuSans-2e" x="63.623047"/>
       <use xlink:href="#DejaVuSans-35" x="95.410156"/>
      </g>
     </g>
    </g>
    <g id="ytick_3">
     <g id="line2d_10">
      <g>
       <use xlink:href="#mdb969c048e" x="43.78125" y="194.791562" style="stroke: #000000; stroke-width: 0.8"/>
      </g>
     </g>
     <g id="text_10">
      <!-- 1.0 -->
      <g transform="translate(20.878125 198.590781) scale(0.1 -0.1)">
       <use xlink:href="#DejaVuSans-31"/>
       <use xlink:href="#DejaVuSans-2e" x="63.623047"/>
       <use xlink:href="#DejaVuSans-30" x="95.410156"/>
      </g>
     </g>
    </g>
    <g id="ytick_4">
     <g id="line2d_11">
      <g>
       <use xlink:href="#mdb969c048e" x="43.78125" y="161.579343" style="stroke: #000000; stroke-width: 0.8"/>
      </g>
     </g>
     <g id="text_11">
      <!-- 1.5 -->
      <g transform="translate(20.878125 165.378562) scale(0.1 -0.1)">
       <use xlink:href="#DejaVuSans-31"/>
       <use xlink:href="#DejaVuSans-2e" x="63.623047"/>
       <use xlink:href="#DejaVuSans-35" x="95.410156"/>
      </g>
     </g>
    </g>
    <g id="ytick_5">
     <g id="line2d_12">
      <g>
       <use xlink:href="#mdb969c048e" x="43.78125" y="128.367124" style="stroke: #000000; stroke-width: 0.8"/>
      </g>
     </g>
     <g id="text_12">
      <!-- 2.0 -->
      <g transform="translate(20.878125 132.166343) scale(0.1 -0.1)">
       <use xlink:href="#DejaVuSans-32"/>
       <use xlink:href="#DejaVuSans-2e" x="63.623047"/>
       <use xlink:href="#DejaVuSans-30" x="95.410156"/>
      </g>
     </g>
    </g>
    <g id="ytick_6">
     <g id="line2d_13">
      <g>
       <use xlink:href="#mdb969c048e" x="43.78125" y="95.154905" style="stroke: #000000; stroke-width: 0.8"/>
      </g>
     </g>
     <g id="text_13">
      <!-- 2.5 -->
      <g transform="translate(20.878125 98.954124) scale(0.1 -0.1)">
       <use xlink:href="#DejaVuSans-32"/>
       <use xlink:href="#DejaVuSans-2e" x="63.623047"/>
       <use xlink:href="#DejaVuSans-35" x="95.410156"/>
      </g>
     </g>
    </g>
    <g id="ytick_7">
     <g id="line2d_14">
      <g>
       <use xlink:href="#mdb969c048e" x="43.78125" y="61.942686" style="stroke: #000000; stroke-width: 0.8"/>
      </g>
     </g>
     <g id="text_14">
      <!-- 3.0 -->
      <g transform="translate(20.878125 65.741905) scale(0.1 -0.1)">
       <use xlink:href="#DejaVuSans-33"/>
       <use xlink:href="#DejaVuSans-2e" x="63.623047"/>
       <use xlink:href="#DejaVuSans-30" x="95.410156"/>
      </g>
     </g>
    </g>
    <g id="ytick_8">
     <g id="line2d_15">
      <g>
       <use xlink:href="#mdb969c048e" x="43.78125" y="28.730467" style="stroke: #000000; stroke-width: 0.8"/>
      </g>
     </g>
     <g id="text_15">
      <!-- 3.5 -->
      <g transform="translate(20.878125 32.529686) scale(0.1 -0.1)">
       <use xlink:href="#DejaVuSans-33"/>
       <use xlink:href="#DejaVuSans-2e" x="63.623047"/>
       <use xlink:href="#DejaVuSans-35" x="95.410156"/>
      </g>
     </g>
    </g>
    <g id="text_16">
     <!-- Density -->
     <g transform="translate(14.798438 159.264594) rotate(-90) scale(0.1 -0.1)">
      <defs>
       <path id="DejaVuSans-44" d="M 1259 4147 
L 1259 519 
L 2022 519 
Q 2988 519 3436 956 
Q 3884 1394 3884 2338 
Q 3884 3275 3436 3711 
Q 2988 4147 2022 4147 
L 1259 4147 
z
M 628 4666 
L 1925 4666 
Q 3281 4666 3915 4102 
Q 4550 3538 4550 2338 
Q 4550 1131 3912 565 
Q 3275 0 1925 0 
L 628 0 
L 628 4666 
z
" transform="scale(0.015625)"/>
       <path id="DejaVuSans-65" d="M 3597 1894 
L 3597 1613 
L 953 1613 
Q 991 1019 1311 708 
Q 1631 397 2203 397 
Q 2534 397 2845 478 
Q 3156 559 3463 722 
L 3463 178 
Q 3153 47 2828 -22 
Q 2503 -91 2169 -91 
Q 1331 -91 842 396 
Q 353 884 353 1716 
Q 353 2575 817 3079 
Q 1281 3584 2069 3584 
Q 2775 3584 3186 3129 
Q 3597 2675 3597 1894 
z
M 3022 2063 
Q 3016 2534 2758 2815 
Q 2500 3097 2075 3097 
Q 1594 3097 1305 2825 
Q 1016 2553 972 2059 
L 3022 2063 
z
" transform="scale(0.015625)"/>
       <path id="DejaVuSans-6e" d="M 3513 2113 
L 3513 0 
L 2938 0 
L 2938 2094 
Q 2938 2591 2744 2837 
Q 2550 3084 2163 3084 
Q 1697 3084 1428 2787 
Q 1159 2491 1159 1978 
L 1159 0 
L 581 0 
L 581 3500 
L 1159 3500 
L 1159 2956 
Q 1366 3272 1645 3428 
Q 1925 3584 2291 3584 
Q 2894 3584 3203 3211 
Q 3513 2838 3513 2113 
z
" transform="scale(0.015625)"/>
       <path id="DejaVuSans-73" d="M 2834 3397 
L 2834 2853 
Q 2591 2978 2328 3040 
Q 2066 3103 1784 3103 
Q 1356 3103 1142 2972 
Q 928 2841 928 2578 
Q 928 2378 1081 2264 
Q 1234 2150 1697 2047 
L 1894 2003 
Q 2506 1872 2764 1633 
Q 3022 1394 3022 966 
Q 3022 478 2636 193 
Q 2250 -91 1575 -91 
Q 1294 -91 989 -36 
Q 684 19 347 128 
L 347 722 
Q 666 556 975 473 
Q 1284 391 1588 391 
Q 1994 391 2212 530 
Q 2431 669 2431 922 
Q 2431 1156 2273 1281 
Q 2116 1406 1581 1522 
L 1381 1569 
Q 847 1681 609 1914 
Q 372 2147 372 2553 
Q 372 3047 722 3315 
Q 1072 3584 1716 3584 
Q 2034 3584 2315 3537 
Q 2597 3491 2834 3397 
z
" transform="scale(0.015625)"/>
       <path id="DejaVuSans-69" d="M 603 3500 
L 1178 3500 
L 1178 0 
L 603 0 
L 603 3500 
z
M 603 4863 
L 1178 4863 
L 1178 4134 
L 603 4134 
L 603 4863 
z
" transform="scale(0.015625)"/>
       <path id="DejaVuSans-74" d="M 1172 4494 
L 1172 3500 
L 2356 3500 
L 2356 3053 
L 1172 3053 
L 1172 1153 
Q 1172 725 1289 603 
Q 1406 481 1766 481 
L 2356 481 
L 2356 0 
L 1766 0 
Q 1100 0 847 248 
Q 594 497 594 1153 
L 594 3053 
L 172 3053 
L 172 3500 
L 594 3500 
L 594 4494 
L 1172 4494 
z
" transform="scale(0.015625)"/>
       <path id="DejaVuSans-79" d="M 2059 -325 
Q 1816 -950 1584 -1140 
Q 1353 -1331 966 -1331 
L 506 -1331 
L 506 -850 
L 844 -850 
Q 1081 -850 1212 -737 
Q 1344 -625 1503 -206 
L 1606 56 
L 191 3500 
L 800 3500 
L 1894 763 
L 2988 3500 
L 3597 3500 
L 2059 -325 
z
" transform="scale(0.015625)"/>
      </defs>
      <use xlink:href="#DejaVuSans-44"/>
      <use xlink:href="#DejaVuSans-65" x="77.001953"/>
      <use xlink:href="#DejaVuSans-6e" x="138.525391"/>
      <use xlink:href="#DejaVuSans-73" x="201.904297"/>
      <use xlink:href="#DejaVuSans-69" x="254.003906"/>
      <use xlink:href="#DejaVuSans-74" x="281.787109"/>
      <use xlink:href="#DejaVuSans-79" x="320.996094"/>
     </g>
    </g>
   </g>
   <g id="line2d_16">
    <path d="M -1 256.715422 
L 38.113266 256.306997 
L 95.905458 255.873777 
L 153.69765 255.662935 
L 211.489842 255.697562 
L 269.282035 255.967292 
L 327.074227 256.431527 
L 442.658611 257.691054 
L 513.911938 258.496294 
L 513.911938 258.496294 
" clip-path="url(#pfb31e25f56)" style="fill: none; stroke: #1f77b4; stroke-width: 1.5; stroke-linecap: square"/>
   </g>
   <g id="line2d_17">
    <path d="M -1 261.206422 
L 13.893631 261.104227 
L 22.496922 260.820947 
L 26.798567 260.504769 
L 31.100213 259.973808 
L 35.401859 259.114708 
L 37.552682 258.517081 
L 39.703504 257.779356 
L 41.854327 256.878627 
L 44.00515 255.791278 
L 46.155973 254.493929 
L 48.306796 252.964629 
L 50.457619 251.184266 
L 52.608441 249.138166 
L 54.759264 246.817783 
L 56.910087 244.222395 
L 59.06091 241.360679 
L 61.211733 238.252021 
L 65.513378 231.429836 
L 74.11667 216.951469 
L 76.267492 213.591344 
L 78.418315 210.500624 
L 80.569138 207.758908 
L 82.719961 205.437935 
L 84.870784 203.598052 
L 87.021607 202.285204 
L 89.172429 201.528671 
L 91.323252 201.339718 
L 93.474075 201.711249 
L 95.624898 202.6185 
L 97.775721 204.020686 
L 99.926543 205.863474 
L 102.077366 208.082083 
L 104.228189 210.604775 
L 108.529835 216.262238 
L 117.133126 228.095496 
L 121.434772 233.436724 
L 123.585595 235.855686 
L 125.736417 238.09063 
L 127.88724 240.138898 
L 130.038063 242.00382 
L 132.188886 243.693294 
L 134.339709 245.218408 
L 136.490531 246.592204 
L 140.792177 248.941651 
L 145.093823 250.850083 
L 149.395468 252.410924 
L 153.697114 253.696105 
L 157.99876 254.756966 
L 162.300405 255.628848 
L 166.602051 256.33672 
L 173.054519 257.133686 
L 179.506988 257.668942 
L 188.110279 258.09678 
L 205.316862 258.585732 
L 224.674267 259.250019 
L 248.333318 260.075638 
L 263.389078 260.352333 
L 282.746483 260.464257 
L 353.723637 260.665432 
L 388.136802 260.8832 
L 504.281234 261.131386 
L 513.911938 261.151992 
L 513.911938 261.151992 
" clip-path="url(#pfb31e25f56)" style="fill: none; stroke: #ff7f0e; stroke-width: 1.5; stroke-linecap: square"/>
   </g>
   <g id="line2d_18">
    <path d="M -1 261.17789 
L 11.642208 261.041797 
L 20.797682 260.733945 
L 25.37542 260.442262 
L 29.953157 260.004389 
L 34.530895 259.365979 
L 39.108632 258.462716 
L 43.68637 257.223482 
L 48.264107 255.576211 
L 52.841844 253.456512 
L 57.419582 250.818664 
L 61.997319 247.647818 
L 66.575057 243.971612 
L 71.152794 239.868931 
L 84.886006 226.584265 
L 89.463744 222.561563 
L 94.041481 219.145364 
L 98.619219 216.549929 
L 103.196956 214.936607 
L 107.774693 214.3958 
L 112.352431 214.937805 
L 116.930168 216.49388 
L 121.507906 218.927038 
L 126.085643 222.05039 
L 130.66338 225.64971 
L 144.396593 237.213428 
L 148.97433 240.760427 
L 153.552068 243.970041 
L 158.129805 246.793135 
L 162.707542 249.214727 
L 167.28528 251.246303 
L 171.863017 252.917764 
L 176.440755 254.270051 
L 181.018492 255.34902 
L 185.596229 256.200793 
L 190.173967 256.868553 
L 194.751704 257.390596 
L 203.907179 258.121671 
L 213.062654 258.586478 
L 226.795866 259.032656 
L 272.57324 260.118062 
L 290.88419 260.376397 
L 318.350615 260.478308 
L 350.394776 260.663907 
L 400.749888 261.006273 
L 441.949525 261.032908 
L 513.911938 260.896763 
L 513.911938 260.896763 
" clip-path="url(#pfb31e25f56)" style="fill: none; stroke: #2ca02c; stroke-width: 1.5; stroke-linecap: square"/>
   </g>
   <g id="line2d_19">
    <path d="M -1 260.219405 
L 5.495412 259.746671 
L 10.643088 259.240001 
L 15.790764 258.600423 
L 20.938439 257.80816 
L 26.086115 256.845393 
L 31.233791 255.698058 
L 36.381466 254.357807 
L 41.529142 252.823964 
L 46.676818 251.105301 
L 51.824493 249.221372 
L 62.119845 245.093229 
L 72.415196 240.816638 
L 77.562872 238.777048 
L 82.710547 236.893036 
L 87.858223 235.229851 
L 93.005899 233.846131 
L 98.153574 232.790099 
L 103.30125 232.096456 
L 108.448926 231.784251 
L 113.596601 231.855938 
L 118.744277 232.297669 
L 123.891953 233.080754 
L 129.039628 234.164117 
L 134.187304 235.497447 
L 139.33498 237.024737 
L 149.630331 240.429963 
L 165.073358 245.634077 
L 175.368709 248.718383 
L 180.516385 250.078259 
L 185.664061 251.304957 
L 190.811736 252.397565 
L 195.959412 253.360004 
L 201.107088 254.199819 
L 211.402439 255.553181 
L 221.697791 256.550885 
L 231.993142 257.2872 
L 247.436169 258.074171 
L 268.026872 258.805723 
L 293.76525 259.462873 
L 319.503628 259.865671 
L 345.242007 260.025032 
L 427.604818 260.361255 
L 509.967628 260.759043 
L 513.911938 260.768386 
L 513.911938 260.768386 
" clip-path="url(#pfb31e25f56)" style="fill: none; stroke: #d62728; stroke-width: 1.5; stroke-linecap: square"/>
   </g>
   <g id="line2d_20">
    <path d="M -1 256.121964 
L 22.760085 254.625014 
L 68.999797 251.658999 
L 84.413034 250.806299 
L 99.826271 250.088884 
L 115.239508 249.540529 
L 130.652745 249.186419 
L 146.065983 249.041041 
L 161.47922 249.107087 
L 176.892457 249.375503 
L 192.305694 249.82664 
L 207.718932 250.432337 
L 238.545406 251.968716 
L 300.198355 255.36335 
L 331.02483 256.806033 
L 361.851304 257.954986 
L 392.677779 258.814566 
L 423.504253 259.430297 
L 469.743965 260.023792 
L 513.911938 260.357621 
L 513.911938 260.357621 
" clip-path="url(#pfb31e25f56)" style="fill: none; stroke: #9467bd; stroke-width: 1.5; stroke-linecap: square"/>
   </g>
   <g id="line2d_21">
    <path d="M -1 261.203929 
L 10.630993 261.077938 
L 16.749578 260.790555 
L 20.828634 260.371025 
L 24.90769 259.621322 
L 26.947219 259.066659 
L 28.986747 258.355549 
L 31.026275 257.456971 
L 33.065803 256.337967 
L 35.105331 254.964871 
L 37.144859 253.304943 
L 39.184388 251.328378 
L 41.223916 249.01064 
L 43.263444 246.334992 
L 45.302972 243.295075 
L 47.3425 239.897332 
L 49.382028 236.163051 
L 53.461085 227.851995 
L 63.658726 205.735908 
L 65.698254 201.888721 
L 67.737782 198.481766 
L 69.77731 195.606427 
L 71.816838 193.337835 
L 73.856366 191.731222 
L 75.895895 190.819497 
L 77.935423 190.612194 
L 79.974951 191.095859 
L 82.014479 192.23575 
L 84.054007 193.978686 
L 86.093535 196.256711 
L 88.133064 198.991273 
L 90.172592 202.097529 
L 94.251648 209.078648 
L 104.449289 227.455457 
L 108.528345 234.002518 
L 110.567873 236.970853 
L 112.607402 239.715802 
L 114.64693 242.230577 
L 116.686458 244.513862 
L 118.725986 246.568992 
L 120.765514 248.403173 
L 122.805042 250.026757 
L 124.844571 251.452555 
L 126.884099 252.695187 
L 128.923627 253.770473 
L 130.963155 254.694861 
L 135.042211 256.156796 
L 139.121268 257.206874 
L 143.200324 257.954781 
L 147.27938 258.48833 
L 153.397965 259.024516 
L 161.556078 259.453314 
L 173.793247 259.827853 
L 194.188528 260.234269 
L 216.623338 260.420307 
L 290.046352 260.830091 
L 328.797387 261.032535 
L 355.311254 261.032527 
L 389.983232 261.000713 
L 513.911938 261.121511 
L 513.911938 261.121511 
" clip-path="url(#pfb31e25f56)" style="fill: none; stroke: #8c564b; stroke-width: 1.5; stroke-linecap: square"/>
   </g>
   <g id="line2d_22">
    <path d="M -1 260.938201 
L -0.621832 260.927333 
L 4.521912 260.652355 
L 9.665655 260.167139 
L 14.809398 259.355184 
L 19.953142 258.067163 
L 25.096885 256.131289 
L 30.240629 253.376597 
L 35.384372 249.669335 
L 40.528116 244.957861 
L 45.671859 239.316221 
L 50.815602 232.97307 
L 55.959346 226.31305 
L 61.103089 219.843209 
L 66.246833 214.126509 
L 71.390576 209.694903 
L 76.53432 206.961813 
L 81.678063 206.155112 
L 86.821806 207.28619 
L 91.96555 210.160422 
L 97.109293 214.423238 
L 102.253037 219.627771 
L 112.540524 231.035784 
L 117.684267 236.472602 
L 122.82801 241.379694 
L 127.971754 245.622754 
L 133.115497 249.156814 
L 138.259241 252.004655 
L 143.402984 254.233526 
L 148.546727 255.934204 
L 153.690471 257.204545 
L 158.834214 258.13813 
L 163.977958 258.817554 
L 169.121701 259.311376 
L 179.409188 259.944626 
L 189.696675 260.31791 
L 205.127905 260.639697 
L 225.702879 260.780189 
L 287.4278 260.963628 
L 344.008978 261.018545 
L 374.871438 261.006356 
L 441.740103 261.125026 
L 493.177537 261.141507 
L 513.911938 261.194504 
L 513.911938 261.194504 
" clip-path="url(#pfb31e25f56)" style="fill: none; stroke: #e377c2; stroke-width: 1.5; stroke-linecap: square"/>
   </g>
   <g id="line2d_23">
    <path d="M -1 253.706572 
L 12.064508 251.961837 
L 50.556967 246.512773 
L 69.803197 244.320522 
L 89.049427 242.939737 
L 108.295657 242.580821 
L 127.541887 243.274329 
L 146.788117 244.867432 
L 166.034347 247.073383 
L 204.526807 251.995287 
L 223.773037 254.176513 
L 243.019267 255.977646 
L 262.265496 257.373785 
L 281.511726 258.404211 
L 300.757956 259.139714 
L 320.004186 259.656848 
L 358.496646 260.288204 
L 396.989106 260.647269 
L 454.727796 260.964814 
L 513.911938 261.115446 
L 513.911938 261.115446 
" clip-path="url(#pfb31e25f56)" style="fill: none; stroke: #7f7f7f; stroke-width: 1.5; stroke-linecap: square"/>
   </g>
   <g id="line2d_24">
    <path d="M -1 260.717522 
L 7.622403 260.272777 
L 13.453099 259.809535 
L 19.283795 259.172767 
L 25.114491 258.323993 
L 30.945187 257.227584 
L 36.775883 255.856081 
L 42.606579 254.196204 
L 48.437275 252.254762 
L 54.267971 250.063328 
L 63.014015 246.442993 
L 74.675407 241.492909 
L 80.506103 239.225759 
L 86.336799 237.254291 
L 92.167495 235.678657 
L 95.082843 235.063424 
L 97.998191 234.572049 
L 100.913539 234.208315 
L 103.828887 233.97368 
L 106.744235 233.867309 
L 109.659583 233.886174 
L 112.574931 234.025217 
L 118.405627 234.634821 
L 124.236323 235.624396 
L 130.067019 236.907162 
L 138.813063 239.180436 
L 159.220499 244.741487 
L 167.966542 246.81408 
L 176.712586 248.593927 
L 185.45863 250.084954 
L 194.204674 251.323729 
L 202.950718 252.361213 
L 214.61211 253.518632 
L 229.18885 254.725278 
L 246.680938 255.916347 
L 261.257678 256.701481 
L 278.749766 257.424985 
L 316.64929 258.674288 
L 342.887422 259.386747 
L 366.210206 259.798767 
L 398.279034 260.126576 
L 439.093905 260.327956 
L 513.911938 260.593997 
L 513.911938 260.593997 
" clip-path="url(#pfb31e25f56)" style="fill: none; stroke: #bcbd22; stroke-width: 1.5; stroke-linecap: square"/>
   </g>
   <g id="line2d_25">
    <path d="M -1 261.13127 
L 7.321496 260.959777 
L 14.820421 260.578569 
L 20.444614 260.024653 
L 24.194076 259.457918 
L 27.943538 258.678699 
L 31.693 257.634745 
L 35.442462 256.272494 
L 39.191924 254.541999 
L 42.941386 252.403233 
L 46.690849 249.833293 
L 50.440311 246.833698 
L 54.189773 243.436737 
L 57.939235 239.709665 
L 63.563428 233.734906 
L 69.187621 227.735917 
L 72.937083 224.006774 
L 76.686545 220.698201 
L 78.561276 219.25245 
L 80.436007 217.969553 
L 82.310739 216.864589 
L 84.18547 215.949982 
L 86.060201 215.235226 
L 87.934932 214.726692 
L 89.809663 214.427521 
L 91.684394 214.337608 
L 93.559125 214.453673 
L 95.433856 214.769409 
L 97.308587 215.275721 
L 99.183318 215.961015 
L 101.058049 216.81155 
L 102.93278 217.81183 
L 106.682242 220.193351 
L 110.431704 222.962389 
L 116.055897 227.528088 
L 123.554822 233.723864 
L 129.179015 238.043678 
L 132.928477 240.662158 
L 136.677939 243.042 
L 140.427401 245.17792 
L 144.176863 247.077462 
L 147.926325 248.756635 
L 151.675787 250.236127 
L 155.42525 251.538322 
L 161.049443 253.206731 
L 166.673636 254.590996 
L 172.297829 255.74396 
L 177.922022 256.705501 
L 185.420946 257.738946 
L 192.919871 258.531264 
L 200.418795 259.115864 
L 209.79245 259.594565 
L 219.166105 259.840574 
L 230.414492 259.913946 
L 282.906961 259.913938 
L 311.027927 260.059372 
L 365.395127 260.101278 
L 404.764479 260.570018 
L 436.634907 260.823736 
L 470.380066 260.886291 
L 513.911938 260.841143 
L 513.911938 260.841143 
" clip-path="url(#pfb31e25f56)" style="fill: none; stroke: #17becf; stroke-width: 1.5; stroke-linecap: square"/>
   </g>
   <g id="line2d_26">
    <path d="M -1 258.963056 
L 0.62079 258.722955 
L 4.886688 257.927841 
L 9.152585 256.945723 
L 13.418483 255.755153 
L 17.684381 254.339203 
L 21.950279 252.687778 
L 26.216177 250.799958 
L 30.482075 248.686112 
L 34.747973 246.369536 
L 43.279769 241.290485 
L 51.811564 236.017027 
L 56.077462 233.494935 
L 60.34336 231.159408 
L 64.609258 229.091375 
L 68.875156 227.3644 
L 73.141054 226.039924 
L 77.406952 225.163233 
L 81.67285 224.760545 
L 85.938748 224.837486 
L 90.204646 225.379087 
L 94.470543 226.35127 
L 98.736441 227.703664 
L 103.002339 229.373416 
L 107.268237 231.289639 
L 115.800033 235.565434 
L 124.331829 239.971912 
L 132.863625 244.070542 
L 137.129522 245.914392 
L 141.39542 247.595528 
L 145.661318 249.107025 
L 149.927216 250.450026 
L 154.193114 251.631959 
L 158.459012 252.664728 
L 162.72491 253.563028 
L 171.256706 255.020485 
L 179.788501 256.129184 
L 188.320297 256.994087 
L 201.117991 257.992943 
L 213.915685 258.754496 
L 230.979276 259.493853 
L 248.042868 259.95312 
L 265.106459 260.174403 
L 294.967745 260.263341 
L 329.094928 260.424268 
L 380.285703 260.682236 
L 513.911938 260.918332 
L 513.911938 260.918332 
" clip-path="url(#pfb31e25f56)" style="fill: none; stroke: #1f77b4; stroke-width: 1.5; stroke-linecap: square"/>
   </g>
   <g id="line2d_27">
    <path d="M -1 260.944828 
L 5.304609 260.706733 
L 11.572261 260.306258 
L 17.839914 259.664095 
L 22.018349 259.055954 
L 26.196784 258.269546 
L 30.375219 257.276558 
L 34.553654 256.052657 
L 38.732089 254.580754 
L 42.910524 252.854421 
L 47.088959 250.881031 
L 51.267394 248.684163 
L 57.535047 245.064159 
L 72.15957 236.317623 
L 76.338005 234.122414 
L 80.51644 232.215429 
L 84.694875 230.662742 
L 88.87331 229.511712 
L 93.051745 228.788 
L 97.23018 228.494718 
L 101.408615 228.613703 
L 105.58705 229.108635 
L 109.765485 229.92947 
L 113.943921 231.017549 
L 118.122356 232.310745 
L 124.390008 234.502937 
L 145.282184 242.117689 
L 151.549836 244.133845 
L 157.817489 245.959681 
L 164.085141 247.593845 
L 170.352794 249.046461 
L 178.709664 250.730476 
L 187.066534 252.169816 
L 197.512622 253.694901 
L 207.95871 254.973285 
L 218.404797 256.028342 
L 228.850885 256.860653 
L 239.296973 257.480916 
L 251.832278 258.000105 
L 268.546018 258.460597 
L 295.705846 258.96933 
L 339.579415 259.7681 
L 375.096113 260.517757 
L 393.899071 260.6583 
L 494.181512 260.801502 
L 513.911938 260.766645 
L 513.911938 260.766645 
" clip-path="url(#pfb31e25f56)" style="fill: none; stroke: #ff7f0e; stroke-width: 1.5; stroke-linecap: square"/>
   </g>
   <g id="line2d_28">
    <path d="M -1 261.216 
L 43.094595 261.12903 
L 45.650559 260.959208 
L 47.354535 260.714103 
L 49.058511 260.274536 
L 50.762487 259.520694 
L 51.614475 258.975476 
L 52.466463 258.284726 
L 53.318451 257.419503 
L 54.170439 256.348059 
L 55.022427 255.036415 
L 55.874415 253.449203 
L 56.726403 251.550798 
L 57.578391 249.306742 
L 58.430379 246.685427 
L 59.282367 243.660005 
L 60.986343 236.3256 
L 62.690319 227.262022 
L 64.394295 216.628681 
L 66.950259 198.668137 
L 69.506223 180.399139 
L 71.210199 169.501931 
L 72.914175 160.647609 
L 73.766163 157.213804 
L 74.618151 154.531953 
L 75.470139 152.644871 
L 76.322127 151.573898 
L 77.174115 151.318458 
L 78.026103 151.856622 
L 78.878091 153.146597 
L 79.730079 155.129042 
L 80.582067 157.730043 
L 81.434055 160.864542 
L 83.138031 168.360245 
L 85.693995 181.243544 
L 88.249959 194.079857 
L 89.953935 201.79997 
L 91.657911 208.538765 
L 93.361887 214.211559 
L 95.065863 218.858665 
L 96.769839 222.604237 
L 98.473815 225.616691 
L 100.177791 228.075413 
L 101.881767 230.145878 
L 104.43773 232.809833 
L 107.845682 235.951995 
L 111.253634 238.817806 
L 113.809598 240.754975 
L 116.365562 242.46583 
L 118.921526 243.942799 
L 122.329478 245.594222 
L 125.73743 246.970392 
L 129.99737 248.439034 
L 148.741106 254.371763 
L 152.149058 255.217356 
L 155.55701 255.853702 
L 159.81695 256.380324 
L 166.632854 256.90648 
L 173.448758 257.245284 
L 187.080565 257.708194 
L 194.748457 258.408408 
L 210.084241 259.822241 
L 217.752133 260.224939 
L 242.459785 261.180701 
L 251.831652 261.115969 
L 268.019424 260.884696 
L 288.467136 261.129516 
L 302.950932 261.057287 
L 326.806595 261.215623 
L 483.572385 261.126985 
L 496.352205 261.047277 
L 513.911938 261.209685 
L 513.911938 261.209685 
" clip-path="url(#pfb31e25f56)" style="fill: none; stroke: #2ca02c; stroke-width: 1.5; stroke-linecap: square"/>
   </g>
   <g id="line2d_29">
    <path d="M 19.02093 261.216 
L 56.901388 261.12088 
L 58.021008 260.883189 
L 58.767421 260.497863 
L 59.327231 259.980386 
L 59.88704 259.15076 
L 60.44685 257.861837 
L 61.00666 255.921307 
L 61.566469 253.090291 
L 62.126279 249.088469 
L 62.686089 243.60805 
L 63.432502 233.46693 
L 64.178915 219.515956 
L 64.925328 201.402296 
L 65.858344 173.123386 
L 67.35117 119.095418 
L 68.843996 66.262687 
L 69.777012 40.897294 
L 70.336822 30.065904 
L 70.896632 22.944076 
L 71.269838 20.298293 
L 71.643045 19.296 
L 71.829648 19.387877 
L 72.016251 19.858099 
L 72.389458 21.870875 
L 72.949267 27.295981 
L 73.69568 38.149151 
L 74.628696 55.580516 
L 78.174158 125.85128 
L 79.293778 143.04639 
L 80.413397 157.18714 
L 81.533016 168.669332 
L 82.652636 178.025073 
L 83.958859 187.004264 
L 85.824891 197.951525 
L 90.676575 224.836345 
L 91.796195 229.686002 
L 92.915814 233.59141 
L 94.035434 236.628743 
L 95.155053 238.951684 
L 96.274673 240.718281 
L 97.394292 242.064237 
L 98.700515 243.248288 
L 100.006738 244.134053 
L 101.499564 244.879428 
L 105.604835 246.697708 
L 107.284264 247.912116 
L 109.710106 249.687058 
L 111.389535 250.609369 
L 113.442171 251.751603 
L 114.561791 252.633486 
L 115.868013 253.955642 
L 118.480459 256.689089 
L 119.413475 257.324376 
L 120.346491 257.684723 
L 121.279507 257.80078 
L 122.58573 257.709996 
L 124.451762 257.569887 
L 125.571382 257.707207 
L 126.877605 258.130864 
L 130.04986 259.361124 
L 131.356082 259.510794 
L 133.781925 259.43879 
L 135.461354 259.523907 
L 138.820212 260.015317 
L 147.217358 261.158474 
L 150.949423 261.20011 
L 154.494885 261.047546 
L 159.346569 260.72975 
L 161.772411 260.914622 
L 165.317873 261.171303 
L 170.169557 261.21568 
L 205.43757 261.216 
L 205.43757 261.216 
" clip-path="url(#pfb31e25f56)" style="fill: none; stroke: #d62728; stroke-width: 1.5; stroke-linecap: square"/>
   </g>
   <g id="line2d_30">
    <path d="M -1 254.285815 
L 3.608706 253.206728 
L 12.37882 250.765045 
L 21.148934 247.982934 
L 38.689162 241.823634 
L 47.459276 238.768083 
L 56.22939 235.991458 
L 64.999504 233.697344 
L 73.769619 232.065188 
L 82.539733 231.226708 
L 91.309847 231.247964 
L 100.079961 232.120499 
L 108.850075 233.763255 
L 117.620189 236.034738 
L 126.390303 238.752941 
L 152.700646 247.653556 
L 161.47076 250.328533 
L 170.240874 252.683251 
L 179.010988 254.677528 
L 187.781102 256.307682 
L 196.551216 257.597321 
L 205.32133 258.587373 
L 214.091444 259.327001 
L 222.861558 259.866411 
L 231.631673 260.251932 
L 249.171901 260.712409 
L 275.482243 261.001458 
L 319.332814 261.149453 
L 424.574183 261.21454 
L 513.911938 261.211627 
L 513.911938 261.211627 
" clip-path="url(#pfb31e25f56)" style="fill: none; stroke: #9467bd; stroke-width: 1.5; stroke-linecap: square"/>
   </g>
   <g id="line2d_31">
    <path d="M -1 261.216 
L 36.88542 261.105265 
L 40.142517 260.893694 
L 41.771065 260.685079 
L 43.399613 260.361922 
L 45.028161 259.874553 
L 46.656709 259.159274 
L 48.285258 258.138194 
L 49.913806 256.721035 
L 51.542354 254.809592 
L 53.170902 252.305195 
L 54.799451 249.119094 
L 56.427999 245.185037 
L 58.056547 240.472607 
L 59.685095 234.999328 
L 61.313644 228.839249 
L 64.57074 215.048301 
L 67.827836 200.758738 
L 69.456385 194.070328 
L 71.084933 188.02048 
L 72.713481 182.817478 
L 74.342029 178.616725 
L 75.970578 175.512854 
L 77.599126 173.539234 
L 79.227674 172.673909 
L 80.856222 172.85005 
L 82.48477 173.968527 
L 84.113319 175.910334 
L 85.741867 178.54719 
L 87.370415 181.74941 
L 88.998963 185.390987 
L 92.25606 193.521875 
L 98.770253 210.366175 
L 102.027349 217.861919 
L 103.655897 221.217339 
L 105.284446 224.290349 
L 106.912994 227.083457 
L 108.541542 229.611306 
L 110.17009 231.897795 
L 113.427187 235.868317 
L 116.684283 239.243215 
L 119.94138 242.21981 
L 123.198476 244.901116 
L 126.455573 247.308809 
L 129.712669 249.430221 
L 132.969766 251.262093 
L 136.226862 252.82598 
L 139.483958 254.157129 
L 142.741055 255.286876 
L 145.998151 256.235765 
L 149.255248 257.019008 
L 154.140893 257.923998 
L 159.026537 258.574484 
L 165.54073 259.152811 
L 172.054923 259.463619 
L 183.454761 259.664055 
L 191.597502 259.897835 
L 207.882984 260.530966 
L 225.797015 260.706057 
L 237.196852 261.063175 
L 246.968142 261.057324 
L 268.139268 260.824451 
L 276.28201 260.766186 
L 286.053299 260.990805 
L 297.453137 261.188376 
L 315.367167 261.181938 
L 330.024101 260.941617 
L 338.166842 260.919191 
L 364.223614 261.170188 
L 387.023289 261.106935 
L 408.194416 261.214892 
L 513.911938 261.216 
L 513.911938 261.216 
" clip-path="url(#pfb31e25f56)" style="fill: none; stroke: #8c564b; stroke-width: 1.5; stroke-linecap: square"/>
   </g>
   <g id="line2d_32">
    <path d="M -1 251.977877 
L 12.7685 251.065083 
L 38.916071 249.560638 
L 51.989856 248.972822 
L 65.063642 248.524425 
L 78.137427 248.232187 
L 91.211213 248.107028 
L 104.284998 248.15336 
L 117.358784 248.368812 
L 130.432569 248.744408 
L 143.506355 249.265172 
L 169.653926 250.658457 
L 195.801496 252.352254 
L 248.096638 255.828135 
L 274.244209 257.300144 
L 300.39178 258.488437 
L 326.539351 259.385198 
L 352.686922 260.021564 
L 378.834493 260.448281 
L 418.055849 260.812464 
L 470.350991 261.005134 
L 513.911938 261.046191 
L 513.911938 261.046191 
" clip-path="url(#pfb31e25f56)" style="fill: none; stroke: #e377c2; stroke-width: 1.5; stroke-linecap: square"/>
   </g>
   <g id="line2d_33">
    <path d="M -1 261.216 
L 32.625629 261.112839 
L 55.212486 260.55345 
L 58.292512 260.279004 
L 60.345863 259.918055 
L 62.399213 259.335253 
L 64.452564 258.447086 
L 66.505915 257.158961 
L 68.559265 255.370769 
L 70.612616 252.986167 
L 72.665966 249.925553 
L 74.719317 246.141675 
L 76.772668 241.63559 
L 78.826018 236.469694 
L 81.906044 227.786613 
L 88.066096 209.879646 
L 90.119447 204.721152 
L 92.172797 200.353788 
L 93.199473 198.514605 
L 94.226148 196.921097 
L 95.252823 195.579206 
L 96.279499 194.490255 
L 97.306174 193.651351 
L 98.332849 193.055917 
L 99.359525 192.69433 
L 100.3862 192.554611 
L 101.412875 192.623112 
L 102.439551 192.885172 
L 103.466226 193.325705 
L 104.492901 193.929681 
L 106.546252 195.570181 
L 108.599602 197.698415 
L 110.652953 200.218408 
L 112.706304 203.043928 
L 115.78633 207.678374 
L 125.026407 222.026783 
L 128.106433 226.251909 
L 131.186459 229.994206 
L 133.23981 232.2044 
L 135.293161 234.188992 
L 137.346511 235.958497 
L 140.426537 238.249703 
L 143.506563 240.183283 
L 146.586589 241.863434 
L 151.719966 244.351553 
L 156.853342 246.614304 
L 161.986719 248.614216 
L 168.146771 250.696729 
L 182.520225 255.294377 
L 185.600251 256.017734 
L 188.680277 256.543036 
L 192.786978 256.96375 
L 199.973705 257.33345 
L 206.133757 257.743906 
L 223.587238 259.158703 
L 229.74729 259.272875 
L 238.987367 259.422623 
L 244.120744 259.739644 
L 260.547549 260.980026 
L 267.734276 261.161413 
L 281.081055 261.214962 
L 312.90799 261.114207 
L 327.281445 261.074316 
L 343.70825 261.057372 
L 363.215081 261.019694 
L 396.068691 261.058741 
L 413.522171 261.015676 
L 504.896274 261.216 
L 513.911938 261.215999 
L 513.911938 261.215999 
" clip-path="url(#pfb31e25f56)" style="fill: none; stroke: #7f7f7f; stroke-width: 1.5; stroke-linecap: square"/>
   </g>
   <g id="line2d_34">
    <path d="M -1 254.577852 
L 3.430712 253.260794 
L 12.053902 249.99299 
L 20.677093 246.073687 
L 29.300284 241.673166 
L 37.923475 237.083813 
L 46.546666 232.696776 
L 55.169857 228.949718 
L 63.793048 226.254208 
L 72.416239 224.919354 
L 81.039429 225.09156 
L 89.66262 226.726928 
L 98.285811 229.603682 
L 106.909002 233.370264 
L 132.778575 246.00902 
L 141.401766 249.601789 
L 150.024956 252.599037 
L 158.648147 254.978968 
L 167.271338 256.788371 
L 175.894529 258.113121 
L 184.51772 259.052741 
L 193.140911 259.702532 
L 201.764102 260.143701 
L 219.010483 260.638409 
L 244.880056 260.929533 
L 296.619201 261.12654 
L 374.227919 261.204097 
L 513.911938 261.16025 
L 513.911938 261.16025 
" clip-path="url(#pfb31e25f56)" style="fill: none; stroke: #bcbd22; stroke-width: 1.5; stroke-linecap: square"/>
   </g>
   <g id="patch_3">
    <path d="M 43.78125 273.312 
L 43.78125 7.2 
" style="fill: none; stroke: #000000; stroke-width: 0.8; stroke-linejoin: miter; stroke-linecap: square"/>
   </g>
   <g id="patch_4">
    <path d="M 400.90125 273.312 
L 400.90125 7.2 
" style="fill: none; stroke: #000000; stroke-width: 0.8; stroke-linejoin: miter; stroke-linecap: square"/>
   </g>
   <g id="patch_5">
    <path d="M 43.78125 273.312 
L 400.90125 273.312 
" style="fill: none; stroke: #000000; stroke-width: 0.8; stroke-linejoin: miter; stroke-linecap: square"/>
   </g>
   <g id="patch_6">
    <path d="M 43.78125 7.2 
L 400.90125 7.2 
" style="fill: none; stroke: #000000; stroke-width: 0.8; stroke-linejoin: miter; stroke-linecap: square"/>
   </g>
   <g id="legend_1">
    <g id="patch_7">
     <path d="M 420.75725 289.084375 
L 503.711937 289.084375 
Q 505.711937 289.084375 505.711937 287.084375 
L 505.711937 9.2 
Q 505.711937 7.2 503.711937 7.2 
L 420.75725 7.2 
Q 418.75725 7.2 418.75725 9.2 
L 418.75725 287.084375 
Q 418.75725 289.084375 420.75725 289.084375 
z
" style="fill: #ffffff; opacity: 0.8; stroke: #cccccc; stroke-linejoin: miter"/>
    </g>
    <g id="line2d_35">
     <path d="M 422.75725 15.298437 
L 432.75725 15.298437 
L 442.75725 15.298437 
" style="fill: none; stroke: #1f77b4; stroke-width: 1.5; stroke-linecap: square"/>
    </g>
    <g id="text_17">
     <!-- Eduardo -->
     <g transform="translate(450.75725 18.798437) scale(0.1 -0.1)">
      <defs>
       <path id="DejaVuSans-45" d="M 628 4666 
L 3578 4666 
L 3578 4134 
L 1259 4134 
L 1259 2753 
L 3481 2753 
L 3481 2222 
L 1259 2222 
L 1259 531 
L 3634 531 
L 3634 0 
L 628 0 
L 628 4666 
z
" transform="scale(0.015625)"/>
       <path id="DejaVuSans-64" d="M 2906 2969 
L 2906 4863 
L 3481 4863 
L 3481 0 
L 2906 0 
L 2906 525 
Q 2725 213 2448 61 
Q 2172 -91 1784 -91 
Q 1150 -91 751 415 
Q 353 922 353 1747 
Q 353 2572 751 3078 
Q 1150 3584 1784 3584 
Q 2172 3584 2448 3432 
Q 2725 3281 2906 2969 
z
M 947 1747 
Q 947 1113 1208 752 
Q 1469 391 1925 391 
Q 2381 391 2643 752 
Q 2906 1113 2906 1747 
Q 2906 2381 2643 2742 
Q 2381 3103 1925 3103 
Q 1469 3103 1208 2742 
Q 947 2381 947 1747 
z
" transform="scale(0.015625)"/>
       <path id="DejaVuSans-75" d="M 544 1381 
L 544 3500 
L 1119 3500 
L 1119 1403 
Q 1119 906 1312 657 
Q 1506 409 1894 409 
Q 2359 409 2629 706 
Q 2900 1003 2900 1516 
L 2900 3500 
L 3475 3500 
L 3475 0 
L 2900 0 
L 2900 538 
Q 2691 219 2414 64 
Q 2138 -91 1772 -91 
Q 1169 -91 856 284 
Q 544 659 544 1381 
z
M 1991 3584 
L 1991 3584 
z
" transform="scale(0.015625)"/>
       <path id="DejaVuSans-61" d="M 2194 1759 
Q 1497 1759 1228 1600 
Q 959 1441 959 1056 
Q 959 750 1161 570 
Q 1363 391 1709 391 
Q 2188 391 2477 730 
Q 2766 1069 2766 1631 
L 2766 1759 
L 2194 1759 
z
M 3341 1997 
L 3341 0 
L 2766 0 
L 2766 531 
Q 2569 213 2275 61 
Q 1981 -91 1556 -91 
Q 1019 -91 701 211 
Q 384 513 384 1019 
Q 384 1609 779 1909 
Q 1175 2209 1959 2209 
L 2766 2209 
L 2766 2266 
Q 2766 2663 2505 2880 
Q 2244 3097 1772 3097 
Q 1472 3097 1187 3025 
Q 903 2953 641 2809 
L 641 3341 
Q 956 3463 1253 3523 
Q 1550 3584 1831 3584 
Q 2591 3584 2966 3190 
Q 3341 2797 3341 1997 
z
" transform="scale(0.015625)"/>
       <path id="DejaVuSans-72" d="M 2631 2963 
Q 2534 3019 2420 3045 
Q 2306 3072 2169 3072 
Q 1681 3072 1420 2755 
Q 1159 2438 1159 1844 
L 1159 0 
L 581 0 
L 581 3500 
L 1159 3500 
L 1159 2956 
Q 1341 3275 1631 3429 
Q 1922 3584 2338 3584 
Q 2397 3584 2469 3576 
Q 2541 3569 2628 3553 
L 2631 2963 
z
" transform="scale(0.015625)"/>
       <path id="DejaVuSans-6f" d="M 1959 3097 
Q 1497 3097 1228 2736 
Q 959 2375 959 1747 
Q 959 1119 1226 758 
Q 1494 397 1959 397 
Q 2419 397 2687 759 
Q 2956 1122 2956 1747 
Q 2956 2369 2687 2733 
Q 2419 3097 1959 3097 
z
M 1959 3584 
Q 2709 3584 3137 3096 
Q 3566 2609 3566 1747 
Q 3566 888 3137 398 
Q 2709 -91 1959 -91 
Q 1206 -91 779 398 
Q 353 888 353 1747 
Q 353 2609 779 3096 
Q 1206 3584 1959 3584 
z
" transform="scale(0.015625)"/>
      </defs>
      <use xlink:href="#DejaVuSans-45"/>
      <use xlink:href="#DejaVuSans-64" x="63.183594"/>
      <use xlink:href="#DejaVuSans-75" x="126.660156"/>
      <use xlink:href="#DejaVuSans-61" x="190.039062"/>
      <use xlink:href="#DejaVuSans-72" x="251.318359"/>
      <use xlink:href="#DejaVuSans-64" x="290.681641"/>
      <use xlink:href="#DejaVuSans-6f" x="354.158203"/>
     </g>
    </g>
    <g id="line2d_36">
     <path d="M 422.75725 29.976562 
L 432.75725 29.976562 
L 442.75725 29.976562 
" style="fill: none; stroke: #ff7f0e; stroke-width: 1.5; stroke-linecap: square"/>
    </g>
    <g id="text_18">
     <!-- Felipe -->
     <g transform="translate(450.75725 33.476562) scale(0.1 -0.1)">
      <defs>
       <path id="DejaVuSans-46" d="M 628 4666 
L 3309 4666 
L 3309 4134 
L 1259 4134 
L 1259 2759 
L 3109 2759 
L 3109 2228 
L 1259 2228 
L 1259 0 
L 628 0 
L 628 4666 
z
" transform="scale(0.015625)"/>
       <path id="DejaVuSans-6c" d="M 603 4863 
L 1178 4863 
L 1178 0 
L 603 0 
L 603 4863 
z
" transform="scale(0.015625)"/>
       <path id="DejaVuSans-70" d="M 1159 525 
L 1159 -1331 
L 581 -1331 
L 581 3500 
L 1159 3500 
L 1159 2969 
Q 1341 3281 1617 3432 
Q 1894 3584 2278 3584 
Q 2916 3584 3314 3078 
Q 3713 2572 3713 1747 
Q 3713 922 3314 415 
Q 2916 -91 2278 -91 
Q 1894 -91 1617 61 
Q 1341 213 1159 525 
z
M 3116 1747 
Q 3116 2381 2855 2742 
Q 2594 3103 2138 3103 
Q 1681 3103 1420 2742 
Q 1159 2381 1159 1747 
Q 1159 1113 1420 752 
Q 1681 391 2138 391 
Q 2594 391 2855 752 
Q 3116 1113 3116 1747 
z
" transform="scale(0.015625)"/>
      </defs>
      <use xlink:href="#DejaVuSans-46"/>
      <use xlink:href="#DejaVuSans-65" x="52.019531"/>
      <use xlink:href="#DejaVuSans-6c" x="113.542969"/>
      <use xlink:href="#DejaVuSans-69" x="141.326172"/>
      <use xlink:href="#DejaVuSans-70" x="169.109375"/>
      <use xlink:href="#DejaVuSans-65" x="232.585938"/>
     </g>
    </g>
    <g id="line2d_37">
     <path d="M 422.75725 44.654687 
L 432.75725 44.654687 
L 442.75725 44.654687 
" style="fill: none; stroke: #2ca02c; stroke-width: 1.5; stroke-linecap: square"/>
    </g>
    <g id="text_19">
     <!-- Pedro -->
     <g transform="translate(450.75725 48.154687) scale(0.1 -0.1)">
      <defs>
       <path id="DejaVuSans-50" d="M 1259 4147 
L 1259 2394 
L 2053 2394 
Q 2494 2394 2734 2622 
Q 2975 2850 2975 3272 
Q 2975 3691 2734 3919 
Q 2494 4147 2053 4147 
L 1259 4147 
z
M 628 4666 
L 2053 4666 
Q 2838 4666 3239 4311 
Q 3641 3956 3641 3272 
Q 3641 2581 3239 2228 
Q 2838 1875 2053 1875 
L 1259 1875 
L 1259 0 
L 628 0 
L 628 4666 
z
" transform="scale(0.015625)"/>
      </defs>
      <use xlink:href="#DejaVuSans-50"/>
      <use xlink:href="#DejaVuSans-65" x="56.677734"/>
      <use xlink:href="#DejaVuSans-64" x="118.201172"/>
      <use xlink:href="#DejaVuSans-72" x="181.677734"/>
      <use xlink:href="#DejaVuSans-6f" x="220.541016"/>
     </g>
    </g>
    <g id="line2d_38">
     <path d="M 422.75725 59.332812 
L 432.75725 59.332812 
L 442.75725 59.332812 
" style="fill: none; stroke: #d62728; stroke-width: 1.5; stroke-linecap: square"/>
    </g>
    <g id="text_20">
     <!-- Sancho -->
     <g transform="translate(450.75725 62.832812) scale(0.1 -0.1)">
      <defs>
       <path id="DejaVuSans-53" d="M 3425 4513 
L 3425 3897 
Q 3066 4069 2747 4153 
Q 2428 4238 2131 4238 
Q 1616 4238 1336 4038 
Q 1056 3838 1056 3469 
Q 1056 3159 1242 3001 
Q 1428 2844 1947 2747 
L 2328 2669 
Q 3034 2534 3370 2195 
Q 3706 1856 3706 1288 
Q 3706 609 3251 259 
Q 2797 -91 1919 -91 
Q 1588 -91 1214 -16 
Q 841 59 441 206 
L 441 856 
Q 825 641 1194 531 
Q 1563 422 1919 422 
Q 2459 422 2753 634 
Q 3047 847 3047 1241 
Q 3047 1584 2836 1778 
Q 2625 1972 2144 2069 
L 1759 2144 
Q 1053 2284 737 2584 
Q 422 2884 422 3419 
Q 422 4038 858 4394 
Q 1294 4750 2059 4750 
Q 2388 4750 2728 4690 
Q 3069 4631 3425 4513 
z
" transform="scale(0.015625)"/>
       <path id="DejaVuSans-63" d="M 3122 3366 
L 3122 2828 
Q 2878 2963 2633 3030 
Q 2388 3097 2138 3097 
Q 1578 3097 1268 2742 
Q 959 2388 959 1747 
Q 959 1106 1268 751 
Q 1578 397 2138 397 
Q 2388 397 2633 464 
Q 2878 531 3122 666 
L 3122 134 
Q 2881 22 2623 -34 
Q 2366 -91 2075 -91 
Q 1284 -91 818 406 
Q 353 903 353 1747 
Q 353 2603 823 3093 
Q 1294 3584 2113 3584 
Q 2378 3584 2631 3529 
Q 2884 3475 3122 3366 
z
" transform="scale(0.015625)"/>
       <path id="DejaVuSans-68" d="M 3513 2113 
L 3513 0 
L 2938 0 
L 2938 2094 
Q 2938 2591 2744 2837 
Q 2550 3084 2163 3084 
Q 1697 3084 1428 2787 
Q 1159 2491 1159 1978 
L 1159 0 
L 581 0 
L 581 4863 
L 1159 4863 
L 1159 2956 
Q 1366 3272 1645 3428 
Q 1925 3584 2291 3584 
Q 2894 3584 3203 3211 
Q 3513 2838 3513 2113 
z
" transform="scale(0.015625)"/>
      </defs>
      <use xlink:href="#DejaVuSans-53"/>
      <use xlink:href="#DejaVuSans-61" x="63.476562"/>
      <use xlink:href="#DejaVuSans-6e" x="124.755859"/>
      <use xlink:href="#DejaVuSans-63" x="188.134766"/>
      <use xlink:href="#DejaVuSans-68" x="243.115234"/>
      <use xlink:href="#DejaVuSans-6f" x="306.494141"/>
     </g>
    </g>
    <g id="line2d_39">
     <path d="M 422.75725 74.010937 
L 432.75725 74.010937 
L 442.75725 74.010937 
" style="fill: none; stroke: #9467bd; stroke-width: 1.5; stroke-linecap: square"/>
    </g>
    <g id="text_21">
     <!-- Agathon -->
     <g transform="translate(450.75725 77.510937) scale(0.1 -0.1)">
      <defs>
       <path id="DejaVuSans-41" d="M 2188 4044 
L 1331 1722 
L 3047 1722 
L 2188 4044 
z
M 1831 4666 
L 2547 4666 
L 4325 0 
L 3669 0 
L 3244 1197 
L 1141 1197 
L 716 0 
L 50 0 
L 1831 4666 
z
" transform="scale(0.015625)"/>
       <path id="DejaVuSans-67" d="M 2906 1791 
Q 2906 2416 2648 2759 
Q 2391 3103 1925 3103 
Q 1463 3103 1205 2759 
Q 947 2416 947 1791 
Q 947 1169 1205 825 
Q 1463 481 1925 481 
Q 2391 481 2648 825 
Q 2906 1169 2906 1791 
z
M 3481 434 
Q 3481 -459 3084 -895 
Q 2688 -1331 1869 -1331 
Q 1566 -1331 1297 -1286 
Q 1028 -1241 775 -1147 
L 775 -588 
Q 1028 -725 1275 -790 
Q 1522 -856 1778 -856 
Q 2344 -856 2625 -561 
Q 2906 -266 2906 331 
L 2906 616 
Q 2728 306 2450 153 
Q 2172 0 1784 0 
Q 1141 0 747 490 
Q 353 981 353 1791 
Q 353 2603 747 3093 
Q 1141 3584 1784 3584 
Q 2172 3584 2450 3431 
Q 2728 3278 2906 2969 
L 2906 3500 
L 3481 3500 
L 3481 434 
z
" transform="scale(0.015625)"/>
      </defs>
      <use xlink:href="#DejaVuSans-41"/>
      <use xlink:href="#DejaVuSans-67" x="68.408203"/>
      <use xlink:href="#DejaVuSans-61" x="131.884766"/>
      <use xlink:href="#DejaVuSans-74" x="193.164062"/>
      <use xlink:href="#DejaVuSans-68" x="232.373047"/>
      <use xlink:href="#DejaVuSans-6f" x="295.751953"/>
      <use xlink:href="#DejaVuSans-6e" x="356.933594"/>
     </g>
    </g>
    <g id="line2d_40">
     <path d="M 422.75725 88.689062 
L 432.75725 88.689062 
L 442.75725 88.689062 
" style="fill: none; stroke: #8c564b; stroke-width: 1.5; stroke-linecap: square"/>
    </g>
    <g id="text_22">
     <!-- Berisades -->
     <g transform="translate(450.75725 92.189062) scale(0.1 -0.1)">
      <defs>
       <path id="DejaVuSans-42" d="M 1259 2228 
L 1259 519 
L 2272 519 
Q 2781 519 3026 730 
Q 3272 941 3272 1375 
Q 3272 1813 3026 2020 
Q 2781 2228 2272 2228 
L 1259 2228 
z
M 1259 4147 
L 1259 2741 
L 2194 2741 
Q 2656 2741 2882 2914 
Q 3109 3088 3109 3444 
Q 3109 3797 2882 3972 
Q 2656 4147 2194 4147 
L 1259 4147 
z
M 628 4666 
L 2241 4666 
Q 2963 4666 3353 4366 
Q 3744 4066 3744 3513 
Q 3744 3084 3544 2831 
Q 3344 2578 2956 2516 
Q 3422 2416 3680 2098 
Q 3938 1781 3938 1306 
Q 3938 681 3513 340 
Q 3088 0 2303 0 
L 628 0 
L 628 4666 
z
" transform="scale(0.015625)"/>
      </defs>
      <use xlink:href="#DejaVuSans-42"/>
      <use xlink:href="#DejaVuSans-65" x="68.603516"/>
      <use xlink:href="#DejaVuSans-72" x="130.126953"/>
      <use xlink:href="#DejaVuSans-69" x="171.240234"/>
      <use xlink:href="#DejaVuSans-73" x="199.023438"/>
      <use xlink:href="#DejaVuSans-61" x="251.123047"/>
      <use xlink:href="#DejaVuSans-64" x="312.402344"/>
      <use xlink:href="#DejaVuSans-65" x="375.878906"/>
      <use xlink:href="#DejaVuSans-73" x="437.402344"/>
     </g>
    </g>
    <g id="line2d_41">
     <path d="M 422.75725 103.367187 
L 432.75725 103.367187 
L 442.75725 103.367187 
" style="fill: none; stroke: #e377c2; stroke-width: 1.5; stroke-linecap: square"/>
    </g>
    <g id="text_23">
     <!-- Capnlee -->
     <g transform="translate(450.75725 106.867187) scale(0.1 -0.1)">
      <defs>
       <path id="DejaVuSans-43" d="M 4122 4306 
L 4122 3641 
Q 3803 3938 3442 4084 
Q 3081 4231 2675 4231 
Q 1875 4231 1450 3742 
Q 1025 3253 1025 2328 
Q 1025 1406 1450 917 
Q 1875 428 2675 428 
Q 3081 428 3442 575 
Q 3803 722 4122 1019 
L 4122 359 
Q 3791 134 3420 21 
Q 3050 -91 2638 -91 
Q 1578 -91 968 557 
Q 359 1206 359 2328 
Q 359 3453 968 4101 
Q 1578 4750 2638 4750 
Q 3056 4750 3426 4639 
Q 3797 4528 4122 4306 
z
" transform="scale(0.015625)"/>
      </defs>
      <use xlink:href="#DejaVuSans-43"/>
      <use xlink:href="#DejaVuSans-61" x="69.824219"/>
      <use xlink:href="#DejaVuSans-70" x="131.103516"/>
      <use xlink:href="#DejaVuSans-6e" x="194.580078"/>
      <use xlink:href="#DejaVuSans-6c" x="257.958984"/>
      <use xlink:href="#DejaVuSans-65" x="285.742188"/>
      <use xlink:href="#DejaVuSans-65" x="347.265625"/>
     </g>
    </g>
    <g id="line2d_42">
     <path d="M 422.75725 118.045312 
L 432.75725 118.045312 
L 442.75725 118.045312 
" style="fill: none; stroke: #7f7f7f; stroke-width: 1.5; stroke-linecap: square"/>
    </g>
    <g id="text_24">
     <!-- Licinius -->
     <g transform="translate(450.75725 121.545312) scale(0.1 -0.1)">
      <defs>
       <path id="DejaVuSans-4c" d="M 628 4666 
L 1259 4666 
L 1259 531 
L 3531 531 
L 3531 0 
L 628 0 
L 628 4666 
z
" transform="scale(0.015625)"/>
      </defs>
      <use xlink:href="#DejaVuSans-4c"/>
      <use xlink:href="#DejaVuSans-69" x="55.712891"/>
      <use xlink:href="#DejaVuSans-63" x="83.496094"/>
      <use xlink:href="#DejaVuSans-69" x="138.476562"/>
      <use xlink:href="#DejaVuSans-6e" x="166.259766"/>
      <use xlink:href="#DejaVuSans-69" x="229.638672"/>
      <use xlink:href="#DejaVuSans-75" x="257.421875"/>
      <use xlink:href="#DejaVuSans-73" x="320.800781"/>
     </g>
    </g>
    <g id="line2d_43">
     <path d="M 422.75725 132.723437 
L 432.75725 132.723437 
L 442.75725 132.723437 
" style="fill: none; stroke: #bcbd22; stroke-width: 1.5; stroke-linecap: square"/>
    </g>
    <g id="text_25">
     <!-- Hopkins -->
     <g transform="translate(450.75725 136.223437) scale(0.1 -0.1)">
      <defs>
       <path id="DejaVuSans-48" d="M 628 4666 
L 1259 4666 
L 1259 2753 
L 3553 2753 
L 3553 4666 
L 4184 4666 
L 4184 0 
L 3553 0 
L 3553 2222 
L 1259 2222 
L 1259 0 
L 628 0 
L 628 4666 
z
" transform="scale(0.015625)"/>
       <path id="DejaVuSans-6b" d="M 581 4863 
L 1159 4863 
L 1159 1991 
L 2875 3500 
L 3609 3500 
L 1753 1863 
L 3688 0 
L 2938 0 
L 1159 1709 
L 1159 0 
L 581 0 
L 581 4863 
z
" transform="scale(0.015625)"/>
      </defs>
      <use xlink:href="#DejaVuSans-48"/>
      <use xlink:href="#DejaVuSans-6f" x="75.195312"/>
      <use xlink:href="#DejaVuSans-70" x="136.376953"/>
      <use xlink:href="#DejaVuSans-6b" x="199.853516"/>
      <use xlink:href="#DejaVuSans-69" x="257.763672"/>
      <use xlink:href="#DejaVuSans-6e" x="285.546875"/>
      <use xlink:href="#DejaVuSans-73" x="348.925781"/>
     </g>
    </g>
    <g id="line2d_44">
     <path d="M 422.75725 147.401562 
L 432.75725 147.401562 
L 442.75725 147.401562 
" style="fill: none; stroke: #17becf; stroke-width: 1.5; stroke-linecap: square"/>
    </g>
    <g id="text_26">
     <!-- Quinn -->
     <g transform="translate(450.75725 150.901562) scale(0.1 -0.1)">
      <defs>
       <path id="DejaVuSans-51" d="M 2522 4238 
Q 1834 4238 1429 3725 
Q 1025 3213 1025 2328 
Q 1025 1447 1429 934 
Q 1834 422 2522 422 
Q 3209 422 3611 934 
Q 4013 1447 4013 2328 
Q 4013 3213 3611 3725 
Q 3209 4238 2522 4238 
z
M 3406 84 
L 4238 -825 
L 3475 -825 
L 2784 -78 
Q 2681 -84 2626 -87 
Q 2572 -91 2522 -91 
Q 1538 -91 948 567 
Q 359 1225 359 2328 
Q 359 3434 948 4092 
Q 1538 4750 2522 4750 
Q 3503 4750 4090 4092 
Q 4678 3434 4678 2328 
Q 4678 1516 4351 937 
Q 4025 359 3406 84 
z
" transform="scale(0.015625)"/>
      </defs>
      <use xlink:href="#DejaVuSans-51"/>
      <use xlink:href="#DejaVuSans-75" x="78.710938"/>
      <use xlink:href="#DejaVuSans-69" x="142.089844"/>
      <use xlink:href="#DejaVuSans-6e" x="169.873047"/>
      <use xlink:href="#DejaVuSans-6e" x="233.251953"/>
     </g>
    </g>
    <g id="line2d_45">
     <path d="M 422.75725 162.079687 
L 432.75725 162.079687 
L 442.75725 162.079687 
" style="fill: none; stroke: #1f77b4; stroke-width: 1.5; stroke-linecap: square"/>
    </g>
    <g id="text_27">
     <!-- Redford -->
     <g transform="translate(450.75725 165.579687) scale(0.1 -0.1)">
      <defs>
       <path id="DejaVuSans-52" d="M 2841 2188 
Q 3044 2119 3236 1894 
Q 3428 1669 3622 1275 
L 4263 0 
L 3584 0 
L 2988 1197 
Q 2756 1666 2539 1819 
Q 2322 1972 1947 1972 
L 1259 1972 
L 1259 0 
L 628 0 
L 628 4666 
L 2053 4666 
Q 2853 4666 3247 4331 
Q 3641 3997 3641 3322 
Q 3641 2881 3436 2590 
Q 3231 2300 2841 2188 
z
M 1259 4147 
L 1259 2491 
L 2053 2491 
Q 2509 2491 2742 2702 
Q 2975 2913 2975 3322 
Q 2975 3731 2742 3939 
Q 2509 4147 2053 4147 
L 1259 4147 
z
" transform="scale(0.015625)"/>
       <path id="DejaVuSans-66" d="M 2375 4863 
L 2375 4384 
L 1825 4384 
Q 1516 4384 1395 4259 
Q 1275 4134 1275 3809 
L 1275 3500 
L 2222 3500 
L 2222 3053 
L 1275 3053 
L 1275 0 
L 697 0 
L 697 3053 
L 147 3053 
L 147 3500 
L 697 3500 
L 697 3744 
Q 697 4328 969 4595 
Q 1241 4863 1831 4863 
L 2375 4863 
z
" transform="scale(0.015625)"/>
      </defs>
      <use xlink:href="#DejaVuSans-52"/>
      <use xlink:href="#DejaVuSans-65" x="64.982422"/>
      <use xlink:href="#DejaVuSans-64" x="126.505859"/>
      <use xlink:href="#DejaVuSans-66" x="189.982422"/>
      <use xlink:href="#DejaVuSans-6f" x="225.1875"/>
      <use xlink:href="#DejaVuSans-72" x="286.369141"/>
      <use xlink:href="#DejaVuSans-64" x="325.732422"/>
     </g>
    </g>
    <g id="line2d_46">
     <path d="M 422.75725 176.757812 
L 432.75725 176.757812 
L 442.75725 176.757812 
" style="fill: none; stroke: #ff7f0e; stroke-width: 1.5; stroke-linecap: square"/>
    </g>
    <g id="text_28">
     <!-- Tarantino -->
     <g transform="translate(450.75725 180.257812) scale(0.1 -0.1)">
      <defs>
       <path id="DejaVuSans-54" d="M -19 4666 
L 3928 4666 
L 3928 4134 
L 2272 4134 
L 2272 0 
L 1638 0 
L 1638 4134 
L -19 4134 
L -19 4666 
z
" transform="scale(0.015625)"/>
      </defs>
      <use xlink:href="#DejaVuSans-54"/>
      <use xlink:href="#DejaVuSans-61" x="44.583984"/>
      <use xlink:href="#DejaVuSans-72" x="105.863281"/>
      <use xlink:href="#DejaVuSans-61" x="146.976562"/>
      <use xlink:href="#DejaVuSans-6e" x="208.255859"/>
      <use xlink:href="#DejaVuSans-74" x="271.634766"/>
      <use xlink:href="#DejaVuSans-69" x="310.84375"/>
      <use xlink:href="#DejaVuSans-6e" x="338.626953"/>
      <use xlink:href="#DejaVuSans-6f" x="402.005859"/>
     </g>
    </g>
    <g id="line2d_47">
     <path d="M 422.75725 191.435937 
L 432.75725 191.435937 
L 442.75725 191.435937 
" style="fill: none; stroke: #2ca02c; stroke-width: 1.5; stroke-linecap: square"/>
    </g>
    <g id="text_29">
     <!-- Feinstein -->
     <g transform="translate(450.75725 194.935937) scale(0.1 -0.1)">
      <use xlink:href="#DejaVuSans-46"/>
      <use xlink:href="#DejaVuSans-65" x="52.019531"/>
      <use xlink:href="#DejaVuSans-69" x="113.542969"/>
      <use xlink:href="#DejaVuSans-6e" x="141.326172"/>
      <use xlink:href="#DejaVuSans-73" x="204.705078"/>
      <use xlink:href="#DejaVuSans-74" x="256.804688"/>
      <use xlink:href="#DejaVuSans-65" x="296.013672"/>
      <use xlink:href="#DejaVuSans-69" x="357.537109"/>
      <use xlink:href="#DejaVuSans-6e" x="385.320312"/>
     </g>
    </g>
    <g id="line2d_48">
     <path d="M 422.75725 206.114062 
L 432.75725 206.114062 
L 442.75725 206.114062 
" style="fill: none; stroke: #d62728; stroke-width: 1.5; stroke-linecap: square"/>
    </g>
    <g id="text_30">
     <!-- Mikulski -->
     <g transform="translate(450.75725 209.614062) scale(0.1 -0.1)">
      <defs>
       <path id="DejaVuSans-4d" d="M 628 4666 
L 1569 4666 
L 2759 1491 
L 3956 4666 
L 4897 4666 
L 4897 0 
L 4281 0 
L 4281 4097 
L 3078 897 
L 2444 897 
L 1241 4097 
L 1241 0 
L 628 0 
L 628 4666 
z
" transform="scale(0.015625)"/>
      </defs>
      <use xlink:href="#DejaVuSans-4d"/>
      <use xlink:href="#DejaVuSans-69" x="86.279297"/>
      <use xlink:href="#DejaVuSans-6b" x="114.0625"/>
      <use xlink:href="#DejaVuSans-75" x="168.847656"/>
      <use xlink:href="#DejaVuSans-6c" x="232.226562"/>
      <use xlink:href="#DejaVuSans-73" x="260.009766"/>
      <use xlink:href="#DejaVuSans-6b" x="312.109375"/>
      <use xlink:href="#DejaVuSans-69" x="370.019531"/>
     </g>
    </g>
    <g id="line2d_49">
     <path d="M 422.75725 220.792187 
L 432.75725 220.792187 
L 442.75725 220.792187 
" style="fill: none; stroke: #9467bd; stroke-width: 1.5; stroke-linecap: square"/>
    </g>
    <g id="text_31">
     <!-- Schroeder -->
     <g transform="translate(450.75725 224.292187) scale(0.1 -0.1)">
      <use xlink:href="#DejaVuSans-53"/>
      <use xlink:href="#DejaVuSans-63" x="63.476562"/>
      <use xlink:href="#DejaVuSans-68" x="118.457031"/>
      <use xlink:href="#DejaVuSans-72" x="181.835938"/>
      <use xlink:href="#DejaVuSans-6f" x="220.699219"/>
      <use xlink:href="#DejaVuSans-65" x="281.880859"/>
      <use xlink:href="#DejaVuSans-64" x="343.404297"/>
      <use xlink:href="#DejaVuSans-65" x="406.880859"/>
      <use xlink:href="#DejaVuSans-72" x="468.404297"/>
     </g>
    </g>
    <g id="line2d_50">
     <path d="M 422.75725 235.470312 
L 432.75725 235.470312 
L 442.75725 235.470312 
" style="fill: none; stroke: #8c564b; stroke-width: 1.5; stroke-linecap: square"/>
    </g>
    <g id="text_32">
     <!-- Broome -->
     <g transform="translate(450.75725 238.970312) scale(0.1 -0.1)">
      <defs>
       <path id="DejaVuSans-6d" d="M 3328 2828 
Q 3544 3216 3844 3400 
Q 4144 3584 4550 3584 
Q 5097 3584 5394 3201 
Q 5691 2819 5691 2113 
L 5691 0 
L 5113 0 
L 5113 2094 
Q 5113 2597 4934 2840 
Q 4756 3084 4391 3084 
Q 3944 3084 3684 2787 
Q 3425 2491 3425 1978 
L 3425 0 
L 2847 0 
L 2847 2094 
Q 2847 2600 2669 2842 
Q 2491 3084 2119 3084 
Q 1678 3084 1418 2786 
Q 1159 2488 1159 1978 
L 1159 0 
L 581 0 
L 581 3500 
L 1159 3500 
L 1159 2956 
Q 1356 3278 1631 3431 
Q 1906 3584 2284 3584 
Q 2666 3584 2933 3390 
Q 3200 3197 3328 2828 
z
" transform="scale(0.015625)"/>
      </defs>
      <use xlink:href="#DejaVuSans-42"/>
      <use xlink:href="#DejaVuSans-72" x="68.603516"/>
      <use xlink:href="#DejaVuSans-6f" x="107.466797"/>
      <use xlink:href="#DejaVuSans-6f" x="168.648438"/>
      <use xlink:href="#DejaVuSans-6d" x="229.830078"/>
      <use xlink:href="#DejaVuSans-65" x="327.242188"/>
     </g>
    </g>
    <g id="line2d_51">
     <path d="M 422.75725 250.148437 
L 432.75725 250.148437 
L 442.75725 250.148437 
" style="fill: none; stroke: #e377c2; stroke-width: 1.5; stroke-linecap: square"/>
    </g>
    <g id="text_33">
     <!-- Huxley -->
     <g transform="translate(450.75725 253.648437) scale(0.1 -0.1)">
      <defs>
       <path id="DejaVuSans-78" d="M 3513 3500 
L 2247 1797 
L 3578 0 
L 2900 0 
L 1881 1375 
L 863 0 
L 184 0 
L 1544 1831 
L 300 3500 
L 978 3500 
L 1906 2253 
L 2834 3500 
L 3513 3500 
z
" transform="scale(0.015625)"/>
      </defs>
      <use xlink:href="#DejaVuSans-48"/>
      <use xlink:href="#DejaVuSans-75" x="75.195312"/>
      <use xlink:href="#DejaVuSans-78" x="138.574219"/>
      <use xlink:href="#DejaVuSans-6c" x="197.753906"/>
      <use xlink:href="#DejaVuSans-65" x="225.537109"/>
      <use xlink:href="#DejaVuSans-79" x="287.060547"/>
     </g>
    </g>
    <g id="line2d_52">
     <path d="M 422.75725 264.826562 
L 432.75725 264.826562 
L 442.75725 264.826562 
" style="fill: none; stroke: #7f7f7f; stroke-width: 1.5; stroke-linecap: square"/>
    </g>
    <g id="text_34">
     <!-- Solly -->
     <g transform="translate(450.75725 268.326562) scale(0.1 -0.1)">
      <use xlink:href="#DejaVuSans-53"/>
      <use xlink:href="#DejaVuSans-6f" x="63.476562"/>
      <use xlink:href="#DejaVuSans-6c" x="124.658203"/>
      <use xlink:href="#DejaVuSans-6c" x="152.441406"/>
      <use xlink:href="#DejaVuSans-79" x="180.224609"/>
     </g>
    </g>
    <g id="line2d_53">
     <path d="M 422.75725 279.504687 
L 432.75725 279.504687 
L 442.75725 279.504687 
" style="fill: none; stroke: #bcbd22; stroke-width: 1.5; stroke-linecap: square"/>
    </g>
    <g id="text_35">
     <!-- Yerkes -->
     <g transform="translate(450.75725 283.004687) scale(0.1 -0.1)">
      <defs>
       <path id="DejaVuSans-59" d="M -13 4666 
L 666 4666 
L 1959 2747 
L 3244 4666 
L 3922 4666 
L 2272 2222 
L 2272 0 
L 1638 0 
L 1638 2222 
L -13 4666 
z
" transform="scale(0.015625)"/>
      </defs>
      <use xlink:href="#DejaVuSans-59"/>
      <use xlink:href="#DejaVuSans-65" x="47.833984"/>
      <use xlink:href="#DejaVuSans-72" x="109.357422"/>
      <use xlink:href="#DejaVuSans-6b" x="150.470703"/>
      <use xlink:href="#DejaVuSans-65" x="204.755859"/>
      <use xlink:href="#DejaVuSans-73" x="266.279297"/>
     </g>
    </g>
   </g>
  </g>
 </g>
 <defs>
  <clipPath id="pfb31e25f56">
   <rect x="43.78125" y="7.2" width="357.12" height="266.112"/>
  </clipPath>
 </defs>
</svg>
