<?xml version="1.0" encoding="utf-8" standalone="no"?>
<!DOCTYPE svg PUBLIC "-//W3C//DTD SVG 1.1//EN"
  "http://www.w3.org/Graphics/SVG/1.1/DTD/svg11.dtd">
<svg xmlns:xlink="http://www.w3.org/1999/xlink" width="404.923125pt" height="310.86825pt" viewBox="0 0 404.923125 310.86825" xmlns="http://www.w3.org/2000/svg" version="1.1">
 <metadata>
  <rdf:RDF xmlns:dc="http://purl.org/dc/elements/1.1/" xmlns:cc="http://creativecommons.org/ns#" xmlns:rdf="http://www.w3.org/1999/02/22-rdf-syntax-ns#">
   <cc:Work>
    <dc:type rdf:resource="http://purl.org/dc/dcmitype/StillImage"/>
    <dc:date>2023-02-03T01:41:51.278143</dc:date>
    <dc:format>image/svg+xml</dc:format>
    <dc:creator>
     <cc:Agent>
      <dc:title>Matplotlib v3.6.3, https://matplotlib.org/</dc:title>
     </cc:Agent>
    </dc:creator>
   </cc:Work>
  </rdf:RDF>
 </metadata>
 <defs>
  <style type="text/css">*{stroke-linejoin: round; stroke-linecap: butt}</style>
 </defs>
 <g id="figure_1">
  <g id="patch_1">
   <path d="M 0 310.86825 
L 404.923125 310.86825 
L 404.923125 0 
L 0 0 
z
" style="fill: #ffffff"/>
  </g>
  <g id="axes_1">
   <g id="patch_2">
    <path d="M 40.603125 273.312 
L 397.723125 273.312 
L 397.723125 7.2 
L 40.603125 7.2 
z
" style="fill: #ffffff"/>
   </g>
   <g id="matplotlib.axis_1">
    <g id="xtick_1">
     <g id="line2d_1">
      <defs>
       <path id="m4e21a0be5a" d="M 0 0 
L 0 3.5 
" style="stroke: #000000; stroke-width: 0.8"/>
      </defs>
      <g>
       <use xlink:href="#m4e21a0be5a" x="56.835852" y="273.312" style="stroke: #000000; stroke-width: 0.8"/>
      </g>
     </g>
     <g id="text_1">
      <!-- −0.50 -->
      <g transform="translate(41.513196 287.910437) scale(0.1 -0.1)">
       <defs>
        <path id="DejaVuSans-2212" d="M 678 2272 
L 4684 2272 
L 4684 1741 
L 678 1741 
L 678 2272 
z
" transform="scale(0.015625)"/>
        <path id="DejaVuSans-30" d="M 2034 4250 
Q 1547 4250 1301 3770 
Q 1056 3291 1056 2328 
Q 1056 1369 1301 889 
Q 1547 409 2034 409 
Q 2525 409 2770 889 
Q 3016 1369 3016 2328 
Q 3016 3291 2770 3770 
Q 2525 4250 2034 4250 
z
M 2034 4750 
Q 2819 4750 3233 4129 
Q 3647 3509 3647 2328 
Q 3647 1150 3233 529 
Q 2819 -91 2034 -91 
Q 1250 -91 836 529 
Q 422 1150 422 2328 
Q 422 3509 836 4129 
Q 1250 4750 2034 4750 
z
" transform="scale(0.015625)"/>
        <path id="DejaVuSans-2e" d="M 684 794 
L 1344 794 
L 1344 0 
L 684 0 
L 684 794 
z
" transform="scale(0.015625)"/>
        <path id="DejaVuSans-35" d="M 691 4666 
L 3169 4666 
L 3169 4134 
L 1269 4134 
L 1269 2991 
Q 1406 3038 1543 3061 
Q 1681 3084 1819 3084 
Q 2600 3084 3056 2656 
Q 3513 2228 3513 1497 
Q 3513 744 3044 326 
Q 2575 -91 1722 -91 
Q 1428 -91 1123 -41 
Q 819 9 494 109 
L 494 744 
Q 775 591 1075 516 
Q 1375 441 1709 441 
Q 2250 441 2565 725 
Q 2881 1009 2881 1497 
Q 2881 1984 2565 2268 
Q 2250 2553 1709 2553 
Q 1456 2553 1204 2497 
Q 953 2441 691 2322 
L 691 4666 
z
" transform="scale(0.015625)"/>
       </defs>
       <use xlink:href="#DejaVuSans-2212"/>
       <use xlink:href="#DejaVuSans-30" x="83.789062"/>
       <use xlink:href="#DejaVuSans-2e" x="147.412109"/>
       <use xlink:href="#DejaVuSans-35" x="179.199219"/>
       <use xlink:href="#DejaVuSans-30" x="242.822266"/>
      </g>
     </g>
    </g>
    <g id="xtick_2">
     <g id="line2d_2">
      <g>
       <use xlink:href="#m4e21a0be5a" x="97.437972" y="273.312" style="stroke: #000000; stroke-width: 0.8"/>
      </g>
     </g>
     <g id="text_2">
      <!-- −0.25 -->
      <g transform="translate(82.115315 287.910437) scale(0.1 -0.1)">
       <defs>
        <path id="DejaVuSans-32" d="M 1228 531 
L 3431 531 
L 3431 0 
L 469 0 
L 469 531 
Q 828 903 1448 1529 
Q 2069 2156 2228 2338 
Q 2531 2678 2651 2914 
Q 2772 3150 2772 3378 
Q 2772 3750 2511 3984 
Q 2250 4219 1831 4219 
Q 1534 4219 1204 4116 
Q 875 4013 500 3803 
L 500 4441 
Q 881 4594 1212 4672 
Q 1544 4750 1819 4750 
Q 2544 4750 2975 4387 
Q 3406 4025 3406 3419 
Q 3406 3131 3298 2873 
Q 3191 2616 2906 2266 
Q 2828 2175 2409 1742 
Q 1991 1309 1228 531 
z
" transform="scale(0.015625)"/>
       </defs>
       <use xlink:href="#DejaVuSans-2212"/>
       <use xlink:href="#DejaVuSans-30" x="83.789062"/>
       <use xlink:href="#DejaVuSans-2e" x="147.412109"/>
       <use xlink:href="#DejaVuSans-32" x="179.199219"/>
       <use xlink:href="#DejaVuSans-35" x="242.822266"/>
      </g>
     </g>
    </g>
    <g id="xtick_3">
     <g id="line2d_3">
      <g>
       <use xlink:href="#m4e21a0be5a" x="138.040091" y="273.312" style="stroke: #000000; stroke-width: 0.8"/>
      </g>
     </g>
     <g id="text_3">
      <!-- 0.00 -->
      <g transform="translate(126.907278 287.910437) scale(0.1 -0.1)">
       <use xlink:href="#DejaVuSans-30"/>
       <use xlink:href="#DejaVuSans-2e" x="63.623047"/>
       <use xlink:href="#DejaVuSans-30" x="95.410156"/>
       <use xlink:href="#DejaVuSans-30" x="159.033203"/>
      </g>
     </g>
    </g>
    <g id="xtick_4">
     <g id="line2d_4">
      <g>
       <use xlink:href="#m4e21a0be5a" x="178.64221" y="273.312" style="stroke: #000000; stroke-width: 0.8"/>
      </g>
     </g>
     <g id="text_4">
      <!-- 0.25 -->
      <g transform="translate(167.509397 287.910437) scale(0.1 -0.1)">
       <use xlink:href="#DejaVuSans-30"/>
       <use xlink:href="#DejaVuSans-2e" x="63.623047"/>
       <use xlink:href="#DejaVuSans-32" x="95.410156"/>
       <use xlink:href="#DejaVuSans-35" x="159.033203"/>
      </g>
     </g>
    </g>
    <g id="xtick_5">
     <g id="line2d_5">
      <g>
       <use xlink:href="#m4e21a0be5a" x="219.244329" y="273.312" style="stroke: #000000; stroke-width: 0.8"/>
      </g>
     </g>
     <g id="text_5">
      <!-- 0.50 -->
      <g transform="translate(208.111517 287.910437) scale(0.1 -0.1)">
       <use xlink:href="#DejaVuSans-30"/>
       <use xlink:href="#DejaVuSans-2e" x="63.623047"/>
       <use xlink:href="#DejaVuSans-35" x="95.410156"/>
       <use xlink:href="#DejaVuSans-30" x="159.033203"/>
      </g>
     </g>
    </g>
    <g id="xtick_6">
     <g id="line2d_6">
      <g>
       <use xlink:href="#m4e21a0be5a" x="259.846448" y="273.312" style="stroke: #000000; stroke-width: 0.8"/>
      </g>
     </g>
     <g id="text_6">
      <!-- 0.75 -->
      <g transform="translate(248.713636 287.910437) scale(0.1 -0.1)">
       <defs>
        <path id="DejaVuSans-37" d="M 525 4666 
L 3525 4666 
L 3525 4397 
L 1831 0 
L 1172 0 
L 2766 4134 
L 525 4134 
L 525 4666 
z
" transform="scale(0.015625)"/>
       </defs>
       <use xlink:href="#DejaVuSans-30"/>
       <use xlink:href="#DejaVuSans-2e" x="63.623047"/>
       <use xlink:href="#DejaVuSans-37" x="95.410156"/>
       <use xlink:href="#DejaVuSans-35" x="159.033203"/>
      </g>
     </g>
    </g>
    <g id="xtick_7">
     <g id="line2d_7">
      <g>
       <use xlink:href="#m4e21a0be5a" x="300.448568" y="273.312" style="stroke: #000000; stroke-width: 0.8"/>
      </g>
     </g>
     <g id="text_7">
      <!-- 1.00 -->
      <g transform="translate(289.315755 287.910437) scale(0.1 -0.1)">
       <defs>
        <path id="DejaVuSans-31" d="M 794 531 
L 1825 531 
L 1825 4091 
L 703 3866 
L 703 4441 
L 1819 4666 
L 2450 4666 
L 2450 531 
L 3481 531 
L 3481 0 
L 794 0 
L 794 531 
z
" transform="scale(0.015625)"/>
       </defs>
       <use xlink:href="#DejaVuSans-31"/>
       <use xlink:href="#DejaVuSans-2e" x="63.623047"/>
       <use xlink:href="#DejaVuSans-30" x="95.410156"/>
       <use xlink:href="#DejaVuSans-30" x="159.033203"/>
      </g>
     </g>
    </g>
    <g id="xtick_8">
     <g id="line2d_8">
      <g>
       <use xlink:href="#m4e21a0be5a" x="341.050687" y="273.312" style="stroke: #000000; stroke-width: 0.8"/>
      </g>
     </g>
     <g id="text_8">
      <!-- 1.25 -->
      <g transform="translate(329.917874 287.910437) scale(0.1 -0.1)">
       <use xlink:href="#DejaVuSans-31"/>
       <use xlink:href="#DejaVuSans-2e" x="63.623047"/>
       <use xlink:href="#DejaVuSans-32" x="95.410156"/>
       <use xlink:href="#DejaVuSans-35" x="159.033203"/>
      </g>
     </g>
    </g>
    <g id="xtick_9">
     <g id="line2d_9">
      <g>
       <use xlink:href="#m4e21a0be5a" x="381.652806" y="273.312" style="stroke: #000000; stroke-width: 0.8"/>
      </g>
     </g>
     <g id="text_9">
      <!-- 1.50 -->
      <g transform="translate(370.519994 287.910437) scale(0.1 -0.1)">
       <use xlink:href="#DejaVuSans-31"/>
       <use xlink:href="#DejaVuSans-2e" x="63.623047"/>
       <use xlink:href="#DejaVuSans-35" x="95.410156"/>
       <use xlink:href="#DejaVuSans-30" x="159.033203"/>
      </g>
     </g>
    </g>
    <g id="text_10">
     <!-- time (s) -->
     <g transform="translate(199.771719 301.588562) scale(0.1 -0.1)">
      <defs>
       <path id="DejaVuSans-74" d="M 1172 4494 
L 1172 3500 
L 2356 3500 
L 2356 3053 
L 1172 3053 
L 1172 1153 
Q 1172 725 1289 603 
Q 1406 481 1766 481 
L 2356 481 
L 2356 0 
L 1766 0 
Q 1100 0 847 248 
Q 594 497 594 1153 
L 594 3053 
L 172 3053 
L 172 3500 
L 594 3500 
L 594 4494 
L 1172 4494 
z
" transform="scale(0.015625)"/>
       <path id="DejaVuSans-69" d="M 603 3500 
L 1178 3500 
L 1178 0 
L 603 0 
L 603 3500 
z
M 603 4863 
L 1178 4863 
L 1178 4134 
L 603 4134 
L 603 4863 
z
" transform="scale(0.015625)"/>
       <path id="DejaVuSans-6d" d="M 3328 2828 
Q 3544 3216 3844 3400 
Q 4144 3584 4550 3584 
Q 5097 3584 5394 3201 
Q 5691 2819 5691 2113 
L 5691 0 
L 5113 0 
L 5113 2094 
Q 5113 2597 4934 2840 
Q 4756 3084 4391 3084 
Q 3944 3084 3684 2787 
Q 3425 2491 3425 1978 
L 3425 0 
L 2847 0 
L 2847 2094 
Q 2847 2600 2669 2842 
Q 2491 3084 2119 3084 
Q 1678 3084 1418 2786 
Q 1159 2488 1159 1978 
L 1159 0 
L 581 0 
L 581 3500 
L 1159 3500 
L 1159 2956 
Q 1356 3278 1631 3431 
Q 1906 3584 2284 3584 
Q 2666 3584 2933 3390 
Q 3200 3197 3328 2828 
z
" transform="scale(0.015625)"/>
       <path id="DejaVuSans-65" d="M 3597 1894 
L 3597 1613 
L 953 1613 
Q 991 1019 1311 708 
Q 1631 397 2203 397 
Q 2534 397 2845 478 
Q 3156 559 3463 722 
L 3463 178 
Q 3153 47 2828 -22 
Q 2503 -91 2169 -91 
Q 1331 -91 842 396 
Q 353 884 353 1716 
Q 353 2575 817 3079 
Q 1281 3584 2069 3584 
Q 2775 3584 3186 3129 
Q 3597 2675 3597 1894 
z
M 3022 2063 
Q 3016 2534 2758 2815 
Q 2500 3097 2075 3097 
Q 1594 3097 1305 2825 
Q 1016 2553 972 2059 
L 3022 2063 
z
" transform="scale(0.015625)"/>
       <path id="DejaVuSans-20" transform="scale(0.015625)"/>
       <path id="DejaVuSans-28" d="M 1984 4856 
Q 1566 4138 1362 3434 
Q 1159 2731 1159 2009 
Q 1159 1288 1364 580 
Q 1569 -128 1984 -844 
L 1484 -844 
Q 1016 -109 783 600 
Q 550 1309 550 2009 
Q 550 2706 781 3412 
Q 1013 4119 1484 4856 
L 1984 4856 
z
" transform="scale(0.015625)"/>
       <path id="DejaVuSans-73" d="M 2834 3397 
L 2834 2853 
Q 2591 2978 2328 3040 
Q 2066 3103 1784 3103 
Q 1356 3103 1142 2972 
Q 928 2841 928 2578 
Q 928 2378 1081 2264 
Q 1234 2150 1697 2047 
L 1894 2003 
Q 2506 1872 2764 1633 
Q 3022 1394 3022 966 
Q 3022 478 2636 193 
Q 2250 -91 1575 -91 
Q 1294 -91 989 -36 
Q 684 19 347 128 
L 347 722 
Q 666 556 975 473 
Q 1284 391 1588 391 
Q 1994 391 2212 530 
Q 2431 669 2431 922 
Q 2431 1156 2273 1281 
Q 2116 1406 1581 1522 
L 1381 1569 
Q 847 1681 609 1914 
Q 372 2147 372 2553 
Q 372 3047 722 3315 
Q 1072 3584 1716 3584 
Q 2034 3584 2315 3537 
Q 2597 3491 2834 3397 
z
" transform="scale(0.015625)"/>
       <path id="DejaVuSans-29" d="M 513 4856 
L 1013 4856 
Q 1481 4119 1714 3412 
Q 1947 2706 1947 2009 
Q 1947 1309 1714 600 
Q 1481 -109 1013 -844 
L 513 -844 
Q 928 -128 1133 580 
Q 1338 1288 1338 2009 
Q 1338 2731 1133 3434 
Q 928 4138 513 4856 
z
" transform="scale(0.015625)"/>
      </defs>
      <use xlink:href="#DejaVuSans-74"/>
      <use xlink:href="#DejaVuSans-69" x="39.208984"/>
      <use xlink:href="#DejaVuSans-6d" x="66.992188"/>
      <use xlink:href="#DejaVuSans-65" x="164.404297"/>
      <use xlink:href="#DejaVuSans-20" x="225.927734"/>
      <use xlink:href="#DejaVuSans-28" x="257.714844"/>
      <use xlink:href="#DejaVuSans-73" x="296.728516"/>
      <use xlink:href="#DejaVuSans-29" x="348.828125"/>
     </g>
    </g>
   </g>
   <g id="matplotlib.axis_2">
    <g id="ytick_1">
     <g id="line2d_10">
      <defs>
       <path id="m975a8e294d" d="M 0 0 
L -3.5 0 
" style="stroke: #000000; stroke-width: 0.8"/>
      </defs>
      <g>
       <use xlink:href="#m975a8e294d" x="40.603125" y="261.540935" style="stroke: #000000; stroke-width: 0.8"/>
      </g>
     </g>
     <g id="text_11">
      <!-- 0 -->
      <g transform="translate(27.240625 265.340154) scale(0.1 -0.1)">
       <use xlink:href="#DejaVuSans-30"/>
      </g>
     </g>
    </g>
    <g id="ytick_2">
     <g id="line2d_11">
      <g>
       <use xlink:href="#m975a8e294d" x="40.603125" y="224.56579" style="stroke: #000000; stroke-width: 0.8"/>
      </g>
     </g>
     <g id="text_12">
      <!-- 2 -->
      <g transform="translate(27.240625 228.365009) scale(0.1 -0.1)">
       <use xlink:href="#DejaVuSans-32"/>
      </g>
     </g>
    </g>
    <g id="ytick_3">
     <g id="line2d_12">
      <g>
       <use xlink:href="#m975a8e294d" x="40.603125" y="187.590646" style="stroke: #000000; stroke-width: 0.8"/>
      </g>
     </g>
     <g id="text_13">
      <!-- 4 -->
      <g transform="translate(27.240625 191.389864) scale(0.1 -0.1)">
       <defs>
        <path id="DejaVuSans-34" d="M 2419 4116 
L 825 1625 
L 2419 1625 
L 2419 4116 
z
M 2253 4666 
L 3047 4666 
L 3047 1625 
L 3713 1625 
L 3713 1100 
L 3047 1100 
L 3047 0 
L 2419 0 
L 2419 1100 
L 313 1100 
L 313 1709 
L 2253 4666 
z
" transform="scale(0.015625)"/>
       </defs>
       <use xlink:href="#DejaVuSans-34"/>
      </g>
     </g>
    </g>
    <g id="ytick_4">
     <g id="line2d_13">
      <g>
       <use xlink:href="#m975a8e294d" x="40.603125" y="150.615501" style="stroke: #000000; stroke-width: 0.8"/>
      </g>
     </g>
     <g id="text_14">
      <!-- 6 -->
      <g transform="translate(27.240625 154.41472) scale(0.1 -0.1)">
       <defs>
        <path id="DejaVuSans-36" d="M 2113 2584 
Q 1688 2584 1439 2293 
Q 1191 2003 1191 1497 
Q 1191 994 1439 701 
Q 1688 409 2113 409 
Q 2538 409 2786 701 
Q 3034 994 3034 1497 
Q 3034 2003 2786 2293 
Q 2538 2584 2113 2584 
z
M 3366 4563 
L 3366 3988 
Q 3128 4100 2886 4159 
Q 2644 4219 2406 4219 
Q 1781 4219 1451 3797 
Q 1122 3375 1075 2522 
Q 1259 2794 1537 2939 
Q 1816 3084 2150 3084 
Q 2853 3084 3261 2657 
Q 3669 2231 3669 1497 
Q 3669 778 3244 343 
Q 2819 -91 2113 -91 
Q 1303 -91 875 529 
Q 447 1150 447 2328 
Q 447 3434 972 4092 
Q 1497 4750 2381 4750 
Q 2619 4750 2861 4703 
Q 3103 4656 3366 4563 
z
" transform="scale(0.015625)"/>
       </defs>
       <use xlink:href="#DejaVuSans-36"/>
      </g>
     </g>
    </g>
    <g id="ytick_5">
     <g id="line2d_14">
      <g>
       <use xlink:href="#m975a8e294d" x="40.603125" y="113.640356" style="stroke: #000000; stroke-width: 0.8"/>
      </g>
     </g>
     <g id="text_15">
      <!-- 8 -->
      <g transform="translate(27.240625 117.439575) scale(0.1 -0.1)">
       <defs>
        <path id="DejaVuSans-38" d="M 2034 2216 
Q 1584 2216 1326 1975 
Q 1069 1734 1069 1313 
Q 1069 891 1326 650 
Q 1584 409 2034 409 
Q 2484 409 2743 651 
Q 3003 894 3003 1313 
Q 3003 1734 2745 1975 
Q 2488 2216 2034 2216 
z
M 1403 2484 
Q 997 2584 770 2862 
Q 544 3141 544 3541 
Q 544 4100 942 4425 
Q 1341 4750 2034 4750 
Q 2731 4750 3128 4425 
Q 3525 4100 3525 3541 
Q 3525 3141 3298 2862 
Q 3072 2584 2669 2484 
Q 3125 2378 3379 2068 
Q 3634 1759 3634 1313 
Q 3634 634 3220 271 
Q 2806 -91 2034 -91 
Q 1263 -91 848 271 
Q 434 634 434 1313 
Q 434 1759 690 2068 
Q 947 2378 1403 2484 
z
M 1172 3481 
Q 1172 3119 1398 2916 
Q 1625 2713 2034 2713 
Q 2441 2713 2670 2916 
Q 2900 3119 2900 3481 
Q 2900 3844 2670 4047 
Q 2441 4250 2034 4250 
Q 1625 4250 1398 4047 
Q 1172 3844 1172 3481 
z
" transform="scale(0.015625)"/>
       </defs>
       <use xlink:href="#DejaVuSans-38"/>
      </g>
     </g>
    </g>
    <g id="ytick_6">
     <g id="line2d_15">
      <g>
       <use xlink:href="#m975a8e294d" x="40.603125" y="76.665212" style="stroke: #000000; stroke-width: 0.8"/>
      </g>
     </g>
     <g id="text_16">
      <!-- 10 -->
      <g transform="translate(20.878125 80.464431) scale(0.1 -0.1)">
       <use xlink:href="#DejaVuSans-31"/>
       <use xlink:href="#DejaVuSans-30" x="63.623047"/>
      </g>
     </g>
    </g>
    <g id="ytick_7">
     <g id="line2d_16">
      <g>
       <use xlink:href="#m975a8e294d" x="40.603125" y="39.690067" style="stroke: #000000; stroke-width: 0.8"/>
      </g>
     </g>
     <g id="text_17">
      <!-- 12 -->
      <g transform="translate(20.878125 43.489286) scale(0.1 -0.1)">
       <use xlink:href="#DejaVuSans-31"/>
       <use xlink:href="#DejaVuSans-32" x="63.623047"/>
      </g>
     </g>
    </g>
    <g id="text_18">
     <!-- firing rate (spks/s) -->
     <g transform="translate(14.798438 185.996625) rotate(-90) scale(0.1 -0.1)">
      <defs>
       <path id="DejaVuSans-66" d="M 2375 4863 
L 2375 4384 
L 1825 4384 
Q 1516 4384 1395 4259 
Q 1275 4134 1275 3809 
L 1275 3500 
L 2222 3500 
L 2222 3053 
L 1275 3053 
L 1275 0 
L 697 0 
L 697 3053 
L 147 3053 
L 147 3500 
L 697 3500 
L 697 3744 
Q 697 4328 969 4595 
Q 1241 4863 1831 4863 
L 2375 4863 
z
" transform="scale(0.015625)"/>
       <path id="DejaVuSans-72" d="M 2631 2963 
Q 2534 3019 2420 3045 
Q 2306 3072 2169 3072 
Q 1681 3072 1420 2755 
Q 1159 2438 1159 1844 
L 1159 0 
L 581 0 
L 581 3500 
L 1159 3500 
L 1159 2956 
Q 1341 3275 1631 3429 
Q 1922 3584 2338 3584 
Q 2397 3584 2469 3576 
Q 2541 3569 2628 3553 
L 2631 2963 
z
" transform="scale(0.015625)"/>
       <path id="DejaVuSans-6e" d="M 3513 2113 
L 3513 0 
L 2938 0 
L 2938 2094 
Q 2938 2591 2744 2837 
Q 2550 3084 2163 3084 
Q 1697 3084 1428 2787 
Q 1159 2491 1159 1978 
L 1159 0 
L 581 0 
L 581 3500 
L 1159 3500 
L 1159 2956 
Q 1366 3272 1645 3428 
Q 1925 3584 2291 3584 
Q 2894 3584 3203 3211 
Q 3513 2838 3513 2113 
z
" transform="scale(0.015625)"/>
       <path id="DejaVuSans-67" d="M 2906 1791 
Q 2906 2416 2648 2759 
Q 2391 3103 1925 3103 
Q 1463 3103 1205 2759 
Q 947 2416 947 1791 
Q 947 1169 1205 825 
Q 1463 481 1925 481 
Q 2391 481 2648 825 
Q 2906 1169 2906 1791 
z
M 3481 434 
Q 3481 -459 3084 -895 
Q 2688 -1331 1869 -1331 
Q 1566 -1331 1297 -1286 
Q 1028 -1241 775 -1147 
L 775 -588 
Q 1028 -725 1275 -790 
Q 1522 -856 1778 -856 
Q 2344 -856 2625 -561 
Q 2906 -266 2906 331 
L 2906 616 
Q 2728 306 2450 153 
Q 2172 0 1784 0 
Q 1141 0 747 490 
Q 353 981 353 1791 
Q 353 2603 747 3093 
Q 1141 3584 1784 3584 
Q 2172 3584 2450 3431 
Q 2728 3278 2906 2969 
L 2906 3500 
L 3481 3500 
L 3481 434 
z
" transform="scale(0.015625)"/>
       <path id="DejaVuSans-61" d="M 2194 1759 
Q 1497 1759 1228 1600 
Q 959 1441 959 1056 
Q 959 750 1161 570 
Q 1363 391 1709 391 
Q 2188 391 2477 730 
Q 2766 1069 2766 1631 
L 2766 1759 
L 2194 1759 
z
M 3341 1997 
L 3341 0 
L 2766 0 
L 2766 531 
Q 2569 213 2275 61 
Q 1981 -91 1556 -91 
Q 1019 -91 701 211 
Q 384 513 384 1019 
Q 384 1609 779 1909 
Q 1175 2209 1959 2209 
L 2766 2209 
L 2766 2266 
Q 2766 2663 2505 2880 
Q 2244 3097 1772 3097 
Q 1472 3097 1187 3025 
Q 903 2953 641 2809 
L 641 3341 
Q 956 3463 1253 3523 
Q 1550 3584 1831 3584 
Q 2591 3584 2966 3190 
Q 3341 2797 3341 1997 
z
" transform="scale(0.015625)"/>
       <path id="DejaVuSans-70" d="M 1159 525 
L 1159 -1331 
L 581 -1331 
L 581 3500 
L 1159 3500 
L 1159 2969 
Q 1341 3281 1617 3432 
Q 1894 3584 2278 3584 
Q 2916 3584 3314 3078 
Q 3713 2572 3713 1747 
Q 3713 922 3314 415 
Q 2916 -91 2278 -91 
Q 1894 -91 1617 61 
Q 1341 213 1159 525 
z
M 3116 1747 
Q 3116 2381 2855 2742 
Q 2594 3103 2138 3103 
Q 1681 3103 1420 2742 
Q 1159 2381 1159 1747 
Q 1159 1113 1420 752 
Q 1681 391 2138 391 
Q 2594 391 2855 752 
Q 3116 1113 3116 1747 
z
" transform="scale(0.015625)"/>
       <path id="DejaVuSans-6b" d="M 581 4863 
L 1159 4863 
L 1159 1991 
L 2875 3500 
L 3609 3500 
L 1753 1863 
L 3688 0 
L 2938 0 
L 1159 1709 
L 1159 0 
L 581 0 
L 581 4863 
z
" transform="scale(0.015625)"/>
       <path id="DejaVuSans-2f" d="M 1625 4666 
L 2156 4666 
L 531 -594 
L 0 -594 
L 1625 4666 
z
" transform="scale(0.015625)"/>
      </defs>
      <use xlink:href="#DejaVuSans-66"/>
      <use xlink:href="#DejaVuSans-69" x="35.205078"/>
      <use xlink:href="#DejaVuSans-72" x="62.988281"/>
      <use xlink:href="#DejaVuSans-69" x="104.101562"/>
      <use xlink:href="#DejaVuSans-6e" x="131.884766"/>
      <use xlink:href="#DejaVuSans-67" x="195.263672"/>
      <use xlink:href="#DejaVuSans-20" x="258.740234"/>
      <use xlink:href="#DejaVuSans-72" x="290.527344"/>
      <use xlink:href="#DejaVuSans-61" x="331.640625"/>
      <use xlink:href="#DejaVuSans-74" x="392.919922"/>
      <use xlink:href="#DejaVuSans-65" x="432.128906"/>
      <use xlink:href="#DejaVuSans-20" x="493.652344"/>
      <use xlink:href="#DejaVuSans-28" x="525.439453"/>
      <use xlink:href="#DejaVuSans-73" x="564.453125"/>
      <use xlink:href="#DejaVuSans-70" x="616.552734"/>
      <use xlink:href="#DejaVuSans-6b" x="680.029297"/>
      <use xlink:href="#DejaVuSans-73" x="737.939453"/>
      <use xlink:href="#DejaVuSans-2f" x="790.039062"/>
      <use xlink:href="#DejaVuSans-73" x="823.730469"/>
      <use xlink:href="#DejaVuSans-29" x="875.830078"/>
     </g>
    </g>
   </g>
   <g id="line2d_17">
    <path d="M 56.835852 243.053362 
L 137.877682 243.053362 
L 138.040091 76.665212 
L 300.286159 76.665212 
L 300.448568 243.053362 
L 381.490398 243.053362 
L 381.490398 243.053362 
" clip-path="url(#p719d950c63)" style="fill: none; stroke: #1f77b4; stroke-width: 1.5; stroke-linecap: square"/>
   </g>
   <g id="line2d_18">
    <path d="M 56.998261 257.058617 
L 61.870515 249.602803 
L 63.169783 247.705637 
L 64.631459 245.201303 
L 68.366854 238.496567 
L 69.178897 237.665403 
L 69.990939 237.11597 
L 70.315756 237.090001 
L 70.96539 237.05273 
L 71.777432 237.276975 
L 72.427066 237.755768 
L 73.401517 238.814611 
L 76.487278 242.53256 
L 77.461729 243.121476 
L 79.085814 243.760379 
L 79.410631 243.832078 
L 80.060264 244.233659 
L 80.385081 244.573819 
L 80.709898 244.77693 
L 83.146026 246.950532 
L 83.633251 246.997864 
L 84.120476 246.770086 
L 84.607702 246.30457 
L 85.094927 245.292884 
L 85.582153 243.927725 
L 86.394195 241.077273 
L 89.155139 230.239873 
L 90.12959 228.301239 
L 90.616815 227.904732 
L 90.779224 227.86426 
L 91.753675 228.456292 
L 92.403309 229.4419 
L 93.215351 231.282586 
L 94.677027 235.328972 
L 95.976295 238.714789 
L 96.625929 239.994325 
L 97.275563 240.974216 
L 97.60038 241.30657 
L 97.925197 241.335603 
L 98.412422 241.347263 
L 98.737239 241.34284 
L 99.224465 240.807608 
L 100.036507 239.445386 
L 101.010958 237.004925 
L 103.771902 229.095598 
L 104.421536 227.988333 
L 104.908761 227.419362 
L 105.720804 227.364062 
L 106.045621 227.640186 
L 106.532846 228.429347 
L 107.020072 229.663899 
L 107.832114 232.504291 
L 108.968973 237.771036 
L 110.755467 246.308186 
L 111.567509 249.177651 
L 112.054734 250.397386 
L 112.54196 251.127306 
L 113.029185 251.463594 
L 113.354002 251.481956 
L 113.841228 251.236737 
L 114.328453 250.724119 
L 115.302904 249.293229 
L 116.277355 247.809402 
L 117.089397 246.88834 
L 117.251806 246.957225 
L 117.739031 246.785965 
L 118.226257 246.902956 
L 118.713482 247.286553 
L 119.363116 248.138738 
L 120.499975 250.155048 
L 121.799243 252.333001 
L 122.611285 253.22457 
L 123.260919 253.614287 
L 123.910553 253.755972 
L 124.23537 253.676765 
L 125.37223 253.419993 
L 125.697047 253.245315 
L 126.671497 252.998355 
L 126.996314 253.015442 
L 128.620399 252.671354 
L 129.270033 251.905109 
L 130.244484 250.140021 
L 131.543752 245.318916 
L 132.355794 240.4424 
L 133.167836 233.751528 
L 134.304696 220.990016 
L 135.279147 207.295021 
L 136.903231 179.467174 
L 138.852133 144.841996 
L 139.826584 131.031237 
L 140.476218 123.885293 
L 141.125852 118.516057 
L 141.775486 115.13057 
L 142.262711 113.268828 
L 142.912345 111.918504 
L 144.374021 109.980041 
L 145.023655 108.487982 
L 145.673289 105.974003 
L 146.322923 102.446837 
L 147.459782 94.521878 
L 148.109416 89.850154 
L 148.921459 84.947066 
L 149.571093 82.079206 
L 149.89591 81.500816 
L 150.220727 81.070826 
L 150.545543 81.159202 
L 150.87036 81.666619 
L 151.519994 83.922235 
L 152.656854 88.949289 
L 153.144079 91.08138 
L 153.793713 92.748222 
L 154.11853 93.085293 
L 154.443347 93.075126 
L 154.605755 92.936914 
L 155.092981 91.797503 
L 155.580206 89.885746 
L 156.554657 85.073195 
L 157.041883 82.005848 
L 157.853925 78.37413 
L 158.34115 77.053863 
L 158.828376 76.555825 
L 159.153193 76.490217 
L 159.315601 76.626387 
L 160.290052 78.86905 
L 160.777278 80.694763 
L 161.426911 83.235198 
L 161.751728 84.286338 
L 162.401362 85.88923 
L 162.888588 86.682612 
L 163.213405 86.986314 
L 164.025447 87.018687 
L 164.512673 86.870121 
L 165.324715 86.754879 
L 166.461574 87.685322 
L 166.786391 88.314765 
L 166.9488 88.620187 
L 167.273617 89.490134 
L 167.598434 90.128235 
L 168.572884 93.360916 
L 170.034561 97.63815 
L 170.846603 99.440825 
L 171.658645 100.884973 
L 172.145871 101.644436 
L 172.470688 101.880357 
L 172.633096 101.933306 
L 172.795505 102.186631 
L 173.120322 102.19653 
L 173.28273 102.223604 
L 173.607547 102.059404 
L 173.932364 101.902457 
L 174.744407 100.993032 
L 175.718857 98.792655 
L 176.693308 95.658935 
L 177.992576 88.94009 
L 179.616661 78.861897 
L 182.215196 62.843733 
L 182.702422 60.692127 
L 183.352056 58.948966 
L 184.164098 58.722546 
L 184.488915 59.249848 
L 184.813732 60.167025 
L 185.300958 62.036317 
L 186.275408 68.170019 
L 187.087451 74.406329 
L 189.036353 88.158368 
L 189.523578 90.389497 
L 190.010803 91.792856 
L 190.498029 92.750936 
L 190.822846 92.857742 
L 190.985254 92.740013 
L 191.634888 91.170901 
L 192.284522 88.732935 
L 192.609339 87.079174 
L 196.182326 61.566136 
L 196.831959 58.643093 
L 197.481593 56.720986 
L 197.80641 56.084956 
L 198.293636 55.696735 
L 198.456044 55.716631 
L 198.618453 55.604335 
L 198.94327 55.953598 
L 199.105678 55.923273 
L 200.242537 56.820684 
L 200.892171 57.022265 
L 201.216988 56.831565 
L 202.029031 55.464131 
L 202.841073 52.544617 
L 204.627566 44.708902 
L 205.2772 42.20265 
L 205.764426 41.370713 
L 206.089243 41.137227 
L 206.251651 41.295435 
L 206.41406 41.294931 
L 206.576468 41.480641 
L 207.063693 42.708356 
L 207.713327 45.872413 
L 208.687778 53.923227 
L 209.662229 64.338251 
L 212.260765 94.413565 
L 212.910399 99.479247 
L 213.397624 101.466636 
L 213.884849 102.684955 
L 214.209666 102.488518 
L 214.372075 102.289885 
L 215.021709 100.058553 
L 215.346526 98.390152 
L 215.833751 94.893343 
L 216.970611 84.362481 
L 218.919512 64.939094 
L 219.569146 59.846543 
L 220.21878 55.986513 
L 220.868414 53.416698 
L 221.355639 52.323463 
L 221.680456 51.935231 
L 222.167682 52.11641 
L 222.817316 53.356587 
L 223.46695 55.785422 
L 224.116584 59.646463 
L 225.903077 74.619345 
L 228.014387 94.003104 
L 228.826429 99.89044 
L 229.638472 103.902428 
L 230.125697 105.509699 
L 230.775331 106.588374 
L 230.93774 106.671616 
L 231.100148 106.934851 
L 231.424965 106.738656 
L 231.587373 106.714988 
L 231.91219 106.330803 
L 232.886641 104.144232 
L 233.698684 100.928592 
L 236.459628 84.817723 
L 237.758896 78.883965 
L 238.570938 76.840043 
L 239.058163 76.350694 
L 239.220572 76.330771 
L 239.38298 76.149877 
L 239.707797 76.45524 
L 240.032614 77.082867 
L 240.844657 79.829317 
L 241.819108 84.703156 
L 243.930418 97.682565 
L 244.74246 101.347769 
L 245.392094 103.068274 
L 245.879319 103.547017 
L 246.041728 103.684208 
L 246.691362 102.729988 
L 247.016179 101.906638 
L 247.665813 99.227828 
L 248.153038 96.903391 
L 248.965081 92.081241 
L 250.913982 81.927843 
L 251.401208 80.19508 
L 252.21325 78.837625 
L 253.187701 78.898658 
L 253.512518 79.33742 
L 253.837335 79.520987 
L 254.974194 81.010254 
L 255.623828 81.131689 
L 255.948645 80.981883 
L 256.43587 80.015787 
L 257.57273 76.204658 
L 258.384772 71.81495 
L 259.68404 62.341686 
L 260.983308 52.79892 
L 262.607393 42.934347 
L 263.419435 40.142623 
L 264.069069 38.301499 
L 264.393886 37.822255 
L 265.205928 37.406781 
L 265.530745 37.724203 
L 266.180379 39.255693 
L 266.667605 41.085296 
L 267.642055 46.43472 
L 269.590957 64.201094 
L 273.163944 102.173797 
L 273.813577 106.343281 
L 274.300803 108.714091 
L 274.788028 110.227669 
L 275.112845 110.67571 
L 275.600071 110.942582 
L 275.762479 110.899764 
L 276.249705 110.166491 
L 277.224156 106.975754 
L 280.147508 96.632435 
L 280.95955 95.112167 
L 282.421227 92.676696 
L 283.233269 90.524493 
L 283.720495 88.555502 
L 284.694945 81.967939 
L 285.669396 72.006434 
L 286.643847 59.581225 
L 289.079974 28.220184 
L 289.729608 22.765534 
L 290.216834 20.220649 
L 290.541651 19.420052 
L 290.866468 19.296 
L 291.028876 19.436315 
L 291.353693 20.265969 
L 291.67851 21.983506 
L 292.165735 25.696842 
L 292.815369 32.594038 
L 293.627412 44.48529 
L 294.601863 62.11535 
L 296.875581 107.641582 
L 298.337258 135.651958 
L 300.448568 172.525444 
L 302.884695 210.550852 
L 304.183963 226.794765 
L 304.833597 233.44613 
L 305.970456 241.726695 
L 306.62009 244.957486 
L 307.269724 247.20159 
L 307.919358 248.598291 
L 308.244175 249.134682 
L 309.218625 250.049222 
L 309.543442 250.089543 
L 310.517893 249.757311 
L 311.654753 248.892212 
L 311.97957 248.602147 
L 312.141978 248.616545 
L 313.766063 247.012145 
L 314.578105 246.51607 
L 315.227739 246.407232 
L 315.714965 246.539233 
L 316.20219 246.874284 
L 316.851824 247.642401 
L 317.663866 249.072883 
L 318.800726 251.687292 
L 321.074444 257.050286 
L 322.048895 258.72786 
L 322.860938 259.752444 
L 323.67298 260.467868 
L 324.485022 260.93366 
L 325.459473 261.095957 
L 326.433924 261.015445 
L 327.408375 260.725579 
L 328.058009 260.197162 
L 328.870051 259.393379 
L 329.682094 258.29784 
L 331.955812 253.389211 
L 332.930263 250.689676 
L 333.904714 247.827953 
L 337.315292 238.414626 
L 338.939377 234.646542 
L 340.238645 232.272472 
L 340.888278 231.566311 
L 341.375504 231.299215 
L 342.025138 231.253222 
L 342.512363 231.537606 
L 343.161997 232.261489 
L 343.811631 233.287032 
L 344.461265 234.520355 
L 345.598124 236.339235 
L 346.247758 237.050951 
L 346.572575 237.272281 
L 346.897392 237.303834 
L 347.222209 237.377928 
L 347.709435 237.1871 
L 348.359068 236.696574 
L 349.658336 235.347663 
L 350.632787 234.471686 
L 351.282421 234.141158 
L 351.607238 234.057135 
L 351.932055 234.094303 
L 352.41928 234.101952 
L 352.744097 234.231223 
L 353.068914 234.211375 
L 353.55614 234.338341 
L 353.880957 234.519636 
L 356.317084 235.410574 
L 358.428394 236.495244 
L 358.915619 236.536476 
L 359.727662 236.587662 
L 360.377296 236.160341 
L 361.02693 235.47375 
L 362.00138 234.073883 
L 364.112691 230.590261 
L 364.762325 230.007286 
L 365.087142 229.951627 
L 365.574367 229.931415 
L 366.061592 230.195685 
L 367.198452 231.917043 
L 368.010494 233.886745 
L 369.147353 237.397822 
L 371.908298 245.965324 
L 373.532382 250.100555 
L 375.806101 255.065674 
L 377.267777 257.662247 
L 378.567045 259.484715 
L 379.541496 260.324567 
L 380.515947 260.883317 
L 381.490398 261.216 
L 381.490398 261.216 
" clip-path="url(#p719d950c63)" style="fill: none; stroke: #ff7f0e; stroke-width: 1.5; stroke-linecap: square"/>
   </g>
   <g id="line2d_19">
    <path d="M 56.998261 254.248125 
L 59.921613 251.369337 
L 63.981825 247.378751 
L 67.067586 244.743915 
L 68.691671 243.725615 
L 70.478164 242.862041 
L 72.589475 242.165599 
L 74.700785 241.784394 
L 80.54749 240.911967 
L 81.521941 240.609549 
L 82.983617 240.095844 
L 85.90697 238.925879 
L 89.804773 237.261383 
L 90.454407 237.052761 
L 92.2409 236.504075 
L 92.728126 236.379424 
L 94.839436 235.976246 
L 96.788338 235.812624 
L 97.437972 235.835658 
L 99.062056 235.932785 
L 99.874099 236.073033 
L 101.498183 236.439198 
L 103.447085 237.111098 
L 105.07117 237.954988 
L 106.695255 239.003768 
L 108.644156 240.479679 
L 113.029185 244.200335 
L 113.841228 244.906295 
L 116.602172 246.482988 
L 118.388665 246.856471 
L 118.87589 246.79905 
L 119.850341 246.682992 
L 120.662384 246.366278 
L 121.636835 245.776437 
L 122.936102 244.395386 
L 124.722596 241.263913 
L 125.534638 239.380063 
L 126.34668 237.1041 
L 127.158723 234.452098 
L 128.945216 227.25079 
L 130.406892 220.208824 
L 131.868569 211.964271 
L 133.330245 202.474423 
L 136.740823 177.449956 
L 141.937894 139.057404 
L 143.886796 126.75711 
L 145.673289 116.995692 
L 147.134965 110.278343 
L 148.75905 103.92005 
L 150.220727 99.329515 
L 151.519994 96.056641 
L 152.981671 93.072204 
L 154.280938 91.140683 
L 155.255389 89.916036 
L 156.717066 88.682905 
L 158.178742 87.988579 
L 158.503559 87.95425 
L 158.828376 87.842958 
L 161.264503 87.70061 
L 163.70063 88.385301 
L 168.085659 89.805966 
L 168.572884 89.867783 
L 169.222518 89.892811 
L 169.547335 89.868957 
L 170.359378 89.768172 
L 170.846603 89.702572 
L 171.17142 89.670832 
L 173.607547 88.483381 
L 177.342942 85.129918 
L 178.479802 83.750789 
L 179.129435 82.977209 
L 182.86483 79.129113 
L 184.164098 78.026271 
L 184.813732 77.364394 
L 185.950591 76.32437 
L 186.275408 76.13784 
L 190.33562 72.893392 
L 190.660437 72.635714 
L 190.822846 72.613036 
L 193.58379 69.846775 
L 194.071015 69.273388 
L 194.558241 68.743508 
L 196.019917 67.006658 
L 197.644002 65.415017 
L 200.080129 63.248176 
L 202.029031 62.590713 
L 203.16589 62.49248 
L 204.952383 63.169801 
L 207.38851 65.100334 
L 207.875736 65.618242 
L 208.362961 66.152218 
L 209.012595 66.894893 
L 213.884849 71.957526 
L 214.8593 72.674393 
L 215.833751 73.3394 
L 217.620244 74.432356 
L 218.10747 74.690491 
L 218.919512 75.187501 
L 219.244329 75.344252 
L 219.731555 75.666537 
L 220.056372 75.835537 
L 221.355639 76.772003 
L 225.253443 80.421926 
L 230.612923 86.104569 
L 233.373867 88.388152 
L 233.861092 88.545308 
L 234.997952 88.992368 
L 235.322768 89.101606 
L 235.972402 89.3237 
L 236.784445 89.470516 
L 237.921304 89.572033 
L 238.895755 89.582937 
L 239.870206 89.497925 
L 240.844657 89.333512 
L 241.331882 89.269771 
L 241.819108 89.079075 
L 242.63115 88.998035 
L 243.280784 88.849911 
L 244.092826 88.464261 
L 247.178587 86.157311 
L 248.965081 84.387092 
L 253.025292 78.169836 
L 254.811786 74.917177 
L 256.111054 72.636714 
L 257.085504 70.983134 
L 259.034406 68.013391 
L 259.846448 67.175946 
L 260.820899 66.312989 
L 261.79535 65.737108 
L 262.444984 65.607496 
L 263.257026 65.653111 
L 263.90666 65.875747 
L 265.855562 67.317675 
L 267.15483 69.015385 
L 267.804464 70.032773 
L 268.454098 71.141152 
L 269.590957 73.199939 
L 272.51431 78.580889 
L 273.975986 80.850233 
L 274.788028 81.772494 
L 276.412113 82.86969 
L 277.224156 82.992737 
L 277.873789 83.024282 
L 278.523423 82.826548 
L 279.660283 82.022757 
L 281.121959 80.495908 
L 283.558086 77.624612 
L 283.882903 77.341867 
L 285.344579 76.130796 
L 286.31903 75.878657 
L 286.643847 75.91909 
L 287.45589 76.342071 
L 288.105523 77.086187 
L 288.917566 78.454362 
L 289.5672 79.975198 
L 290.541651 83.05217 
L 291.840918 88.5328 
L 292.815369 93.895981 
L 293.78982 100.11893 
L 295.576313 113.661149 
L 297.200398 127.82336 
L 299.636525 151.132339 
L 303.37192 186.299383 
L 304.996005 199.736073 
L 306.457681 210.483579 
L 307.756949 218.727628 
L 308.893809 224.951939 
L 310.030668 230.384452 
L 311.492344 236.166855 
L 312.304387 238.915836 
L 313.928471 243.491566 
L 315.065331 246.006067 
L 316.689415 248.800823 
L 318.475909 251.08665 
L 320.099993 252.43924 
L 320.912036 252.984491 
L 322.373712 253.571307 
L 324.160205 253.967287 
L 325.134656 253.850454 
L 326.596333 253.347293 
L 326.921149 253.258345 
L 328.058009 252.559749 
L 329.519685 251.44512 
L 330.981361 250.048371 
L 332.767855 248.069561 
L 339.589011 240.343197 
L 341.700321 238.531283 
L 343.486814 237.349885 
L 345.435716 236.400319 
L 347.222209 235.838338 
L 349.658336 235.354881 
L 352.256872 235.116462 
L 355.180224 235.063793 
L 357.616352 235.22287 
L 359.402845 235.547106 
L 361.02693 236.005917 
L 362.488606 236.647918 
L 363.787874 237.378244 
L 365.087142 238.324393 
L 366.386409 239.471914 
L 367.848086 240.969505 
L 369.634579 243.069785 
L 372.070706 246.258032 
L 377.267777 253.158536 
L 379.379088 255.458657 
L 381.327989 257.255977 
L 381.490398 257.382643 
L 381.490398 257.382643 
" clip-path="url(#p719d950c63)" style="fill: none; stroke: #2ca02c; stroke-width: 1.5; stroke-linecap: square"/>
   </g>
   <g id="line2d_20">
    <path d="M 56.998261 252.664169 
L 58.784754 251.697149 
L 70.96539 245.434298 
L 75.025602 243.663636 
L 78.923405 242.205653 
L 82.333983 241.180356 
L 85.744561 240.390719 
L 89.155139 239.859648 
L 91.104041 239.554219 
L 91.753675 239.467689 
L 94.514619 239.150923 
L 95.813887 239.052796 
L 99.386873 238.796147 
L 104.096719 237.987717 
L 106.532846 237.416982 
L 107.832114 236.96044 
L 108.644156 236.537478 
L 109.618607 236.008821 
L 111.892326 234.456208 
L 113.191594 233.356166 
L 114.490862 232.058717 
L 115.790129 230.568061 
L 117.739031 227.815977 
L 120.01275 223.967596 
L 121.474426 221.069431 
L 122.936102 217.85288 
L 127.321131 206.11705 
L 130.082075 197.345266 
L 134.95433 179.776924 
L 145.186064 140.853824 
L 148.596642 129.245063 
L 151.519994 120.413391 
L 154.11853 113.528122 
L 155.417798 110.419606 
L 158.016333 104.855172 
L 159.640418 101.798175 
L 162.238954 97.539452 
L 164.675081 94.220965 
L 166.9488 91.62592 
L 170.684195 87.902766 
L 175.881266 83.670572 
L 183.027239 78.786456 
L 188.711536 75.485052 
L 189.361169 75.169858 
L 193.421381 73.263426 
L 196.507142 72.15606 
L 201.05458 71.406061 
L 202.191439 71.341926 
L 203.003482 71.242461 
L 205.926834 71.358901 
L 206.41406 71.474421 
L 207.713327 71.786291 
L 209.175004 72.143157 
L 209.824638 72.291325 
L 210.961497 72.617183 
L 212.423173 73.140424 
L 213.397624 73.515659 
L 218.269878 75.645453 
L 219.406738 76.209369 
L 220.21878 76.564201 
L 221.193231 77.040289 
L 222.492499 77.684789 
L 227.202345 79.827864 
L 228.014387 80.187835 
L 230.450514 81.01063 
L 233.373867 81.812485 
L 236.622036 82.316849 
L 238.895755 82.33114 
L 239.707797 82.292371 
L 241.331882 82.107792 
L 247.178587 80.704251 
L 248.640264 80.27493 
L 254.32456 78.420514 
L 259.034406 77.40515 
L 262.769801 77.148982 
L 265.855562 77.614058 
L 266.992421 77.980791 
L 269.428549 79.098479 
L 270.727816 79.884213 
L 271.702267 80.582042 
L 273.001535 81.771887 
L 275.275254 84.092297 
L 276.412113 85.544624 
L 277.711381 87.370335 
L 279.9851 91.129048 
L 283.070861 97.526903 
L 285.344579 103.26856 
L 287.618298 109.8491 
L 290.054425 117.866042 
L 292.165735 125.488469 
L 296.875581 144.490873 
L 300.123751 158.724839 
L 303.209512 172.372028 
L 306.295273 185.609457 
L 310.680302 202.914114 
L 313.441246 212.42485 
L 315.227739 217.889136 
L 317.339049 223.502627 
L 318.638317 226.591073 
L 319.937585 229.301505 
L 321.886487 232.812168 
L 323.67298 235.471381 
L 325.134656 237.198595 
L 326.921149 238.965071 
L 328.707643 240.270937 
L 330.818953 241.33339 
L 331.793404 241.642326 
L 333.904714 242.043051 
L 336.665658 242.109075 
L 342.025138 241.487477 
L 343.649223 241.194413 
L 344.298857 241.066268 
L 346.734984 240.59163 
L 348.19666 240.415332 
L 350.30797 240.178628 
L 352.41928 240.106047 
L 354.692999 240.199129 
L 356.966718 240.514941 
L 359.078028 241.018231 
L 361.514155 241.803011 
L 363.950282 242.824116 
L 366.548818 244.116261 
L 369.796987 245.948444 
L 374.669242 248.988775 
L 381.490398 253.21829 
L 381.490398 253.21829 
" clip-path="url(#p719d950c63)" style="fill: none; stroke: #d62728; stroke-width: 1.5; stroke-linecap: square"/>
   </g>
   <g id="line2d_21">
    <path d="M 56.998261 250.921538 
L 60.408839 249.721484 
L 63.169783 248.664053 
L 66.905178 247.187869 
L 74.700785 243.620738 
L 81.684349 239.820526 
L 86.881421 236.448614 
L 91.753675 232.791128 
L 94.35221 230.631123 
L 101.173366 224.025205 
L 103.934311 220.990731 
L 106.370438 218.08717 
L 108.806565 215.000156 
L 114.978087 206.278745 
L 120.01275 198.366303 
L 124.885004 189.956475 
L 127.808357 184.594361 
L 135.279147 170.321249 
L 141.613077 157.801791 
L 144.861247 151.355691 
L 149.408684 142.506648 
L 156.22984 129.7977 
L 161.102094 121.421234 
L 164.187856 116.453245 
L 167.273617 111.759974 
L 171.658645 105.643638 
L 175.39404 101.014167 
L 177.018125 99.142901 
L 180.428703 95.554792 
L 184.00169 92.228139 
L 187.574676 89.349496 
L 193.908607 85.186772 
L 198.293636 82.960906 
L 200.080129 82.240859 
L 203.815524 80.961355 
L 207.063693 80.137109 
L 210.311863 79.539279 
L 213.884849 79.113328 
L 217.457836 78.930039 
L 221.355639 78.951341 
L 224.928626 79.195758 
L 228.664021 79.653224 
L 232.237007 80.305982 
L 235.647585 81.126691 
L 241.169474 83.004758 
L 244.092826 84.19409 
L 248.802672 86.590836 
L 250.913982 87.865028 
L 253.837335 89.76057 
L 255.786237 91.244289 
L 259.68404 94.509435 
L 263.581843 98.323196 
L 267.317238 102.535272 
L 269.753366 105.559442 
L 273.813577 111.114062 
L 277.873789 117.330558 
L 281.934001 124.17522 
L 286.643847 132.751825 
L 290.216834 139.642097 
L 294.277046 147.802154 
L 311.492344 183.153056 
L 314.902922 189.714937 
L 319.937585 198.877431 
L 324.647431 206.745632 
L 327.245966 210.723146 
L 331.14377 216.24835 
L 335.041573 221.234615 
L 338.939377 225.696461 
L 342.83718 229.632643 
L 346.897392 233.233166 
L 351.607238 236.890269 
L 356.317084 239.984226 
L 362.163789 243.303013 
L 364.924733 244.677499 
L 372.557931 248.018317 
L 381.490398 251.268414 
L 381.490398 251.268414 
" clip-path="url(#p719d950c63)" style="fill: none; stroke: #9467bd; stroke-width: 1.5; stroke-linecap: square"/>
   </g>
   <g id="patch_3">
    <path d="M 40.603125 273.312 
L 40.603125 7.2 
" style="fill: none; stroke: #000000; stroke-width: 0.8; stroke-linejoin: miter; stroke-linecap: square"/>
   </g>
   <g id="patch_4">
    <path d="M 397.723125 273.312 
L 397.723125 7.2 
" style="fill: none; stroke: #000000; stroke-width: 0.8; stroke-linejoin: miter; stroke-linecap: square"/>
   </g>
   <g id="patch_5">
    <path d="M 40.603125 273.312 
L 397.723125 273.312 
" style="fill: none; stroke: #000000; stroke-width: 0.8; stroke-linejoin: miter; stroke-linecap: square"/>
   </g>
   <g id="patch_6">
    <path d="M 40.603125 7.2 
L 397.723125 7.2 
" style="fill: none; stroke: #000000; stroke-width: 0.8; stroke-linejoin: miter; stroke-linecap: square"/>
   </g>
   <g id="legend_1">
    <g id="patch_7">
     <path d="M 321.5075 88.590625 
L 390.723125 88.590625 
Q 392.723125 88.590625 392.723125 86.590625 
L 392.723125 14.2 
Q 392.723125 12.2 390.723125 12.2 
L 321.5075 12.2 
Q 319.5075 12.2 319.5075 14.2 
L 319.5075 86.590625 
Q 319.5075 88.590625 321.5075 88.590625 
z
" style="fill: #ffffff; opacity: 0.8; stroke: #cccccc; stroke-linejoin: miter"/>
    </g>
    <g id="line2d_22">
     <path d="M 323.5075 20.298437 
L 333.5075 20.298437 
L 343.5075 20.298437 
" style="fill: none; stroke: #1f77b4; stroke-width: 1.5; stroke-linecap: square"/>
    </g>
    <g id="text_19">
     <!-- true -->
     <g transform="translate(351.5075 23.798437) scale(0.1 -0.1)">
      <defs>
       <path id="DejaVuSans-75" d="M 544 1381 
L 544 3500 
L 1119 3500 
L 1119 1403 
Q 1119 906 1312 657 
Q 1506 409 1894 409 
Q 2359 409 2629 706 
Q 2900 1003 2900 1516 
L 2900 3500 
L 3475 3500 
L 3475 0 
L 2900 0 
L 2900 538 
Q 2691 219 2414 64 
Q 2138 -91 1772 -91 
Q 1169 -91 856 284 
Q 544 659 544 1381 
z
M 1991 3584 
L 1991 3584 
z
" transform="scale(0.015625)"/>
      </defs>
      <use xlink:href="#DejaVuSans-74"/>
      <use xlink:href="#DejaVuSans-72" x="39.208984"/>
      <use xlink:href="#DejaVuSans-75" x="80.322266"/>
      <use xlink:href="#DejaVuSans-65" x="143.701172"/>
     </g>
    </g>
    <g id="line2d_23">
     <path d="M 323.5075 34.976562 
L 333.5075 34.976562 
L 343.5075 34.976562 
" style="fill: none; stroke: #ff7f0e; stroke-width: 1.5; stroke-linecap: square"/>
    </g>
    <g id="text_20">
     <!-- 20 ms -->
     <g transform="translate(351.5075 38.476562) scale(0.1 -0.1)">
      <use xlink:href="#DejaVuSans-32"/>
      <use xlink:href="#DejaVuSans-30" x="63.623047"/>
      <use xlink:href="#DejaVuSans-20" x="127.246094"/>
      <use xlink:href="#DejaVuSans-6d" x="159.033203"/>
      <use xlink:href="#DejaVuSans-73" x="256.445312"/>
     </g>
    </g>
    <g id="line2d_24">
     <path d="M 323.5075 49.654687 
L 333.5075 49.654687 
L 343.5075 49.654687 
" style="fill: none; stroke: #2ca02c; stroke-width: 1.5; stroke-linecap: square"/>
    </g>
    <g id="text_21">
     <!-- 50 ms -->
     <g transform="translate(351.5075 53.154687) scale(0.1 -0.1)">
      <use xlink:href="#DejaVuSans-35"/>
      <use xlink:href="#DejaVuSans-30" x="63.623047"/>
      <use xlink:href="#DejaVuSans-20" x="127.246094"/>
      <use xlink:href="#DejaVuSans-6d" x="159.033203"/>
      <use xlink:href="#DejaVuSans-73" x="256.445312"/>
     </g>
    </g>
    <g id="line2d_25">
     <path d="M 323.5075 64.332812 
L 333.5075 64.332812 
L 343.5075 64.332812 
" style="fill: none; stroke: #d62728; stroke-width: 1.5; stroke-linecap: square"/>
    </g>
    <g id="text_22">
     <!-- 100 ms -->
     <g transform="translate(351.5075 67.832812) scale(0.1 -0.1)">
      <use xlink:href="#DejaVuSans-31"/>
      <use xlink:href="#DejaVuSans-30" x="63.623047"/>
      <use xlink:href="#DejaVuSans-30" x="127.246094"/>
      <use xlink:href="#DejaVuSans-20" x="190.869141"/>
      <use xlink:href="#DejaVuSans-6d" x="222.65625"/>
      <use xlink:href="#DejaVuSans-73" x="320.068359"/>
     </g>
    </g>
    <g id="line2d_26">
     <path d="M 323.5075 79.010937 
L 333.5075 79.010937 
L 343.5075 79.010937 
" style="fill: none; stroke: #9467bd; stroke-width: 1.5; stroke-linecap: square"/>
    </g>
    <g id="text_23">
     <!-- 200 ms -->
     <g transform="translate(351.5075 82.510937) scale(0.1 -0.1)">
      <use xlink:href="#DejaVuSans-32"/>
      <use xlink:href="#DejaVuSans-30" x="63.623047"/>
      <use xlink:href="#DejaVuSans-30" x="127.246094"/>
      <use xlink:href="#DejaVuSans-20" x="190.869141"/>
      <use xlink:href="#DejaVuSans-6d" x="222.65625"/>
      <use xlink:href="#DejaVuSans-73" x="320.068359"/>
     </g>
    </g>
   </g>
  </g>
 </g>
 <defs>
  <clipPath id="p719d950c63">
   <rect x="40.603125" y="7.2" width="357.12" height="266.112"/>
  </clipPath>
 </defs>
</svg>
