<?xml version="1.0" encoding="utf-8" standalone="no"?>
<!DOCTYPE svg PUBLIC "-//W3C//DTD SVG 1.1//EN"
  "http://www.w3.org/Graphics/SVG/1.1/DTD/svg11.dtd">
<svg xmlns:xlink="http://www.w3.org/1999/xlink" width="353.058356pt" height="155.63625pt" viewBox="0 0 353.058356 155.63625" xmlns="http://www.w3.org/2000/svg" version="1.1">
 <metadata>
  <rdf:RDF xmlns:dc="http://purl.org/dc/elements/1.1/" xmlns:cc="http://creativecommons.org/ns#" xmlns:rdf="http://www.w3.org/1999/02/22-rdf-syntax-ns#">
   <cc:Work>
    <dc:type rdf:resource="http://purl.org/dc/dcmitype/StillImage"/>
    <dc:date>2023-01-20T13:48:32.518148</dc:date>
    <dc:format>image/svg+xml</dc:format>
    <dc:creator>
     <cc:Agent>
      <dc:title>Matplotlib v3.6.3, https://matplotlib.org/</dc:title>
     </cc:Agent>
    </dc:creator>
   </cc:Work>
  </rdf:RDF>
 </metadata>
 <defs>
  <style type="text/css">*{stroke-linejoin: round; stroke-linecap: butt}</style>
 </defs>
 <g id="figure_1">
  <g id="patch_1">
   <path d="M 0 155.63625 
L 353.058356 155.63625 
L 353.058356 0 
L 0 0 
z
" style="fill: #ffffff"/>
  </g>
  <g id="axes_1">
   <g id="patch_2">
    <path d="M 7.2 118.08 
L 342 118.08 
L 342 7.2 
L 7.2 7.2 
z
" style="fill: #ffffff"/>
   </g>
   <g id="line2d_1">
    <path d="M 7.2 113.04 
L 342 113.04 
" clip-path="url(#p743ba757fc)" style="fill: none; stroke: #dddddd; stroke-width: 1.5; stroke-linecap: square"/>
   </g>
   <g id="line2d_2">
    <path d="M 7.2 87.84 
L 342 87.84 
" clip-path="url(#p743ba757fc)" style="fill: none; stroke: #dddddd; stroke-width: 1.5; stroke-linecap: square"/>
   </g>
   <g id="line2d_3">
    <path d="M 7.2 62.64 
L 342 62.64 
" clip-path="url(#p743ba757fc)" style="fill: none; stroke: #dddddd; stroke-width: 1.5; stroke-linecap: square"/>
   </g>
   <g id="line2d_4">
    <path d="M 7.2 37.44 
L 342 37.44 
" clip-path="url(#p743ba757fc)" style="fill: none; stroke: #dddddd; stroke-width: 1.5; stroke-linecap: square"/>
   </g>
   <g id="line2d_5">
    <path d="M 7.2 12.24 
L 342 12.24 
" clip-path="url(#p743ba757fc)" style="fill: none; stroke: #dddddd; stroke-width: 1.5; stroke-linecap: square"/>
   </g>
   <g id="PathCollection_1">
    <defs>
     <path id="mc268069f4f" d="M 0 3 
C 0.795609 3 1.55874 2.683901 2.12132 2.12132 
C 2.683901 1.55874 3 0.795609 3 0 
C 3 -0.795609 2.683901 -1.55874 2.12132 -2.12132 
C 1.55874 -2.683901 0.795609 -3 0 -3 
C -0.795609 -3 -1.55874 -2.683901 -2.12132 -2.12132 
C -2.683901 -1.55874 -3 -0.795609 -3 0 
C -3 0.795609 -2.683901 1.55874 -2.12132 2.12132 
C -1.55874 2.683901 -0.795609 3 0 3 
z
" style="stroke: #1f77b4"/>
    </defs>
    <g clip-path="url(#p743ba757fc)">
     <use xlink:href="#mc268069f4f" x="52.376041" y="113.04" style="fill: #1f77b4; stroke: #1f77b4"/>
     <use xlink:href="#mc268069f4f" x="111.692242" y="113.04" style="fill: #1f77b4; stroke: #1f77b4"/>
     <use xlink:href="#mc268069f4f" x="132.871856" y="113.04" style="fill: #1f77b4; stroke: #1f77b4"/>
     <use xlink:href="#mc268069f4f" x="136.537303" y="113.04" style="fill: #1f77b4; stroke: #1f77b4"/>
     <use xlink:href="#mc268069f4f" x="151.687269" y="113.04" style="fill: #1f77b4; stroke: #1f77b4"/>
     <use xlink:href="#mc268069f4f" x="162.358322" y="113.04" style="fill: #1f77b4; stroke: #1f77b4"/>
     <use xlink:href="#mc268069f4f" x="204.880108" y="113.04" style="fill: #1f77b4; stroke: #1f77b4"/>
     <use xlink:href="#mc268069f4f" x="259.393084" y="113.04" style="fill: #1f77b4; stroke: #1f77b4"/>
     <use xlink:href="#mc268069f4f" x="270.300643" y="113.04" style="fill: #1f77b4; stroke: #1f77b4"/>
     <use xlink:href="#mc268069f4f" x="278.838624" y="113.04" style="fill: #1f77b4; stroke: #1f77b4"/>
     <use xlink:href="#mc268069f4f" x="297.764288" y="113.04" style="fill: #1f77b4; stroke: #1f77b4"/>
     <use xlink:href="#mc268069f4f" x="302.449986" y="113.04" style="fill: #1f77b4; stroke: #1f77b4"/>
     <use xlink:href="#mc268069f4f" x="22.418182" y="87.84" style="fill: #1f77b4; stroke: #1f77b4"/>
     <use xlink:href="#mc268069f4f" x="48.623955" y="87.84" style="fill: #1f77b4; stroke: #1f77b4"/>
     <use xlink:href="#mc268069f4f" x="84.830768" y="87.84" style="fill: #1f77b4; stroke: #1f77b4"/>
     <use xlink:href="#mc268069f4f" x="104.026409" y="87.84" style="fill: #1f77b4; stroke: #1f77b4"/>
     <use xlink:href="#mc268069f4f" x="185.574118" y="87.84" style="fill: #1f77b4; stroke: #1f77b4"/>
     <use xlink:href="#mc268069f4f" x="208.216882" y="87.84" style="fill: #1f77b4; stroke: #1f77b4"/>
     <use xlink:href="#mc268069f4f" x="257.612775" y="87.84" style="fill: #1f77b4; stroke: #1f77b4"/>
     <use xlink:href="#mc268069f4f" x="273.019642" y="87.84" style="fill: #1f77b4; stroke: #1f77b4"/>
     <use xlink:href="#mc268069f4f" x="282.778705" y="87.84" style="fill: #1f77b4; stroke: #1f77b4"/>
     <use xlink:href="#mc268069f4f" x="310.991638" y="87.84" style="fill: #1f77b4; stroke: #1f77b4"/>
     <use xlink:href="#mc268069f4f" x="326.781818" y="87.84" style="fill: #1f77b4; stroke: #1f77b4"/>
     <use xlink:href="#mc268069f4f" x="25.148585" y="62.64" style="fill: #1f77b4; stroke: #1f77b4"/>
     <use xlink:href="#mc268069f4f" x="31.477926" y="62.64" style="fill: #1f77b4; stroke: #1f77b4"/>
     <use xlink:href="#mc268069f4f" x="66.932451" y="62.64" style="fill: #1f77b4; stroke: #1f77b4"/>
     <use xlink:href="#mc268069f4f" x="82.328503" y="62.64" style="fill: #1f77b4; stroke: #1f77b4"/>
     <use xlink:href="#mc268069f4f" x="137.877466" y="62.64" style="fill: #1f77b4; stroke: #1f77b4"/>
     <use xlink:href="#mc268069f4f" x="203.359512" y="62.64" style="fill: #1f77b4; stroke: #1f77b4"/>
     <use xlink:href="#mc268069f4f" x="220.521113" y="62.64" style="fill: #1f77b4; stroke: #1f77b4"/>
     <use xlink:href="#mc268069f4f" x="227.075861" y="62.64" style="fill: #1f77b4; stroke: #1f77b4"/>
     <use xlink:href="#mc268069f4f" x="48.130637" y="37.44" style="fill: #1f77b4; stroke: #1f77b4"/>
     <use xlink:href="#mc268069f4f" x="58.446162" y="37.44" style="fill: #1f77b4; stroke: #1f77b4"/>
     <use xlink:href="#mc268069f4f" x="73.997841" y="37.44" style="fill: #1f77b4; stroke: #1f77b4"/>
     <use xlink:href="#mc268069f4f" x="79.78487" y="37.44" style="fill: #1f77b4; stroke: #1f77b4"/>
     <use xlink:href="#mc268069f4f" x="89.611744" y="37.44" style="fill: #1f77b4; stroke: #1f77b4"/>
     <use xlink:href="#mc268069f4f" x="113.312873" y="37.44" style="fill: #1f77b4; stroke: #1f77b4"/>
     <use xlink:href="#mc268069f4f" x="121.766674" y="37.44" style="fill: #1f77b4; stroke: #1f77b4"/>
     <use xlink:href="#mc268069f4f" x="154.74623" y="37.44" style="fill: #1f77b4; stroke: #1f77b4"/>
     <use xlink:href="#mc268069f4f" x="189.039396" y="37.44" style="fill: #1f77b4; stroke: #1f77b4"/>
     <use xlink:href="#mc268069f4f" x="62.484413" y="12.24" style="fill: #1f77b4; stroke: #1f77b4"/>
     <use xlink:href="#mc268069f4f" x="129.918015" y="12.24" style="fill: #1f77b4; stroke: #1f77b4"/>
     <use xlink:href="#mc268069f4f" x="132.475178" y="12.24" style="fill: #1f77b4; stroke: #1f77b4"/>
     <use xlink:href="#mc268069f4f" x="186.894134" y="12.24" style="fill: #1f77b4; stroke: #1f77b4"/>
     <use xlink:href="#mc268069f4f" x="196.118999" y="12.24" style="fill: #1f77b4; stroke: #1f77b4"/>
     <use xlink:href="#mc268069f4f" x="235.556105" y="12.24" style="fill: #1f77b4; stroke: #1f77b4"/>
     <use xlink:href="#mc268069f4f" x="286.995845" y="12.24" style="fill: #1f77b4; stroke: #1f77b4"/>
    </g>
   </g>
   <g id="matplotlib.axis_1">
    <g id="xtick_1">
     <g id="line2d_6">
      <defs>
       <path id="ma733886996" d="M 0 0 
L 0 3.5 
" style="stroke: #000000; stroke-width: 0.8"/>
      </defs>
      <g>
       <use xlink:href="#ma733886996" x="19.388841" y="118.08" style="stroke: #000000; stroke-width: 0.8"/>
      </g>
     </g>
     <g id="text_1">
      <!-- 0.00 -->
      <g transform="translate(8.256028 132.678438) scale(0.1 -0.1)">
       <defs>
        <path id="DejaVuSans-30" d="M 2034 4250 
Q 1547 4250 1301 3770 
Q 1056 3291 1056 2328 
Q 1056 1369 1301 889 
Q 1547 409 2034 409 
Q 2525 409 2770 889 
Q 3016 1369 3016 2328 
Q 3016 3291 2770 3770 
Q 2525 4250 2034 4250 
z
M 2034 4750 
Q 2819 4750 3233 4129 
Q 3647 3509 3647 2328 
Q 3647 1150 3233 529 
Q 2819 -91 2034 -91 
Q 1250 -91 836 529 
Q 422 1150 422 2328 
Q 422 3509 836 4129 
Q 1250 4750 2034 4750 
z
" transform="scale(0.015625)"/>
        <path id="DejaVuSans-2e" d="M 684 794 
L 1344 794 
L 1344 0 
L 684 0 
L 684 794 
z
" transform="scale(0.015625)"/>
       </defs>
       <use xlink:href="#DejaVuSans-30"/>
       <use xlink:href="#DejaVuSans-2e" x="63.623047"/>
       <use xlink:href="#DejaVuSans-30" x="95.410156"/>
       <use xlink:href="#DejaVuSans-30" x="159.033203"/>
      </g>
     </g>
    </g>
    <g id="xtick_2">
     <g id="line2d_7">
      <g>
       <use xlink:href="#ma733886996" x="64.436941" y="118.08" style="stroke: #000000; stroke-width: 0.8"/>
      </g>
     </g>
     <g id="text_2">
      <!-- 0.25 -->
      <g transform="translate(53.304129 132.678438) scale(0.1 -0.1)">
       <defs>
        <path id="DejaVuSans-32" d="M 1228 531 
L 3431 531 
L 3431 0 
L 469 0 
L 469 531 
Q 828 903 1448 1529 
Q 2069 2156 2228 2338 
Q 2531 2678 2651 2914 
Q 2772 3150 2772 3378 
Q 2772 3750 2511 3984 
Q 2250 4219 1831 4219 
Q 1534 4219 1204 4116 
Q 875 4013 500 3803 
L 500 4441 
Q 881 4594 1212 4672 
Q 1544 4750 1819 4750 
Q 2544 4750 2975 4387 
Q 3406 4025 3406 3419 
Q 3406 3131 3298 2873 
Q 3191 2616 2906 2266 
Q 2828 2175 2409 1742 
Q 1991 1309 1228 531 
z
" transform="scale(0.015625)"/>
        <path id="DejaVuSans-35" d="M 691 4666 
L 3169 4666 
L 3169 4134 
L 1269 4134 
L 1269 2991 
Q 1406 3038 1543 3061 
Q 1681 3084 1819 3084 
Q 2600 3084 3056 2656 
Q 3513 2228 3513 1497 
Q 3513 744 3044 326 
Q 2575 -91 1722 -91 
Q 1428 -91 1123 -41 
Q 819 9 494 109 
L 494 744 
Q 775 591 1075 516 
Q 1375 441 1709 441 
Q 2250 441 2565 725 
Q 2881 1009 2881 1497 
Q 2881 1984 2565 2268 
Q 2250 2553 1709 2553 
Q 1456 2553 1204 2497 
Q 953 2441 691 2322 
L 691 4666 
z
" transform="scale(0.015625)"/>
       </defs>
       <use xlink:href="#DejaVuSans-30"/>
       <use xlink:href="#DejaVuSans-2e" x="63.623047"/>
       <use xlink:href="#DejaVuSans-32" x="95.410156"/>
       <use xlink:href="#DejaVuSans-35" x="159.033203"/>
      </g>
     </g>
    </g>
    <g id="xtick_3">
     <g id="line2d_8">
      <g>
       <use xlink:href="#ma733886996" x="109.485042" y="118.08" style="stroke: #000000; stroke-width: 0.8"/>
      </g>
     </g>
     <g id="text_3">
      <!-- 0.50 -->
      <g transform="translate(98.352229 132.678438) scale(0.1 -0.1)">
       <use xlink:href="#DejaVuSans-30"/>
       <use xlink:href="#DejaVuSans-2e" x="63.623047"/>
       <use xlink:href="#DejaVuSans-35" x="95.410156"/>
       <use xlink:href="#DejaVuSans-30" x="159.033203"/>
      </g>
     </g>
    </g>
    <g id="xtick_4">
     <g id="line2d_9">
      <g>
       <use xlink:href="#ma733886996" x="154.533142" y="118.08" style="stroke: #000000; stroke-width: 0.8"/>
      </g>
     </g>
     <g id="text_4">
      <!-- 0.75 -->
      <g transform="translate(143.400329 132.678438) scale(0.1 -0.1)">
       <defs>
        <path id="DejaVuSans-37" d="M 525 4666 
L 3525 4666 
L 3525 4397 
L 1831 0 
L 1172 0 
L 2766 4134 
L 525 4134 
L 525 4666 
z
" transform="scale(0.015625)"/>
       </defs>
       <use xlink:href="#DejaVuSans-30"/>
       <use xlink:href="#DejaVuSans-2e" x="63.623047"/>
       <use xlink:href="#DejaVuSans-37" x="95.410156"/>
       <use xlink:href="#DejaVuSans-35" x="159.033203"/>
      </g>
     </g>
    </g>
    <g id="xtick_5">
     <g id="line2d_10">
      <g>
       <use xlink:href="#ma733886996" x="199.581242" y="118.08" style="stroke: #000000; stroke-width: 0.8"/>
      </g>
     </g>
     <g id="text_5">
      <!-- 1.00 -->
      <g transform="translate(188.44843 132.678438) scale(0.1 -0.1)">
       <defs>
        <path id="DejaVuSans-31" d="M 794 531 
L 1825 531 
L 1825 4091 
L 703 3866 
L 703 4441 
L 1819 4666 
L 2450 4666 
L 2450 531 
L 3481 531 
L 3481 0 
L 794 0 
L 794 531 
z
" transform="scale(0.015625)"/>
       </defs>
       <use xlink:href="#DejaVuSans-31"/>
       <use xlink:href="#DejaVuSans-2e" x="63.623047"/>
       <use xlink:href="#DejaVuSans-30" x="95.410156"/>
       <use xlink:href="#DejaVuSans-30" x="159.033203"/>
      </g>
     </g>
    </g>
    <g id="xtick_6">
     <g id="line2d_11">
      <g>
       <use xlink:href="#ma733886996" x="244.629343" y="118.08" style="stroke: #000000; stroke-width: 0.8"/>
      </g>
     </g>
     <g id="text_6">
      <!-- 1.25 -->
      <g transform="translate(233.49653 132.678438) scale(0.1 -0.1)">
       <use xlink:href="#DejaVuSans-31"/>
       <use xlink:href="#DejaVuSans-2e" x="63.623047"/>
       <use xlink:href="#DejaVuSans-32" x="95.410156"/>
       <use xlink:href="#DejaVuSans-35" x="159.033203"/>
      </g>
     </g>
    </g>
    <g id="xtick_7">
     <g id="line2d_12">
      <g>
       <use xlink:href="#ma733886996" x="289.677443" y="118.08" style="stroke: #000000; stroke-width: 0.8"/>
      </g>
     </g>
     <g id="text_7">
      <!-- 1.50 -->
      <g transform="translate(278.544631 132.678438) scale(0.1 -0.1)">
       <use xlink:href="#DejaVuSans-31"/>
       <use xlink:href="#DejaVuSans-2e" x="63.623047"/>
       <use xlink:href="#DejaVuSans-35" x="95.410156"/>
       <use xlink:href="#DejaVuSans-30" x="159.033203"/>
      </g>
     </g>
    </g>
    <g id="xtick_8">
     <g id="line2d_13">
      <g>
       <use xlink:href="#ma733886996" x="334.725544" y="118.08" style="stroke: #000000; stroke-width: 0.8"/>
      </g>
     </g>
     <g id="text_8">
      <!-- 1.75 -->
      <g transform="translate(323.592731 132.678438) scale(0.1 -0.1)">
       <use xlink:href="#DejaVuSans-31"/>
       <use xlink:href="#DejaVuSans-2e" x="63.623047"/>
       <use xlink:href="#DejaVuSans-37" x="95.410156"/>
       <use xlink:href="#DejaVuSans-35" x="159.033203"/>
      </g>
     </g>
    </g>
    <g id="text_9">
     <!-- $\mathrm{time}$ -->
     <g transform="translate(163.3 146.356562) scale(0.1 -0.1)">
      <defs>
       <path id="DejaVuSans-74" d="M 1172 4494 
L 1172 3500 
L 2356 3500 
L 2356 3053 
L 1172 3053 
L 1172 1153 
Q 1172 725 1289 603 
Q 1406 481 1766 481 
L 2356 481 
L 2356 0 
L 1766 0 
Q 1100 0 847 248 
Q 594 497 594 1153 
L 594 3053 
L 172 3053 
L 172 3500 
L 594 3500 
L 594 4494 
L 1172 4494 
z
" transform="scale(0.015625)"/>
       <path id="DejaVuSans-69" d="M 603 3500 
L 1178 3500 
L 1178 0 
L 603 0 
L 603 3500 
z
M 603 4863 
L 1178 4863 
L 1178 4134 
L 603 4134 
L 603 4863 
z
" transform="scale(0.015625)"/>
       <path id="DejaVuSans-6d" d="M 3328 2828 
Q 3544 3216 3844 3400 
Q 4144 3584 4550 3584 
Q 5097 3584 5394 3201 
Q 5691 2819 5691 2113 
L 5691 0 
L 5113 0 
L 5113 2094 
Q 5113 2597 4934 2840 
Q 4756 3084 4391 3084 
Q 3944 3084 3684 2787 
Q 3425 2491 3425 1978 
L 3425 0 
L 2847 0 
L 2847 2094 
Q 2847 2600 2669 2842 
Q 2491 3084 2119 3084 
Q 1678 3084 1418 2786 
Q 1159 2488 1159 1978 
L 1159 0 
L 581 0 
L 581 3500 
L 1159 3500 
L 1159 2956 
Q 1356 3278 1631 3431 
Q 1906 3584 2284 3584 
Q 2666 3584 2933 3390 
Q 3200 3197 3328 2828 
z
" transform="scale(0.015625)"/>
       <path id="DejaVuSans-65" d="M 3597 1894 
L 3597 1613 
L 953 1613 
Q 991 1019 1311 708 
Q 1631 397 2203 397 
Q 2534 397 2845 478 
Q 3156 559 3463 722 
L 3463 178 
Q 3153 47 2828 -22 
Q 2503 -91 2169 -91 
Q 1331 -91 842 396 
Q 353 884 353 1716 
Q 353 2575 817 3079 
Q 1281 3584 2069 3584 
Q 2775 3584 3186 3129 
Q 3597 2675 3597 1894 
z
M 3022 2063 
Q 3016 2534 2758 2815 
Q 2500 3097 2075 3097 
Q 1594 3097 1305 2825 
Q 1016 2553 972 2059 
L 3022 2063 
z
" transform="scale(0.015625)"/>
      </defs>
      <use xlink:href="#DejaVuSans-74" transform="translate(0 0.015625)"/>
      <use xlink:href="#DejaVuSans-69" transform="translate(39.208984 0.015625)"/>
      <use xlink:href="#DejaVuSans-6d" transform="translate(66.992188 0.015625)"/>
      <use xlink:href="#DejaVuSans-65" transform="translate(164.404297 0.015625)"/>
     </g>
    </g>
   </g>
   <g id="patch_3">
    <path d="M 7.2 118.08 
L 342 118.08 
" style="fill: none; stroke: #000000; stroke-width: 0.8; stroke-linejoin: miter; stroke-linecap: square"/>
   </g>
  </g>
 </g>
 <defs>
  <clipPath id="p743ba757fc">
   <rect x="7.2" y="7.2" width="334.8" height="110.88"/>
  </clipPath>
 </defs>
</svg>
